<?xml version="1.0" encoding="utf-8"?>
<!-- Generator: Adobe Illustrator 16.0.0, SVG Export Plug-In . SVG Version: 6.00 Build 0)  -->
<!DOCTYPE svg PUBLIC "-//W3C//DTD SVG 1.1//EN" "http://www.w3.org/Graphics/SVG/1.1/DTD/svg11.dtd">
<svg version="1.1" id="Layer_1" xmlns="http://www.w3.org/2000/svg" xmlns:xlink="http://www.w3.org/1999/xlink" x="0px" y="0px"
	 width="30px" height="30px" viewBox="0 0 30 30" enable-background="new 0 0 30 30" xml:space="preserve">
<rect fill="#0CB5EC" width="30" height="30"/>
<g id="goverment-community_1_" transform="translate(19.000000, 19.000000)">
	<g id="Page-1_69_">
		<path id="Stroke-1_80_" fill="none" stroke="#FFFFFF" stroke-width="0.75" stroke-linejoin="round" d="M1.43-7.335
			c0,3.068-2.484,5.553-5.554,5.553c-3.068,0-5.555-2.484-5.555-5.553c0-3.069,2.486-5.556,5.555-5.556
			C-1.055-12.889,1.43-10.401,1.43-7.335z"/>
		<path id="Stroke-3_60_" fill="none" stroke="#FFFFFF" stroke-width="0.75" stroke-linejoin="round" d="M-1.531-1.409
			c0,3.064-2.487,5.554-5.554,5.554c-3.068,0-5.557-2.489-5.557-5.554c0-3.068,2.484-5.556,5.557-5.556
			C-4.019-6.965-1.531-4.479-1.531-1.409z"/>
		<path id="Stroke-5_40_" fill="none" stroke="#FFFFFF" stroke-width="0.75" stroke-linejoin="round" d="M4.393-1.409
			c0,3.064-2.486,5.554-5.552,5.554c-3.068,0-5.557-2.489-5.557-5.554c0-3.068,2.488-5.556,5.557-5.556
			C1.906-6.965,4.393-4.479,4.393-1.409z"/>
	</g>
</g>
</svg>
