<?xml version="1.0" encoding="utf-8"?>
<!-- Generator: Adobe Illustrator 16.0.0, SVG Export Plug-In . SVG Version: 6.00 Build 0)  -->
<!DOCTYPE svg PUBLIC "-//W3C//DTD SVG 1.1//EN" "http://www.w3.org/Graphics/SVG/1.1/DTD/svg11.dtd">
<svg version="1.1" id="Layer_1" xmlns="http://www.w3.org/2000/svg" xmlns:xlink="http://www.w3.org/1999/xlink" x="0px" y="0px"
	 width="30px" height="30px" viewBox="0 0 30 30" enable-background="new 0 0 30 30" xml:space="preserve">
<rect fill="#0CB5EC" width="30" height="30"/>
<g id="Page-1_67_" transform="translate(22.000000, 19.000000)">
	<g transform="translate(12.500000, 15.000000) scale(-1, 1) translate(-12.500000, -15.000000) ">
		<path id="Stroke-1_79_" fill="none" stroke="#FFFFFF" stroke-width="0.75" stroke-linecap="round" stroke-linejoin="round" d="
			M38.174-6.511c0,3.616-2.932,6.548-6.548,6.548s-6.548-2.932-6.548-6.548s2.932-6.548,6.548-6.548
			C35.24-13.059,38.174-10.127,38.174-6.511z"/>
		<path id="Stroke-3_59_" fill="none" stroke="#FFFFFF" stroke-width="0.75" stroke-linecap="round" stroke-linejoin="round" d="
			M31.217,2.492v1.229"/>
		<path id="Stroke-5_39_" fill="none" stroke="#FFFFFF" stroke-width="0.75" stroke-linecap="round" stroke-linejoin="round" d="
			M32.033,2.492v1.229"/>
		<path id="Stroke-7_32_" fill="none" stroke="#FFFFFF" stroke-width="0.75" stroke-linecap="round" stroke-linejoin="round" d="
			M36.521,5.36c-1.366-1.027-3.058-1.637-4.896-1.637c-1.84,0-3.529,0.611-4.896,1.637H36.521z"/>
		<path id="Stroke-9_31_" fill="none" stroke="#FFFFFF" stroke-width="0.75" stroke-linecap="round" stroke-linejoin="round" d="
			M37.991-12.878c3.515,3.516,3.515,9.219,0,12.734c-3.516,3.515-9.217,3.515-12.734,0"/>
		<path id="Stroke-11_23_" fill="none" stroke="#FFFFFF" stroke-width="0.75" stroke-linecap="round" stroke-linejoin="round" d="
			M37.412-12.297l1.157-1.157"/>
		<path id="Stroke-13_17_" fill="none" stroke="#FFFFFF" stroke-width="0.75" stroke-linecap="round" stroke-linejoin="round" d="
			M24.681,0.433l1.157-1.153"/>
	</g>
</g>
</svg>
