<?xml version="1.0" encoding="utf-8"?>
<!-- Generator: Adobe Illustrator 16.0.0, SVG Export Plug-In . SVG Version: 6.00 Build 0)  -->
<!DOCTYPE svg PUBLIC "-//W3C//DTD SVG 1.1//EN" "http://www.w3.org/Graphics/SVG/1.1/DTD/svg11.dtd">
<svg version="1.1" xmlns="http://www.w3.org/2000/svg" xmlns:xlink="http://www.w3.org/1999/xlink" x="0px" y="0px" width="150px"
	 height="85px" viewBox="0 0 150 85" style="enable-background:new 0 0 150 85;" xml:space="preserve">
<style type="text/css">
<![CDATA[
	.st0{display:inline;fill:none;stroke:#0CB5EC;stroke-width:0.2;stroke-miterlimit:10;}
	.st1{display:inline;fill:#BD00FF;}
	.st2{fill:none;stroke:#FFFFFF;stroke-width:0.3;stroke-miterlimit:10;}
	.st3{display:inline;fill:none;stroke:#0CB5EC;stroke-width:0.5;stroke-miterlimit:10;}
	.st4{fill:none;stroke:#FFFFFF;stroke-width:0.7;stroke-miterlimit:10;}
	.st5{fill:none;stroke:#FFFFFF;stroke-width:0.2;stroke-miterlimit:10;}
	.st6{fill:#FFFFFF;}
	.st7{display:inline;}
	.st8{fill-rule:evenodd;clip-rule:evenodd;fill:#FFFFFF;}
	.st9{display:inline;fill:none;stroke:#0CB5EC;stroke-width:0.3;stroke-miterlimit:10;}
	.st10{display:none;}
	.st11{fill:none;stroke:#FFFFFF;stroke-width:0.5;stroke-miterlimit:10;}
	.st12{fill:#0CB5EC;}
	.st13{display:inline;fill:none;stroke:#0CB5EC;stroke-width:0.7;stroke-miterlimit:10;}
]]>
</style>
<g id="Layer_2" class="st10">
	<rect class="st1" width="152" height="85"/>
</g>
<g id="Layer_1">
	<g>
		<path class="st8" d="M103.381,66.754c1.286-5.977,6.863-9.412,12.238-8.446c4.941,0.888,8.652,5.288,8.672,10.256
			c0.02,5.155-3.657,9.635-8.649,10.533c-5.262,0.946-11.023-2.331-12.266-8.276c-1.524,6.957-9.561,10.539-15.717,7.11
			c0,2.327,0,4.617,0,6.947c-1.805,0-3.538,0-5.313,0c0-8.765,0-17.522,0-26.286c0.069-0.022,0.123-0.056,0.177-0.056
			c3.672-0.008,7.343-0.043,11.014-0.009c3.959,0.038,8.661,2.721,9.745,7.814C103.302,66.438,103.327,66.533,103.381,66.754z
			 M92.778,74.001c3.085,0,5.479-2.312,5.462-5.277c-0.016-2.902-2.422-5.324-5.32-5.354c-2.972-0.032-5.44,2.302-5.467,5.168
			C87.424,71.625,89.74,74.002,92.778,74.001z M118.969,68.589c0.016-2.8-2.322-5.171-5.143-5.219
			c-2.859-0.05-5.243,2.383-5.269,5.371c-0.023,2.892,2.312,5.249,5.212,5.26C116.667,74.013,118.954,71.633,118.969,68.589z"/>
		<path class="st8" d="M48.667,78.827c-1.832,0-3.55,0-5.345,0c0-5.025,0-10.048,0-15.128c-1.264,0-2.454,0-3.69,0
			c0.761,1.931,0.65,3.963,0.651,5.984c0.002,2.809,0,5.618,0,8.428c0,0.234,0,0.468,0,0.725c-1.806,0-3.525,0-5.339,0
			c0-0.255,0-0.486,0-0.717c0-3.412,0.004-6.823-0.005-10.234c-0.001-0.459-0.034-0.924-0.11-1.375
			c-0.253-1.481-1.127-2.463-2.545-2.916c-1.474-0.471-2.818-0.168-3.963,0.877c-0.729,0.666-0.971,1.56-0.977,2.508
			c-0.02,3.691-0.019,7.383-0.024,11.075c0,0.237,0,0.476,0,0.76c-1.782,0-3.516,0-5.295,0c0-6.746,0-13.495,0-20.285
			c0.331,0,0.63,0.001,0.93,0c2.949-0.001,5.9-0.076,8.847,0.018c3.418,0.109,6.085,1.57,7.656,4.735
			c0.023,0.048,0.065,0.088,0.193,0.258c0-1.733,0-3.336,0-4.993c1.237,0,2.39,0,3.628,0c0-2.045,0-4.035,0-6.061
			c1.819,0,3.553,0,5.341,0c0,2.011,0,3.988,0,6.025c4.557,0,9.061,0,13.601,0c0,1.633,0,3.206,0,4.804
			c-0.703,0.081-1.403,0.118-2.085,0.248c-1.527,0.291-2.619,1.481-2.73,3.014c-0.073,1.018-0.059,2.044-0.061,3.065
			c-0.007,2.829-0.002,5.659-0.002,8.488c0,0.217,0,0.435,0,0.69c-1.787,0-3.52,0-5.315,0c0-5.05,0-10.075,0-15.136
			c-1.137,0-2.213,0-3.359,0C48.667,68.706,48.667,73.73,48.667,78.827z"/>
		<path class="st8" d="M130.991,58.552c1.778,0,3.499,0,5.298,0c0,4.061,0,8.099,0,12.19c1.676,0,3.273,0,4.912,0
			c0,0.522,0.013,0.992-0.003,1.462c-0.039,1.239,1.044,2.088,2.21,1.715c0.518-0.164,0.868-0.509,0.954-1.056
			c0.086-0.552-0.024-1.09-0.542-1.365c-0.612-0.325-1.267-0.589-1.927-0.807c-1.205-0.397-2.399-0.8-3.367-1.667
			c-2.798-2.507-2.696-6.784,0.22-9.181c1.873-1.539,4.068-1.834,6.422-1.656c0,1.724,0,3.416,0,5.179
			c-0.428,0-0.832-0.053-1.216,0.013c-0.563,0.095-1.149,0.196-1.656,0.441c-0.63,0.307-0.624,0.959-0.005,1.304
			c0.502,0.279,1.063,0.462,1.612,0.643c1.414,0.468,2.804,0.986,3.925,2.015c2.086,1.913,2.529,5.279,1.021,7.975
			c-1.277,2.282-3.311,3.376-5.874,3.475c-2.7,0.104-4.748-1.078-6.182-3.348c-0.146-0.23-0.267-0.479-0.494-0.709
			c0,1.204,0,2.408,0,3.647c-1.805,0-3.537,0-5.308,0C130.991,72.065,130.991,65.333,130.991,58.552z"/>
		<path class="st8" d="M12.871,74.21c0,1.546,0,3.226,0,4.901c-3.683,0.542-8.065-0.892-10.531-4.768
			c-2.494-3.921-2.049-9.261,1.062-12.749c3.06-3.431,8.164-4.418,12.389-2.396c4.213,2.016,6.731,7.013,5.916,11.815
			c-5.018,0-10.045,0-15.197,0c0.67,1.234,1.593,2.075,2.778,2.469C10.423,73.861,11.646,73.974,12.871,74.21z M15.673,65.858
			c-1.105-1.565-2.533-2.452-4.358-2.466c-1.887-0.014-3.404,0.82-4.555,2.466C9.766,65.858,12.669,65.858,15.673,65.858z"/>
		<path class="st8" d="M60.914,68.8c0-5.915,4.719-10.664,10.583-10.649c5.736,0.015,10.453,4.766,10.449,10.526
			c-0.004,5.891-4.722,10.568-10.655,10.563C65.591,79.235,60.914,74.53,60.914,68.8z M76.608,68.575
			c0.165-2.785-2.323-5.132-5.131-5.197c-2.871-0.067-5.243,2.397-5.245,5.381c-0.002,2.911,2.322,5.245,5.223,5.242
			C74.38,73.999,76.607,71.654,76.608,68.575z"/>
		<path class="st8" d="M124.664,52.489c0.162-0.015,0.319-0.039,0.475-0.039c1.582-0.003,3.162-0.002,4.776-0.002
			c0,8.819,0,17.576,0,26.372c-1.753,0-3.484,0-5.251,0C124.664,70.038,124.664,61.28,124.664,52.489z"/>
	</g>
	<g class="st10">
		<polyline class="st3" points="54.466,50.467 54.466,33.475 61.972,33.475 61.972,41.154 		"/>
		<polyline class="st3" points="58.219,50.467 58.219,41.075 63.569,41.075 63.569,50.467 		"/>
		<polyline class="st3" points="61.253,33.475 61.253,23.911 64.287,23.911 		"/>
		<polyline class="st3" points="64.447,50.467 64.447,10.588 65.806,9.804 65.806,8.744 66.484,8.744 66.484,7.96 66.923,7.96 
			66.923,5.452 		"/>
		<polyline class="st3" points="66.923,7.96 67.562,7.96 67.562,8.98 68.561,8.98 68.561,9.804 69.958,10.822 69.958,50.467 		"/>
		<polyline class="st9" points="71.262,50.467 71.262,1 78.552,1 78.552,50.467 		"/>
		<polyline class="st9" points="79.148,50.467 79.148,39.143 83.988,39.143 83.988,50.221 		"/>
		<line class="st9" x1="80.313" y1="38.875" x2="80.313" y2="16.148"/>
		<polyline class="st3" points="80.313,15.885 81.378,15.885 81.378,11.024 		"/>
		<line class="st9" x1="80.847" y1="10.712" x2="86.568" y2="10.712"/>
		<polyline class="st3" points="86.115,10.712 86.115,13.458 87.022,13.458 		"/>
		<line class="st0" x1="87.022" y1="13.458" x2="87.022" y2="14.631"/>
		<polyline class="st9" points="86.329,24.14 86.329,14.842 89.311,14.842 		"/>
		<polyline class="st9" points="81.646,38.875 81.646,29.834 88.99,21.53 88.99,50.467 		"/>
		<polyline class="st3" points="89.789,50.467 89.789,10.139 93.836,10.139 93.836,50.215 		"/>
		<polyline class="st3" points="94.102,15.1 99.746,15.1 99.746,30.304 		"/>
		<polyline class="st13" points="95.273,50.164 95.273,30.568 101.502,30.568 101.502,50.164 		"/>
		<g class="st7">
			<ellipse class="st12" cx="66.445" cy="19.33" rx="0.479" ry="0.47"/>
			<ellipse class="st12" cx="66.445" cy="21.273" rx="0.479" ry="0.47"/>
			<ellipse class="st12" cx="66.445" cy="23.212" rx="0.477" ry="0.469"/>
			<ellipse class="st12" cx="66.445" cy="25.154" rx="0.477" ry="0.469"/>
			<ellipse class="st12" cx="66.445" cy="27.096" rx="0.479" ry="0.47"/>
			<ellipse class="st12" cx="66.445" cy="29.039" rx="0.479" ry="0.47"/>
			<ellipse class="st12" cx="66.445" cy="30.979" rx="0.479" ry="0.47"/>
			<ellipse class="st12" cx="66.445" cy="32.919" rx="0.479" ry="0.47"/>
			<ellipse class="st12" cx="66.445" cy="34.859" rx="0.479" ry="0.47"/>
			<ellipse class="st12" cx="66.445" cy="36.802" rx="0.479" ry="0.471"/>
			<ellipse class="st12" cx="66.445" cy="40.684" rx="0.479" ry="0.47"/>
			<ellipse class="st12" cx="66.445" cy="42.625" rx="0.479" ry="0.471"/>
			<ellipse class="st12" cx="66.445" cy="46.506" rx="0.479" ry="0.471"/>
			<ellipse class="st12" cx="66.445" cy="38.742" rx="0.477" ry="0.47"/>
			<ellipse class="st12" cx="66.445" cy="48.448" rx="0.479" ry="0.47"/>
			<ellipse class="st12" cx="66.445" cy="44.567" rx="0.479" ry="0.47"/>
		</g>
		<g class="st7">
			<ellipse class="st12" cx="91.812" cy="36.246" rx="0.219" ry="0.213"/>
			<ellipse class="st12" cx="91.812" cy="37.128" rx="0.219" ry="0.212"/>
			<ellipse class="st12" cx="91.812" cy="38.008" rx="0.219" ry="0.213"/>
			<ellipse class="st12" cx="91.812" cy="38.884" rx="0.219" ry="0.212"/>
			<ellipse class="st12" cx="91.812" cy="39.762" rx="0.219" ry="0.213"/>
			<ellipse class="st12" cx="91.812" cy="40.641" rx="0.219" ry="0.213"/>
			<ellipse class="st12" cx="91.812" cy="41.521" rx="0.219" ry="0.213"/>
			<ellipse class="st12" cx="91.812" cy="42.401" rx="0.219" ry="0.213"/>
			<ellipse class="st12" cx="91.812" cy="43.28" rx="0.219" ry="0.212"/>
			<path class="st12" d="M91.812,43.947c0.119,0,0.219,0.096,0.219,0.215c0,0.115-0.1,0.213-0.219,0.213s-0.215-0.098-0.215-0.213
				C91.597,44.043,91.692,43.947,91.812,43.947z"/>
			<ellipse class="st12" cx="91.812" cy="45.921" rx="0.219" ry="0.212"/>
			<ellipse class="st12" cx="91.812" cy="46.793" rx="0.219" ry="0.213"/>
			<ellipse class="st12" cx="91.812" cy="48.555" rx="0.219" ry="0.213"/>
			<ellipse class="st12" cx="91.812" cy="45.036" rx="0.219" ry="0.212"/>
			<ellipse class="st12" cx="91.812" cy="49.434" rx="0.219" ry="0.213"/>
			<ellipse class="st12" cx="91.812" cy="47.676" rx="0.219" ry="0.213"/>
		</g>
		<g class="st7">
			<ellipse class="st12" cx="91.812" cy="22.077" rx="0.219" ry="0.213"/>
			<ellipse class="st12" cx="91.812" cy="22.957" rx="0.219" ry="0.213"/>
			<ellipse class="st12" cx="91.812" cy="23.838" rx="0.219" ry="0.213"/>
			<ellipse class="st12" cx="91.812" cy="24.713" rx="0.219" ry="0.213"/>
			<ellipse class="st12" cx="91.812" cy="25.593" rx="0.219" ry="0.213"/>
			<ellipse class="st12" cx="91.812" cy="26.473" rx="0.219" ry="0.212"/>
			<ellipse class="st12" cx="91.812" cy="27.352" rx="0.219" ry="0.213"/>
			<ellipse class="st12" cx="91.812" cy="28.233" rx="0.219" ry="0.213"/>
			<ellipse class="st12" cx="91.812" cy="29.112" rx="0.219" ry="0.213"/>
			<ellipse class="st12" cx="91.812" cy="29.99" rx="0.219" ry="0.213"/>
			<ellipse class="st12" cx="91.812" cy="31.75" rx="0.219" ry="0.213"/>
			<ellipse class="st12" cx="91.812" cy="32.625" rx="0.219" ry="0.212"/>
			<ellipse class="st12" cx="91.812" cy="34.385" rx="0.219" ry="0.213"/>
			<ellipse class="st12" cx="91.812" cy="30.867" rx="0.219" ry="0.213"/>
			<ellipse class="st12" cx="91.812" cy="35.264" rx="0.219" ry="0.213"/>
			<ellipse class="st12" cx="91.812" cy="33.505" rx="0.219" ry="0.213"/>
		</g>
		<g class="st7">
			<ellipse class="st12" cx="91.812" cy="7.99" rx="0.219" ry="0.213"/>
			<ellipse class="st12" cx="91.812" cy="8.87" rx="0.219" ry="0.213"/>
			<ellipse class="st12" cx="91.812" cy="9.751" rx="0.219" ry="0.213"/>
			<ellipse class="st12" cx="91.812" cy="10.63" rx="0.219" ry="0.213"/>
			<ellipse class="st12" cx="91.812" cy="11.508" rx="0.219" ry="0.213"/>
			<ellipse class="st12" cx="91.812" cy="12.386" rx="0.219" ry="0.213"/>
			<ellipse class="st12" cx="91.812" cy="13.267" rx="0.219" ry="0.213"/>
			<ellipse class="st12" cx="91.812" cy="14.146" rx="0.219" ry="0.213"/>
			<ellipse class="st12" cx="91.812" cy="15.025" rx="0.219" ry="0.213"/>
			<ellipse class="st12" cx="91.812" cy="15.905" rx="0.219" ry="0.213"/>
			<ellipse class="st12" cx="91.812" cy="17.663" rx="0.219" ry="0.213"/>
			<ellipse class="st12" cx="91.812" cy="18.538" rx="0.219" ry="0.213"/>
			<ellipse class="st12" cx="91.812" cy="20.298" rx="0.219" ry="0.213"/>
			<ellipse class="st12" cx="91.812" cy="16.781" rx="0.219" ry="0.213"/>
			<ellipse class="st12" cx="91.812" cy="21.181" rx="0.219" ry="0.212"/>
			<ellipse class="st12" cx="91.812" cy="19.42" rx="0.219" ry="0.213"/>
		</g>
	</g>
	<g>
		<polyline class="st11" points="54.667,50.496 54.667,33.494 62.038,33.494 62.038,41.177 		"/>
		<polyline class="st11" points="58.353,50.496 58.353,41.099 63.608,41.099 63.608,50.496 		"/>
		<polyline class="st11" points="61.334,33.494 61.334,23.924 64.316,23.924 		"/>
		<polyline class="st11" points="64.47,50.496 64.47,10.594 65.805,9.809 65.805,8.749 66.469,8.749 66.469,7.964 66.902,7.964 
			66.902,5.455 		"/>
		<polyline class="st11" points="66.902,7.964 67.531,7.964 67.531,8.985 68.508,8.985 68.508,9.809 69.884,10.829 69.884,50.496 		
			"/>
		<polyline class="st2" points="71.162,50.496 71.162,1 78.318,1 78.318,50.496 		"/>
		<polyline class="st2" points="78.911,50.496 78.911,39.167 83.659,39.167 83.659,50.249 		"/>
		<line class="st2" x1="80.053" y1="38.898" x2="80.053" y2="16.157"/>
		<polyline class="st11" points="80.053,15.894 81.1,15.894 81.1,11.03 		"/>
		<line class="st2" x1="80.573" y1="10.718" x2="86.191" y2="10.718"/>
		<polyline class="st11" points="85.752,10.718 85.752,13.465 86.64,13.465 		"/>
		<line class="st5" x1="86.64" y1="13.465" x2="86.64" y2="14.639"/>
		<polyline class="st2" points="85.96,24.154 85.96,14.85 88.889,14.85 		"/>
		<polyline class="st2" points="81.357,38.898 81.357,29.851 88.573,21.542 88.573,50.496 		"/>
		<polyline class="st11" points="89.358,50.496 89.358,10.144 93.333,10.144 93.333,50.242 		"/>
		<polyline class="st11" points="93.59,15.108 99.133,15.108 99.133,30.321 		"/>
		<polyline class="st4" points="94.74,50.192 94.74,30.586 100.857,30.586 100.857,50.192 		"/>
		<g>
			<circle class="st6" cx="66.432" cy="19.341" r="0.47"/>
			<circle class="st6" cx="66.432" cy="21.285" r="0.47"/>
			<circle class="st6" cx="66.432" cy="23.226" r="0.469"/>
			<circle class="st6" cx="66.432" cy="25.168" r="0.47"/>
			<circle class="st6" cx="66.432" cy="27.112" r="0.47"/>
			<circle class="st6" cx="66.432" cy="29.055" r="0.47"/>
			<circle class="st6" cx="66.432" cy="30.996" r="0.47"/>
			<circle class="st6" cx="66.432" cy="32.938" r="0.47"/>
			<circle class="st6" cx="66.432" cy="34.879" r="0.47"/>
			<circle class="st6" cx="66.432" cy="36.823" r="0.471"/>
			<circle class="st6" cx="66.432" cy="40.707" r="0.47"/>
			<circle class="st6" cx="66.432" cy="42.649" r="0.47"/>
			<circle class="st6" cx="66.432" cy="46.532" r="0.47"/>
			<circle class="st6" cx="66.432" cy="38.764" r="0.469"/>
			<circle class="st6" cx="66.432" cy="48.476" r="0.471"/>
			<circle class="st6" cx="66.432" cy="44.593" r="0.47"/>
		</g>
		<g>
			<circle class="st6" cx="91.341" cy="36.267" r="0.213"/>
			<circle class="st6" cx="91.341" cy="37.15" r="0.212"/>
			<circle class="st6" cx="91.341" cy="38.029" r="0.213"/>
			<circle class="st6" cx="91.341" cy="38.906" r="0.213"/>
			<circle class="st6" cx="91.341" cy="39.785" r="0.213"/>
			<circle class="st6" cx="91.341" cy="40.664" r="0.213"/>
			<circle class="st6" cx="91.341" cy="41.545" r="0.213"/>
			<circle class="st6" cx="91.341" cy="42.425" r="0.213"/>
			<circle class="st6" cx="91.341" cy="43.305" r="0.212"/>
			<circle class="st6" cx="91.341" cy="44.186" r="0.213"/>
			<circle class="st6" cx="91.341" cy="45.947" r="0.213"/>
			<circle class="st6" cx="91.341" cy="46.819" r="0.213"/>
			<circle class="st6" cx="91.341" cy="48.582" r="0.213"/>
			<circle class="st6" cx="91.341" cy="45.062" r="0.213"/>
			<circle class="st6" cx="91.341" cy="49.463" r="0.213"/>
			<circle class="st6" cx="91.341" cy="47.703" r="0.213"/>
		</g>
		<g>
			<circle class="st6" cx="91.341" cy="22.089" r="0.213"/>
			<circle class="st6" cx="91.341" cy="22.97" r="0.213"/>
			<circle class="st6" cx="91.341" cy="23.852" r="0.213"/>
			<circle class="st6" cx="91.341" cy="24.727" r="0.213"/>
			<circle class="st6" cx="91.341" cy="25.608" r="0.213"/>
			<circle class="st6" cx="91.341" cy="26.488" r="0.212"/>
			<circle class="st6" cx="91.341" cy="27.367" r="0.213"/>
			<circle class="st6" cx="91.341" cy="28.25" r="0.213"/>
			<circle class="st6" cx="91.341" cy="29.128" r="0.213"/>
			<circle class="st6" cx="91.341" cy="30.007" r="0.213"/>
			<circle class="st6" cx="91.341" cy="31.768" r="0.213"/>
			<circle class="st6" cx="91.341" cy="32.643" r="0.212"/>
			<circle class="st6" cx="91.341" cy="34.405" r="0.213"/>
			<circle class="st6" cx="91.341" cy="30.884" r="0.213"/>
			<circle class="st6" cx="91.341" cy="35.284" r="0.213"/>
			<circle class="st6" cx="91.341" cy="33.524" r="0.213"/>
		</g>
		<g>
			<circle class="st6" cx="91.341" cy="7.994" r="0.213"/>
			<circle class="st6" cx="91.341" cy="8.875" r="0.213"/>
			<circle class="st6" cx="91.341" cy="9.757" r="0.213"/>
			<circle class="st6" cx="91.341" cy="10.635" r="0.213"/>
			<circle class="st6" cx="91.341" cy="11.514" r="0.213"/>
			<circle class="st6" cx="91.341" cy="12.393" r="0.213"/>
			<circle class="st6" cx="91.341" cy="13.274" r="0.213"/>
			<circle class="st6" cx="91.341" cy="14.154" r="0.213"/>
			<circle class="st6" cx="91.341" cy="15.033" r="0.213"/>
			<circle class="st6" cx="91.341" cy="15.914" r="0.213"/>
			<circle class="st6" cx="91.341" cy="17.673" r="0.213"/>
			<circle class="st6" cx="91.341" cy="18.549" r="0.213"/>
			<circle class="st6" cx="91.341" cy="20.31" r="0.213"/>
			<circle class="st6" cx="91.341" cy="16.791" r="0.213"/>
			<circle class="st6" cx="91.341" cy="21.193" r="0.212"/>
			<circle class="st6" cx="91.341" cy="19.431" r="0.213"/>
		</g>
	</g>
</g>
</svg>
