<?xml version="1.0" encoding="utf-8"?>
<!-- Generator: Adobe Illustrator 16.0.0, SVG Export Plug-In . SVG Version: 6.00 Build 0)  -->
<!DOCTYPE svg PUBLIC "-//W3C//DTD SVG 1.1//EN" "http://www.w3.org/Graphics/SVG/1.1/DTD/svg11.dtd">
<svg version="1.1" id="Layer_1" xmlns="http://www.w3.org/2000/svg" xmlns:xlink="http://www.w3.org/1999/xlink" x="0px" y="0px"
	 width="30px" height="30px" viewBox="0 0 30 30" enable-background="new 0 0 30 30" xml:space="preserve">
<path fill="#0CB5EC" d="M30,26.119C30,28.262,28.229,30,26.044,30H3.955C1.771,30,0,28.262,0,26.119V3.881C0,1.737,1.771,0,3.955,0
	h22.089C28.229,0,30,1.737,30,3.881V26.119z"/>
<g>
	<polygon fill="#FFFFFF" points="27.642,17.518 21.401,11.278 20.444,12.257 25.021,16.833 10.619,16.833 10.619,18.199 
		25.021,18.199 20.444,22.773 21.401,23.758 	"/>
</g>
<g>
	<polygon fill="#FFFFFF" points="1.701,11.547 7.939,17.786 8.896,16.806 4.318,12.231 18.722,12.231 18.722,10.864 4.318,10.864 
		8.896,6.288 7.939,5.308 	"/>
</g>
</svg>
