<?xml version="1.0" encoding="utf-8"?>
<!-- Generator: Adobe Illustrator 16.0.0, SVG Export Plug-In . SVG Version: 6.00 Build 0)  -->
<!DOCTYPE svg PUBLIC "-//W3C//DTD SVG 1.1//EN" "http://www.w3.org/Graphics/SVG/1.1/DTD/svg11.dtd">
<svg version="1.1" id="Layer_1" xmlns="http://www.w3.org/2000/svg" xmlns:xlink="http://www.w3.org/1999/xlink" x="0px" y="0px"
	 width="18px" height="18px" viewBox="0 0 18 18" enable-background="new 0 0 18 18" xml:space="preserve">
<g>
	<path fill="#224089" d="M16.782,3.431L14.607,1.23c-0.962-0.969-2.524-0.976-3.488-0.011L8.707,3.629
		c-0.966,0.964-0.97,2.534-0.01,3.504l1.377-1.355c-0.138-0.432,0.033-0.927,0.374-1.268l1.535-1.531
		c0.486-0.483,1.266-0.481,1.745,0.006l1.307,1.32c0.479,0.485,0.478,1.269-0.006,1.752l-1.535,1.532
		c-0.324,0.324-0.858,0.501-1.271,0.387l-1.35,1.357c0.961,0.97,2.522,0.975,3.489,0.012l2.409-2.406
		C17.739,5.972,17.743,4.403,16.782,3.431z"/>
	<path fill="#224089" d="M7.95,12.246c0.115,0.42-0.069,0.966-0.4,1.298l-1.434,1.434c-0.491,0.491-1.286,0.487-1.776-0.008
		l-1.332-1.343c-0.488-0.492-0.485-1.298,0.006-1.787l1.434-1.432c0.35-0.348,0.852-0.524,1.291-0.376L7.122,8.63
		C6.143,7.642,4.55,7.638,3.567,8.62l-2.327,2.323c-0.984,0.984-0.989,2.583-0.011,3.573l2.215,2.24
		c0.977,0.986,2.569,0.991,3.554,0.01l2.326-2.324c0.982-0.984,0.986-2.582,0.01-3.573L7.95,12.246z"/>
	<path fill="#224089" d="M6.438,11.605c0.326,0.336,0.859,0.34,1.191,0.004l3.974-4.045c0.331-0.337,0.333-0.881,0.004-1.219
		c-0.327-0.335-0.858-0.338-1.188-0.003l-3.976,4.044C6.113,10.722,6.111,11.268,6.438,11.605z"/>
</g>
</svg>
