<?xml version="1.0" encoding="utf-8"?>
<!-- Generator: Adobe Illustrator 16.0.0, SVG Export Plug-In . SVG Version: 6.00 Build 0)  -->
<!DOCTYPE svg PUBLIC "-//W3C//DTD SVG 1.1//EN" "http://www.w3.org/Graphics/SVG/1.1/DTD/svg11.dtd">
<svg version="1.1" id="Layer_1" xmlns="http://www.w3.org/2000/svg" xmlns:xlink="http://www.w3.org/1999/xlink" x="0px" y="0px"
	 width="100px" height="100px" viewBox="0 0 100 100" enable-background="new 0 0 100 100" xml:space="preserve">
<g>
	<rect fill="#2DB4E9" width="100.466" height="100"/>
	<g>
		<g>
			
				<polygon fill="none" stroke="#FFFFFF" stroke-width="1.2346" stroke-linecap="round" stroke-linejoin="round" stroke-miterlimit="10" points="
				59.151,72.992 59.151,67.718 51.239,65.081 43.326,67.718 43.326,72.992 			"/>
			
				<polygon fill="none" stroke="#FFFFFF" stroke-width="1.2346" stroke-linecap="round" stroke-linejoin="round" stroke-miterlimit="10" points="
				80.25,72.992 80.25,67.718 72.337,65.081 64.426,67.718 64.426,72.992 			"/>
			
				<polygon fill="none" stroke="#FFFFFF" stroke-width="1.2346" stroke-linecap="round" stroke-linejoin="round" stroke-miterlimit="10" points="
				56.514,59.807 51.239,62.443 45.965,59.807 45.965,53.213 51.239,50.575 56.514,53.213 			"/>
			
				<polygon fill="none" stroke="#FFFFFF" stroke-width="1.2346" stroke-linecap="round" stroke-linejoin="round" stroke-miterlimit="10" points="
				77.613,59.807 72.337,62.443 67.063,59.807 67.063,53.213 72.337,50.575 77.613,53.213 			"/>
			
				<polyline fill="none" stroke="#FFFFFF" stroke-width="1.2346" stroke-linecap="round" stroke-linejoin="round" stroke-miterlimit="10" points="
				40.69,25.521 40.69,12.334 80.25,12.334 80.25,41.345 48.602,41.345 			"/>
		</g>
		<g>
			
				<polygon fill="none" stroke="#FFFFFF" stroke-width="1.2346" stroke-linecap="round" stroke-linejoin="round" stroke-miterlimit="10" points="
				22.229,25.521 27.503,28.158 32.777,25.521 32.777,17.608 27.503,14.971 22.229,17.608 			"/>
			
				<line fill="none" stroke="#FFFFFF" stroke-width="1.2346" stroke-linecap="round" stroke-linejoin="round" stroke-miterlimit="10" x1="32.777" y1="18.927" x2="22.229" y2="21.565"/>
			
				<line fill="none" stroke="#FFFFFF" stroke-width="1.2346" stroke-linecap="round" stroke-linejoin="round" stroke-miterlimit="10" x1="27.503" y1="36.07" x2="27.503" y2="43.982"/>
			
				<line fill="none" stroke="#FFFFFF" stroke-width="1.2346" stroke-linecap="round" stroke-linejoin="round" stroke-miterlimit="10" x1="35.415" y1="51.894" x2="19.591" y2="51.894"/>
			
				<polyline fill="none" stroke="#FFFFFF" stroke-width="1.2346" stroke-linecap="round" stroke-linejoin="round" stroke-miterlimit="10" points="
				19.591,32.773 27.503,30.795 49.921,33.433 35.415,41.345 35.415,72.992 27.503,57.168 19.591,72.992 19.591,41.345 			"/>
		</g>
	</g>
	<text transform="matrix(1 0 0 1 22.6074 91.584)" fill="#FFFFFF" font-family="'Rubik-Bold'" font-size="13.345">Educators</text>
</g>
</svg>
