<?xml version="1.0" encoding="utf-8"?>
<!-- Generator: Adobe Illustrator 16.0.0, SVG Export Plug-In . SVG Version: 6.00 Build 0)  -->
<!DOCTYPE svg PUBLIC "-//W3C//DTD SVG 1.1//EN" "http://www.w3.org/Graphics/SVG/1.1/DTD/svg11.dtd">
<svg version="1.1" id="Layer_1" xmlns="http://www.w3.org/2000/svg" xmlns:xlink="http://www.w3.org/1999/xlink" x="0px" y="0px"
	 width="560px" height="788.976px" viewBox="0 0 560 788.976" enable-background="new 0 0 560 788.976" xml:space="preserve">
<rect x="2.193" y="0.976" display="none" fill="#EC1E24" stroke="#231F20" stroke-miterlimit="10" width="557.807" height="788"/>
<g>
	<path fill="none" stroke="#FFFFFF" stroke-linecap="round" stroke-linejoin="round" stroke-miterlimit="10" d="M38.3,189.173
		c0,0,1.721-1.263,1.721-2.197c0-1.08-1.409-1.42-1.721-0.107c-0.313-1.313-1.723-0.973-1.723,0.107
		C36.577,187.91,38.3,189.173,38.3,189.173z"/>
	<polyline fill="none" stroke="#FFFFFF" stroke-linecap="round" stroke-linejoin="round" stroke-miterlimit="10" points="
		33.628,192.613 23.846,192.613 23.846,176.046 32.455,176.046 36.368,179.991 36.368,182.751 	"/>
	<polyline fill="none" stroke="#FFFFFF" stroke-linecap="round" stroke-linejoin="round" stroke-miterlimit="10" points="
		32.455,176.442 32.455,179.991 35.977,179.991 	"/>
	
		<ellipse transform="matrix(1 -0.0096 0.0096 1 -1.8047 0.378)" fill="none" stroke="#FFFFFF" stroke-linecap="round" stroke-linejoin="round" stroke-miterlimit="10" cx="38.324" cy="187.484" rx="3.522" ry="3.551"/>
	<polyline fill="none" stroke="#FFFFFF" stroke-linecap="round" stroke-linejoin="round" stroke-miterlimit="10" points="
		40.245,190.459 41.063,194.19 35.584,194.19 36.416,190.468 	"/>
	
		<line fill="none" stroke="#FFFFFF" stroke-linecap="round" stroke-linejoin="round" stroke-miterlimit="10" x1="26.586" y1="182.357" x2="30.498" y2="182.357"/>
	
		<line fill="none" stroke="#FFFFFF" stroke-linecap="round" stroke-linejoin="round" stroke-miterlimit="10" x1="26.586" y1="184.724" x2="32.064" y2="184.724"/>
	
		<line fill="none" stroke="#FFFFFF" stroke-linecap="round" stroke-linejoin="round" stroke-miterlimit="10" x1="26.586" y1="187.089" x2="32.064" y2="187.089"/>
	
		<line fill="none" stroke="#FFFFFF" stroke-linecap="round" stroke-linejoin="round" stroke-miterlimit="10" x1="26.586" y1="189.457" x2="32.064" y2="189.457"/>
</g>
<g>
	<defs>
		<path id="SVGID_1_" d="M30.15,218.264c-0.646-0.004-1.256,0.257-1.715,0.736c-0.46,0.479-0.715,1.118-0.719,1.8l-0.054,9.721
			c-0.005,0.994,0.758,1.807,1.699,1.813c0.458,0.002,0.888-0.183,1.212-0.521c0.325-0.339,0.504-0.79,0.507-1.271l0.04-7.102
			c0-0.167-0.127-0.306-0.287-0.306c-0.16-0.001-0.29,0.134-0.291,0.303l-0.04,7.101c-0.004,0.638-0.533,1.19-1.138,1.186
			c-0.625-0.005-1.129-0.542-1.125-1.2l0.055-9.722c0.002-0.518,0.196-1.004,0.547-1.369c0.351-0.365,0.813-0.564,1.305-0.561
			c1.015,0.006,1.836,0.883,1.831,1.953l-0.067,12.155c-0.008,1.483-1.16,2.682-2.567,2.674c-0.681-0.003-1.32-0.288-1.8-0.799
			c-0.479-0.511-0.741-1.188-0.737-1.906l0.053-9.536c0.002-0.167-0.127-0.304-0.287-0.306c-0.159-0.001-0.29,0.134-0.291,0.303
			l-0.053,9.534c-0.006,0.882,0.316,1.712,0.903,2.339c0.588,0.627,1.373,0.975,2.208,0.98c0.862,0.004,1.647-0.36,2.217-0.954
			c0.571-0.593,0.926-1.416,0.931-2.326l0.067-12.155C32.563,219.423,31.483,218.272,30.15,218.264"/>
	</defs>
	<clipPath id="SVGID_2_">
		<use xlink:href="#SVGID_1_"  overflow="visible"/>
	</clipPath>
	<g clip-path="url(#SVGID_2_)">
		<defs>
			<rect id="SVGID_3_" x="24.638" y="217.469" width="9.534" height="19.861"/>
		</defs>
		<clipPath id="SVGID_4_">
			<use xlink:href="#SVGID_3_"  overflow="visible"/>
		</clipPath>
		<rect x="22.255" y="214.292" clip-path="url(#SVGID_4_)" fill="#FFFFFF" width="14.272" height="25.945"/>
	</g>
</g>
<g>
	<g>
		<defs>
			<rect id="SVGID_5_" x="18.587" y="385.055" width="13.56" height="13.084"/>
		</defs>
		<clipPath id="SVGID_6_">
			<use xlink:href="#SVGID_5_"  overflow="visible"/>
		</clipPath>
		<g clip-path="url(#SVGID_6_)">
			<defs>
				<rect id="SVGID_7_" x="18.587" y="384.697" width="18.161" height="15.002"/>
			</defs>
			<clipPath id="SVGID_8_">
				<use xlink:href="#SVGID_7_"  overflow="visible"/>
			</clipPath>
			<g clip-path="url(#SVGID_8_)" enable-background="new    ">
				<g>
					<defs>
						<rect id="SVGID_9_" x="18.587" y="384.697" width="14.212" height="14.213"/>
					</defs>
					<clipPath id="SVGID_10_">
						<use xlink:href="#SVGID_9_"  overflow="visible"/>
					</clipPath>
					<g clip-path="url(#SVGID_10_)">
						<defs>
							<path id="SVGID_11_" d="M32.147,389.993c0-2.724-2.074-4.939-4.623-4.939H23.21c-2.549,0-4.624,2.215-4.624,4.939
								c0,2.287,1.46,4.255,3.511,4.793v2.996c0,0.141,0.083,0.267,0.214,0.326c0.048,0.021,0.099,0.031,0.15,0.031
								c0.086,0,0.171-0.029,0.24-0.089l3.6-3.118h1.222C30.073,394.932,32.147,392.716,32.147,389.993z M26.165,394.217
								c-0.088,0-0.174,0.033-0.241,0.09l-3.1,2.685v-2.489c0-0.172-0.124-0.319-0.293-0.352c-1.865-0.355-3.218-2.104-3.218-4.158
								c0-2.33,1.749-4.224,3.897-4.224h4.313c2.148,0,3.897,1.895,3.897,4.224c0,2.329-1.749,4.224-3.897,4.224H26.165z"/>
						</defs>
						<clipPath id="SVGID_12_">
							<use xlink:href="#SVGID_11_"  overflow="visible"/>
						</clipPath>
						<g clip-path="url(#SVGID_12_)">
							<defs>
								<rect id="SVGID_13_" x="18.587" y="384.697" width="14.212" height="14.213"/>
							</defs>
							<clipPath id="SVGID_14_">
								<use xlink:href="#SVGID_13_"  overflow="visible"/>
							</clipPath>
							<rect x="14.639" y="381.106" clip-path="url(#SVGID_14_)" fill="#FFFFFF" width="21.456" height="20.981"/>
						</g>
					</g>
				</g>
			</g>
		</g>
	</g>
	<g>
		<defs>
			<path id="SVGID_15_" d="M33.204,390.347c-0.202,0-0.364,0.16-0.364,0.357c0,0.197,0.162,0.357,0.364,0.357
				c1.465,0,2.657,1.297,2.657,2.891c0,1.571-1.13,2.84-2.574,2.89c-0.196,0.006-0.35,0.164-0.35,0.356v1.151l-1.359-1.395
				c-0.069-0.071-0.164-0.111-0.262-0.111h-1.17c-0.842,0-1.616-0.421-2.124-1.155c-0.113-0.163-0.338-0.205-0.504-0.094
				c-0.165,0.109-0.21,0.333-0.096,0.495c0.634,0.92,1.653,1.468,2.724,1.468h1.015l1.877,1.928c0.069,0.071,0.165,0.11,0.262,0.11
				c0.044,0,0.091-0.008,0.136-0.025c0.137-0.056,0.228-0.187,0.228-0.332v-1.713c1.666-0.237,2.924-1.741,2.924-3.573
				C36.587,391.964,35.07,390.347,33.204,390.347"/>
		</defs>
		<clipPath id="SVGID_16_">
			<use xlink:href="#SVGID_15_"  overflow="visible"/>
		</clipPath>
		<g clip-path="url(#SVGID_16_)">
			<defs>
				<rect id="SVGID_17_" x="18.587" y="384.697" width="18.161" height="15.002"/>
			</defs>
			<clipPath id="SVGID_18_">
				<use xlink:href="#SVGID_17_"  overflow="visible"/>
			</clipPath>
			<rect x="23.411" y="386.399" clip-path="url(#SVGID_18_)" fill="#FFFFFF" width="17.125" height="17.144"/>
		</g>
	</g>
	<g>
		<defs>
			<path id="SVGID_19_" d="M28.949,388.917c0-0.197-0.162-0.356-0.364-0.356h-6.476c-0.2,0-0.362,0.16-0.362,0.356
				c0,0.197,0.162,0.358,0.362,0.358h6.476C28.787,389.274,28.949,389.114,28.949,388.917"/>
		</defs>
		<clipPath id="SVGID_20_">
			<use xlink:href="#SVGID_19_"  overflow="visible"/>
		</clipPath>
		<g clip-path="url(#SVGID_20_)">
			<defs>
				<rect id="SVGID_21_" x="18.587" y="384.697" width="18.161" height="15.002"/>
			</defs>
			<clipPath id="SVGID_22_">
				<use xlink:href="#SVGID_21_"  overflow="visible"/>
			</clipPath>
			<rect x="17.798" y="384.612" clip-path="url(#SVGID_22_)" fill="#FFFFFF" width="15.098" height="8.61"/>
		</g>
	</g>
	<g>
		<defs>
			<path id="SVGID_23_" d="M25.289,390.826h-3.18c-0.2,0-0.362,0.161-0.362,0.357c0,0.198,0.162,0.357,0.362,0.357h3.18
				c0.201,0,0.362-0.159,0.362-0.357C25.651,390.986,25.49,390.826,25.289,390.826"/>
		</defs>
		<clipPath id="SVGID_24_">
			<use xlink:href="#SVGID_23_"  overflow="visible"/>
		</clipPath>
		<g clip-path="url(#SVGID_24_)">
			<defs>
				<rect id="SVGID_25_" x="18.587" y="384.697" width="18.161" height="15.002"/>
			</defs>
			<clipPath id="SVGID_26_">
				<use xlink:href="#SVGID_25_"  overflow="visible"/>
			</clipPath>
			<rect x="17.798" y="386.878" clip-path="url(#SVGID_26_)" fill="#FFFFFF" width="11.801" height="8.61"/>
		</g>
	</g>
</g>
<g>
	<defs>
		<rect id="SVGID_27_" x="6.714" y="294.72" width="48" height="34"/>
	</defs>
	<clipPath id="SVGID_28_">
		<use xlink:href="#SVGID_27_"  overflow="visible"/>
	</clipPath>
	
		<line clip-path="url(#SVGID_28_)" fill="none" stroke="#FFFFFF" stroke-linecap="round" stroke-linejoin="round" stroke-miterlimit="10" x1="32.53" y1="307.055" x2="38.72" y2="300.941"/>
	
		<line clip-path="url(#SVGID_28_)" fill="none" stroke="#FFFFFF" stroke-linecap="round" stroke-linejoin="round" stroke-miterlimit="10" x1="24.556" y1="303.087" x2="28.441" y2="306.879"/>
	
		<path clip-path="url(#SVGID_28_)" fill="none" stroke="#FFFFFF" stroke-linecap="round" stroke-linejoin="round" stroke-miterlimit="10" d="
		M32.864,307.781c-0.495-0.848-1.424-1.417-2.486-1.417c-1.076,0-2.014,0.584-2.505,1.448"/>
	<path clip-path="url(#SVGID_28_)" fill="none" stroke="#FFFFFF" stroke-miterlimit="10" d="M39,317.466
		c0,2.523-2.096,4.588-4.656,4.588h-7.949c-2.562,0-4.656-2.064-4.656-4.588v-4.803c0-2.523,2.095-4.589,4.656-4.589h7.949
		c2.561,0,4.656,2.065,4.656,4.589V317.466z"/>
</g>
<g>
	<defs>
		<path id="SVGID_29_" d="M26.166,320.385c-0.202-0.032-0.388-0.118-0.541-0.253c-0.458-0.408-0.471-1.135-0.026-1.621
			c0.223-0.244,0.534-0.394,0.854-0.41c0.294-0.016,0.571,0.079,0.783,0.267c0.458,0.407,0.47,1.134,0.026,1.619
			c-0.214,0.235-0.502,0.38-0.811,0.407C26.354,320.404,26.258,320.4,26.166,320.385 M26.647,318.351
			c-0.062-0.01-0.125-0.014-0.189-0.01c-0.254,0.014-0.503,0.133-0.681,0.329c-0.353,0.386-0.347,0.96,0.014,1.28
			c0.174,0.153,0.403,0.227,0.646,0.204c0.245-0.022,0.476-0.138,0.646-0.326c0.353-0.386,0.346-0.96-0.014-1.279
			C26.951,318.445,26.805,318.376,26.647,318.351"/>
	</defs>
	<clipPath id="SVGID_30_">
		<use xlink:href="#SVGID_29_"  overflow="visible"/>
	</clipPath>
	<g clip-path="url(#SVGID_30_)">
		<defs>
			<rect id="SVGID_31_" x="6.714" y="294.72" width="48" height="34"/>
		</defs>
		<clipPath id="SVGID_32_">
			<use xlink:href="#SVGID_31_"  overflow="visible"/>
		</clipPath>
		<rect x="20.273" y="313.099" clip-path="url(#SVGID_32_)" fill="#FFFFFF" width="12.314" height="12.301"/>
	</g>
</g>
<g>
	<defs>
		<path id="SVGID_33_" d="M34.398,315.126c-0.343-0.055-0.676-0.168-0.981-0.344c-0.625-0.359-1.047-0.924-1.188-1.592
			c-0.146-0.688,0.021-1.396,0.468-1.999c0.906-1.221,2.702-1.606,4.001-0.859c0.624,0.358,1.045,0.923,1.187,1.591
			c0.146,0.687-0.021,1.396-0.467,2C36.723,314.858,35.511,315.302,34.398,315.126 M35.661,310.253
			c-1.008-0.16-2.106,0.243-2.734,1.089c-0.401,0.54-0.551,1.175-0.421,1.788c0.127,0.596,0.504,1.101,1.063,1.422
			c1.175,0.676,2.798,0.326,3.618-0.779c0.4-0.541,0.549-1.177,0.419-1.791c-0.126-0.594-0.502-1.098-1.06-1.419
			C36.27,310.405,35.969,310.302,35.661,310.253"/>
	</defs>
	<clipPath id="SVGID_34_">
		<use xlink:href="#SVGID_33_"  overflow="visible"/>
	</clipPath>
	<g clip-path="url(#SVGID_34_)">
		<defs>
			<rect id="SVGID_35_" x="6.714" y="294.72" width="48" height="34"/>
		</defs>
		<clipPath id="SVGID_36_">
			<use xlink:href="#SVGID_35_"  overflow="visible"/>
		</clipPath>
		<rect x="27.176" y="304.952" clip-path="url(#SVGID_36_)" fill="#FFFFFF" width="15.759" height="15.212"/>
	</g>
</g>
<g>
	<defs>
		<path id="SVGID_37_" d="M29.998,318.16c-0.305-0.049-0.598-0.166-0.845-0.354c-0.362-0.277-0.577-0.666-0.605-1.092
			c-0.028-0.437,0.141-0.859,0.476-1.193c0.681-0.672,1.844-0.756,2.595-0.186l0,0c0.362,0.277,0.578,0.664,0.606,1.091
			c0.028,0.437-0.141,0.86-0.478,1.193C31.292,318.072,30.619,318.257,29.998,318.16 M30.723,315.226
			c-0.534-0.086-1.115,0.075-1.509,0.465c-0.283,0.281-0.427,0.639-0.402,1.004c0.023,0.358,0.204,0.684,0.509,0.918
			c0.648,0.49,1.65,0.418,2.234-0.162c0.285-0.282,0.429-0.639,0.404-1.006c-0.023-0.357-0.205-0.682-0.511-0.916
			C31.237,315.368,30.986,315.267,30.723,315.226"/>
	</defs>
	<clipPath id="SVGID_38_">
		<use xlink:href="#SVGID_37_"  overflow="visible"/>
	</clipPath>
	<g clip-path="url(#SVGID_38_)">
		<defs>
			<rect id="SVGID_39_" x="6.714" y="294.72" width="48" height="34"/>
		</defs>
		<clipPath id="SVGID_40_">
			<use xlink:href="#SVGID_39_"  overflow="visible"/>
		</clipPath>
		<rect x="23.544" y="309.957" clip-path="url(#SVGID_40_)" fill="#FFFFFF" width="13.683" height="13.229"/>
	</g>
</g>
<g>
	<defs>
		<rect id="SVGID_41_" x="20.68" y="342.405" width="18" height="18.301"/>
	</defs>
	<clipPath id="SVGID_42_">
		<use xlink:href="#SVGID_41_"  overflow="visible"/>
	</clipPath>
	<path clip-path="url(#SVGID_42_)" fill="none" stroke="#FFFFFF" stroke-linejoin="round" stroke-miterlimit="10" d="
		M38.304,350.582c0,3.815-3.861,6.909-8.625,6.909c-1.063,0-2.081-0.154-3.021-0.436l-4.957,2.265l1.941-3.804
		c-1.598-1.254-2.587-3.002-2.587-4.935c0-3.816,3.861-6.909,8.625-6.909S38.304,346.766,38.304,350.582z"/>
	
		<path clip-path="url(#SVGID_42_)" fill="none" stroke="#FFFFFF" stroke-linecap="round" stroke-linejoin="round" stroke-miterlimit="10" d="
		M27.805,349.288c0-1.219,1.007-2.256,2.25-2.256c1.242,0,2.25,0.967,2.25,2.188c0,1.22-1.008,2.186-2.25,2.186v0.92"/>
	
		<ellipse clip-path="url(#SVGID_42_)" fill="none" stroke="#FFFFFF" stroke-linejoin="round" stroke-miterlimit="10" cx="30.054" cy="353.982" rx="0.375" ry="0.369"/>
</g>
<g>
	<g>
		<defs>
			<path id="SVGID_43_" d="M29.824,272.263c0.528,0,0.956-0.431,0.956-0.962s-0.428-0.963-0.956-0.963
				c-0.529,0-0.957,0.432-0.957,0.963S29.295,272.263,29.824,272.263 M29.824,271.103c0.108,0,0.195,0.089,0.195,0.198
				c0,0.108-0.088,0.196-0.195,0.196c-0.109,0-0.196-0.088-0.196-0.196C29.628,271.192,29.715,271.104,29.824,271.103"/>
		</defs>
		<clipPath id="SVGID_44_">
			<use xlink:href="#SVGID_43_"  overflow="visible"/>
		</clipPath>
		<rect x="24.064" y="265.534" clip-path="url(#SVGID_44_)" fill="#FFFFFF" width="11.52" height="11.533"/>
	</g>
	<g>
		<defs>
			<rect id="SVGID_45_" x="24.345" y="254.581" width="18" height="18.974"/>
		</defs>
		<clipPath id="SVGID_46_">
			<use xlink:href="#SVGID_45_"  overflow="visible"/>
		</clipPath>
		<g clip-path="url(#SVGID_46_)" enable-background="new    ">
			<g>
				<defs>
					<rect id="SVGID_47_" x="24.345" y="254.198" width="18.253" height="20.175"/>
				</defs>
				<clipPath id="SVGID_48_">
					<use xlink:href="#SVGID_47_"  overflow="visible"/>
				</clipPath>
				<g clip-path="url(#SVGID_48_)">
					<defs>
						<path id="SVGID_49_" d="M38.073,255.503h-3.093c-0.35-0.551-0.955-0.922-1.651-0.922h-7.009c-1.088,0-1.974,0.892-1.974,1.989
							v0.6v12.741v1.656c0,1.097,0.886,1.989,1.974,1.989h7.009c1.088,0,1.974-0.892,1.974-1.989v-1.656v-3.579l1.674-1.486h1.097
							c2.356,0,4.272-2.095,4.272-4.671S40.429,255.503,38.073,255.503z M25.106,256.569c0-0.673,0.544-1.222,1.213-1.222h7.009
							c0.221,0,0.426,0.063,0.604,0.167c-1.227,0.063-2.321,0.69-3.065,1.655h-5.762V256.569z M34.542,271.565
							c0,0.674-0.544,1.222-1.213,1.222h-7.009c-0.669,0-1.213-0.548-1.213-1.222v-1.656h9.436V271.565z M34.542,269.143h-9.436
							v-11.208h5.28c-0.334,0.665-0.524,1.428-0.524,2.238c0,2.149,1.331,4,3.208,4.524v2.767c0,0.151,0.087,0.287,0.224,0.349
							c0.05,0.023,0.104,0.034,0.156,0.034c0.091,0,0.181-0.033,0.251-0.096l0.841-0.746V269.143z M38.073,264.079h-1.24
							c-0.093,0-0.182,0.034-0.251,0.096l-2.752,2.442v-2.221c0-0.184-0.128-0.342-0.307-0.376c-1.68-0.328-2.9-1.945-2.9-3.845
							c0-2.153,1.575-3.905,3.512-3.905h3.938c1.937,0,3.512,1.752,3.512,3.905C41.584,262.327,40.009,264.079,38.073,264.079z"/>
					</defs>
					<clipPath id="SVGID_50_">
						<use xlink:href="#SVGID_49_"  overflow="visible"/>
					</clipPath>
					<g clip-path="url(#SVGID_50_)">
						<defs>
							<rect id="SVGID_51_" x="24.345" y="254.198" width="18.253" height="20.175"/>
						</defs>
						<clipPath id="SVGID_52_">
							<use xlink:href="#SVGID_51_"  overflow="visible"/>
						</clipPath>
						<rect x="19.542" y="249.777" clip-path="url(#SVGID_52_)" fill="#FFFFFF" width="27.607" height="28.581"/>
					</g>
				</g>
			</g>
		</g>
	</g>
	<g>
		<defs>
			<path id="SVGID_53_" d="M39.011,258.985h-5.639c-0.209,0-0.38,0.171-0.38,0.383s0.17,0.384,0.38,0.384h5.639
				c0.209,0,0.38-0.172,0.38-0.384S39.22,258.985,39.011,258.985"/>
		</defs>
		<clipPath id="SVGID_54_">
			<use xlink:href="#SVGID_53_"  overflow="visible"/>
		</clipPath>
		<rect x="28.188" y="254.182" clip-path="url(#SVGID_54_)" fill="#FFFFFF" width="16.006" height="10.374"/>
	</g>
	<g>
		<defs>
			<path id="SVGID_55_" d="M36.14,261.164h-2.769c-0.21,0-0.38,0.172-0.38,0.384s0.169,0.383,0.38,0.383h2.769
				c0.209,0,0.38-0.171,0.38-0.383S36.349,261.164,36.14,261.164"/>
		</defs>
		<clipPath id="SVGID_56_">
			<use xlink:href="#SVGID_55_"  overflow="visible"/>
		</clipPath>
		<rect x="28.188" y="256.36" clip-path="url(#SVGID_56_)" fill="#FFFFFF" width="13.136" height="10.374"/>
	</g>
</g>
<g>
	
		<line fill="none" stroke="#FFFFFF" stroke-linecap="round" stroke-linejoin="round" stroke-miterlimit="10" x1="22.937" y1="26.611" x2="22.937" y2="19.247"/>
	
		<line fill="none" stroke="#FFFFFF" stroke-linecap="round" stroke-linejoin="round" stroke-miterlimit="10" x1="22.527" y1="26.61" x2="26.619" y2="26.61"/>
	
		<line fill="none" stroke="#FFFFFF" stroke-linecap="round" stroke-linejoin="round" stroke-miterlimit="10" x1="22.119" y1="28.247" x2="40.119" y2="28.247"/>
	
		<line fill="none" stroke="#FFFFFF" stroke-linecap="round" stroke-linejoin="round" stroke-miterlimit="10" x1="22.527" y1="19.247" x2="26.619" y2="19.247"/>
	
		<line fill="none" stroke="#FFFFFF" stroke-linecap="round" stroke-linejoin="round" stroke-miterlimit="10" x1="29.073" y1="26.61" x2="33.164" y2="26.61"/>
	
		<line fill="none" stroke="#FFFFFF" stroke-linecap="round" stroke-linejoin="round" stroke-miterlimit="10" x1="29.073" y1="19.247" x2="33.164" y2="19.247"/>
	
		<line fill="none" stroke="#FFFFFF" stroke-linecap="round" stroke-linejoin="round" stroke-miterlimit="10" x1="24.573" y1="26.611" x2="24.573" y2="19.247"/>
	
		<line fill="none" stroke="#FFFFFF" stroke-linecap="round" stroke-linejoin="round" stroke-miterlimit="10" x1="26.21" y1="26.611" x2="26.21" y2="19.247"/>
	
		<line fill="none" stroke="#FFFFFF" stroke-linecap="round" stroke-linejoin="round" stroke-miterlimit="10" x1="29.482" y1="26.611" x2="29.482" y2="19.247"/>
	
		<line fill="none" stroke="#FFFFFF" stroke-linecap="round" stroke-linejoin="round" stroke-miterlimit="10" x1="31.119" y1="26.611" x2="31.119" y2="19.247"/>
	
		<line fill="none" stroke="#FFFFFF" stroke-linecap="round" stroke-linejoin="round" stroke-miterlimit="10" x1="32.755" y1="26.611" x2="32.755" y2="19.247"/>
	
		<line fill="none" stroke="#FFFFFF" stroke-linecap="round" stroke-linejoin="round" stroke-miterlimit="10" x1="35.619" y1="26.61" x2="39.71" y2="26.61"/>
	
		<line fill="none" stroke="#FFFFFF" stroke-linecap="round" stroke-linejoin="round" stroke-miterlimit="10" x1="35.619" y1="19.247" x2="39.71" y2="19.247"/>
	
		<line fill="none" stroke="#FFFFFF" stroke-linecap="round" stroke-linejoin="round" stroke-miterlimit="10" x1="36.027" y1="26.611" x2="36.027" y2="19.247"/>
	
		<line fill="none" stroke="#FFFFFF" stroke-linecap="round" stroke-linejoin="round" stroke-miterlimit="10" x1="37.664" y1="26.611" x2="37.664" y2="19.247"/>
	
		<line fill="none" stroke="#FFFFFF" stroke-linecap="round" stroke-linejoin="round" stroke-miterlimit="10" x1="39.301" y1="26.611" x2="39.301" y2="19.247"/>
	<polygon fill="none" stroke="#FFFFFF" stroke-linecap="round" stroke-linejoin="round" stroke-miterlimit="10" points="
		22.119,17.61 40.119,17.61 31.554,10.247 	"/>
</g>
<g>
	
		<rect x="22.119" y="88.96" fill="none" stroke="#FFFFFF" stroke-linecap="round" stroke-linejoin="round" stroke-miterlimit="10" width="7.826" height="7.826"/>
	
		<rect x="32.292" y="88.96" fill="none" stroke="#FFFFFF" stroke-linecap="round" stroke-linejoin="round" stroke-miterlimit="10" width="7.826" height="7.826"/>
	
		<rect x="22.119" y="99.134" fill="none" stroke="#FFFFFF" stroke-linecap="round" stroke-linejoin="round" stroke-miterlimit="10" width="7.826" height="7.826"/>
	
		<rect x="32.292" y="99.134" fill="none" stroke="#FFFFFF" stroke-linecap="round" stroke-linejoin="round" stroke-miterlimit="10" width="7.826" height="7.826"/>
</g>
<g>
	<path fill="none" stroke="#FFFFFF" stroke-linejoin="round" stroke-miterlimit="10" d="M30.22,138.734h2.913c0,0,0-1.153,0-1.729
		c0-0.192-1.153-0.77-2.114-1.152v-0.768c0,0,0.384-0.135,0.384-0.961c0.267,0,0.385-0.769,0.012-0.769
		c0-0.081,0.294-0.501,0.179-0.959c-0.191-0.77-2.112-0.77-2.304,0c-0.81-0.166-0.192,0.849-0.192,0.959
		c-0.385,0-0.268,0.769,0,0.769c0,0.826,0.384,0.961,0.384,0.961v0.768c-0.96,0.383-2.113,0.96-2.113,1.152c0,0.383,0,1.729,0,1.729
		H30.22z"/>
	<path fill="none" stroke="#FFFFFF" stroke-linejoin="round" stroke-miterlimit="10" d="M34.093,138.734h2.113c0,0,0-1.269,0-1.729
		c0-0.192-0.96-0.461-1.728-0.77v-0.575c0,0,0.384-0.107,0.384-0.768c0.215,0,0.297-0.769,0-0.769c0-0.065,0.311-0.409,0.192-0.769
		c-0.192-0.576-1.729-0.576-1.92,0c-0.648-0.131-0.193,0.681-0.193,0.769c-0.307,0-0.213,0.769,0,0.769
		c0,0.661,0.385,0.768,0.385,0.768v0.384"/>
</g>
<g>
	<g>
		<polygon fill="none" stroke="#FFFFFF" stroke-linejoin="round" stroke-miterlimit="10" points="30.63,51.065 33.89,57.611 
			39.619,57.611 34.708,61.702 37.164,69.065 30.619,64.57 24.072,69.065 26.527,61.702 21.619,57.611 27.345,57.611 		"/>
	</g>
	<g>
		<path fill="none" stroke="#FFFFFF" stroke-linejoin="round" stroke-miterlimit="10" d="M40.119,142.707
			c0,0.686-0.525,1.242-1.174,1.242H23.292c-0.648,0-1.174-0.556-1.174-1.242v-11.603c0-0.687,0.525-1.242,1.174-1.242h15.652
			c0.648,0,1.174,0.556,1.174,1.242V142.707z"/>
		
			<line fill="none" stroke="#FFFFFF" stroke-linejoin="round" stroke-miterlimit="10" x1="25.641" y1="145.515" x2="36.597" y2="145.515"/>
		
			<line fill="none" stroke="#FFFFFF" stroke-linejoin="round" stroke-miterlimit="10" x1="31.119" y1="143.949" x2="31.119" y2="145.515"/>
		<circle fill="none" stroke="#FFFFFF" stroke-linejoin="round" stroke-miterlimit="10" cx="31.119" cy="142.384" r="0.391"/>
		
			<line fill="none" stroke="#FFFFFF" stroke-linejoin="round" stroke-miterlimit="10" x1="22.119" y1="140.82" x2="40.119" y2="140.82"/>
	</g>
</g>
<g id="Gray">
	<g>
		<polygon fill="none" stroke="#414753" stroke-linejoin="round" stroke-miterlimit="10" points="78.297,51.065 81.557,57.611 
			87.285,57.611 82.375,61.702 84.83,69.065 78.285,64.57 71.738,69.065 74.193,61.702 69.285,57.611 75.012,57.611 		"/>
	</g>
	<g>
		<path fill="none" stroke="#414753" stroke-linecap="round" stroke-linejoin="round" stroke-miterlimit="10" d="M85.966,189.173
			c0,0,1.721-1.263,1.721-2.197c0-1.08-1.409-1.42-1.721-0.107c-0.313-1.313-1.723-0.973-1.723,0.107
			C84.244,187.91,85.966,189.173,85.966,189.173z"/>
		<polyline fill="none" stroke="#414753" stroke-linecap="round" stroke-linejoin="round" stroke-miterlimit="10" points="
			81.295,192.613 71.513,192.613 71.513,176.046 80.121,176.046 84.034,179.991 84.034,182.751 		"/>
		<polyline fill="none" stroke="#414753" stroke-linecap="round" stroke-linejoin="round" stroke-miterlimit="10" points="
			80.121,176.442 80.121,179.991 83.643,179.991 		"/>
		
			<ellipse transform="matrix(1 -0.0096 0.0096 1 -1.8025 0.8373)" fill="none" stroke="#414753" stroke-linecap="round" stroke-linejoin="round" stroke-miterlimit="10" cx="85.991" cy="187.484" rx="3.522" ry="3.551"/>
		<polyline fill="none" stroke="#414753" stroke-linecap="round" stroke-linejoin="round" stroke-miterlimit="10" points="
			87.912,190.459 88.729,194.19 83.25,194.19 84.083,190.468 		"/>
		
			<line fill="none" stroke="#414753" stroke-linecap="round" stroke-linejoin="round" stroke-miterlimit="10" x1="74.252" y1="182.357" x2="78.165" y2="182.357"/>
		
			<line fill="none" stroke="#414753" stroke-linecap="round" stroke-linejoin="round" stroke-miterlimit="10" x1="74.252" y1="184.724" x2="79.73" y2="184.724"/>
		
			<line fill="none" stroke="#414753" stroke-linecap="round" stroke-linejoin="round" stroke-miterlimit="10" x1="74.252" y1="187.089" x2="79.73" y2="187.089"/>
		
			<line fill="none" stroke="#414753" stroke-linecap="round" stroke-linejoin="round" stroke-miterlimit="10" x1="74.252" y1="189.457" x2="79.73" y2="189.457"/>
	</g>
	<g>
		<defs>
			<path id="SVGID_57_" d="M77.816,218.264c-0.646-0.004-1.256,0.257-1.715,0.736c-0.46,0.479-0.715,1.118-0.719,1.8l-0.054,9.721
				c-0.005,0.994,0.758,1.807,1.699,1.813c0.458,0.002,0.888-0.183,1.212-0.521c0.325-0.339,0.504-0.79,0.507-1.271l0.04-7.102
				c0-0.167-0.127-0.306-0.287-0.306c-0.16-0.001-0.29,0.134-0.291,0.303l-0.04,7.101c-0.004,0.638-0.533,1.19-1.138,1.186
				c-0.625-0.005-1.129-0.542-1.125-1.2l0.055-9.722c0.002-0.518,0.196-1.004,0.547-1.369c0.351-0.365,0.813-0.564,1.305-0.561
				c1.015,0.006,1.836,0.883,1.831,1.953l-0.067,12.155c-0.008,1.483-1.16,2.682-2.567,2.674c-0.681-0.003-1.32-0.288-1.8-0.799
				c-0.479-0.511-0.741-1.188-0.737-1.906l0.053-9.536c0.002-0.167-0.127-0.304-0.287-0.306c-0.159-0.001-0.29,0.134-0.291,0.303
				l-0.053,9.534c-0.006,0.882,0.316,1.712,0.903,2.339c0.588,0.627,1.373,0.975,2.208,0.98c0.862,0.004,1.647-0.36,2.217-0.954
				c0.571-0.593,0.926-1.416,0.931-2.326l0.067-12.155C80.229,219.423,79.149,218.272,77.816,218.264"/>
		</defs>
		<use xlink:href="#SVGID_57_"  overflow="visible" fill-rule="evenodd" clip-rule="evenodd" fill="#414753"/>
		<clipPath id="SVGID_58_">
			<use xlink:href="#SVGID_57_"  overflow="visible"/>
		</clipPath>
		<g clip-path="url(#SVGID_58_)">
			<defs>
				<rect id="SVGID_59_" x="72.305" y="217.469" width="9.534" height="19.861"/>
			</defs>
			<use xlink:href="#SVGID_59_"  overflow="visible" fill="#414753"/>
			<clipPath id="SVGID_60_">
				<use xlink:href="#SVGID_59_"  overflow="visible"/>
			</clipPath>
			<rect x="69.921" y="214.292" clip-path="url(#SVGID_60_)" fill="#414753" width="14.272" height="25.945"/>
		</g>
	</g>
	<g>
		<g>
			<defs>
				<rect id="SVGID_61_" x="66.253" y="385.055" width="13.56" height="13.084"/>
			</defs>
			<clipPath id="SVGID_62_">
				<use xlink:href="#SVGID_61_"  overflow="visible"/>
			</clipPath>
			<g clip-path="url(#SVGID_62_)">
				<defs>
					<rect id="SVGID_63_" x="66.253" y="384.697" width="18.161" height="15.002"/>
				</defs>
				<clipPath id="SVGID_64_">
					<use xlink:href="#SVGID_63_"  overflow="visible"/>
				</clipPath>
				<g clip-path="url(#SVGID_64_)" enable-background="new    ">
					<g>
						<defs>
							<rect id="SVGID_65_" x="66.253" y="384.697" width="14.212" height="14.213"/>
						</defs>
						<clipPath id="SVGID_66_">
							<use xlink:href="#SVGID_65_"  overflow="visible"/>
						</clipPath>
						<g clip-path="url(#SVGID_66_)">
							<defs>
								<path id="SVGID_67_" d="M79.813,389.993c0-2.724-2.074-4.939-4.623-4.939h-4.313c-2.549,0-4.624,2.215-4.624,4.939
									c0,2.287,1.46,4.255,3.511,4.793v2.996c0,0.141,0.083,0.267,0.214,0.326c0.048,0.021,0.099,0.031,0.15,0.031
									c0.086,0,0.171-0.029,0.24-0.089l3.6-3.118h1.222C77.739,394.932,79.813,392.716,79.813,389.993z M73.832,394.217
									c-0.088,0-0.174,0.033-0.241,0.09l-3.1,2.685v-2.489c0-0.172-0.124-0.319-0.293-0.352c-1.865-0.355-3.218-2.104-3.218-4.158
									c0-2.33,1.749-4.224,3.897-4.224h4.313c2.148,0,3.897,1.895,3.897,4.224c0,2.329-1.749,4.224-3.897,4.224H73.832z"/>
							</defs>
							<use xlink:href="#SVGID_67_"  overflow="visible" fill-rule="evenodd" clip-rule="evenodd" fill="#414753"/>
							<clipPath id="SVGID_68_">
								<use xlink:href="#SVGID_67_"  overflow="visible"/>
							</clipPath>
							<g clip-path="url(#SVGID_68_)">
								<defs>
									<rect id="SVGID_69_" x="66.253" y="384.697" width="14.212" height="14.213"/>
								</defs>
								<clipPath id="SVGID_70_">
									<use xlink:href="#SVGID_69_"  overflow="visible"/>
								</clipPath>
								
									<rect x="62.286" y="381.106" clip-path="url(#SVGID_70_)" fill="#414753" stroke="#414753" stroke-miterlimit="10" width="21.456" height="20.981"/>
							</g>
						</g>
					</g>
				</g>
			</g>
		</g>
		<g>
			<defs>
				<path id="SVGID_71_" d="M80.87,390.347c-0.202,0-0.364,0.16-0.364,0.357c0,0.197,0.162,0.357,0.364,0.357
					c1.465,0,2.657,1.297,2.657,2.891c0,1.571-1.13,2.84-2.574,2.89c-0.196,0.006-0.35,0.164-0.35,0.356v1.151l-1.359-1.395
					c-0.069-0.071-0.164-0.111-0.262-0.111h-1.17c-0.842,0-1.616-0.421-2.124-1.155c-0.113-0.163-0.338-0.205-0.504-0.094
					c-0.165,0.109-0.21,0.333-0.096,0.495c0.634,0.92,1.653,1.468,2.724,1.468h1.015l1.877,1.928c0.069,0.071,0.165,0.11,0.262,0.11
					c0.044,0,0.091-0.008,0.136-0.025c0.137-0.056,0.228-0.187,0.228-0.332v-1.713c1.666-0.237,2.924-1.741,2.924-3.573
					C84.253,391.964,82.736,390.347,80.87,390.347"/>
			</defs>
			<use xlink:href="#SVGID_71_"  overflow="visible" fill-rule="evenodd" clip-rule="evenodd" fill="#414753"/>
			<clipPath id="SVGID_72_">
				<use xlink:href="#SVGID_71_"  overflow="visible"/>
			</clipPath>
			<g clip-path="url(#SVGID_72_)">
				<defs>
					<rect id="SVGID_73_" x="66.253" y="384.697" width="18.161" height="15.002"/>
				</defs>
				<use xlink:href="#SVGID_73_"  overflow="visible" fill="#414753"/>
				<clipPath id="SVGID_74_">
					<use xlink:href="#SVGID_73_"  overflow="visible"/>
				</clipPath>
				<rect x="71.077" y="386.399" clip-path="url(#SVGID_74_)" fill="#414753" width="17.125" height="17.144"/>
			</g>
		</g>
		<g>
			<defs>
				<path id="SVGID_75_" d="M76.615,388.917c0-0.197-0.162-0.356-0.364-0.356h-6.476c-0.2,0-0.362,0.16-0.362,0.356
					c0,0.197,0.162,0.358,0.362,0.358h6.476C76.453,389.274,76.615,389.114,76.615,388.917"/>
			</defs>
			<use xlink:href="#SVGID_75_"  overflow="visible" fill-rule="evenodd" clip-rule="evenodd" fill="#414753"/>
			<clipPath id="SVGID_76_">
				<use xlink:href="#SVGID_75_"  overflow="visible"/>
			</clipPath>
			<g clip-path="url(#SVGID_76_)">
				<defs>
					<rect id="SVGID_77_" x="66.253" y="384.697" width="18.161" height="15.002"/>
				</defs>
				<clipPath id="SVGID_78_">
					<use xlink:href="#SVGID_77_"  overflow="visible"/>
				</clipPath>
				<rect x="65.465" y="384.612" clip-path="url(#SVGID_78_)" fill="#414753" width="15.098" height="8.61"/>
			</g>
		</g>
		<g>
			<defs>
				<path id="SVGID_79_" d="M72.956,390.826h-3.18c-0.2,0-0.362,0.161-0.362,0.357c0,0.198,0.162,0.357,0.362,0.357h3.18
					c0.201,0,0.362-0.159,0.362-0.357C73.318,390.986,73.156,390.826,72.956,390.826"/>
			</defs>
			<use xlink:href="#SVGID_79_"  overflow="visible" fill-rule="evenodd" clip-rule="evenodd" fill="#414753"/>
			<clipPath id="SVGID_80_">
				<use xlink:href="#SVGID_79_"  overflow="visible"/>
			</clipPath>
			<g clip-path="url(#SVGID_80_)">
				<defs>
					<rect id="SVGID_81_" x="66.253" y="384.697" width="18.161" height="15.002"/>
				</defs>
				<use xlink:href="#SVGID_81_"  overflow="visible" fill="#414753"/>
				<clipPath id="SVGID_82_">
					<use xlink:href="#SVGID_81_"  overflow="visible"/>
				</clipPath>
				<rect x="65.465" y="386.878" clip-path="url(#SVGID_82_)" fill="#414753" width="11.801" height="8.61"/>
			</g>
		</g>
	</g>
	<g>
		<defs>
			<rect id="SVGID_83_" x="54.381" y="294.72" width="48" height="34"/>
		</defs>
		<clipPath id="SVGID_84_">
			<use xlink:href="#SVGID_83_"  overflow="visible"/>
		</clipPath>
		
			<line clip-path="url(#SVGID_84_)" fill="none" stroke="#414753" stroke-linecap="round" stroke-linejoin="round" stroke-miterlimit="10" x1="80.196" y1="307.055" x2="86.387" y2="300.941"/>
		
			<line clip-path="url(#SVGID_84_)" fill="none" stroke="#414753" stroke-linecap="round" stroke-linejoin="round" stroke-miterlimit="10" x1="72.223" y1="303.087" x2="76.107" y2="306.879"/>
		
			<path clip-path="url(#SVGID_84_)" fill="none" stroke="#414753" stroke-linecap="round" stroke-linejoin="round" stroke-miterlimit="10" d="
			M80.53,307.781c-0.495-0.848-1.424-1.417-2.486-1.417c-1.076,0-2.014,0.584-2.505,1.448"/>
		<path clip-path="url(#SVGID_84_)" fill="none" stroke="#414753" stroke-miterlimit="10" d="M86.666,317.466
			c0,2.523-2.096,4.588-4.656,4.588h-7.949c-2.562,0-4.656-2.064-4.656-4.588v-4.803c0-2.523,2.095-4.589,4.656-4.589h7.949
			c2.561,0,4.656,2.065,4.656,4.589V317.466z"/>
	</g>
	<g>
		<defs>
			<path id="SVGID_85_" d="M73.832,320.385c-0.202-0.032-0.388-0.118-0.541-0.253c-0.458-0.408-0.471-1.135-0.026-1.621
				c0.223-0.244,0.534-0.394,0.854-0.41c0.294-0.016,0.571,0.079,0.783,0.267c0.458,0.407,0.47,1.134,0.026,1.619
				c-0.214,0.235-0.502,0.38-0.811,0.407C74.021,320.404,73.925,320.4,73.832,320.385 M74.313,318.351
				c-0.062-0.01-0.125-0.014-0.189-0.01c-0.254,0.014-0.503,0.133-0.681,0.329c-0.353,0.386-0.347,0.96,0.014,1.28
				c0.174,0.153,0.403,0.227,0.646,0.204c0.245-0.022,0.476-0.138,0.646-0.326c0.353-0.386,0.346-0.96-0.014-1.279
				C74.617,318.445,74.472,318.376,74.313,318.351"/>
		</defs>
		<clipPath id="SVGID_86_">
			<use xlink:href="#SVGID_85_"  overflow="visible"/>
		</clipPath>
		<g clip-path="url(#SVGID_86_)">
			<defs>
				<rect id="SVGID_87_" x="54.381" y="294.72" width="48" height="34"/>
			</defs>
			<clipPath id="SVGID_88_">
				<use xlink:href="#SVGID_87_"  overflow="visible"/>
			</clipPath>
			<rect x="67.939" y="313.099" clip-path="url(#SVGID_88_)" fill="#414753" width="12.314" height="12.301"/>
		</g>
	</g>
	<g>
		<defs>
			<path id="SVGID_89_" d="M82.064,315.126c-0.343-0.055-0.676-0.168-0.981-0.344c-0.625-0.359-1.047-0.924-1.188-1.592
				c-0.146-0.688,0.021-1.396,0.468-1.999c0.906-1.221,2.702-1.606,4.001-0.859c0.624,0.358,1.045,0.923,1.187,1.591
				c0.146,0.687-0.021,1.396-0.467,2C84.39,314.858,83.178,315.302,82.064,315.126 M83.327,310.253
				c-1.008-0.16-2.106,0.243-2.734,1.089c-0.401,0.54-0.551,1.175-0.421,1.788c0.127,0.596,0.504,1.101,1.063,1.422
				c1.175,0.676,2.798,0.326,3.618-0.779c0.4-0.541,0.549-1.177,0.419-1.791c-0.126-0.594-0.502-1.098-1.06-1.419
				C83.937,310.405,83.636,310.302,83.327,310.253"/>
		</defs>
		<use xlink:href="#SVGID_89_"  overflow="visible" fill-rule="evenodd" clip-rule="evenodd" fill="#414753"/>
		<clipPath id="SVGID_90_">
			<use xlink:href="#SVGID_89_"  overflow="visible"/>
		</clipPath>
		<g clip-path="url(#SVGID_90_)">
			<defs>
				<rect id="SVGID_91_" x="54.381" y="294.72" width="48" height="34"/>
			</defs>
			<clipPath id="SVGID_92_">
				<use xlink:href="#SVGID_91_"  overflow="visible"/>
			</clipPath>
			<rect x="74.843" y="304.952" clip-path="url(#SVGID_92_)" fill="#414753" width="15.759" height="15.212"/>
		</g>
	</g>
	<g>
		<defs>
			<path id="SVGID_93_" d="M77.664,318.16c-0.305-0.049-0.598-0.166-0.845-0.354c-0.362-0.277-0.577-0.666-0.605-1.092
				c-0.028-0.437,0.141-0.859,0.476-1.193c0.681-0.672,1.844-0.756,2.595-0.186l0,0c0.362,0.277,0.578,0.664,0.606,1.091
				c0.028,0.437-0.141,0.86-0.478,1.193C78.958,318.072,78.285,318.257,77.664,318.16 M78.39,315.226
				c-0.534-0.086-1.115,0.075-1.509,0.465c-0.283,0.281-0.427,0.639-0.402,1.004c0.023,0.358,0.204,0.684,0.509,0.918
				c0.648,0.49,1.65,0.418,2.234-0.162c0.285-0.282,0.429-0.639,0.404-1.006c-0.023-0.357-0.205-0.682-0.511-0.916
				C78.903,315.368,78.652,315.267,78.39,315.226"/>
		</defs>
		<clipPath id="SVGID_94_">
			<use xlink:href="#SVGID_93_"  overflow="visible"/>
		</clipPath>
		<g clip-path="url(#SVGID_94_)">
			<defs>
				<rect id="SVGID_95_" x="54.381" y="294.72" width="48" height="34"/>
			</defs>
			<clipPath id="SVGID_96_">
				<use xlink:href="#SVGID_95_"  overflow="visible"/>
			</clipPath>
			<g clip-path="url(#SVGID_96_)">
				<rect x="71.211" y="309.957" fill="#414753" width="13.683" height="13.229"/>
			</g>
		</g>
	</g>
	<g>
		<defs>
			<rect id="SVGID_97_" x="68.346" y="342.405" width="18" height="18.301"/>
		</defs>
		<clipPath id="SVGID_98_">
			<use xlink:href="#SVGID_97_"  overflow="visible"/>
		</clipPath>
		<path clip-path="url(#SVGID_98_)" fill="none" stroke="#414753" stroke-linejoin="round" stroke-miterlimit="10" d="
			M85.971,350.582c0,3.815-3.861,6.909-8.625,6.909c-1.063,0-2.081-0.154-3.021-0.436l-4.957,2.265l1.941-3.804
			c-1.598-1.254-2.587-3.002-2.587-4.935c0-3.816,3.861-6.909,8.625-6.909S85.971,346.766,85.971,350.582z"/>
		
			<path clip-path="url(#SVGID_98_)" fill="none" stroke="#414753" stroke-linecap="round" stroke-linejoin="round" stroke-miterlimit="10" d="
			M75.472,349.288c0-1.219,1.007-2.256,2.25-2.256c1.242,0,2.25,0.967,2.25,2.188c0,1.22-1.008,2.186-2.25,2.186v0.92"/>
		
			<ellipse clip-path="url(#SVGID_98_)" fill="none" stroke="#414753" stroke-linejoin="round" stroke-miterlimit="10" cx="77.721" cy="353.982" rx="0.375" ry="0.369"/>
	</g>
	<g>
		<g>
			<defs>
				<path id="SVGID_99_" d="M77.491,272.263c0.528,0,0.956-0.431,0.956-0.962s-0.428-0.963-0.956-0.963
					c-0.529,0-0.957,0.432-0.957,0.963S76.961,272.263,77.491,272.263 M77.491,271.103c0.108,0,0.195,0.089,0.195,0.198
					c0,0.108-0.088,0.196-0.195,0.196c-0.109,0-0.196-0.088-0.196-0.196C77.294,271.192,77.382,271.104,77.491,271.103"/>
			</defs>
			<clipPath id="SVGID_100_">
				<use xlink:href="#SVGID_99_"  overflow="visible"/>
			</clipPath>
			<rect x="71.73" y="265.534" clip-path="url(#SVGID_100_)" fill="#414753" width="11.52" height="11.533"/>
		</g>
		<g>
			<defs>
				<rect id="SVGID_101_" x="72.012" y="254.581" width="18" height="18.974"/>
			</defs>
			<clipPath id="SVGID_102_">
				<use xlink:href="#SVGID_101_"  overflow="visible"/>
			</clipPath>
			<g clip-path="url(#SVGID_102_)" enable-background="new    ">
				<g>
					<defs>
						<rect id="SVGID_103_" x="72.012" y="254.198" width="18.253" height="20.175"/>
					</defs>
					<clipPath id="SVGID_104_">
						<use xlink:href="#SVGID_103_"  overflow="visible"/>
					</clipPath>
					<g clip-path="url(#SVGID_104_)">
						<defs>
							<path id="SVGID_105_" d="M85.739,255.503h-3.093c-0.35-0.551-0.955-0.922-1.651-0.922h-7.009
								c-1.088,0-1.974,0.892-1.974,1.989v0.6v12.741v1.656c0,1.097,0.886,1.989,1.974,1.989h7.009c1.088,0,1.974-0.892,1.974-1.989
								v-1.656v-3.579l1.674-1.486h1.097c2.356,0,4.272-2.095,4.272-4.671S88.095,255.503,85.739,255.503z M72.772,256.569
								c0-0.673,0.544-1.222,1.213-1.222h7.009c0.221,0,0.426,0.063,0.604,0.167c-1.227,0.063-2.321,0.69-3.065,1.655h-5.762
								V256.569z M82.208,271.565c0,0.674-0.544,1.222-1.213,1.222h-7.009c-0.669,0-1.213-0.548-1.213-1.222v-1.656h9.436V271.565z
								 M82.208,269.143h-9.436v-11.208h5.28c-0.334,0.665-0.524,1.428-0.524,2.238c0,2.149,1.331,4,3.208,4.524v2.767
								c0,0.151,0.087,0.287,0.224,0.349c0.05,0.023,0.104,0.034,0.156,0.034c0.091,0,0.181-0.033,0.251-0.096l0.841-0.746V269.143z
								 M85.739,264.079h-1.24c-0.093,0-0.182,0.034-0.251,0.096l-2.752,2.442v-2.221c0-0.184-0.128-0.342-0.307-0.376
								c-1.68-0.328-2.9-1.945-2.9-3.845c0-2.153,1.575-3.905,3.512-3.905h3.938c1.937,0,3.512,1.752,3.512,3.905
								C89.251,262.327,87.676,264.079,85.739,264.079z"/>
						</defs>
						<clipPath id="SVGID_106_">
							<use xlink:href="#SVGID_105_"  overflow="visible"/>
						</clipPath>
						<g clip-path="url(#SVGID_106_)">
							<defs>
								<rect id="SVGID_107_" x="72.012" y="254.198" width="18.253" height="20.175"/>
							</defs>
							<clipPath id="SVGID_108_">
								<use xlink:href="#SVGID_107_"  overflow="visible"/>
							</clipPath>
							<rect x="67.208" y="249.777" clip-path="url(#SVGID_108_)" fill="#414753" width="27.607" height="28.581"/>
						</g>
					</g>
				</g>
			</g>
		</g>
		<g>
			<defs>
				<path id="SVGID_109_" d="M86.677,258.985h-5.639c-0.209,0-0.38,0.171-0.38,0.383s0.17,0.384,0.38,0.384h5.639
					c0.209,0,0.38-0.172,0.38-0.384S86.887,258.985,86.677,258.985"/>
			</defs>
			<clipPath id="SVGID_110_">
				<use xlink:href="#SVGID_109_"  overflow="visible"/>
			</clipPath>
			<rect x="75.854" y="254.182" clip-path="url(#SVGID_110_)" fill="#414753" width="16.006" height="10.374"/>
		</g>
		<g>
			<defs>
				<path id="SVGID_111_" d="M83.807,261.164h-2.769c-0.21,0-0.38,0.172-0.38,0.384s0.169,0.383,0.38,0.383h2.769
					c0.209,0,0.38-0.171,0.38-0.383S84.016,261.164,83.807,261.164"/>
			</defs>
			<clipPath id="SVGID_112_">
				<use xlink:href="#SVGID_111_"  overflow="visible"/>
			</clipPath>
			<rect x="75.854" y="256.36" clip-path="url(#SVGID_112_)" fill="#414753" width="13.136" height="10.374"/>
		</g>
	</g>
	<g>
		
			<line fill="none" stroke="#414753" stroke-linecap="round" stroke-linejoin="round" stroke-miterlimit="10" x1="70.603" y1="26.611" x2="70.603" y2="19.247"/>
		
			<line fill="none" stroke="#414753" stroke-linecap="round" stroke-linejoin="round" stroke-miterlimit="10" x1="70.194" y1="26.61" x2="74.285" y2="26.61"/>
		
			<line fill="none" stroke="#414753" stroke-linecap="round" stroke-linejoin="round" stroke-miterlimit="10" x1="69.785" y1="28.247" x2="87.785" y2="28.247"/>
		
			<line fill="none" stroke="#414753" stroke-linecap="round" stroke-linejoin="round" stroke-miterlimit="10" x1="70.194" y1="19.247" x2="74.285" y2="19.247"/>
		
			<line fill="none" stroke="#414753" stroke-linecap="round" stroke-linejoin="round" stroke-miterlimit="10" x1="76.74" y1="26.61" x2="80.831" y2="26.61"/>
		
			<line fill="none" stroke="#414753" stroke-linecap="round" stroke-linejoin="round" stroke-miterlimit="10" x1="76.74" y1="19.247" x2="80.831" y2="19.247"/>
		
			<line fill="none" stroke="#414753" stroke-linecap="round" stroke-linejoin="round" stroke-miterlimit="10" x1="72.24" y1="26.611" x2="72.24" y2="19.247"/>
		
			<line fill="none" stroke="#414753" stroke-linecap="round" stroke-linejoin="round" stroke-miterlimit="10" x1="73.876" y1="26.611" x2="73.876" y2="19.247"/>
		
			<line fill="none" stroke="#414753" stroke-linecap="round" stroke-linejoin="round" stroke-miterlimit="10" x1="77.148" y1="26.611" x2="77.148" y2="19.247"/>
		
			<line fill="none" stroke="#414753" stroke-linecap="round" stroke-linejoin="round" stroke-miterlimit="10" x1="78.785" y1="26.611" x2="78.785" y2="19.247"/>
		
			<line fill="none" stroke="#414753" stroke-linecap="round" stroke-linejoin="round" stroke-miterlimit="10" x1="80.422" y1="26.611" x2="80.422" y2="19.247"/>
		
			<line fill="none" stroke="#414753" stroke-linecap="round" stroke-linejoin="round" stroke-miterlimit="10" x1="83.285" y1="26.61" x2="87.376" y2="26.61"/>
		
			<line fill="none" stroke="#414753" stroke-linecap="round" stroke-linejoin="round" stroke-miterlimit="10" x1="83.285" y1="19.247" x2="87.376" y2="19.247"/>
		
			<line fill="none" stroke="#414753" stroke-linecap="round" stroke-linejoin="round" stroke-miterlimit="10" x1="83.694" y1="26.611" x2="83.694" y2="19.247"/>
		
			<line fill="none" stroke="#414753" stroke-linecap="round" stroke-linejoin="round" stroke-miterlimit="10" x1="85.331" y1="26.611" x2="85.331" y2="19.247"/>
		
			<line fill="none" stroke="#414753" stroke-linecap="round" stroke-linejoin="round" stroke-miterlimit="10" x1="86.967" y1="26.611" x2="86.967" y2="19.247"/>
		<polygon fill="none" stroke="#414753" stroke-linecap="round" stroke-linejoin="round" stroke-miterlimit="10" points="
			69.785,17.61 87.785,17.61 79.22,10.247 		"/>
	</g>
	<g>
		
			<rect x="69.785" y="88.96" fill="none" stroke="#414753" stroke-linecap="round" stroke-linejoin="round" stroke-miterlimit="10" width="7.826" height="7.826"/>
		
			<rect x="79.959" y="88.96" fill="none" stroke="#414753" stroke-linecap="round" stroke-linejoin="round" stroke-miterlimit="10" width="7.826" height="7.826"/>
		
			<rect x="69.785" y="99.134" fill="none" stroke="#414753" stroke-linecap="round" stroke-linejoin="round" stroke-miterlimit="10" width="7.826" height="7.826"/>
		
			<rect x="79.959" y="99.134" fill="none" stroke="#414753" stroke-linecap="round" stroke-linejoin="round" stroke-miterlimit="10" width="7.826" height="7.826"/>
	</g>
	<g>
		<path fill="none" stroke="#414753" stroke-linejoin="round" stroke-miterlimit="10" d="M77.887,138.734H80.8c0,0,0-1.153,0-1.729
			c0-0.192-1.153-0.77-2.114-1.152v-0.768c0,0,0.384-0.135,0.384-0.961c0.267,0,0.385-0.769,0.012-0.769
			c0-0.081,0.294-0.501,0.179-0.959c-0.191-0.77-2.112-0.77-2.304,0c-0.81-0.166-0.192,0.849-0.192,0.959
			c-0.385,0-0.268,0.769,0,0.769c0,0.826,0.384,0.961,0.384,0.961v0.768c-0.96,0.383-2.113,0.96-2.113,1.152
			c0,0.383,0,1.729,0,1.729H77.887z"/>
		<path fill="none" stroke="#414753" stroke-linejoin="round" stroke-miterlimit="10" d="M81.759,138.734h2.113c0,0,0-1.269,0-1.729
			c0-0.192-0.96-0.461-1.728-0.77v-0.575c0,0,0.384-0.107,0.384-0.768c0.215,0,0.297-0.769,0-0.769c0-0.065,0.311-0.409,0.192-0.769
			c-0.192-0.576-1.729-0.576-1.92,0c-0.648-0.131-0.193,0.681-0.193,0.769c-0.307,0-0.213,0.769,0,0.769
			c0,0.661,0.385,0.768,0.385,0.768v0.384"/>
	</g>
	<g>
		<path fill="none" stroke="#414753" stroke-linejoin="round" stroke-miterlimit="10" d="M87.785,142.707
			c0,0.686-0.525,1.242-1.174,1.242H70.959c-0.648,0-1.174-0.556-1.174-1.242v-11.603c0-0.687,0.525-1.242,1.174-1.242h15.652
			c0.648,0,1.174,0.556,1.174,1.242V142.707z"/>
		
			<line fill="none" stroke="#414753" stroke-linejoin="round" stroke-miterlimit="10" x1="73.307" y1="145.515" x2="84.263" y2="145.515"/>
		
			<line fill="none" stroke="#414753" stroke-linejoin="round" stroke-miterlimit="10" x1="78.785" y1="143.949" x2="78.785" y2="145.515"/>
		<circle fill="none" stroke="#414753" stroke-linejoin="round" stroke-miterlimit="10" cx="78.785" cy="142.384" r="0.391"/>
		
			<line fill="none" stroke="#414753" stroke-linejoin="round" stroke-miterlimit="10" x1="69.785" y1="140.82" x2="87.785" y2="140.82"/>
	</g>
</g>
<g>
	<path fill="none" stroke="#FFFFFF" stroke-miterlimit="10" d="M32.455,427.75c0,2.538-2.058,4.596-4.596,4.596
		c-2.539,0-4.596-2.058-4.596-4.596v-4.596c0-2.538,2.057-4.596,4.596-4.596c2.538,0,4.596,2.058,4.596,4.596V427.75z"/>
	<path fill="none" stroke="#FFFFFF" stroke-linecap="round" stroke-miterlimit="10" d="M21.732,426.218v1.532
		c0,3.427,2.701,6.128,6.127,6.128c3.426,0,6.127-2.701,6.127-6.128v-1.532"/>
	<line fill="none" stroke="#FFFFFF" stroke-miterlimit="10" x1="27.859" y1="433.878" x2="27.859" y2="436.559"/>
	
		<line fill="none" stroke="#FFFFFF" stroke-linecap="round" stroke-miterlimit="10" x1="27.859" y1="418.559" x2="27.859" y2="420.856"/>
	
		<line fill="none" stroke="#FFFFFF" stroke-linecap="round" stroke-miterlimit="10" x1="29.391" y1="418.941" x2="29.391" y2="420.856"/>
	
		<line fill="none" stroke="#FFFFFF" stroke-linecap="round" stroke-miterlimit="10" x1="26.328" y1="418.941" x2="26.328" y2="420.856"/>
	<line fill="none" stroke="#FFFFFF" stroke-miterlimit="10" x1="21.732" y1="427.75" x2="33.987" y2="427.75"/>
	
		<line fill="none" stroke="#FFFFFF" stroke-linecap="round" stroke-miterlimit="10" x1="23.264" y1="423.154" x2="26.328" y2="423.154"/>
	
		<line fill="none" stroke="#FFFFFF" stroke-linecap="round" stroke-miterlimit="10" x1="23.264" y1="424.686" x2="26.328" y2="424.686"/>
	
		<line fill="none" stroke="#FFFFFF" stroke-linecap="round" stroke-miterlimit="10" x1="32.455" y1="423.154" x2="29.391" y2="423.154"/>
	
		<line fill="none" stroke="#FFFFFF" stroke-linecap="round" stroke-miterlimit="10" x1="32.455" y1="424.686" x2="29.391" y2="424.686"/>
	
		<line fill="none" stroke="#FFFFFF" stroke-linecap="round" stroke-miterlimit="10" x1="23.264" y1="426.218" x2="26.328" y2="426.218"/>
	
		<line fill="none" stroke="#FFFFFF" stroke-linecap="round" stroke-miterlimit="10" x1="32.455" y1="426.218" x2="29.391" y2="426.218"/>
</g>
<g>
	<path fill="none" stroke="#414753" stroke-miterlimit="10" d="M78.848,425.644c0,2.538-2.058,4.596-4.596,4.596
		c-2.539,0-4.596-2.058-4.596-4.596v-4.596c0-2.538,2.057-4.596,4.596-4.596c2.538,0,4.596,2.058,4.596,4.596V425.644z"/>
	<path fill="none" stroke="#414753" stroke-linecap="round" stroke-miterlimit="10" d="M68.125,424.112v1.532
		c0,3.427,2.701,6.128,6.127,6.128c3.426,0,6.127-2.701,6.127-6.128v-1.532"/>
	<line fill="none" stroke="#414753" stroke-miterlimit="10" x1="74.252" y1="431.771" x2="74.252" y2="434.452"/>
	
		<line fill="none" stroke="#414753" stroke-linecap="round" stroke-miterlimit="10" x1="74.252" y1="416.452" x2="74.252" y2="418.75"/>
	
		<line fill="none" stroke="#414753" stroke-linecap="round" stroke-miterlimit="10" x1="75.784" y1="416.835" x2="75.784" y2="418.75"/>
	
		<line fill="none" stroke="#414753" stroke-linecap="round" stroke-miterlimit="10" x1="72.721" y1="416.835" x2="72.721" y2="418.75"/>
	<line fill="none" stroke="#414753" stroke-miterlimit="10" x1="68.125" y1="425.644" x2="80.38" y2="425.644"/>
	
		<line fill="none" stroke="#414753" stroke-linecap="round" stroke-miterlimit="10" x1="69.657" y1="421.048" x2="72.721" y2="421.048"/>
	
		<line fill="none" stroke="#414753" stroke-linecap="round" stroke-miterlimit="10" x1="69.657" y1="422.58" x2="72.721" y2="422.58"/>
	
		<line fill="none" stroke="#414753" stroke-linecap="round" stroke-miterlimit="10" x1="78.848" y1="421.048" x2="75.784" y2="421.048"/>
	
		<line fill="none" stroke="#414753" stroke-linecap="round" stroke-miterlimit="10" x1="78.848" y1="422.58" x2="75.784" y2="422.58"/>
	
		<line fill="none" stroke="#414753" stroke-linecap="round" stroke-miterlimit="10" x1="69.657" y1="424.112" x2="72.721" y2="424.112"/>
	
		<line fill="none" stroke="#414753" stroke-linecap="round" stroke-miterlimit="10" x1="78.848" y1="424.112" x2="75.784" y2="424.112"/>
</g>
<g>
	<path fill="none" stroke="#FFFFFF" stroke-miterlimit="10" d="M36.373,471.2c0,0.441-0.36,0.8-0.801,0.8H24.373
		c-0.44,0-0.801-0.359-0.801-0.8V464.8c0-0.44,0.36-0.8,0.801-0.8h11.199c0.44,0,0.801,0.36,0.801,0.8V471.2z"/>
	
		<line fill="none" stroke="#FFFFFF" stroke-linecap="round" stroke-miterlimit="10" x1="25.973" y1="466.4" x2="33.973" y2="466.4"/>
	<circle fill="none" stroke="#FFFFFF" stroke-linecap="round" stroke-miterlimit="10" cx="25.973" cy="459.2" r="3.2"/>
	<circle fill="none" stroke="#FFFFFF" stroke-linecap="round" stroke-miterlimit="10" cx="32.773" cy="460.4" r="2"/>
	<path fill="none" stroke="#FFFFFF" stroke-linecap="round" stroke-linejoin="round" stroke-miterlimit="10" d="M36.373,469.2
		l4.062,1.693c0.405,0.169,0.738-0.052,0.738-0.492V465.6c0-0.439-0.333-0.66-0.738-0.491l-4.062,1.692"/>
</g>
<g>
	<path fill="none" stroke="#414753" stroke-miterlimit="10" d="M79.437,469.6c0,0.441-0.36,0.8-0.801,0.8H67.437
		c-0.44,0-0.801-0.359-0.801-0.8v-6.399c0-0.44,0.36-0.8,0.801-0.8h11.199c0.44,0,0.801,0.36,0.801,0.8V469.6z"/>
	
		<line fill="none" stroke="#414753" stroke-linecap="round" stroke-miterlimit="10" x1="69.036" y1="464.801" x2="77.036" y2="464.801"/>
	<circle fill="none" stroke="#414753" stroke-linecap="round" stroke-miterlimit="10" cx="69.036" cy="457.6" r="3.2"/>
	<circle fill="none" stroke="#414753" stroke-linecap="round" stroke-miterlimit="10" cx="75.836" cy="458.801" r="2"/>
	<path fill="none" stroke="#414753" stroke-linecap="round" stroke-linejoin="round" stroke-miterlimit="10" d="M79.437,467.6
		l4.062,1.693c0.405,0.169,0.738-0.052,0.738-0.492V464c0-0.439-0.333-0.66-0.738-0.491l-4.062,1.692"/>
</g>
<g>
	<path fill="#414753" d="M73.668,494.938c0.292,0,0.528-0.236,0.528-0.528v-2.374c0-0.292-0.236-0.528-0.528-0.528
		s-0.528,0.236-0.528,0.528v2.374C73.141,494.702,73.377,494.938,73.668,494.938z"/>
	<path fill="#414753" d="M68.63,496.716c0.103,0.103,0.238,0.154,0.373,0.154s0.271-0.052,0.373-0.154
		c0.207-0.206,0.207-0.54,0-0.746l-1.68-1.68c-0.205-0.206-0.54-0.206-0.746,0c-0.206,0.206-0.206,0.54,0,0.747L68.63,496.716z"/>
	<path fill="#414753" d="M67.071,500.479h-2.375c-0.292,0-0.528,0.237-0.528,0.528s0.236,0.528,0.528,0.528h2.375
		c0.291,0,0.527-0.237,0.527-0.528S67.362,500.479,67.071,500.479z"/>
	<path fill="#414753" d="M78.333,496.87c0.135,0,0.271-0.052,0.374-0.154l1.679-1.679c0.206-0.207,0.206-0.541,0-0.747
		c-0.206-0.206-0.541-0.206-0.746,0l-1.679,1.68c-0.207,0.206-0.207,0.54,0,0.746C78.063,496.818,78.199,496.87,78.333,496.87z"/>
	<path fill="#414753" d="M82.641,500.479h-2.375c-0.292,0-0.528,0.237-0.528,0.528s0.236,0.528,0.528,0.528h2.375
		c0.292,0,0.528-0.237,0.528-0.528S82.932,500.479,82.641,500.479z"/>
</g>
<path fill="#414753" d="M73.668,495.466c-3.056,0-5.541,2.485-5.541,5.542c0,2.162,1.23,4.089,3.166,5.004v1.065
	c0,0.292,0.236,0.528,0.528,0.528h3.694c0.291,0,0.527-0.236,0.527-0.528v-1.065c1.936-0.915,3.167-2.842,3.167-5.004
	C79.21,497.951,76.724,495.466,73.668,495.466z M75.32,505.176c-0.201,0.08-0.333,0.273-0.333,0.49v0.883h-2.639v-0.883
	c0-0.217-0.132-0.41-0.333-0.49c-1.721-0.684-2.834-2.319-2.834-4.168c0-2.474,2.013-4.486,4.486-4.486
	c2.475,0,4.486,2.013,4.486,4.486C78.154,502.856,77.042,504.492,75.32,505.176z"/>
<g>
	<g>
		<path fill="#414753" d="M85.336,541.284l-1.256,0.874c0,0.3-0.055,0.601-0.109,0.9l0.982,1.146
			c-0.191,0.438-0.437,0.874-0.709,1.256l-1.501-0.272c-0.218,0.218-0.464,0.382-0.71,0.546l-0.109,1.528
			c-0.219,0.082-0.437,0.164-0.683,0.246c-0.246,0.055-0.464,0.109-0.71,0.136l-0.874-1.255c-0.3,0-0.601-0.055-0.901-0.109
			l-1.146,0.982c-0.437-0.191-0.874-0.437-1.256-0.71l0.273-1.501c-0.218-0.219-0.382-0.464-0.546-0.71l-1.529-0.109
			c-0.082-0.218-0.164-0.437-0.246-0.683c-0.055-0.245-0.109-0.464-0.136-0.709l1.255-0.874c0-0.3,0.055-0.601,0.109-0.9
			l-0.983-1.147c0.191-0.437,0.41-0.846,0.71-1.255l1.501,0.272c0.218-0.219,0.464-0.409,0.709-0.546l0.109-1.528
			c0.218-0.082,0.437-0.164,0.683-0.246c0.246-0.055,0.464-0.109,0.709-0.137l0.874,1.256c0.3,0,0.601,0.055,0.901,0.109
			l1.147-0.982c0.437,0.19,0.874,0.437,1.255,0.709l-0.273,1.502c0.219,0.219,0.382,0.464,0.546,0.737l1.529,0.108
			c0.082,0.219,0.164,0.438,0.246,0.683C85.282,540.82,85.309,541.039,85.336,541.284z M82.306,542.567
			c0.273-1.42-0.628-2.784-2.047-3.058c-1.392-0.272-2.785,0.628-3.058,2.048c-0.273,1.419,0.628,2.784,2.048,3.058
			C80.668,544.888,82.033,543.96,82.306,542.567z"/>
		<path fill="#414753" d="M77.529,550.047l-1.255,0.874c0,0.3-0.055,0.601-0.109,0.9l0.983,1.147
			c-0.191,0.437-0.437,0.846-0.71,1.228l-1.501-0.272c-0.218,0.219-0.464,0.409-0.737,0.546l-0.109,1.528
			c-0.218,0.082-0.437,0.164-0.683,0.246s-0.464,0.109-0.709,0.137l-0.874-1.256c-0.3,0-0.601-0.055-0.901-0.109l-1.147,0.982
			c-0.437-0.19-0.874-0.437-1.255-0.709l0.273-1.502c-0.219-0.218-0.382-0.464-0.546-0.737l-1.529-0.108
			c-0.082-0.219-0.164-0.438-0.246-0.683c-0.055-0.246-0.109-0.464-0.137-0.71l1.256-0.874c0-0.3,0.055-0.601,0.109-0.9
			l-0.982-1.146c0.191-0.437,0.409-0.874,0.709-1.256l1.501,0.272c0.219-0.218,0.464-0.382,0.71-0.546l0.109-1.528
			c0.219-0.082,0.437-0.164,0.683-0.246c0.246-0.055,0.464-0.108,0.71-0.136l0.874,1.255c0.3,0,0.601,0.055,0.901,0.109l1.146-0.982
			c0.437,0.191,0.846,0.437,1.229,0.71l-0.273,1.501c0.218,0.219,0.409,0.464,0.546,0.71l1.529,0.109
			c0.082,0.219,0.164,0.437,0.246,0.683C77.42,549.528,77.501,549.802,77.529,550.047z M74.499,551.33
			c0.273-1.392-0.627-2.784-2.047-3.058c-1.392-0.272-2.784,0.628-3.057,2.048s0.628,2.784,2.047,3.058
			C72.861,553.65,74.226,552.75,74.499,551.33z"/>
	</g>
</g>
<g>
	<g>
		<path fill="#FFFFFF" d="M39.473,541.284l-1.256,0.874c0,0.3-0.055,0.601-0.109,0.9l0.982,1.146
			c-0.191,0.438-0.437,0.874-0.709,1.256l-1.501-0.272c-0.218,0.218-0.464,0.382-0.71,0.546l-0.109,1.528
			c-0.219,0.082-0.437,0.164-0.683,0.246c-0.246,0.055-0.464,0.109-0.71,0.136l-0.874-1.255c-0.3,0-0.601-0.055-0.901-0.109
			l-1.146,0.982c-0.437-0.191-0.874-0.437-1.256-0.71l0.273-1.501c-0.218-0.219-0.382-0.464-0.546-0.71l-1.529-0.109
			c-0.082-0.218-0.164-0.437-0.246-0.683c-0.055-0.245-0.109-0.464-0.136-0.709l1.255-0.874c0-0.3,0.055-0.601,0.109-0.9
			l-0.983-1.147c0.191-0.437,0.41-0.846,0.71-1.255l1.501,0.272c0.218-0.219,0.464-0.409,0.709-0.546l0.109-1.528
			c0.218-0.082,0.437-0.164,0.683-0.246c0.246-0.055,0.464-0.109,0.709-0.137l0.874,1.256c0.3,0,0.601,0.055,0.901,0.109
			l1.147-0.982c0.437,0.19,0.874,0.437,1.255,0.709l-0.273,1.502c0.219,0.219,0.382,0.464,0.546,0.737l1.529,0.108
			c0.082,0.219,0.164,0.438,0.246,0.683C39.418,540.82,39.445,541.039,39.473,541.284z M36.442,542.567
			c0.273-1.42-0.628-2.784-2.047-3.058c-1.392-0.272-2.785,0.628-3.058,2.048c-0.273,1.419,0.628,2.784,2.048,3.058
			C34.805,544.888,36.169,543.96,36.442,542.567z"/>
		<path fill="#FFFFFF" d="M31.665,550.047l-1.255,0.874c0,0.3-0.055,0.601-0.109,0.9l0.983,1.147
			c-0.191,0.437-0.437,0.846-0.71,1.228l-1.501-0.272c-0.218,0.219-0.464,0.409-0.737,0.546l-0.109,1.528
			c-0.218,0.082-0.437,0.164-0.683,0.246s-0.464,0.109-0.709,0.137l-0.874-1.256c-0.3,0-0.601-0.055-0.901-0.109l-1.147,0.982
			c-0.437-0.19-0.874-0.437-1.255-0.709l0.273-1.502c-0.219-0.218-0.382-0.464-0.546-0.737l-1.529-0.108
			c-0.082-0.219-0.164-0.438-0.246-0.683c-0.055-0.246-0.109-0.464-0.137-0.71l1.256-0.874c0-0.3,0.055-0.601,0.109-0.9
			l-0.982-1.146c0.191-0.437,0.409-0.874,0.709-1.256l1.501,0.272c0.219-0.218,0.464-0.382,0.71-0.546l0.109-1.528
			c0.219-0.082,0.437-0.164,0.683-0.246c0.246-0.055,0.464-0.108,0.71-0.136l0.874,1.255c0.3,0,0.601,0.055,0.901,0.109l1.146-0.982
			c0.437,0.191,0.846,0.437,1.229,0.71l-0.273,1.501c0.218,0.219,0.409,0.464,0.546,0.71l1.529,0.109
			c0.082,0.219,0.164,0.437,0.246,0.683C31.556,549.528,31.638,549.802,31.665,550.047z M28.635,551.33
			c0.273-1.392-0.627-2.784-2.047-3.058c-1.392-0.272-2.784,0.628-3.057,2.048s0.628,2.784,2.047,3.058
			C26.997,553.65,28.362,552.75,28.635,551.33z"/>
	</g>
</g>
<g>
	<g>
		<g>
			<g>
				<path fill="#414753" d="M72.794,585.265c-0.277,0-0.5-0.225-0.5-0.5l0,0c0-0.275,0.223-0.501,0.5-0.501l0,0h13.5
					c0.276,0,0.499,0.226,0.499,0.501l0,0c0,0.275-0.223,0.5-0.499,0.5l0,0H72.794L72.794,585.265z"/>
			</g>
		</g>
		<g>
			<g>
				<g>
					<path fill="#414753" d="M80.625,579.802c-0.195-0.195-0.195-0.512,0-0.707l0,0c0.196-0.194,0.512-0.194,0.707,0l0,0
						l5.316,5.316c0.195,0.195,0.194,0.511-0.001,0.707l0,0c-0.195,0.195-0.511,0.195-0.706,0.001l0,0L80.625,579.802
						L80.625,579.802z"/>
				</g>
			</g>
		</g>
		<g>
			<g>
				<g>
					<path fill="#414753" d="M81.333,590.434c-0.196,0.194-0.512,0.194-0.708,0l0,0c-0.196-0.196-0.196-0.512,0-0.707l0,0
						l5.315-5.317c0.196-0.195,0.512-0.194,0.708,0.002l0,0c0.195,0.195,0.195,0.511,0.001,0.706l0,0L81.333,590.434L81.333,590.434
						z"/>
				</g>
			</g>
		</g>
	</g>
	<g>
		<path fill="#414753" d="M68.795,576.015c0-0.135,0.052-0.261,0.146-0.354l0,0c0.095-0.096,0.22-0.147,0.354-0.147l0,0l9.5,0.001
			c0.277,0,0.5,0.223,0.5,0.5l0,0c0,0.275-0.223,0.5-0.5,0.5l0,0l-8.999-0.002v16.502h8.999c0.277,0,0.5,0.224,0.5,0.499l0,0
			c0,0.277-0.223,0.5-0.5,0.5l0,0h-9.5c-0.133,0-0.259-0.052-0.354-0.146l0,0c-0.094-0.094-0.146-0.22-0.146-0.354l0,0V576.015
			L68.795,576.015z"/>
	</g>
</g>
<g>
	<g>
		<g>
			<g>
				<path fill="#FFFFFF" d="M28.402,585.266c-0.277,0-0.5-0.225-0.5-0.5l0,0c0-0.275,0.223-0.501,0.5-0.501l0,0h13.5
					c0.276,0,0.499,0.226,0.499,0.501l0,0c0,0.275-0.223,0.5-0.499,0.5l0,0H28.402L28.402,585.266z"/>
			</g>
		</g>
		<g>
			<g>
				<g>
					<path fill="#FFFFFF" d="M36.232,579.803c-0.195-0.195-0.195-0.512,0-0.707l0,0c0.196-0.195,0.512-0.195,0.707,0l0,0
						l5.316,5.316c0.195,0.195,0.194,0.511-0.001,0.707l0,0c-0.195,0.195-0.511,0.195-0.706,0.001l0,0L36.232,579.803
						L36.232,579.803z"/>
				</g>
			</g>
		</g>
		<g>
			<g>
				<g>
					<path fill="#FFFFFF" d="M36.941,590.434c-0.196,0.195-0.512,0.195-0.708,0l0,0c-0.196-0.195-0.196-0.511,0-0.706l0,0
						l5.315-5.317c0.196-0.195,0.512-0.194,0.708,0.002l0,0c0.195,0.195,0.195,0.511,0.001,0.706l0,0L36.941,590.434L36.941,590.434
						z"/>
				</g>
			</g>
		</g>
	</g>
	<g>
		<path fill="#FFFFFF" d="M24.403,576.016c0-0.135,0.052-0.261,0.146-0.354l0,0c0.095-0.096,0.22-0.147,0.354-0.147l0,0l9.5,0.001
			c0.277,0,0.5,0.223,0.5,0.5l0,0c0,0.275-0.223,0.5-0.5,0.5l0,0l-8.999-0.002v16.502h8.999c0.277,0,0.5,0.224,0.5,0.499l0,0
			c0,0.276-0.223,0.5-0.5,0.5l0,0h-9.5c-0.133,0-0.259-0.052-0.354-0.146l0,0c-0.094-0.095-0.146-0.22-0.146-0.354l0,0V576.016
			L24.403,576.016z"/>
	</g>
</g>
<rect x="71" y="508" fill="#414753" width="5" height="2"/>
<g>
	<path fill="#FFFFFF" d="M29.668,495.938c0.292,0,0.528-0.236,0.528-0.528v-2.374c0-0.292-0.236-0.528-0.528-0.528
		s-0.528,0.236-0.528,0.528v2.374C29.141,495.702,29.377,495.938,29.668,495.938z"/>
	<path fill="#FFFFFF" d="M24.63,497.716c0.103,0.103,0.238,0.154,0.373,0.154s0.271-0.052,0.373-0.154
		c0.207-0.206,0.207-0.54,0-0.746l-1.68-1.68c-0.205-0.206-0.54-0.206-0.746,0c-0.206,0.206-0.206,0.54,0,0.747L24.63,497.716z"/>
	<path fill="#FFFFFF" d="M23.071,501.479h-2.375c-0.292,0-0.528,0.237-0.528,0.528s0.236,0.528,0.528,0.528h2.375
		c0.291,0,0.527-0.237,0.527-0.528S23.362,501.479,23.071,501.479z"/>
	<path fill="#FFFFFF" d="M34.333,497.87c0.135,0,0.271-0.052,0.374-0.154l1.679-1.679c0.206-0.207,0.206-0.541,0-0.747
		c-0.206-0.206-0.541-0.206-0.746,0l-1.679,1.68c-0.207,0.206-0.207,0.54,0,0.746C34.063,497.818,34.199,497.87,34.333,497.87z"/>
	<path fill="#FFFFFF" d="M38.641,501.479h-2.375c-0.292,0-0.528,0.237-0.528,0.528s0.236,0.528,0.528,0.528h2.375
		c0.292,0,0.528-0.237,0.528-0.528S38.932,501.479,38.641,501.479z"/>
</g>
<path fill="#FFFFFF" d="M29.668,496.466c-3.056,0-5.541,2.485-5.541,5.542c0,2.162,1.23,4.089,3.166,5.004v1.065
	c0,0.292,0.236,0.528,0.528,0.528h3.694c0.291,0,0.527-0.236,0.527-0.528v-1.065c1.936-0.915,3.167-2.842,3.167-5.004
	C35.21,498.951,32.724,496.466,29.668,496.466z M31.32,506.176c-0.201,0.08-0.333,0.273-0.333,0.49v0.883h-2.639v-0.883
	c0-0.217-0.132-0.41-0.333-0.49c-1.721-0.684-2.834-2.319-2.834-4.168c0-2.474,2.013-4.486,4.486-4.486
	c2.475,0,4.486,2.013,4.486,4.486C34.154,503.856,33.042,505.492,31.32,506.176z"/>
<rect x="27" y="509" fill="#FFFFFF" width="5" height="2"/>
</svg>
