<?xml version="1.0" encoding="utf-8"?>
<!-- Generator: Adobe Illustrator 16.0.0, SVG Export Plug-In . SVG Version: 6.00 Build 0)  -->
<!DOCTYPE svg PUBLIC "-//W3C//DTD SVG 1.0//EN" "http://www.w3.org/TR/2001/REC-SVG-20010904/DTD/svg10.dtd">
<svg version="1.0" id="Layer_1" xmlns="http://www.w3.org/2000/svg" xmlns:xlink="http://www.w3.org/1999/xlink" x="0px" y="0px"
	 width="560px" height="789px" viewBox="0 0 560 789" enable-background="new 0 0 560 789" xml:space="preserve">
<rect x="2.2" y="1" display="none" fill="#EC1E24" stroke="#231F20" stroke-miterlimit="10" width="557.8" height="788"/>
<g>
	<path fill="none" stroke="#FFFFFF" stroke-linecap="round" stroke-linejoin="round" stroke-miterlimit="10" d="M38.3,189.2
		c0,0,1.7-1.3,1.7-2.2c0-1.1-1.4-1.4-1.7-0.1c-0.3-1.3-1.7-1-1.7,0.1C36.6,187.9,38.3,189.2,38.3,189.2z"/>
	<polyline fill="none" stroke="#FFFFFF" stroke-linecap="round" stroke-linejoin="round" stroke-miterlimit="10" points="
		33.6,192.6 23.8,192.6 23.8,176 32.5,176 36.4,180 36.4,182.8 	"/>
	<polyline fill="none" stroke="#FFFFFF" stroke-linecap="round" stroke-linejoin="round" stroke-miterlimit="10" points="
		32.5,176.4 32.5,180 36,180 	"/>
	
		<ellipse transform="matrix(1 -9.635601e-003 9.635601e-003 1 -1.8047 0.378)" fill="none" stroke="#FFFFFF" stroke-linecap="round" stroke-linejoin="round" stroke-miterlimit="10" cx="38.3" cy="187.5" rx="3.5" ry="3.6"/>
	<polyline fill="none" stroke="#FFFFFF" stroke-linecap="round" stroke-linejoin="round" stroke-miterlimit="10" points="
		40.2,190.5 41.1,194.2 35.6,194.2 36.4,190.5 	"/>
	
		<line fill="none" stroke="#FFFFFF" stroke-linecap="round" stroke-linejoin="round" stroke-miterlimit="10" x1="26.6" y1="182.4" x2="30.5" y2="182.4"/>
	
		<line fill="none" stroke="#FFFFFF" stroke-linecap="round" stroke-linejoin="round" stroke-miterlimit="10" x1="26.6" y1="184.7" x2="32.1" y2="184.7"/>
	
		<line fill="none" stroke="#FFFFFF" stroke-linecap="round" stroke-linejoin="round" stroke-miterlimit="10" x1="26.6" y1="187.1" x2="32.1" y2="187.1"/>
	
		<line fill="none" stroke="#FFFFFF" stroke-linecap="round" stroke-linejoin="round" stroke-miterlimit="10" x1="26.6" y1="189.5" x2="32.1" y2="189.5"/>
</g>
<g>
	<defs>
		<path id="SVGID_1_" d="M30.1,218.3c-0.6,0-1.3,0.3-1.7,0.7c-0.5,0.5-0.7,1.1-0.7,1.8l-0.1,9.7c0,1,0.8,1.8,1.7,1.8
			c0.5,0,0.9-0.2,1.2-0.5c0.3-0.3,0.5-0.8,0.5-1.3l0-7.1c0-0.2-0.1-0.3-0.3-0.3c-0.2,0-0.3,0.1-0.3,0.3l0,7.1c0,0.6-0.5,1.2-1.1,1.2
			c-0.6,0-1.1-0.5-1.1-1.2l0.1-9.7c0-0.5,0.2-1,0.5-1.4c0.4-0.4,0.8-0.6,1.3-0.6c1,0,1.8,0.9,1.8,2L31.9,233c0,1.5-1.2,2.7-2.6,2.7
			c-0.7,0-1.3-0.3-1.8-0.8c-0.5-0.5-0.7-1.2-0.7-1.9l0.1-9.5c0-0.2-0.1-0.3-0.3-0.3c-0.2,0-0.3,0.1-0.3,0.3l-0.1,9.5
			c0,0.9,0.3,1.7,0.9,2.3c0.6,0.6,1.4,1,2.2,1c0.9,0,1.6-0.4,2.2-1c0.6-0.6,0.9-1.4,0.9-2.3l0.1-12.2
			C32.6,219.4,31.5,218.3,30.1,218.3"/>
	</defs>
	<clipPath id="SVGID_2_">
		<use xlink:href="#SVGID_1_"  overflow="visible"/>
	</clipPath>
	<g clip-path="url(#SVGID_2_)">
		<defs>
			<rect id="SVGID_3_" x="24.6" y="217.5" width="9.5" height="19.9"/>
		</defs>
		<clipPath id="SVGID_4_">
			<use xlink:href="#SVGID_3_"  overflow="visible"/>
		</clipPath>
		<rect x="22.3" y="214.3" clip-path="url(#SVGID_4_)" fill="#FFFFFF" width="14.3" height="25.9"/>
	</g>
</g>
<g>
	<g>
		<defs>
			<rect id="SVGID_5_" x="18.6" y="385.1" width="13.6" height="13.1"/>
		</defs>
		<clipPath id="SVGID_6_">
			<use xlink:href="#SVGID_5_"  overflow="visible"/>
		</clipPath>
		<g clip-path="url(#SVGID_6_)">
			<defs>
				<rect id="SVGID_7_" x="18.6" y="384.7" width="18.2" height="15"/>
			</defs>
			<clipPath id="SVGID_8_">
				<use xlink:href="#SVGID_7_"  overflow="visible"/>
			</clipPath>
			<g clip-path="url(#SVGID_8_)" enable-background="new    ">
				<g>
					<defs>
						<rect id="SVGID_9_" x="18.6" y="384.7" width="14.2" height="14.2"/>
					</defs>
					<clipPath id="SVGID_10_">
						<use xlink:href="#SVGID_9_"  overflow="visible"/>
					</clipPath>
					<g clip-path="url(#SVGID_10_)">
						<defs>
							<path id="SVGID_11_" d="M32.1,390c0-2.7-2.1-4.9-4.6-4.9h-4.3c-2.5,0-4.6,2.2-4.6,4.9c0,2.3,1.5,4.3,3.5,4.8v3
								c0,0.1,0.1,0.3,0.2,0.3c0,0,0.1,0,0.1,0c0.1,0,0.2,0,0.2-0.1l3.6-3.1h1.2C30.1,394.9,32.1,392.7,32.1,390z M26.2,394.2
								c-0.1,0-0.2,0-0.2,0.1l-3.1,2.7v-2.5c0-0.2-0.1-0.3-0.3-0.4c-1.9-0.4-3.2-2.1-3.2-4.2c0-2.3,1.7-4.2,3.9-4.2h4.3
								c2.1,0,3.9,1.9,3.9,4.2c0,2.3-1.7,4.2-3.9,4.2H26.2z"/>
						</defs>
						<clipPath id="SVGID_12_">
							<use xlink:href="#SVGID_11_"  overflow="visible"/>
						</clipPath>
						<g clip-path="url(#SVGID_12_)">
							<defs>
								<rect id="SVGID_13_" x="18.6" y="384.7" width="14.2" height="14.2"/>
							</defs>
							<clipPath id="SVGID_14_">
								<use xlink:href="#SVGID_13_"  overflow="visible"/>
							</clipPath>
							<rect x="14.6" y="381.1" clip-path="url(#SVGID_14_)" fill="#FFFFFF" width="21.5" height="21"/>
						</g>
					</g>
				</g>
			</g>
		</g>
	</g>
	<g>
		<defs>
			<path id="SVGID_15_" d="M33.2,390.3c-0.2,0-0.4,0.2-0.4,0.4c0,0.2,0.2,0.4,0.4,0.4c1.5,0,2.7,1.3,2.7,2.9c0,1.6-1.1,2.8-2.6,2.9
				c-0.2,0-0.4,0.2-0.4,0.4v1.2l-1.4-1.4c-0.1-0.1-0.2-0.1-0.3-0.1h-1.2c-0.8,0-1.6-0.4-2.1-1.2c-0.1-0.2-0.3-0.2-0.5-0.1
				c-0.2,0.1-0.2,0.3-0.1,0.5c0.6,0.9,1.7,1.5,2.7,1.5h1l1.9,1.9c0.1,0.1,0.2,0.1,0.3,0.1c0,0,0.1,0,0.1,0c0.1-0.1,0.2-0.2,0.2-0.3
				v-1.7c1.7-0.2,2.9-1.7,2.9-3.6C36.6,392,35.1,390.3,33.2,390.3"/>
		</defs>
		<clipPath id="SVGID_16_">
			<use xlink:href="#SVGID_15_"  overflow="visible"/>
		</clipPath>
		<g clip-path="url(#SVGID_16_)">
			<defs>
				<rect id="SVGID_17_" x="18.6" y="384.7" width="18.2" height="15"/>
			</defs>
			<clipPath id="SVGID_18_">
				<use xlink:href="#SVGID_17_"  overflow="visible"/>
			</clipPath>
			<rect x="23.4" y="386.4" clip-path="url(#SVGID_18_)" fill="#FFFFFF" width="17.1" height="17.1"/>
		</g>
	</g>
	<g>
		<defs>
			<path id="SVGID_19_" d="M28.9,388.9c0-0.2-0.2-0.4-0.4-0.4h-6.5c-0.2,0-0.4,0.2-0.4,0.4c0,0.2,0.2,0.4,0.4,0.4h6.5
				C28.8,389.3,28.9,389.1,28.9,388.9"/>
		</defs>
		<clipPath id="SVGID_20_">
			<use xlink:href="#SVGID_19_"  overflow="visible"/>
		</clipPath>
		<g clip-path="url(#SVGID_20_)">
			<defs>
				<rect id="SVGID_21_" x="18.6" y="384.7" width="18.2" height="15"/>
			</defs>
			<clipPath id="SVGID_22_">
				<use xlink:href="#SVGID_21_"  overflow="visible"/>
			</clipPath>
			<rect x="17.8" y="384.6" clip-path="url(#SVGID_22_)" fill="#FFFFFF" width="15.1" height="8.6"/>
		</g>
	</g>
	<g>
		<defs>
			<path id="SVGID_23_" d="M25.3,390.8h-3.2c-0.2,0-0.4,0.2-0.4,0.4c0,0.2,0.2,0.4,0.4,0.4h3.2c0.2,0,0.4-0.2,0.4-0.4
				C25.7,391,25.5,390.8,25.3,390.8"/>
		</defs>
		<clipPath id="SVGID_24_">
			<use xlink:href="#SVGID_23_"  overflow="visible"/>
		</clipPath>
		<g clip-path="url(#SVGID_24_)">
			<defs>
				<rect id="SVGID_25_" x="18.6" y="384.7" width="18.2" height="15"/>
			</defs>
			<clipPath id="SVGID_26_">
				<use xlink:href="#SVGID_25_"  overflow="visible"/>
			</clipPath>
			<rect x="17.8" y="386.9" clip-path="url(#SVGID_26_)" fill="#FFFFFF" width="11.8" height="8.6"/>
		</g>
	</g>
</g>
<g>
	<defs>
		<rect id="SVGID_27_" x="6.7" y="294.7" width="48" height="34"/>
	</defs>
	<clipPath id="SVGID_28_">
		<use xlink:href="#SVGID_27_"  overflow="visible"/>
	</clipPath>
	
		<line clip-path="url(#SVGID_28_)" fill="none" stroke="#FFFFFF" stroke-linecap="round" stroke-linejoin="round" stroke-miterlimit="10" x1="32.5" y1="307.1" x2="38.7" y2="300.9"/>
	
		<line clip-path="url(#SVGID_28_)" fill="none" stroke="#FFFFFF" stroke-linecap="round" stroke-linejoin="round" stroke-miterlimit="10" x1="24.6" y1="303.1" x2="28.4" y2="306.9"/>
	
		<path clip-path="url(#SVGID_28_)" fill="none" stroke="#FFFFFF" stroke-linecap="round" stroke-linejoin="round" stroke-miterlimit="10" d="
		M32.9,307.8c-0.5-0.8-1.4-1.4-2.5-1.4c-1.1,0-2,0.6-2.5,1.4"/>
	<path clip-path="url(#SVGID_28_)" fill="none" stroke="#FFFFFF" stroke-miterlimit="10" d="M39,317.5c0,2.5-2.1,4.6-4.7,4.6h-7.9
		c-2.6,0-4.7-2.1-4.7-4.6v-4.8c0-2.5,2.1-4.6,4.7-4.6h7.9c2.6,0,4.7,2.1,4.7,4.6V317.5z"/>
</g>
<g>
	<defs>
		<path id="SVGID_29_" d="M26.2,320.4c-0.2,0-0.4-0.1-0.5-0.3c-0.5-0.4-0.5-1.1,0-1.6c0.2-0.2,0.5-0.4,0.9-0.4
			c0.3,0,0.6,0.1,0.8,0.3c0.5,0.4,0.5,1.1,0,1.6c-0.2,0.2-0.5,0.4-0.8,0.4C26.4,320.4,26.3,320.4,26.2,320.4 M26.6,318.4
			c-0.1,0-0.1,0-0.2,0c-0.3,0-0.5,0.1-0.7,0.3c-0.4,0.4-0.3,1,0,1.3c0.2,0.2,0.4,0.2,0.6,0.2c0.2,0,0.5-0.1,0.6-0.3
			c0.4-0.4,0.3-1,0-1.3C27,318.4,26.8,318.4,26.6,318.4"/>
	</defs>
	<clipPath id="SVGID_30_">
		<use xlink:href="#SVGID_29_"  overflow="visible"/>
	</clipPath>
	<g clip-path="url(#SVGID_30_)">
		<defs>
			<rect id="SVGID_31_" x="6.7" y="294.7" width="48" height="34"/>
		</defs>
		<clipPath id="SVGID_32_">
			<use xlink:href="#SVGID_31_"  overflow="visible"/>
		</clipPath>
		<rect x="20.3" y="313.1" clip-path="url(#SVGID_32_)" fill="#FFFFFF" width="12.3" height="12.3"/>
	</g>
</g>
<g>
	<defs>
		<path id="SVGID_33_" d="M34.4,315.1c-0.3-0.1-0.7-0.2-1-0.3c-0.6-0.4-1-0.9-1.2-1.6c-0.1-0.7,0-1.4,0.5-2c0.9-1.2,2.7-1.6,4-0.9
			c0.6,0.4,1,0.9,1.2,1.6c0.1,0.7,0,1.4-0.5,2C36.7,314.9,35.5,315.3,34.4,315.1 M35.7,310.3c-1-0.2-2.1,0.2-2.7,1.1
			c-0.4,0.5-0.6,1.2-0.4,1.8c0.1,0.6,0.5,1.1,1.1,1.4c1.2,0.7,2.8,0.3,3.6-0.8c0.4-0.5,0.5-1.2,0.4-1.8c-0.1-0.6-0.5-1.1-1.1-1.4
			C36.3,310.4,36,310.3,35.7,310.3"/>
	</defs>
	<clipPath id="SVGID_34_">
		<use xlink:href="#SVGID_33_"  overflow="visible"/>
	</clipPath>
	<g clip-path="url(#SVGID_34_)">
		<defs>
			<rect id="SVGID_35_" x="6.7" y="294.7" width="48" height="34"/>
		</defs>
		<clipPath id="SVGID_36_">
			<use xlink:href="#SVGID_35_"  overflow="visible"/>
		</clipPath>
		<rect x="27.2" y="305" clip-path="url(#SVGID_36_)" fill="#FFFFFF" width="15.8" height="15.2"/>
	</g>
</g>
<g>
	<defs>
		<path id="SVGID_37_" d="M30,318.2c-0.3,0-0.6-0.2-0.8-0.4c-0.4-0.3-0.6-0.7-0.6-1.1c0-0.4,0.1-0.9,0.5-1.2
			c0.7-0.7,1.8-0.8,2.6-0.2l0,0c0.4,0.3,0.6,0.7,0.6,1.1c0,0.4-0.1,0.9-0.5,1.2C31.3,318.1,30.6,318.3,30,318.2 M30.7,315.2
			c-0.5-0.1-1.1,0.1-1.5,0.5c-0.3,0.3-0.4,0.6-0.4,1c0,0.4,0.2,0.7,0.5,0.9c0.6,0.5,1.7,0.4,2.2-0.2c0.3-0.3,0.4-0.6,0.4-1
			c0-0.4-0.2-0.7-0.5-0.9C31.2,315.4,31,315.3,30.7,315.2"/>
	</defs>
	<clipPath id="SVGID_38_">
		<use xlink:href="#SVGID_37_"  overflow="visible"/>
	</clipPath>
	<g clip-path="url(#SVGID_38_)">
		<defs>
			<rect id="SVGID_39_" x="6.7" y="294.7" width="48" height="34"/>
		</defs>
		<clipPath id="SVGID_40_">
			<use xlink:href="#SVGID_39_"  overflow="visible"/>
		</clipPath>
		<rect x="23.5" y="310" clip-path="url(#SVGID_40_)" fill="#FFFFFF" width="13.7" height="13.2"/>
	</g>
</g>
<g>
	<defs>
		<rect id="SVGID_41_" x="20.7" y="342.4" width="18" height="18.3"/>
	</defs>
	<clipPath id="SVGID_42_">
		<use xlink:href="#SVGID_41_"  overflow="visible"/>
	</clipPath>
	<path clip-path="url(#SVGID_42_)" fill="none" stroke="#FFFFFF" stroke-linejoin="round" stroke-miterlimit="10" d="M38.3,350.6
		c0,3.8-3.9,6.9-8.6,6.9c-1.1,0-2.1-0.2-3-0.4l-5,2.3l1.9-3.8c-1.6-1.3-2.6-3-2.6-4.9c0-3.8,3.9-6.9,8.6-6.9S38.3,346.8,38.3,350.6z
		"/>
	
		<path clip-path="url(#SVGID_42_)" fill="none" stroke="#FFFFFF" stroke-linecap="round" stroke-linejoin="round" stroke-miterlimit="10" d="
		M27.8,349.3c0-1.2,1-2.3,2.3-2.3c1.2,0,2.3,1,2.3,2.2c0,1.2-1,2.2-2.3,2.2v0.9"/>
	
		<ellipse clip-path="url(#SVGID_42_)" fill="none" stroke="#FFFFFF" stroke-linejoin="round" stroke-miterlimit="10" cx="30.1" cy="354" rx="0.4" ry="0.4"/>
</g>
<g>
	<g>
		<defs>
			<path id="SVGID_43_" d="M29.8,272.3c0.5,0,1-0.4,1-1s-0.4-1-1-1c-0.5,0-1,0.4-1,1S29.3,272.3,29.8,272.3 M29.8,271.1
				c0.1,0,0.2,0.1,0.2,0.2c0,0.1-0.1,0.2-0.2,0.2c-0.1,0-0.2-0.1-0.2-0.2C29.6,271.2,29.7,271.1,29.8,271.1"/>
		</defs>
		<clipPath id="SVGID_44_">
			<use xlink:href="#SVGID_43_"  overflow="visible"/>
		</clipPath>
		<rect x="24.1" y="265.5" clip-path="url(#SVGID_44_)" fill="#FFFFFF" width="11.5" height="11.5"/>
	</g>
	<g>
		<defs>
			<rect id="SVGID_45_" x="24.3" y="254.6" width="18" height="19"/>
		</defs>
		<clipPath id="SVGID_46_">
			<use xlink:href="#SVGID_45_"  overflow="visible"/>
		</clipPath>
		<g clip-path="url(#SVGID_46_)" enable-background="new    ">
			<g>
				<defs>
					<rect id="SVGID_47_" x="24.3" y="254.2" width="18.3" height="20.2"/>
				</defs>
				<clipPath id="SVGID_48_">
					<use xlink:href="#SVGID_47_"  overflow="visible"/>
				</clipPath>
				<g clip-path="url(#SVGID_48_)">
					<defs>
						<path id="SVGID_49_" d="M38.1,255.5H35c-0.4-0.6-1-0.9-1.7-0.9h-7c-1.1,0-2,0.9-2,2v0.6v12.7v1.7c0,1.1,0.9,2,2,2h7
							c1.1,0,2-0.9,2-2v-1.7v-3.6l1.7-1.5h1.1c2.4,0,4.3-2.1,4.3-4.7S40.4,255.5,38.1,255.5z M25.1,256.6c0-0.7,0.5-1.2,1.2-1.2h7
							c0.2,0,0.4,0.1,0.6,0.2c-1.2,0.1-2.3,0.7-3.1,1.7h-5.8V256.6z M34.5,271.6c0,0.7-0.5,1.2-1.2,1.2h-7c-0.7,0-1.2-0.5-1.2-1.2
							v-1.7h9.4V271.6z M34.5,269.1h-9.4v-11.2h5.3c-0.3,0.7-0.5,1.4-0.5,2.2c0,2.1,1.3,4,3.2,4.5v2.8c0,0.2,0.1,0.3,0.2,0.3
							c0,0,0.1,0,0.2,0c0.1,0,0.2,0,0.3-0.1l0.8-0.7V269.1z M38.1,264.1h-1.2c-0.1,0-0.2,0-0.3,0.1l-2.8,2.4v-2.2
							c0-0.2-0.1-0.3-0.3-0.4c-1.7-0.3-2.9-1.9-2.9-3.8c0-2.2,1.6-3.9,3.5-3.9h3.9c1.9,0,3.5,1.8,3.5,3.9
							C41.6,262.3,40,264.1,38.1,264.1z"/>
					</defs>
					<clipPath id="SVGID_50_">
						<use xlink:href="#SVGID_49_"  overflow="visible"/>
					</clipPath>
					<g clip-path="url(#SVGID_50_)">
						<defs>
							<rect id="SVGID_51_" x="24.3" y="254.2" width="18.3" height="20.2"/>
						</defs>
						<clipPath id="SVGID_52_">
							<use xlink:href="#SVGID_51_"  overflow="visible"/>
						</clipPath>
						<rect x="19.5" y="249.8" clip-path="url(#SVGID_52_)" fill="#FFFFFF" width="27.6" height="28.6"/>
					</g>
				</g>
			</g>
		</g>
	</g>
	<g>
		<defs>
			<path id="SVGID_53_" d="M39,259h-5.6c-0.2,0-0.4,0.2-0.4,0.4s0.2,0.4,0.4,0.4H39c0.2,0,0.4-0.2,0.4-0.4S39.2,259,39,259"/>
		</defs>
		<clipPath id="SVGID_54_">
			<use xlink:href="#SVGID_53_"  overflow="visible"/>
		</clipPath>
		<rect x="28.2" y="254.2" clip-path="url(#SVGID_54_)" fill="#FFFFFF" width="16" height="10.4"/>
	</g>
	<g>
		<defs>
			<path id="SVGID_55_" d="M36.1,261.2h-2.8c-0.2,0-0.4,0.2-0.4,0.4s0.2,0.4,0.4,0.4h2.8c0.2,0,0.4-0.2,0.4-0.4
				S36.3,261.2,36.1,261.2"/>
		</defs>
		<clipPath id="SVGID_56_">
			<use xlink:href="#SVGID_55_"  overflow="visible"/>
		</clipPath>
		<rect x="28.2" y="256.4" clip-path="url(#SVGID_56_)" fill="#FFFFFF" width="13.1" height="10.4"/>
	</g>
</g>
<g>
	
		<line fill="none" stroke="#FFFFFF" stroke-linecap="round" stroke-linejoin="round" stroke-miterlimit="10" x1="22.9" y1="26.6" x2="22.9" y2="19.2"/>
	
		<line fill="none" stroke="#FFFFFF" stroke-linecap="round" stroke-linejoin="round" stroke-miterlimit="10" x1="22.5" y1="26.6" x2="26.6" y2="26.6"/>
	
		<line fill="none" stroke="#FFFFFF" stroke-linecap="round" stroke-linejoin="round" stroke-miterlimit="10" x1="22.1" y1="28.2" x2="40.1" y2="28.2"/>
	
		<line fill="none" stroke="#FFFFFF" stroke-linecap="round" stroke-linejoin="round" stroke-miterlimit="10" x1="22.5" y1="19.2" x2="26.6" y2="19.2"/>
	
		<line fill="none" stroke="#FFFFFF" stroke-linecap="round" stroke-linejoin="round" stroke-miterlimit="10" x1="29.1" y1="26.6" x2="33.2" y2="26.6"/>
	
		<line fill="none" stroke="#FFFFFF" stroke-linecap="round" stroke-linejoin="round" stroke-miterlimit="10" x1="29.1" y1="19.2" x2="33.2" y2="19.2"/>
	
		<line fill="none" stroke="#FFFFFF" stroke-linecap="round" stroke-linejoin="round" stroke-miterlimit="10" x1="24.6" y1="26.6" x2="24.6" y2="19.2"/>
	
		<line fill="none" stroke="#FFFFFF" stroke-linecap="round" stroke-linejoin="round" stroke-miterlimit="10" x1="26.2" y1="26.6" x2="26.2" y2="19.2"/>
	
		<line fill="none" stroke="#FFFFFF" stroke-linecap="round" stroke-linejoin="round" stroke-miterlimit="10" x1="29.5" y1="26.6" x2="29.5" y2="19.2"/>
	
		<line fill="none" stroke="#FFFFFF" stroke-linecap="round" stroke-linejoin="round" stroke-miterlimit="10" x1="31.1" y1="26.6" x2="31.1" y2="19.2"/>
	
		<line fill="none" stroke="#FFFFFF" stroke-linecap="round" stroke-linejoin="round" stroke-miterlimit="10" x1="32.8" y1="26.6" x2="32.8" y2="19.2"/>
	
		<line fill="none" stroke="#FFFFFF" stroke-linecap="round" stroke-linejoin="round" stroke-miterlimit="10" x1="35.6" y1="26.6" x2="39.7" y2="26.6"/>
	
		<line fill="none" stroke="#FFFFFF" stroke-linecap="round" stroke-linejoin="round" stroke-miterlimit="10" x1="35.6" y1="19.2" x2="39.7" y2="19.2"/>
	
		<line fill="none" stroke="#FFFFFF" stroke-linecap="round" stroke-linejoin="round" stroke-miterlimit="10" x1="36" y1="26.6" x2="36" y2="19.2"/>
	
		<line fill="none" stroke="#FFFFFF" stroke-linecap="round" stroke-linejoin="round" stroke-miterlimit="10" x1="37.7" y1="26.6" x2="37.7" y2="19.2"/>
	
		<line fill="none" stroke="#FFFFFF" stroke-linecap="round" stroke-linejoin="round" stroke-miterlimit="10" x1="39.3" y1="26.6" x2="39.3" y2="19.2"/>
	<polygon fill="none" stroke="#FFFFFF" stroke-linecap="round" stroke-linejoin="round" stroke-miterlimit="10" points="22.1,17.6 
		40.1,17.6 31.6,10.2 	"/>
</g>
<g>
	
		<rect x="22.1" y="89" fill="none" stroke="#FFFFFF" stroke-linecap="round" stroke-linejoin="round" stroke-miterlimit="10" width="7.8" height="7.8"/>
	
		<rect x="32.3" y="89" fill="none" stroke="#FFFFFF" stroke-linecap="round" stroke-linejoin="round" stroke-miterlimit="10" width="7.8" height="7.8"/>
	
		<rect x="22.1" y="99.1" fill="none" stroke="#FFFFFF" stroke-linecap="round" stroke-linejoin="round" stroke-miterlimit="10" width="7.8" height="7.8"/>
	
		<rect x="32.3" y="99.1" fill="none" stroke="#FFFFFF" stroke-linecap="round" stroke-linejoin="round" stroke-miterlimit="10" width="7.8" height="7.8"/>
</g>
<g>
	<path fill="none" stroke="#FFFFFF" stroke-linejoin="round" stroke-miterlimit="10" d="M30.2,138.7h2.9c0,0,0-1.2,0-1.7
		c0-0.2-1.2-0.8-2.1-1.2v-0.8c0,0,0.4-0.1,0.4-1c0.3,0,0.4-0.8,0-0.8c0-0.1,0.3-0.5,0.2-1c-0.2-0.8-2.1-0.8-2.3,0
		c-0.8-0.2-0.2,0.8-0.2,1c-0.4,0-0.3,0.8,0,0.8c0,0.8,0.4,1,0.4,1v0.8c-1,0.4-2.1,1-2.1,1.2c0,0.4,0,1.7,0,1.7H30.2z"/>
	<path fill="none" stroke="#FFFFFF" stroke-linejoin="round" stroke-miterlimit="10" d="M34.1,138.7h2.1c0,0,0-1.3,0-1.7
		c0-0.2-1-0.5-1.7-0.8v-0.6c0,0,0.4-0.1,0.4-0.8c0.2,0,0.3-0.8,0-0.8c0-0.1,0.3-0.4,0.2-0.8c-0.2-0.6-1.7-0.6-1.9,0
		c-0.6-0.1-0.2,0.7-0.2,0.8c-0.3,0-0.2,0.8,0,0.8c0,0.7,0.4,0.8,0.4,0.8v0.4"/>
</g>
<g>
	<g>
		<polygon fill="none" stroke="#FFFFFF" stroke-linejoin="round" stroke-miterlimit="10" points="30.6,51.1 33.9,57.6 39.6,57.6 
			34.7,61.7 37.2,69.1 30.6,64.6 24.1,69.1 26.5,61.7 21.6,57.6 27.3,57.6 		"/>
	</g>
	<g>
		<path fill="none" stroke="#FFFFFF" stroke-linejoin="round" stroke-miterlimit="10" d="M40.1,142.7c0,0.7-0.5,1.2-1.2,1.2H23.3
			c-0.6,0-1.2-0.6-1.2-1.2v-11.6c0-0.7,0.5-1.2,1.2-1.2h15.7c0.6,0,1.2,0.6,1.2,1.2V142.7z"/>
		<line fill="none" stroke="#FFFFFF" stroke-linejoin="round" stroke-miterlimit="10" x1="25.6" y1="145.5" x2="36.6" y2="145.5"/>
		<line fill="none" stroke="#FFFFFF" stroke-linejoin="round" stroke-miterlimit="10" x1="31.1" y1="143.9" x2="31.1" y2="145.5"/>
		<circle fill="none" stroke="#FFFFFF" stroke-linejoin="round" stroke-miterlimit="10" cx="31.1" cy="142.4" r="0.4"/>
		<line fill="none" stroke="#FFFFFF" stroke-linejoin="round" stroke-miterlimit="10" x1="22.1" y1="140.8" x2="40.1" y2="140.8"/>
	</g>
</g>
<g id="Gray">
	<g>
		<polygon fill="none" stroke="#414753" stroke-linejoin="round" stroke-miterlimit="10" points="78.3,51.1 81.6,57.6 87.3,57.6 
			82.4,61.7 84.8,69.1 78.3,64.6 71.7,69.1 74.2,61.7 69.3,57.6 75,57.6 		"/>
	</g>
	<g>
		<path fill="none" stroke="#414753" stroke-linecap="round" stroke-linejoin="round" stroke-miterlimit="10" d="M86,189.2
			c0,0,1.7-1.3,1.7-2.2c0-1.1-1.4-1.4-1.7-0.1c-0.3-1.3-1.7-1-1.7,0.1C84.2,187.9,86,189.2,86,189.2z"/>
		<polyline fill="none" stroke="#414753" stroke-linecap="round" stroke-linejoin="round" stroke-miterlimit="10" points="
			81.3,192.6 71.5,192.6 71.5,176 80.1,176 84,180 84,182.8 		"/>
		<polyline fill="none" stroke="#414753" stroke-linecap="round" stroke-linejoin="round" stroke-miterlimit="10" points="
			80.1,176.4 80.1,180 83.6,180 		"/>
		
			<ellipse transform="matrix(1 -9.635601e-003 9.635601e-003 1 -1.8025 0.8373)" fill="none" stroke="#414753" stroke-linecap="round" stroke-linejoin="round" stroke-miterlimit="10" cx="86" cy="187.5" rx="3.5" ry="3.6"/>
		<polyline fill="none" stroke="#414753" stroke-linecap="round" stroke-linejoin="round" stroke-miterlimit="10" points="
			87.9,190.5 88.7,194.2 83.3,194.2 84.1,190.5 		"/>
		
			<line fill="none" stroke="#414753" stroke-linecap="round" stroke-linejoin="round" stroke-miterlimit="10" x1="74.3" y1="182.4" x2="78.2" y2="182.4"/>
		
			<line fill="none" stroke="#414753" stroke-linecap="round" stroke-linejoin="round" stroke-miterlimit="10" x1="74.3" y1="184.7" x2="79.7" y2="184.7"/>
		
			<line fill="none" stroke="#414753" stroke-linecap="round" stroke-linejoin="round" stroke-miterlimit="10" x1="74.3" y1="187.1" x2="79.7" y2="187.1"/>
		
			<line fill="none" stroke="#414753" stroke-linecap="round" stroke-linejoin="round" stroke-miterlimit="10" x1="74.3" y1="189.5" x2="79.7" y2="189.5"/>
	</g>
	<g>
		<defs>
			<path id="SVGID_57_" d="M77.8,218.3c-0.6,0-1.3,0.3-1.7,0.7c-0.5,0.5-0.7,1.1-0.7,1.8l-0.1,9.7c0,1,0.8,1.8,1.7,1.8
				c0.5,0,0.9-0.2,1.2-0.5c0.3-0.3,0.5-0.8,0.5-1.3l0-7.1c0-0.2-0.1-0.3-0.3-0.3c-0.2,0-0.3,0.1-0.3,0.3l0,7.1
				c0,0.6-0.5,1.2-1.1,1.2c-0.6,0-1.1-0.5-1.1-1.2l0.1-9.7c0-0.5,0.2-1,0.5-1.4c0.4-0.4,0.8-0.6,1.3-0.6c1,0,1.8,0.9,1.8,2L79.6,233
				c0,1.5-1.2,2.7-2.6,2.7c-0.7,0-1.3-0.3-1.8-0.8c-0.5-0.5-0.7-1.2-0.7-1.9l0.1-9.5c0-0.2-0.1-0.3-0.3-0.3c-0.2,0-0.3,0.1-0.3,0.3
				l-0.1,9.5c0,0.9,0.3,1.7,0.9,2.3c0.6,0.6,1.4,1,2.2,1c0.9,0,1.6-0.4,2.2-1c0.6-0.6,0.9-1.4,0.9-2.3l0.1-12.2
				C80.2,219.4,79.1,218.3,77.8,218.3"/>
		</defs>
		<use xlink:href="#SVGID_57_"  overflow="visible" fill-rule="evenodd" clip-rule="evenodd" fill="#414753"/>
		<clipPath id="SVGID_58_">
			<use xlink:href="#SVGID_57_"  overflow="visible"/>
		</clipPath>
		<g clip-path="url(#SVGID_58_)">
			<defs>
				<rect id="SVGID_59_" x="72.3" y="217.5" width="9.5" height="19.9"/>
			</defs>
			<use xlink:href="#SVGID_59_"  overflow="visible" fill="#414753"/>
			<clipPath id="SVGID_60_">
				<use xlink:href="#SVGID_59_"  overflow="visible"/>
			</clipPath>
			<rect x="69.9" y="214.3" clip-path="url(#SVGID_60_)" fill="#414753" width="14.3" height="25.9"/>
		</g>
	</g>
	<g>
		<g>
			<defs>
				<rect id="SVGID_61_" x="66.3" y="385.1" width="13.6" height="13.1"/>
			</defs>
			<clipPath id="SVGID_62_">
				<use xlink:href="#SVGID_61_"  overflow="visible"/>
			</clipPath>
			<g clip-path="url(#SVGID_62_)">
				<defs>
					<rect id="SVGID_63_" x="66.3" y="384.7" width="18.2" height="15"/>
				</defs>
				<clipPath id="SVGID_64_">
					<use xlink:href="#SVGID_63_"  overflow="visible"/>
				</clipPath>
				<g clip-path="url(#SVGID_64_)" enable-background="new    ">
					<g>
						<defs>
							<rect id="SVGID_65_" x="66.3" y="384.7" width="14.2" height="14.2"/>
						</defs>
						<clipPath id="SVGID_66_">
							<use xlink:href="#SVGID_65_"  overflow="visible"/>
						</clipPath>
						<g clip-path="url(#SVGID_66_)">
							<defs>
								<path id="SVGID_67_" d="M79.8,390c0-2.7-2.1-4.9-4.6-4.9h-4.3c-2.5,0-4.6,2.2-4.6,4.9c0,2.3,1.5,4.3,3.5,4.8v3
									c0,0.1,0.1,0.3,0.2,0.3c0,0,0.1,0,0.1,0c0.1,0,0.2,0,0.2-0.1l3.6-3.1h1.2C77.7,394.9,79.8,392.7,79.8,390z M73.8,394.2
									c-0.1,0-0.2,0-0.2,0.1l-3.1,2.7v-2.5c0-0.2-0.1-0.3-0.3-0.4c-1.9-0.4-3.2-2.1-3.2-4.2c0-2.3,1.7-4.2,3.9-4.2h4.3
									c2.1,0,3.9,1.9,3.9,4.2c0,2.3-1.7,4.2-3.9,4.2H73.8z"/>
							</defs>
							<use xlink:href="#SVGID_67_"  overflow="visible" fill-rule="evenodd" clip-rule="evenodd" fill="#414753"/>
							<clipPath id="SVGID_68_">
								<use xlink:href="#SVGID_67_"  overflow="visible"/>
							</clipPath>
							<g clip-path="url(#SVGID_68_)">
								<defs>
									<rect id="SVGID_69_" x="66.3" y="384.7" width="14.2" height="14.2"/>
								</defs>
								<clipPath id="SVGID_70_">
									<use xlink:href="#SVGID_69_"  overflow="visible"/>
								</clipPath>
								
									<rect x="62.3" y="381.1" clip-path="url(#SVGID_70_)" fill="#414753" stroke="#414753" stroke-miterlimit="10" width="21.5" height="21"/>
							</g>
						</g>
					</g>
				</g>
			</g>
		</g>
		<g>
			<defs>
				<path id="SVGID_71_" d="M80.9,390.3c-0.2,0-0.4,0.2-0.4,0.4c0,0.2,0.2,0.4,0.4,0.4c1.5,0,2.7,1.3,2.7,2.9c0,1.6-1.1,2.8-2.6,2.9
					c-0.2,0-0.4,0.2-0.4,0.4v1.2l-1.4-1.4c-0.1-0.1-0.2-0.1-0.3-0.1h-1.2c-0.8,0-1.6-0.4-2.1-1.2c-0.1-0.2-0.3-0.2-0.5-0.1
					c-0.2,0.1-0.2,0.3-0.1,0.5c0.6,0.9,1.7,1.5,2.7,1.5h1l1.9,1.9c0.1,0.1,0.2,0.1,0.3,0.1c0,0,0.1,0,0.1,0c0.1-0.1,0.2-0.2,0.2-0.3
					v-1.7c1.7-0.2,2.9-1.7,2.9-3.6C84.3,392,82.7,390.3,80.9,390.3"/>
			</defs>
			<use xlink:href="#SVGID_71_"  overflow="visible" fill-rule="evenodd" clip-rule="evenodd" fill="#414753"/>
			<clipPath id="SVGID_72_">
				<use xlink:href="#SVGID_71_"  overflow="visible"/>
			</clipPath>
			<g clip-path="url(#SVGID_72_)">
				<defs>
					<rect id="SVGID_73_" x="66.3" y="384.7" width="18.2" height="15"/>
				</defs>
				<use xlink:href="#SVGID_73_"  overflow="visible" fill="#414753"/>
				<clipPath id="SVGID_74_">
					<use xlink:href="#SVGID_73_"  overflow="visible"/>
				</clipPath>
				<rect x="71.1" y="386.4" clip-path="url(#SVGID_74_)" fill="#414753" width="17.1" height="17.1"/>
			</g>
		</g>
		<g>
			<defs>
				<path id="SVGID_75_" d="M76.6,388.9c0-0.2-0.2-0.4-0.4-0.4h-6.5c-0.2,0-0.4,0.2-0.4,0.4c0,0.2,0.2,0.4,0.4,0.4h6.5
					C76.5,389.3,76.6,389.1,76.6,388.9"/>
			</defs>
			<use xlink:href="#SVGID_75_"  overflow="visible" fill-rule="evenodd" clip-rule="evenodd" fill="#414753"/>
			<clipPath id="SVGID_76_">
				<use xlink:href="#SVGID_75_"  overflow="visible"/>
			</clipPath>
			<g clip-path="url(#SVGID_76_)">
				<defs>
					<rect id="SVGID_77_" x="66.3" y="384.7" width="18.2" height="15"/>
				</defs>
				<clipPath id="SVGID_78_">
					<use xlink:href="#SVGID_77_"  overflow="visible"/>
				</clipPath>
				<rect x="65.5" y="384.6" clip-path="url(#SVGID_78_)" fill="#414753" width="15.1" height="8.6"/>
			</g>
		</g>
		<g>
			<defs>
				<path id="SVGID_79_" d="M73,390.8h-3.2c-0.2,0-0.4,0.2-0.4,0.4c0,0.2,0.2,0.4,0.4,0.4H73c0.2,0,0.4-0.2,0.4-0.4
					C73.3,391,73.2,390.8,73,390.8"/>
			</defs>
			<use xlink:href="#SVGID_79_"  overflow="visible" fill-rule="evenodd" clip-rule="evenodd" fill="#414753"/>
			<clipPath id="SVGID_80_">
				<use xlink:href="#SVGID_79_"  overflow="visible"/>
			</clipPath>
			<g clip-path="url(#SVGID_80_)">
				<defs>
					<rect id="SVGID_81_" x="66.3" y="384.7" width="18.2" height="15"/>
				</defs>
				<use xlink:href="#SVGID_81_"  overflow="visible" fill="#414753"/>
				<clipPath id="SVGID_82_">
					<use xlink:href="#SVGID_81_"  overflow="visible"/>
				</clipPath>
				<rect x="65.5" y="386.9" clip-path="url(#SVGID_82_)" fill="#414753" width="11.8" height="8.6"/>
			</g>
		</g>
	</g>
	<g>
		<defs>
			<rect id="SVGID_83_" x="54.4" y="294.7" width="48" height="34"/>
		</defs>
		<clipPath id="SVGID_84_">
			<use xlink:href="#SVGID_83_"  overflow="visible"/>
		</clipPath>
		
			<line clip-path="url(#SVGID_84_)" fill="none" stroke="#414753" stroke-linecap="round" stroke-linejoin="round" stroke-miterlimit="10" x1="80.2" y1="307.1" x2="86.4" y2="300.9"/>
		
			<line clip-path="url(#SVGID_84_)" fill="none" stroke="#414753" stroke-linecap="round" stroke-linejoin="round" stroke-miterlimit="10" x1="72.2" y1="303.1" x2="76.1" y2="306.9"/>
		
			<path clip-path="url(#SVGID_84_)" fill="none" stroke="#414753" stroke-linecap="round" stroke-linejoin="round" stroke-miterlimit="10" d="
			M80.5,307.8c-0.5-0.8-1.4-1.4-2.5-1.4c-1.1,0-2,0.6-2.5,1.4"/>
		<path clip-path="url(#SVGID_84_)" fill="none" stroke="#414753" stroke-miterlimit="10" d="M86.7,317.5c0,2.5-2.1,4.6-4.7,4.6
			h-7.9c-2.6,0-4.7-2.1-4.7-4.6v-4.8c0-2.5,2.1-4.6,4.7-4.6H82c2.6,0,4.7,2.1,4.7,4.6V317.5z"/>
	</g>
	<g>
		<defs>
			<path id="SVGID_85_" d="M73.8,320.4c-0.2,0-0.4-0.1-0.5-0.3c-0.5-0.4-0.5-1.1,0-1.6c0.2-0.2,0.5-0.4,0.9-0.4
				c0.3,0,0.6,0.1,0.8,0.3c0.5,0.4,0.5,1.1,0,1.6c-0.2,0.2-0.5,0.4-0.8,0.4C74,320.4,73.9,320.4,73.8,320.4 M74.3,318.4
				c-0.1,0-0.1,0-0.2,0c-0.3,0-0.5,0.1-0.7,0.3c-0.4,0.4-0.3,1,0,1.3c0.2,0.2,0.4,0.2,0.6,0.2c0.2,0,0.5-0.1,0.6-0.3
				c0.4-0.4,0.3-1,0-1.3C74.6,318.4,74.5,318.4,74.3,318.4"/>
		</defs>
		<clipPath id="SVGID_86_">
			<use xlink:href="#SVGID_85_"  overflow="visible"/>
		</clipPath>
		<g clip-path="url(#SVGID_86_)">
			<defs>
				<rect id="SVGID_87_" x="54.4" y="294.7" width="48" height="34"/>
			</defs>
			<clipPath id="SVGID_88_">
				<use xlink:href="#SVGID_87_"  overflow="visible"/>
			</clipPath>
			<rect x="67.9" y="313.1" clip-path="url(#SVGID_88_)" fill="#414753" width="12.3" height="12.3"/>
		</g>
	</g>
	<g>
		<defs>
			<path id="SVGID_89_" d="M82.1,315.1c-0.3-0.1-0.7-0.2-1-0.3c-0.6-0.4-1-0.9-1.2-1.6c-0.1-0.7,0-1.4,0.5-2c0.9-1.2,2.7-1.6,4-0.9
				c0.6,0.4,1,0.9,1.2,1.6c0.1,0.7,0,1.4-0.5,2C84.4,314.9,83.2,315.3,82.1,315.1 M83.3,310.3c-1-0.2-2.1,0.2-2.7,1.1
				c-0.4,0.5-0.6,1.2-0.4,1.8c0.1,0.6,0.5,1.1,1.1,1.4c1.2,0.7,2.8,0.3,3.6-0.8c0.4-0.5,0.5-1.2,0.4-1.8c-0.1-0.6-0.5-1.1-1.1-1.4
				C83.9,310.4,83.6,310.3,83.3,310.3"/>
		</defs>
		<use xlink:href="#SVGID_89_"  overflow="visible" fill-rule="evenodd" clip-rule="evenodd" fill="#414753"/>
		<clipPath id="SVGID_90_">
			<use xlink:href="#SVGID_89_"  overflow="visible"/>
		</clipPath>
		<g clip-path="url(#SVGID_90_)">
			<defs>
				<rect id="SVGID_91_" x="54.4" y="294.7" width="48" height="34"/>
			</defs>
			<clipPath id="SVGID_92_">
				<use xlink:href="#SVGID_91_"  overflow="visible"/>
			</clipPath>
			<rect x="74.8" y="305" clip-path="url(#SVGID_92_)" fill="#414753" width="15.8" height="15.2"/>
		</g>
	</g>
	<g>
		<defs>
			<path id="SVGID_93_" d="M77.7,318.2c-0.3,0-0.6-0.2-0.8-0.4c-0.4-0.3-0.6-0.7-0.6-1.1c0-0.4,0.1-0.9,0.5-1.2
				c0.7-0.7,1.8-0.8,2.6-0.2l0,0c0.4,0.3,0.6,0.7,0.6,1.1c0,0.4-0.1,0.9-0.5,1.2C79,318.1,78.3,318.3,77.7,318.2 M78.4,315.2
				c-0.5-0.1-1.1,0.1-1.5,0.5c-0.3,0.3-0.4,0.6-0.4,1c0,0.4,0.2,0.7,0.5,0.9c0.6,0.5,1.7,0.4,2.2-0.2c0.3-0.3,0.4-0.6,0.4-1
				c0-0.4-0.2-0.7-0.5-0.9C78.9,315.4,78.7,315.3,78.4,315.2"/>
		</defs>
		<clipPath id="SVGID_94_">
			<use xlink:href="#SVGID_93_"  overflow="visible"/>
		</clipPath>
		<g clip-path="url(#SVGID_94_)">
			<defs>
				<rect id="SVGID_95_" x="54.4" y="294.7" width="48" height="34"/>
			</defs>
			<clipPath id="SVGID_96_">
				<use xlink:href="#SVGID_95_"  overflow="visible"/>
			</clipPath>
			<g clip-path="url(#SVGID_96_)">
				<rect x="71.2" y="310" fill="#414753" width="13.7" height="13.2"/>
			</g>
		</g>
	</g>
	<g>
		<defs>
			<rect id="SVGID_97_" x="68.3" y="342.4" width="18" height="18.3"/>
		</defs>
		<clipPath id="SVGID_98_">
			<use xlink:href="#SVGID_97_"  overflow="visible"/>
		</clipPath>
		<path clip-path="url(#SVGID_98_)" fill="none" stroke="#414753" stroke-linejoin="round" stroke-miterlimit="10" d="M86,350.6
			c0,3.8-3.9,6.9-8.6,6.9c-1.1,0-2.1-0.2-3-0.4l-5,2.3l1.9-3.8c-1.6-1.3-2.6-3-2.6-4.9c0-3.8,3.9-6.9,8.6-6.9S86,346.8,86,350.6z"/>
		
			<path clip-path="url(#SVGID_98_)" fill="none" stroke="#414753" stroke-linecap="round" stroke-linejoin="round" stroke-miterlimit="10" d="
			M75.5,349.3c0-1.2,1-2.3,2.3-2.3c1.2,0,2.3,1,2.3,2.2c0,1.2-1,2.2-2.3,2.2v0.9"/>
		
			<ellipse clip-path="url(#SVGID_98_)" fill="none" stroke="#414753" stroke-linejoin="round" stroke-miterlimit="10" cx="77.7" cy="354" rx="0.4" ry="0.4"/>
	</g>
	<g>
		<g>
			<defs>
				<path id="SVGID_99_" d="M77.5,272.3c0.5,0,1-0.4,1-1s-0.4-1-1-1c-0.5,0-1,0.4-1,1S77,272.3,77.5,272.3 M77.5,271.1
					c0.1,0,0.2,0.1,0.2,0.2c0,0.1-0.1,0.2-0.2,0.2c-0.1,0-0.2-0.1-0.2-0.2C77.3,271.2,77.4,271.1,77.5,271.1"/>
			</defs>
			<clipPath id="SVGID_100_">
				<use xlink:href="#SVGID_99_"  overflow="visible"/>
			</clipPath>
			<rect x="71.7" y="265.5" clip-path="url(#SVGID_100_)" fill="#414753" width="11.5" height="11.5"/>
		</g>
		<g>
			<defs>
				<rect id="SVGID_101_" x="72" y="254.6" width="18" height="19"/>
			</defs>
			<clipPath id="SVGID_102_">
				<use xlink:href="#SVGID_101_"  overflow="visible"/>
			</clipPath>
			<g clip-path="url(#SVGID_102_)" enable-background="new    ">
				<g>
					<defs>
						<rect id="SVGID_103_" x="72" y="254.2" width="18.3" height="20.2"/>
					</defs>
					<clipPath id="SVGID_104_">
						<use xlink:href="#SVGID_103_"  overflow="visible"/>
					</clipPath>
					<g clip-path="url(#SVGID_104_)">
						<defs>
							<path id="SVGID_105_" d="M85.7,255.5h-3.1c-0.4-0.6-1-0.9-1.7-0.9h-7c-1.1,0-2,0.9-2,2v0.6v12.7v1.7c0,1.1,0.9,2,2,2h7
								c1.1,0,2-0.9,2-2v-1.7v-3.6l1.7-1.5h1.1c2.4,0,4.3-2.1,4.3-4.7S88.1,255.5,85.7,255.5z M72.8,256.6c0-0.7,0.5-1.2,1.2-1.2h7
								c0.2,0,0.4,0.1,0.6,0.2c-1.2,0.1-2.3,0.7-3.1,1.7h-5.8V256.6z M82.2,271.6c0,0.7-0.5,1.2-1.2,1.2h-7c-0.7,0-1.2-0.5-1.2-1.2
								v-1.7h9.4V271.6z M82.2,269.1h-9.4v-11.2h5.3c-0.3,0.7-0.5,1.4-0.5,2.2c0,2.1,1.3,4,3.2,4.5v2.8c0,0.2,0.1,0.3,0.2,0.3
								c0,0,0.1,0,0.2,0c0.1,0,0.2,0,0.3-0.1l0.8-0.7V269.1z M85.7,264.1h-1.2c-0.1,0-0.2,0-0.3,0.1l-2.8,2.4v-2.2
								c0-0.2-0.1-0.3-0.3-0.4c-1.7-0.3-2.9-1.9-2.9-3.8c0-2.2,1.6-3.9,3.5-3.9h3.9c1.9,0,3.5,1.8,3.5,3.9
								C89.3,262.3,87.7,264.1,85.7,264.1z"/>
						</defs>
						<clipPath id="SVGID_106_">
							<use xlink:href="#SVGID_105_"  overflow="visible"/>
						</clipPath>
						<g clip-path="url(#SVGID_106_)">
							<defs>
								<rect id="SVGID_107_" x="72" y="254.2" width="18.3" height="20.2"/>
							</defs>
							<clipPath id="SVGID_108_">
								<use xlink:href="#SVGID_107_"  overflow="visible"/>
							</clipPath>
							<rect x="67.2" y="249.8" clip-path="url(#SVGID_108_)" fill="#414753" width="27.6" height="28.6"/>
						</g>
					</g>
				</g>
			</g>
		</g>
		<g>
			<defs>
				<path id="SVGID_109_" d="M86.7,259H81c-0.2,0-0.4,0.2-0.4,0.4s0.2,0.4,0.4,0.4h5.6c0.2,0,0.4-0.2,0.4-0.4S86.9,259,86.7,259"/>
			</defs>
			<clipPath id="SVGID_110_">
				<use xlink:href="#SVGID_109_"  overflow="visible"/>
			</clipPath>
			<rect x="75.9" y="254.2" clip-path="url(#SVGID_110_)" fill="#414753" width="16" height="10.4"/>
		</g>
		<g>
			<defs>
				<path id="SVGID_111_" d="M83.8,261.2H81c-0.2,0-0.4,0.2-0.4,0.4s0.2,0.4,0.4,0.4h2.8c0.2,0,0.4-0.2,0.4-0.4S84,261.2,83.8,261.2
					"/>
			</defs>
			<clipPath id="SVGID_112_">
				<use xlink:href="#SVGID_111_"  overflow="visible"/>
			</clipPath>
			<rect x="75.9" y="256.4" clip-path="url(#SVGID_112_)" fill="#414753" width="13.1" height="10.4"/>
		</g>
	</g>
	<g>
		
			<line fill="none" stroke="#414753" stroke-linecap="round" stroke-linejoin="round" stroke-miterlimit="10" x1="70.6" y1="26.6" x2="70.6" y2="19.2"/>
		
			<line fill="none" stroke="#414753" stroke-linecap="round" stroke-linejoin="round" stroke-miterlimit="10" x1="70.2" y1="26.6" x2="74.3" y2="26.6"/>
		
			<line fill="none" stroke="#414753" stroke-linecap="round" stroke-linejoin="round" stroke-miterlimit="10" x1="69.8" y1="28.2" x2="87.8" y2="28.2"/>
		
			<line fill="none" stroke="#414753" stroke-linecap="round" stroke-linejoin="round" stroke-miterlimit="10" x1="70.2" y1="19.2" x2="74.3" y2="19.2"/>
		
			<line fill="none" stroke="#414753" stroke-linecap="round" stroke-linejoin="round" stroke-miterlimit="10" x1="76.7" y1="26.6" x2="80.8" y2="26.6"/>
		
			<line fill="none" stroke="#414753" stroke-linecap="round" stroke-linejoin="round" stroke-miterlimit="10" x1="76.7" y1="19.2" x2="80.8" y2="19.2"/>
		
			<line fill="none" stroke="#414753" stroke-linecap="round" stroke-linejoin="round" stroke-miterlimit="10" x1="72.2" y1="26.6" x2="72.2" y2="19.2"/>
		
			<line fill="none" stroke="#414753" stroke-linecap="round" stroke-linejoin="round" stroke-miterlimit="10" x1="73.9" y1="26.6" x2="73.9" y2="19.2"/>
		
			<line fill="none" stroke="#414753" stroke-linecap="round" stroke-linejoin="round" stroke-miterlimit="10" x1="77.1" y1="26.6" x2="77.1" y2="19.2"/>
		
			<line fill="none" stroke="#414753" stroke-linecap="round" stroke-linejoin="round" stroke-miterlimit="10" x1="78.8" y1="26.6" x2="78.8" y2="19.2"/>
		
			<line fill="none" stroke="#414753" stroke-linecap="round" stroke-linejoin="round" stroke-miterlimit="10" x1="80.4" y1="26.6" x2="80.4" y2="19.2"/>
		
			<line fill="none" stroke="#414753" stroke-linecap="round" stroke-linejoin="round" stroke-miterlimit="10" x1="83.3" y1="26.6" x2="87.4" y2="26.6"/>
		
			<line fill="none" stroke="#414753" stroke-linecap="round" stroke-linejoin="round" stroke-miterlimit="10" x1="83.3" y1="19.2" x2="87.4" y2="19.2"/>
		
			<line fill="none" stroke="#414753" stroke-linecap="round" stroke-linejoin="round" stroke-miterlimit="10" x1="83.7" y1="26.6" x2="83.7" y2="19.2"/>
		
			<line fill="none" stroke="#414753" stroke-linecap="round" stroke-linejoin="round" stroke-miterlimit="10" x1="85.3" y1="26.6" x2="85.3" y2="19.2"/>
		
			<line fill="none" stroke="#414753" stroke-linecap="round" stroke-linejoin="round" stroke-miterlimit="10" x1="87" y1="26.6" x2="87" y2="19.2"/>
		<polygon fill="none" stroke="#414753" stroke-linecap="round" stroke-linejoin="round" stroke-miterlimit="10" points="69.8,17.6 
			87.8,17.6 79.2,10.2 		"/>
	</g>
	<g>
		
			<rect x="69.8" y="89" fill="none" stroke="#414753" stroke-linecap="round" stroke-linejoin="round" stroke-miterlimit="10" width="7.8" height="7.8"/>
		
			<rect x="80" y="89" fill="none" stroke="#414753" stroke-linecap="round" stroke-linejoin="round" stroke-miterlimit="10" width="7.8" height="7.8"/>
		
			<rect x="69.8" y="99.1" fill="none" stroke="#414753" stroke-linecap="round" stroke-linejoin="round" stroke-miterlimit="10" width="7.8" height="7.8"/>
		
			<rect x="80" y="99.1" fill="none" stroke="#414753" stroke-linecap="round" stroke-linejoin="round" stroke-miterlimit="10" width="7.8" height="7.8"/>
	</g>
	<g>
		<path fill="none" stroke="#414753" stroke-linejoin="round" stroke-miterlimit="10" d="M77.9,138.7h2.9c0,0,0-1.2,0-1.7
			c0-0.2-1.2-0.8-2.1-1.2v-0.8c0,0,0.4-0.1,0.4-1c0.3,0,0.4-0.8,0-0.8c0-0.1,0.3-0.5,0.2-1c-0.2-0.8-2.1-0.8-2.3,0
			c-0.8-0.2-0.2,0.8-0.2,1c-0.4,0-0.3,0.8,0,0.8c0,0.8,0.4,1,0.4,1v0.8c-1,0.4-2.1,1-2.1,1.2c0,0.4,0,1.7,0,1.7H77.9z"/>
		<path fill="none" stroke="#414753" stroke-linejoin="round" stroke-miterlimit="10" d="M81.8,138.7h2.1c0,0,0-1.3,0-1.7
			c0-0.2-1-0.5-1.7-0.8v-0.6c0,0,0.4-0.1,0.4-0.8c0.2,0,0.3-0.8,0-0.8c0-0.1,0.3-0.4,0.2-0.8c-0.2-0.6-1.7-0.6-1.9,0
			c-0.6-0.1-0.2,0.7-0.2,0.8c-0.3,0-0.2,0.8,0,0.8c0,0.7,0.4,0.8,0.4,0.8v0.4"/>
	</g>
	<g>
		<path fill="none" stroke="#414753" stroke-linejoin="round" stroke-miterlimit="10" d="M87.8,142.7c0,0.7-0.5,1.2-1.2,1.2H71
			c-0.6,0-1.2-0.6-1.2-1.2v-11.6c0-0.7,0.5-1.2,1.2-1.2h15.7c0.6,0,1.2,0.6,1.2,1.2V142.7z"/>
		<line fill="none" stroke="#414753" stroke-linejoin="round" stroke-miterlimit="10" x1="73.3" y1="145.5" x2="84.3" y2="145.5"/>
		<line fill="none" stroke="#414753" stroke-linejoin="round" stroke-miterlimit="10" x1="78.8" y1="143.9" x2="78.8" y2="145.5"/>
		<circle fill="none" stroke="#414753" stroke-linejoin="round" stroke-miterlimit="10" cx="78.8" cy="142.4" r="0.4"/>
		<line fill="none" stroke="#414753" stroke-linejoin="round" stroke-miterlimit="10" x1="69.8" y1="140.8" x2="87.8" y2="140.8"/>
	</g>
</g>
</svg>
