<?xml version="1.0" encoding="utf-8"?>
<!-- Generator: Adobe Illustrator 16.0.0, SVG Export Plug-In . SVG Version: 6.00 Build 0)  -->
<!DOCTYPE svg PUBLIC "-//W3C//DTD SVG 1.1//EN" "http://www.w3.org/Graphics/SVG/1.1/DTD/svg11.dtd">
<svg version="1.1" xmlns="http://www.w3.org/2000/svg" xmlns:xlink="http://www.w3.org/1999/xlink" x="0px" y="0px" width="612px"
	 height="792px" viewBox="0 0 612 792" enable-background="new 0 0 612 792" xml:space="preserve">
<g id="Layer_1">
	<rect display="none" fill="#ED1F24" stroke="#000000" stroke-miterlimit="10" width="612" height="788"/>
	<g>
		<polygon fill="none" stroke="#FFFFFF" stroke-linejoin="round" stroke-miterlimit="10" points="19.356,48.533 22.616,55.079 
			28.345,55.079 23.435,59.169 25.89,66.533 19.345,62.038 12.798,66.533 15.253,59.169 10.345,55.079 16.071,55.079 		"/>
	</g>
	<g>
		<path fill="none" stroke="#FFFFFF" stroke-linecap="round" stroke-linejoin="round" stroke-miterlimit="10" d="M25.48,186.832
			c0,0,1.803-1.322,1.803-2.301c0-1.131-1.476-1.487-1.803-0.112c-0.327-1.375-1.804-1.019-1.804,0.112
			C23.677,185.509,25.48,186.832,25.48,186.832z"/>
		<polyline fill="none" stroke="#FFFFFF" stroke-linecap="round" stroke-linejoin="round" stroke-miterlimit="10" points="
			20.589,190.434 10.345,190.434 10.345,173.085 19.359,173.085 23.457,177.216 23.457,180.107 		"/>
		<polyline fill="none" stroke="#FFFFFF" stroke-linecap="round" stroke-linejoin="round" stroke-miterlimit="10" points="
			19.359,173.5 19.359,177.216 23.048,177.216 		"/>
		
			<ellipse transform="matrix(1 -0.0097 0.0097 1 -1.7874 0.2552)" fill="none" stroke="#FFFFFF" stroke-linecap="round" stroke-linejoin="round" stroke-miterlimit="10" cx="25.506" cy="185.063" rx="3.688" ry="3.718"/>
		<polyline fill="none" stroke="#FFFFFF" stroke-linecap="round" stroke-linejoin="round" stroke-miterlimit="10" points="
			27.518,188.178 28.374,192.085 22.637,192.085 23.508,188.188 		"/>
		
			<line fill="none" stroke="#FFFFFF" stroke-linecap="round" stroke-linejoin="round" stroke-miterlimit="10" x1="13.214" y1="179.694" x2="17.311" y2="179.694"/>
		
			<line fill="none" stroke="#FFFFFF" stroke-linecap="round" stroke-linejoin="round" stroke-miterlimit="10" x1="13.214" y1="182.172" x2="18.95" y2="182.172"/>
		
			<line fill="none" stroke="#FFFFFF" stroke-linecap="round" stroke-linejoin="round" stroke-miterlimit="10" x1="13.214" y1="184.65" x2="18.95" y2="184.65"/>
		
			<line fill="none" stroke="#FFFFFF" stroke-linecap="round" stroke-linejoin="round" stroke-miterlimit="10" x1="13.214" y1="187.129" x2="18.95" y2="187.129"/>
	</g>
	<g>
		<defs>
			<path id="SVGID_1_" d="M14.484,215.232c-0.682-0.005-1.325,0.271-1.811,0.776c-0.485,0.506-0.755,1.181-0.759,1.9l-0.058,10.261
				c-0.005,1.049,0.8,1.907,1.794,1.914c0.482,0.003,0.937-0.192,1.279-0.55s0.532-0.834,0.535-1.342l0.042-7.496
				c0.001-0.177-0.134-0.322-0.303-0.322c-0.169-0.002-0.306,0.142-0.307,0.319l-0.042,7.495c-0.004,0.674-0.563,1.257-1.201,1.252
				c-0.659-0.005-1.191-0.572-1.188-1.267l0.058-10.262c0.002-0.547,0.207-1.061,0.577-1.445c0.37-0.386,0.858-0.596,1.378-0.592
				c1.071,0.007,1.938,0.932,1.933,2.062l-0.071,12.83c-0.009,1.565-1.225,2.831-2.71,2.822c-0.719-0.004-1.394-0.304-1.899-0.844
				c-0.506-0.539-0.782-1.254-0.778-2.012l0.056-10.065c0.002-0.177-0.134-0.32-0.303-0.322c-0.168-0.002-0.306,0.142-0.307,0.319
				l-0.056,10.063c-0.006,0.931,0.334,1.807,0.953,2.469c0.621,0.662,1.449,1.029,2.331,1.034c0.91,0.005,1.738-0.38,2.34-1.007
				c0.603-0.626,0.978-1.494,0.982-2.455l0.071-12.829C17.031,216.456,15.892,215.241,14.484,215.232"/>
		</defs>
		<clipPath id="SVGID_2_">
			<use xlink:href="#SVGID_1_"  overflow="visible"/>
		</clipPath>
		<g clip-path="url(#SVGID_2_)">
			<defs>
				<rect id="SVGID_3_" x="8.667" y="214.393" width="10.063" height="20.963"/>
			</defs>
			<clipPath id="SVGID_4_">
				<use xlink:href="#SVGID_3_"  overflow="visible"/>
			</clipPath>
			<rect x="6.151" y="211.039" clip-path="url(#SVGID_4_)" fill="#FFFFFF" width="15.064" height="27.386"/>
		</g>
	</g>
	<g>
		<defs>
			<rect id="SVGID_5_" x="10.345" y="380.585" width="17.173" height="16.571"/>
		</defs>
		<clipPath id="SVGID_6_">
			<use xlink:href="#SVGID_5_"  overflow="visible"/>
		</clipPath>
		<g clip-path="url(#SVGID_6_)">
			<defs>
				<rect id="SVGID_7_" x="10.345" y="380.132" width="23" height="19"/>
			</defs>
			<clipPath id="SVGID_8_">
				<use xlink:href="#SVGID_7_"  overflow="visible"/>
			</clipPath>
			<g clip-path="url(#SVGID_8_)" enable-background="new    ">
				<g>
					<defs>
						<rect id="SVGID_9_" x="10.345" y="380.132" width="18" height="18"/>
					</defs>
					<clipPath id="SVGID_10_">
						<use xlink:href="#SVGID_9_"  overflow="visible"/>
					</clipPath>
					<g clip-path="url(#SVGID_10_)">
						<defs>
							<path id="SVGID_11_" d="M27.518,386.839c0-3.449-2.627-6.255-5.855-6.255H16.2c-3.229,0-5.855,2.806-5.855,6.255
								c0,2.896,1.849,5.389,4.447,6.07v3.795c0,0.178,0.105,0.338,0.271,0.412c0.061,0.027,0.125,0.04,0.189,0.04
								c0.109,0,0.217-0.038,0.305-0.113l4.559-3.95h1.547C24.891,393.093,27.518,390.288,27.518,386.839z M19.942,392.188
								c-0.111,0-0.221,0.041-0.305,0.113l-3.926,3.4v-3.152c0-0.217-0.156-0.403-0.371-0.444c-2.361-0.45-4.076-2.665-4.076-5.267
								c0-2.95,2.214-5.35,4.935-5.35h5.463c2.721,0,4.936,2.399,4.936,5.35c0,2.949-2.215,5.35-4.936,5.35H19.942z"/>
						</defs>
						<clipPath id="SVGID_12_">
							<use xlink:href="#SVGID_11_"  overflow="visible"/>
						</clipPath>
						<g clip-path="url(#SVGID_12_)">
							<defs>
								<rect id="SVGID_13_" x="10.345" y="380.132" width="18" height="18"/>
							</defs>
							<clipPath id="SVGID_14_">
								<use xlink:href="#SVGID_13_"  overflow="visible"/>
							</clipPath>
							<rect x="5.345" y="375.584" clip-path="url(#SVGID_14_)" fill="#FFFFFF" width="27.173" height="26.572"/>
						</g>
					</g>
				</g>
			</g>
		</g>
	</g>
	<g>
		<defs>
			<path id="SVGID_15_" d="M17.748,387.287c-0.256,0-0.461,0.202-0.461,0.452s0.205,0.453,0.461,0.453
				c1.855,0,3.365,1.643,3.365,3.661c0,1.989-1.432,3.597-3.26,3.659c-0.248,0.008-0.443,0.208-0.443,0.452v1.456l-1.721-1.766
				c-0.088-0.09-0.207-0.141-0.332-0.141h-1.482c-1.066,0-2.047-0.532-2.689-1.463c-0.143-0.206-0.428-0.26-0.639-0.119
				c-0.209,0.14-0.266,0.422-0.121,0.628c0.803,1.165,2.094,1.859,3.449,1.859h1.285l2.377,2.44c0.088,0.091,0.209,0.14,0.332,0.14
				c0.057,0,0.115-0.011,0.172-0.032c0.174-0.069,0.289-0.236,0.289-0.42v-2.17c2.109-0.301,3.703-2.205,3.703-4.524
				C22.033,389.335,20.111,387.287,17.748,387.287"/>
		</defs>
		<clipPath id="SVGID_16_">
			<use xlink:href="#SVGID_15_"  overflow="visible"/>
		</clipPath>
		<g clip-path="url(#SVGID_16_)">
			<defs>
				<rect id="SVGID_17_" x="-0.764" y="380.132" width="23" height="19"/>
			</defs>
			<clipPath id="SVGID_18_">
				<use xlink:href="#SVGID_17_"  overflow="visible"/>
			</clipPath>
			<rect x="5.345" y="382.287" clip-path="url(#SVGID_18_)" fill="#FFFFFF" width="21.688" height="21.713"/>
		</g>
	</g>
	<g>
		<defs>
			<path id="SVGID_19_" d="M19.466,385.476c0-0.249-0.205-0.451-0.461-0.451h-8.201c-0.254,0-0.459,0.202-0.459,0.451
				c0,0.25,0.205,0.453,0.459,0.453h8.201C19.261,385.929,19.466,385.726,19.466,385.476"/>
		</defs>
		<clipPath id="SVGID_20_">
			<use xlink:href="#SVGID_19_"  overflow="visible"/>
		</clipPath>
		<g clip-path="url(#SVGID_20_)">
			<defs>
				<rect id="SVGID_21_" x="6.343" y="380.132" width="23" height="19"/>
			</defs>
			<clipPath id="SVGID_22_">
				<use xlink:href="#SVGID_21_"  overflow="visible"/>
			</clipPath>
			<rect x="5.344" y="380.024" clip-path="url(#SVGID_22_)" fill="#FFFFFF" width="19.122" height="10.904"/>
		</g>
	</g>
	<g>
		<defs>
			<path id="SVGID_23_" d="M14.832,387.894h-4.027c-0.254,0-0.459,0.203-0.459,0.452c0,0.25,0.205,0.452,0.459,0.452h4.027
				c0.254,0,0.459-0.202,0.459-0.452C15.291,388.097,15.085,387.894,14.832,387.894"/>
		</defs>
		<clipPath id="SVGID_24_">
			<use xlink:href="#SVGID_23_"  overflow="visible"/>
		</clipPath>
		<g clip-path="url(#SVGID_24_)">
			<defs>
				<rect id="SVGID_25_" x="6.344" y="380.132" width="23" height="19"/>
			</defs>
			<clipPath id="SVGID_26_">
				<use xlink:href="#SVGID_25_"  overflow="visible"/>
			</clipPath>
			<rect x="5.345" y="382.894" clip-path="url(#SVGID_26_)" fill="#FFFFFF" width="14.946" height="10.904"/>
		</g>
	</g>
	<g>
		<g>
			<defs>
				<rect id="SVGID_27_" x="-4.702" y="292.188" width="48" height="34"/>
			</defs>
			<clipPath id="SVGID_28_">
				<use xlink:href="#SVGID_27_"  overflow="visible"/>
			</clipPath>
			
				<line clip-path="url(#SVGID_28_)" fill="none" stroke="#FFFFFF" stroke-linecap="round" stroke-linejoin="round" stroke-miterlimit="10" x1="21.113" y1="304.522" x2="27.304" y2="298.408"/>
			
				<line clip-path="url(#SVGID_28_)" fill="none" stroke="#FFFFFF" stroke-linecap="round" stroke-linejoin="round" stroke-miterlimit="10" x1="13.14" y1="300.555" x2="17.024" y2="304.347"/>
			
				<path clip-path="url(#SVGID_28_)" fill="none" stroke="#FFFFFF" stroke-linecap="round" stroke-linejoin="round" stroke-miterlimit="10" d="
				M21.447,305.248c-0.495-0.848-1.424-1.417-2.486-1.417c-1.076,0-2.014,0.584-2.505,1.448"/>
			<path clip-path="url(#SVGID_28_)" fill="none" stroke="#FFFFFF" stroke-miterlimit="10" d="M27.583,314.934
				c0,2.523-2.096,4.588-4.656,4.588h-7.949c-2.562,0-4.656-2.064-4.656-4.588v-4.803c0-2.523,2.095-4.589,4.656-4.589h7.949
				c2.561,0,4.656,2.065,4.656,4.589V314.934z"/>
		</g>
		<g>
			<defs>
				<path id="SVGID_29_" d="M14.749,317.853c-0.202-0.032-0.388-0.118-0.541-0.253c-0.458-0.408-0.471-1.135-0.026-1.621
					c0.223-0.244,0.534-0.394,0.854-0.41c0.294-0.016,0.571,0.079,0.783,0.267c0.458,0.407,0.47,1.134,0.026,1.619
					c-0.214,0.235-0.502,0.38-0.811,0.407C14.938,317.871,14.842,317.867,14.749,317.853 M15.23,315.818
					c-0.062-0.01-0.125-0.014-0.189-0.01c-0.254,0.014-0.503,0.133-0.681,0.329c-0.353,0.386-0.347,0.96,0.014,1.28
					c0.174,0.153,0.403,0.227,0.646,0.204c0.245-0.022,0.476-0.138,0.646-0.326c0.353-0.386,0.346-0.96-0.014-1.279
					C15.534,315.912,15.389,315.844,15.23,315.818"/>
			</defs>
			<clipPath id="SVGID_30_">
				<use xlink:href="#SVGID_29_"  overflow="visible"/>
			</clipPath>
			<g clip-path="url(#SVGID_30_)">
				<defs>
					<rect id="SVGID_31_" x="-4.702" y="292.188" width="48" height="34"/>
				</defs>
				<clipPath id="SVGID_32_">
					<use xlink:href="#SVGID_31_"  overflow="visible"/>
				</clipPath>
				<rect x="8.856" y="310.566" clip-path="url(#SVGID_32_)" fill="#FFFFFF" width="12.314" height="12.301"/>
			</g>
		</g>
		<g>
			<defs>
				<path id="SVGID_33_" d="M22.981,312.594c-0.343-0.055-0.676-0.168-0.981-0.344c-0.625-0.359-1.047-0.924-1.188-1.592
					c-0.146-0.688,0.021-1.396,0.468-1.999c0.906-1.221,2.702-1.606,4.001-0.859c0.624,0.358,1.045,0.923,1.187,1.591
					c0.146,0.687-0.021,1.396-0.467,2C25.307,312.325,24.095,312.77,22.981,312.594 M24.244,307.721
					c-1.008-0.16-2.106,0.243-2.734,1.089c-0.401,0.54-0.551,1.175-0.421,1.788c0.127,0.596,0.504,1.101,1.063,1.422
					c1.175,0.676,2.798,0.326,3.618-0.779c0.4-0.541,0.549-1.177,0.419-1.791c-0.126-0.594-0.502-1.098-1.06-1.419
					C24.854,307.872,24.553,307.77,24.244,307.721"/>
			</defs>
			<clipPath id="SVGID_34_">
				<use xlink:href="#SVGID_33_"  overflow="visible"/>
			</clipPath>
			<g clip-path="url(#SVGID_34_)">
				<defs>
					<rect id="SVGID_35_" x="-4.702" y="292.188" width="48" height="34"/>
				</defs>
				<clipPath id="SVGID_36_">
					<use xlink:href="#SVGID_35_"  overflow="visible"/>
				</clipPath>
				<rect x="15.76" y="302.419" clip-path="url(#SVGID_36_)" fill="#FFFFFF" width="15.759" height="15.212"/>
			</g>
		</g>
		<g>
			<defs>
				<path id="SVGID_37_" d="M18.581,315.627c-0.305-0.049-0.598-0.166-0.845-0.354c-0.362-0.277-0.577-0.666-0.605-1.092
					c-0.028-0.437,0.141-0.859,0.476-1.193c0.681-0.672,1.844-0.756,2.595-0.186l0,0c0.362,0.277,0.578,0.664,0.606,1.091
					c0.028,0.437-0.141,0.86-0.478,1.193C19.875,315.539,19.202,315.725,18.581,315.627 M19.307,312.693
					c-0.534-0.086-1.115,0.075-1.509,0.465c-0.283,0.281-0.427,0.639-0.402,1.004c0.023,0.358,0.204,0.684,0.509,0.918
					c0.648,0.49,1.65,0.418,2.234-0.162c0.285-0.282,0.429-0.639,0.404-1.006c-0.023-0.357-0.205-0.682-0.511-0.916
					C19.82,312.835,19.569,312.734,19.307,312.693"/>
			</defs>
			<clipPath id="SVGID_38_">
				<use xlink:href="#SVGID_37_"  overflow="visible"/>
			</clipPath>
			<g clip-path="url(#SVGID_38_)">
				<defs>
					<rect id="SVGID_39_" x="-4.702" y="292.188" width="48" height="34"/>
				</defs>
				<clipPath id="SVGID_40_">
					<use xlink:href="#SVGID_39_"  overflow="visible"/>
				</clipPath>
				<rect x="12.128" y="307.424" clip-path="url(#SVGID_40_)" fill="#FFFFFF" width="13.683" height="13.229"/>
			</g>
		</g>
	</g>
	<g>
		<g>
			<defs>
				<rect id="SVGID_41_" x="10.345" y="338.855" width="20" height="20.334"/>
			</defs>
			<clipPath id="SVGID_42_">
				<use xlink:href="#SVGID_41_"  overflow="visible"/>
			</clipPath>
			<path clip-path="url(#SVGID_42_)" fill="none" stroke="#FFFFFF" stroke-linejoin="round" stroke-miterlimit="10" d="
				M29.928,347.941c0,4.239-4.29,7.677-9.583,7.677c-1.182,0-2.313-0.171-3.357-0.484l-5.508,2.517l2.157-4.227
				c-1.775-1.394-2.875-3.336-2.875-5.482c0-4.24,4.29-7.677,9.583-7.677S29.928,343.701,29.928,347.941z"/>
			
				<path clip-path="url(#SVGID_42_)" fill="none" stroke="#FFFFFF" stroke-linecap="round" stroke-linejoin="round" stroke-miterlimit="10" d="
				M18.262,346.503c0-1.354,1.119-2.507,2.5-2.507c1.38,0,2.5,1.074,2.5,2.431c0,1.355-1.12,2.429-2.5,2.429v1.022"/>
			
				<ellipse clip-path="url(#SVGID_42_)" fill="none" stroke="#FFFFFF" stroke-linejoin="round" stroke-miterlimit="10" cx="20.761" cy="351.719" rx="0.417" ry="0.41"/>
		</g>
	</g>
	<g>
		<g>
			<defs>
				<path id="SVGID_43_" d="M16.048,270.066c0.55,0,0.995-0.448,0.995-1.002s-0.445-1.003-0.995-1.003
					c-0.551,0-0.996,0.449-0.996,1.003S15.497,270.066,16.048,270.066 M16.048,268.858c0.112,0.001,0.203,0.093,0.203,0.206
					c0,0.112-0.092,0.204-0.203,0.204c-0.113,0-0.204-0.092-0.204-0.204C15.844,268.951,15.935,268.859,16.048,268.858"/>
			</defs>
			<clipPath id="SVGID_44_">
				<use xlink:href="#SVGID_43_"  overflow="visible"/>
			</clipPath>
			<rect x="10.052" y="263.061" clip-path="url(#SVGID_44_)" fill="#FFFFFF" width="11.991" height="12.005"/>
		</g>
		<g>
			<defs>
				<rect id="SVGID_45_" x="10.345" y="251.66" width="18.736" height="19.75"/>
			</defs>
			<clipPath id="SVGID_46_">
				<use xlink:href="#SVGID_45_"  overflow="visible"/>
			</clipPath>
			<g clip-path="url(#SVGID_46_)" enable-background="new    ">
				<g>
					<defs>
						<rect id="SVGID_47_" x="10.345" y="251.261" width="19" height="21"/>
					</defs>
					<clipPath id="SVGID_48_">
						<use xlink:href="#SVGID_47_"  overflow="visible"/>
					</clipPath>
					<g clip-path="url(#SVGID_48_)">
						<defs>
							<path id="SVGID_49_" d="M24.634,252.62h-3.22c-0.364-0.573-0.994-0.96-1.719-0.96h-7.296c-1.133,0-2.055,0.929-2.055,2.07
								v0.624v13.262v1.724c0,1.142,0.922,2.07,2.055,2.07h7.296c1.133,0,2.055-0.929,2.055-2.07v-1.724v-3.725l1.742-1.547h1.142
								c2.452,0,4.447-2.181,4.447-4.862S27.086,252.62,24.634,252.62z M11.137,253.73c0-0.701,0.566-1.272,1.263-1.272h7.296
								c0.229,0,0.443,0.065,0.629,0.174c-1.277,0.065-2.416,0.719-3.19,1.723h-5.997V253.73z M20.958,269.339
								c0,0.702-0.566,1.272-1.263,1.272h-7.296c-0.696,0-1.263-0.57-1.263-1.272v-1.724h9.821V269.339z M20.958,266.818h-9.821
								v-11.666h5.496c-0.348,0.692-0.546,1.486-0.546,2.33c0,2.237,1.386,4.164,3.339,4.709v2.88c0,0.157,0.091,0.299,0.233,0.363
								c0.052,0.024,0.107,0.035,0.162,0.035c0.095,0,0.188-0.034,0.262-0.1l0.875-0.776V266.818z M24.634,261.546h-1.291
								c-0.097,0-0.189,0.035-0.262,0.1l-2.864,2.542v-2.313c0-0.191-0.134-0.355-0.319-0.392c-1.749-0.342-3.019-2.024-3.019-4.002
								c0-2.241,1.64-4.064,3.655-4.064h4.1c2.016,0,3.655,1.823,3.655,4.064S26.649,261.546,24.634,261.546z"/>
						</defs>
						<clipPath id="SVGID_50_">
							<use xlink:href="#SVGID_49_"  overflow="visible"/>
						</clipPath>
						<g clip-path="url(#SVGID_50_)">
							<defs>
								<rect id="SVGID_51_" x="10.345" y="251.261" width="19" height="21"/>
							</defs>
							<clipPath id="SVGID_52_">
								<use xlink:href="#SVGID_51_"  overflow="visible"/>
							</clipPath>
							<rect x="5.345" y="246.66" clip-path="url(#SVGID_52_)" fill="#FFFFFF" width="28.736" height="29.75"/>
						</g>
					</g>
				</g>
			</g>
		</g>
		<g>
			<defs>
				<path id="SVGID_53_" d="M25.61,256.245h-5.87c-0.218,0-0.396,0.178-0.396,0.398s0.178,0.399,0.396,0.399h5.87
					c0.218,0,0.396-0.179,0.396-0.399S25.828,256.245,25.61,256.245"/>
			</defs>
			<clipPath id="SVGID_54_">
				<use xlink:href="#SVGID_53_"  overflow="visible"/>
			</clipPath>
			<rect x="14.345" y="251.245" clip-path="url(#SVGID_54_)" fill="#FFFFFF" width="16.661" height="10.798"/>
		</g>
		<g>
			<defs>
				<path id="SVGID_55_" d="M22.622,258.512H19.74c-0.219,0-0.396,0.179-0.396,0.399s0.177,0.398,0.396,0.398h2.882
					c0.218,0,0.396-0.178,0.396-0.398S22.84,258.512,22.622,258.512"/>
			</defs>
			<clipPath id="SVGID_56_">
				<use xlink:href="#SVGID_55_"  overflow="visible"/>
			</clipPath>
			<rect x="14.345" y="253.512" clip-path="url(#SVGID_56_)" fill="#FFFFFF" width="13.673" height="10.798"/>
		</g>
	</g>
	<g>
		
			<line fill="none" stroke="#FFFFFF" stroke-linecap="round" stroke-linejoin="round" stroke-miterlimit="10" x1="11.208" y1="24.487" x2="11.208" y2="16.714"/>
		
			<line fill="none" stroke="#FFFFFF" stroke-linecap="round" stroke-linejoin="round" stroke-miterlimit="10" x1="10.776" y1="24.486" x2="15.095" y2="24.486"/>
		
			<line fill="none" stroke="#FFFFFF" stroke-linecap="round" stroke-linejoin="round" stroke-miterlimit="10" x1="10.345" y1="26.214" x2="29.345" y2="26.214"/>
		
			<line fill="none" stroke="#FFFFFF" stroke-linecap="round" stroke-linejoin="round" stroke-miterlimit="10" x1="10.776" y1="16.714" x2="15.095" y2="16.714"/>
		
			<line fill="none" stroke="#FFFFFF" stroke-linecap="round" stroke-linejoin="round" stroke-miterlimit="10" x1="17.686" y1="24.486" x2="22.004" y2="24.486"/>
		
			<line fill="none" stroke="#FFFFFF" stroke-linecap="round" stroke-linejoin="round" stroke-miterlimit="10" x1="17.686" y1="16.714" x2="22.004" y2="16.714"/>
		
			<line fill="none" stroke="#FFFFFF" stroke-linecap="round" stroke-linejoin="round" stroke-miterlimit="10" x1="12.936" y1="24.487" x2="12.936" y2="16.714"/>
		
			<line fill="none" stroke="#FFFFFF" stroke-linecap="round" stroke-linejoin="round" stroke-miterlimit="10" x1="14.663" y1="24.487" x2="14.663" y2="16.714"/>
		
			<line fill="none" stroke="#FFFFFF" stroke-linecap="round" stroke-linejoin="round" stroke-miterlimit="10" x1="18.117" y1="24.487" x2="18.117" y2="16.714"/>
		
			<line fill="none" stroke="#FFFFFF" stroke-linecap="round" stroke-linejoin="round" stroke-miterlimit="10" x1="19.845" y1="24.487" x2="19.845" y2="16.714"/>
		
			<line fill="none" stroke="#FFFFFF" stroke-linecap="round" stroke-linejoin="round" stroke-miterlimit="10" x1="21.572" y1="24.487" x2="21.572" y2="16.714"/>
		
			<line fill="none" stroke="#FFFFFF" stroke-linecap="round" stroke-linejoin="round" stroke-miterlimit="10" x1="24.595" y1="24.486" x2="28.913" y2="24.486"/>
		
			<line fill="none" stroke="#FFFFFF" stroke-linecap="round" stroke-linejoin="round" stroke-miterlimit="10" x1="24.595" y1="16.714" x2="28.913" y2="16.714"/>
		
			<line fill="none" stroke="#FFFFFF" stroke-linecap="round" stroke-linejoin="round" stroke-miterlimit="10" x1="25.026" y1="24.487" x2="25.026" y2="16.714"/>
		
			<line fill="none" stroke="#FFFFFF" stroke-linecap="round" stroke-linejoin="round" stroke-miterlimit="10" x1="26.754" y1="24.487" x2="26.754" y2="16.714"/>
		
			<line fill="none" stroke="#FFFFFF" stroke-linecap="round" stroke-linejoin="round" stroke-miterlimit="10" x1="28.481" y1="24.487" x2="28.481" y2="16.714"/>
		<polygon fill="none" stroke="#FFFFFF" stroke-linecap="round" stroke-linejoin="round" stroke-miterlimit="10" points="
			10.345,14.986 29.345,14.986 20.304,7.214 		"/>
	</g>
	<g>
		
			<rect x="10.345" y="85.927" fill="none" stroke="#FFFFFF" stroke-linecap="round" stroke-linejoin="round" stroke-miterlimit="10" width="8.261" height="8.261"/>
		
			<rect x="21.084" y="85.927" fill="none" stroke="#FFFFFF" stroke-linecap="round" stroke-linejoin="round" stroke-miterlimit="10" width="8.261" height="8.261"/>
		
			<rect x="10.345" y="96.667" fill="none" stroke="#FFFFFF" stroke-linecap="round" stroke-linejoin="round" stroke-miterlimit="10" width="8.261" height="8.261"/>
		
			<rect x="21.084" y="96.667" fill="none" stroke="#FFFFFF" stroke-linecap="round" stroke-linejoin="round" stroke-miterlimit="10" width="8.261" height="8.261"/>
	</g>
	<g>
		<g>
			<path fill="none" stroke="#FFFFFF" stroke-linejoin="round" stroke-miterlimit="10" d="M20.179,136.425h3.536c0,0,0-1.399,0-2.1
				c0-0.233-1.399-0.934-2.565-1.398v-0.933c0,0,0.466-0.164,0.466-1.166c0.323,0,0.468-0.934,0.015-0.934
				c0-0.098,0.357-0.608,0.218-1.164c-0.232-0.935-2.563-0.935-2.797,0c-0.982-0.201-0.232,1.03-0.232,1.164
				c-0.468,0-0.325,0.934,0,0.934c0,1.002,0.466,1.166,0.466,1.166v0.933c-1.166,0.465-2.565,1.165-2.565,1.398c0,0.466,0,2.1,0,2.1
				H20.179z"/>
			<path fill="none" stroke="#FFFFFF" stroke-linejoin="round" stroke-miterlimit="10" d="M24.88,136.425h2.564c0,0,0-1.54,0-2.1
				c0-0.233-1.166-0.56-2.098-0.934v-0.698c0,0,0.466-0.13,0.466-0.933c0.261,0,0.361-0.933,0-0.933
				c0-0.079,0.378-0.497,0.233-0.934c-0.233-0.699-2.099-0.699-2.331,0c-0.786-0.159-0.234,0.826-0.234,0.934
				c-0.372,0-0.259,0.933,0,0.933c0,0.803,0.467,0.933,0.467,0.933v0.466"/>
		</g>
		<g>
			<path fill="none" stroke="#FFFFFF" stroke-linejoin="round" stroke-miterlimit="10" d="M32.194,141.248
				c0,0.833-0.638,1.508-1.425,1.508h-19c-0.787,0-1.425-0.675-1.425-1.508v-14.084c0-0.833,0.638-1.508,1.425-1.508h19
				c0.787,0,1.425,0.675,1.425,1.508V141.248z"/>
			
				<line fill="none" stroke="#FFFFFF" stroke-linejoin="round" stroke-miterlimit="10" x1="14.62" y1="144.656" x2="27.919" y2="144.656"/>
			
				<line fill="none" stroke="#FFFFFF" stroke-linejoin="round" stroke-miterlimit="10" x1="21.27" y1="142.755" x2="21.27" y2="144.656"/>
			<circle fill="none" stroke="#FFFFFF" stroke-linejoin="round" stroke-miterlimit="10" cx="21.27" cy="140.855" r="0.475"/>
			
				<line fill="none" stroke="#FFFFFF" stroke-linejoin="round" stroke-miterlimit="10" x1="10.345" y1="138.957" x2="32.194" y2="138.957"/>
		</g>
	</g>
</g>
<g id="Layer_2">
</g>
</svg>
