<?xml version="1.0" encoding="utf-8"?>
<!-- Generator: Adobe Illustrator 16.0.0, SVG Export Plug-In . SVG Version: 6.00 Build 0)  -->
<!DOCTYPE svg PUBLIC "-//W3C//DTD SVG 1.1//EN" "http://www.w3.org/Graphics/SVG/1.1/DTD/svg11.dtd">
<svg version="1.1" id="Layer_1" xmlns="http://www.w3.org/2000/svg" xmlns:xlink="http://www.w3.org/1999/xlink" x="0px" y="0px"
	 width="18px" height="18px" viewBox="0 0 18 18" enable-background="new 0 0 18 18" xml:space="preserve">
<g id="V2_24_">
	<g id="Toolkit---teacher---Clicked-On-Icon_1_" transform="translate(-346.000000, -304.000000)">
		<path id="Fill-19_2_" fill="#7E9098" d="M353.574,317.758c-3.539,0-6.408-2.819-6.408-6.302s2.869-6.308,6.408-6.308
			c3.54,0,6.409,2.825,6.409,6.308S357.113,317.758,353.574,317.758L353.574,317.758z M363.83,321.021l-4.647-4.574
			c1.218-1.322,1.965-3.066,1.965-4.991c0-4.119-3.391-7.456-7.574-7.456c-4.182,0-7.573,3.337-7.573,7.456
			c0,4.113,3.391,7.45,7.573,7.45c1.808,0,3.466-0.624,4.767-1.665l4.665,4.591c0.229,0.226,0.597,0.226,0.824,0
			C364.057,321.612,364.057,321.246,363.83,321.021L363.83,321.021z"/>
	</g>
</g>
</svg>
