<?xml version="1.0" encoding="utf-8"?>
<!-- Generator: Adobe Illustrator 16.0.0, SVG Export Plug-In . SVG Version: 6.00 Build 0)  -->
<!DOCTYPE svg PUBLIC "-//W3C//DTD SVG 1.1//EN" "http://www.w3.org/Graphics/SVG/1.1/DTD/svg11.dtd">
<svg version="1.1" id="Layer_1" xmlns="http://www.w3.org/2000/svg" xmlns:xlink="http://www.w3.org/1999/xlink" x="0px" y="0px"
	 width="44px" height="44px" viewBox="0 0 44 44" enable-background="new 0 0 44 44" xml:space="preserve">
<rect fill="#0CB5EC" width="44" height="44"/>
<g>
	<path fill="none" stroke="#FFFFFF" stroke-linecap="round" stroke-linejoin="round" stroke-miterlimit="10" d="M26.986,12.895
		c-2.01,0-3.803-0.934-4.979-2.395h-0.017c-1.175,1.461-2.968,2.395-4.979,2.395c-1.76,0-3.354-0.715-5.013-1.875v14.812
		c0,0,1.45,5.271,10,7.668c8.55-2.396,10-7.668,10-7.668V11.021C30.341,12.18,28.747,12.895,26.986,12.895z"/>
	<polygon fill="none" stroke="#FFFFFF" stroke-linejoin="round" stroke-miterlimit="10" points="22.339,15.521 26.023,15.521 
		23,20.521 26.784,20.521 18.847,28.986 21.395,22.521 18.372,22.521 	"/>
</g>
</svg>
