<?xml version="1.0" encoding="utf-8"?>
<!-- Generator: Adobe Illustrator 16.0.0, SVG Export Plug-In . SVG Version: 6.00 Build 0)  -->
<!DOCTYPE svg PUBLIC "-//W3C//DTD SVG 1.1//EN" "http://www.w3.org/Graphics/SVG/1.1/DTD/svg11.dtd">
<svg version="1.1" id="Layer_1" xmlns="http://www.w3.org/2000/svg" xmlns:xlink="http://www.w3.org/1999/xlink" x="0px" y="0px"
	 width="9px" height="9px" viewBox="0 0 9 9" enable-background="new 0 0 9 9" xml:space="preserve">
<path d="M8.585,0c-0.421,0-0.53,0.044-0.878,0.251c-0.35,0.208-0.661,0.623-0.949,0.9C6.182,1.704,5.84,2.336,5.396,2.989
	C4.958,3.646,4.563,4.33,4.193,5.029c-0.179,0.342-0.772,1.65-0.938,2c-0.22-0.185-1.214-2.453-2.752-2.505
	C-0.208,4.5-0.074,5.117,0.346,5.342C2.041,6.25,2.32,7.66,2.847,8.551c0.48,0.816,1.489,0.441,1.76-0.494
	c0.045-0.154,0.087-0.35,0.136-0.524c0.05-0.181,0.1-0.359,0.155-0.537C5.005,6.636,5.12,6.277,5.242,5.923
	C5.484,5.215,5.758,4.519,6.068,3.85c0.31-0.667,0.66-1.309,1.078-1.872c0.42-0.556,0.938-1.016,1.525-1.243
	C9.023,0.597,9.223,0,8.585,0z"/>
</svg>
