<?xml version="1.0" encoding="utf-8"?>
<!-- Generator: Adobe Illustrator 16.0.0, SVG Export Plug-In . SVG Version: 6.00 Build 0)  -->
<!DOCTYPE svg PUBLIC "-//W3C//DTD SVG 1.1//EN" "http://www.w3.org/Graphics/SVG/1.1/DTD/svg11.dtd">
<svg version="1.1" id="Layer_1" xmlns="http://www.w3.org/2000/svg" xmlns:xlink="http://www.w3.org/1999/xlink" x="0px" y="0px"
	 width="9px" height="9px" viewBox="0 0 9 9" enable-background="new 0 0 9 9" xml:space="preserve">
<path fill="#7E9098" d="M8.585,0c-0.421,0-0.53,0.044-0.878,0.251c-0.349,0.208-0.661,0.623-0.949,0.9
	C6.182,1.704,5.84,2.336,5.397,2.989C4.958,3.646,4.563,4.33,4.193,5.029c-0.179,0.342-0.772,1.651-0.938,2
	c-0.22-0.184-1.214-2.453-2.752-2.505C-0.208,4.5-0.074,5.117,0.346,5.342C2.041,6.25,2.32,7.66,2.847,8.551
	c0.48,0.816,1.489,0.441,1.76-0.494c0.045-0.154,0.087-0.35,0.136-0.525c0.05-0.18,0.1-0.359,0.155-0.537
	c0.107-0.359,0.222-0.717,0.344-1.072c0.243-0.708,0.516-1.404,0.826-2.073c0.31-0.667,0.66-1.309,1.079-1.872
	c0.419-0.556,0.938-1.016,1.525-1.243C9.023,0.597,9.222,0,8.585,0z"/>
</svg>
