<?xml version="1.0" encoding="UTF-8" standalone="no"?>
<svg width="151px" height="86px" viewBox="0 0 151 86" version="1.1" xmlns="http://www.w3.org/2000/svg" xmlns:xlink="http://www.w3.org/1999/xlink">
    <!-- Generator: Sketch 41.1 (35376) - http://www.bohemiancoding.com/sketch -->
    <title>trepi city logo</title>
    <desc>Created with Sketch.</desc>
    <defs>
        <polygon id="path-1" points="20.3498418 19.3323945 20.3498418 0.0147369863 0.378131045 0.0147369863 0.378131045 19.3323945 20.3498418 19.3323945"></polygon>
        <polygon id="path-3" points="0.372361493 45.6955068 8.64986597 45.6955068 8.64986597 0.142894521 0.372361493 0.142894521 0.372361493 45.6955068"></polygon>
        <polygon id="path-5" points="0.372361493 45.6955068 8.64986597 45.6955068 8.64986597 0.142894521 0.372361493 0.142894521 0.372361493 45.6955068"></polygon>
        <polygon id="path-7" points="0.130716418 71.4626301 63.9392597 71.4626301 63.9392597 0.322767123 0.130716418 0.322767123"></polygon>
    </defs>
    <g id="Symbols" stroke="none" stroke-width="1" fill="none" fill-rule="evenodd">
        <g id="toolkit-hq" transform="translate(-65.000000, -33.000000)">
            <g id="trepi-city-logo" transform="translate(65.000000, 19.000000)">
                <g transform="translate(0.000000, 0.500000)">
                    <polygon id="Fill-1" fill="#FFFFFF" points="0.0559826866 78.8009712 9.0149254e-05 84.4955055 5.70653791 84.4955055 5.59475284 98.1186288 12.5876304 98.1186288 12.6994155 84.4955055 18.4058633 84.4955055 18.4617558 78.8009712"></polygon>
                    <g id="Group-20" transform="translate(19.382090, 77.882260)">
                        <path d="M7.4135591,9.43311781 L8.84017104,9.43311781 C10.0991054,9.43311781 11.1056218,9.29343288 11.1056218,7.64659726 C11.1056218,6.33473425 10.714374,5.55267945 9.00784866,5.55267945 L7.44150537,5.55267945 L7.4135591,9.43311781 Z M0.420230746,20.2363233 L0.560412836,0.919117808 L10.7982128,0.919117808 C16.2247472,0.919117808 17.9308218,3.54284384 17.9308218,6.72530959 C17.9308218,9.29343288 16.1968009,11.4985562 13.7632218,11.6102137 L13.7632218,11.6662685 C15.6933173,12.0848712 16.5880487,13.3131041 19.1897561,20.2363233 L11.469374,20.2363233 L9.81919194,15.5742822 C9.42749343,14.4021041 9.03579493,14.0666795 8.39258,14.0666795 L7.35721582,14.0666795 L7.27337701,20.2363233 L0.420230746,20.2363233 Z" id="Fill-2" fill="#FFFFFF"></path>
                        <polygon id="Fill-4" fill="#FFFFFF" points="20.7537104 0.918891781 36.6420657 0.918891781 36.5861731 6.05513836 27.5789104 6.05513836 27.5789104 8.06542603 36.5861731 8.06542603 36.5298299 13.0339603 27.5230179 13.0339603 27.4950716 15.0998507 36.5298299 15.0998507 36.4739373 20.2360973 20.6135284 20.2360973"></polygon>
                        <path d="M46.3460919,9.43311781 L47.4648442,9.43311781 C49.4508322,9.43311781 50.0381546,8.48380274 50.0381546,7.28359726 C50.0381546,5.88765205 48.9194024,5.55267945 47.9403815,5.55267945 L46.3740382,5.55267945 L46.3460919,9.43311781 Z M39.4370531,0.919117808 L49.0036919,0.919117808 C53.3110233,0.919117808 56.5279994,2.25855616 56.5279994,7.61856986 C56.5279994,11.2196384 54.5420113,14.0666795 50.1783367,14.0666795 L46.3181457,14.0666795 L46.2622531,20.2363233 L39.2689248,20.2363233 L39.4370531,0.919117808 Z" id="Fill-6" fill="#FFFFFF"></path>
                        <polygon id="Fill-8" fill="#FFFFFF" points="57.9523576 0.918891781 64.945686 0.918891781 64.7775576 20.2360973 57.78468 20.2360973"></polygon>
                        <g id="Group-12" transform="translate(65.808955, 0.000000)" fill="#414753">
                            <path d="M16.5902573,20.2362781 C15.778914,20.4039904 14.8837319,20.5432233 13.9326573,20.6548808 C13.0099797,20.738511 11.9746155,20.7945658 10.827917,20.7945658 C4.05860955,20.7945658 0.450385672,16.1605521 0.450385672,10.5776753 C0.450385672,4.38045616 4.05860955,0.360332877 11.6392603,0.360332877 C13.7370334,0.360332877 15.0798066,0.528045205 16.7579349,0.863017808 L15.8348066,6.64163425 C14.8557857,6.44589452 13.6531946,6.33468904 12.9820334,6.33468904 C8.50612299,6.33468904 7.66728418,8.93038767 7.66728418,10.5496479 C7.66728418,12.5594836 8.58996179,14.8206616 12.6462275,14.8206616 C13.6811409,14.8206616 14.7160543,14.7370315 15.7230215,14.5693192 L16.5902573,20.2362781 Z" id="Fill-10"></path>
                        </g>
                        <polygon id="Fill-13" fill="#414753" points="84.3830821 0.918891781 91.3764104 0.918891781 91.2082821 20.2360973 84.2154045 20.2360973"></polygon>
                        <polygon id="Fill-15" fill="#414753" points="98.2842773 6.61351644 92.5778296 6.61351644 92.6341728 0.918982192 111.039495 0.918982192 110.983603 6.61351644 105.277606 6.61351644 105.165821 20.2361877 98.1724922 20.2361877"></polygon>
                        <g id="Group-19" transform="translate(110.883582, 0.904110)">
                            <mask id="mask-2" fill="white">
                                <use xlink:href="#path-1"></use>
                            </mask>
                            <g id="Clip-18"></g>
                            <polygon id="Fill-17" fill="#414753" mask="url(#mask-2)" points="6.92341761 11.4878877 0.378131045 0.0147369863 8.01422358 0.0147369863 10.2521788 7.18884658 10.3080713 7.18884658 12.9936176 0.0147369863 20.3502475 0.0147369863 13.7486176 11.4878877 13.6647788 19.3323945 6.83957881 19.3323945"></polygon>
                        </g>
                    </g>
                    <g id="Group-114" transform="translate(43.271642, 0.128836)">
                        <g id="Group-23" transform="translate(35.608955, 25.767123)">
                            <mask id="mask-4" fill="white">
                                <use xlink:href="#path-3"></use>
                            </mask>
                            <g id="Clip-22"></g>
                            <polygon id="Fill-21" fill="#7E8F96" mask="url(#mask-4)" points="6.84327493 3.18883973 6.84327493 0.142894521 1.87830478 0.142894521 1.87830478 6.41831918 0.372361493 6.41831918 0.372361493 49.5285247 1.87830478 49.5285247 3.4040809 49.5285247 3.68489582 49.5285247 6.84327493 49.5285247 8.64986597 49.5285247 8.64986597 3.18883973"></polygon>
                        </g>
                        <g id="Group-26" transform="translate(35.608955, 25.767123)">
                            <mask id="mask-6" fill="white">
                                <use xlink:href="#path-5"></use>
                            </mask>
                            <g id="Clip-25"></g>
                            <polygon id="Stroke-24" stroke="#FFFFFF" stroke-width="1.341" mask="url(#mask-6)" points="6.84327493 3.18883973 6.84327493 0.142894521 1.87830478 0.142894521 1.87830478 6.41831918 0.372361493 6.41831918 0.372361493 49.5285247 1.87830478 49.5285247 3.4040809 49.5285247 3.68489582 49.5285247 6.84327493 49.5285247 8.64986597 49.5285247 8.64986597 3.18883973"></polygon>
                        </g>
                        <mask id="mask-8" fill="white">
                            <use xlink:href="#path-7"></use>
                        </mask>
                        <g id="Clip-28"></g>
                        <polygon id="Fill-27" fill="#7E8F96" mask="url(#mask-8)" points="43.1012597 75.4691918 58.3220597 75.4691918 58.3220597 30.9449589 43.1012597 30.9449589"></polygon>
                        <polygon id="Stroke-29" stroke="#FFFFFF" stroke-width="1.341" mask="url(#mask-8)" points="43.1012597 75.4691918 58.3220597 75.4691918 58.3220597 30.9449589 43.1012597 30.9449589"></polygon>
                        <polygon id="Fill-30" fill="#7E8F96" mask="url(#mask-8)" points="21.3910657 75.4691918 27.6893433 75.4691918 27.6893433 41.8643425 21.3910657 41.8643425"></polygon>
                        <polygon id="Stroke-31" stroke="#FFFFFF" stroke-width="1.341" mask="url(#mask-8)" points="21.3910657 75.4691918 27.6893433 75.4691918 27.6893433 41.8643425 21.3910657 41.8643425"></polygon>
                        <polygon id="Fill-32" fill="#7E8F96" mask="url(#mask-8)" points="14.7385015 75.2956027 20.0568567 75.2956027 20.0568567 41.0384384 14.7385015 41.0384384"></polygon>
                        <polygon id="Stroke-33" stroke="#FFFFFF" stroke-width="1.341" mask="url(#mask-8)" points="14.7385015 75.2956027 20.0568567 75.2956027 20.0568567 41.0384384 14.7385015 41.0384384"></polygon>
                        <polygon id="Fill-34" fill="#7E8F96" mask="url(#mask-8)" points="29.835797 75.2956027 33.4250896 75.2956027 33.4250896 36.9428219 29.835797 36.9428219"></polygon>
                        <polygon id="Stroke-35" stroke="#BC1F2F" stroke-width="1.341" mask="url(#mask-8)" points="29.835797 75.2956027 33.4250896 75.2956027 33.4250896 36.9428219 29.835797 36.9428219"></polygon>
                        <polygon id="Fill-36" fill="#7E8F96" mask="url(#mask-8)" points="53.4612119 75.2956027 60.3603343 75.2956027 60.3603343 48.7048356 53.4612119 48.7048356"></polygon>
                        <polygon id="Stroke-37" stroke="#FFFFFF" stroke-width="1.341" mask="url(#mask-8)" points="53.4612119 75.2956027 60.3603343 75.2956027 60.3603343 48.7048356 53.4612119 48.7048356"></polygon>
                        <polygon id="Fill-38" fill="#7E8F96" mask="url(#mask-8)" points="7.28180597 75.2956027 15.6179075 75.2956027 15.6179075 52.1671233 7.28180597 52.1671233"></polygon>
                        <polygon id="Stroke-39" stroke="#FFFFFF" stroke-width="1.341" mask="url(#mask-8)" points="7.28180597 75.2956027 15.6179075 75.2956027 15.6179075 52.1671233 7.28180597 52.1671233"></polygon>
                        <polygon id="Fill-40" fill="#7E8F96" mask="url(#mask-8)" points="26.521009 75.4691918 34.2810567 75.4691918 34.2810567 14.8328219 26.521009 14.8328219"></polygon>
                        <polygon id="Stroke-41" stroke="#FFFFFF" stroke-width="1.341" mask="url(#mask-8)" points="26.521009 75.4691918 34.2810567 75.4691918 34.2810567 14.8328219 26.521009 14.8328219"></polygon>
                        <polygon id="Fill-42" fill="#7E8F96" mask="url(#mask-8)" points="23.0296185 24.9659014 23.0296185 23.8773534 22.4350842 23.8773534 22.4350842 23.1490932 21.8693976 23.1490932 21.8693976 22.5184767 21.5579319 22.5184767 21.5579319 20.2170658 21.463726 20.2170658 21.463726 22.5184767 21.1148484 22.5184767 21.1148484 23.1490932 20.580714 23.1490932 20.580714 23.8773534 20.0335081 23.8773534 20.0335081 24.9423945 18.415329 25.8062712 18.415329 75.0775315 24.6532066 75.0775315 24.6532066 25.8419836"></polygon>
                        <polygon id="Stroke-43" stroke="#FFFFFF" stroke-width="1.341" mask="url(#mask-8)" points="23.0296185 24.9659014 23.0296185 23.8773534 22.4350842 23.8773534 22.4350842 23.1490932 21.8693976 23.1490932 21.8693976 22.5184767 21.5579319 22.5184767 21.5579319 20.2170658 21.463726 20.2170658 21.463726 22.5184767 21.1148484 22.5184767 21.1148484 23.1490932 20.580714 23.1490932 20.580714 23.8773534 20.0335081 23.8773534 20.0335081 24.9423945 18.415329 25.8062712 18.415329 75.0775315 24.6532066 75.0775315 24.6532066 25.8419836"></polygon>
                        <polygon id="Fill-44" fill="#7E8F96" mask="url(#mask-8)" points="45.4188167 39.023811 37.9733899 47.8465644 37.9733899 75.2686603 45.4188167 75.2686603"></polygon>
                        <polygon id="Stroke-45" stroke="#FFFFFF" stroke-width="1.341" mask="url(#mask-8)" points="45.4188167 39.023811 37.9733899 47.8465644 37.9733899 75.2686603 45.4188167 75.2686603"></polygon>
                        <polygon id="Fill-46" fill="#7E8F96" mask="url(#mask-8)" points="11.4737463 75.4691918 17.5218597 75.4691918 17.5218597 61.0301096 11.4737463 61.0301096"></polygon>
                        <polygon id="Stroke-47" stroke="#FFFFFF" stroke-width="1.341" mask="url(#mask-8)" points="11.4737463 75.4691918 17.5218597 75.4691918 17.5218597 61.0301096 11.4737463 61.0301096"></polygon>
                        <polygon id="Fill-48" fill="#7E8F96" mask="url(#mask-8)" points="46.5841761 75.4691918 51.6708478 75.4691918 51.6708478 25.3390274 46.5841761 25.3390274"></polygon>
                        <polygon id="Stroke-49" stroke="#FFFFFF" stroke-width="1.341" mask="url(#mask-8)" points="46.5841761 75.4691918 51.6708478 75.4691918 51.6708478 25.3390274 46.5841761 25.3390274"></polygon>
                        <path d="M20.5853567,68.7352027 L20.5853567,32.4822164" id="Fill-50" fill="#7E8F96" mask="url(#mask-8)"></path>
                        <path d="M20.5853567,66.7755904 C20.3108522,66.7755904 20.0881836,66.994837 20.0881836,67.2656178 C20.0881836,67.5359466 20.3108522,67.7551932 20.5853567,67.7551932 C20.8598612,67.7551932 21.0825299,67.5359466 21.0825299,67.2656178 C21.0825299,66.994837 20.8598612,66.7755904 20.5853567,66.7755904" id="Fill-51" fill="#FFFFFF" mask="url(#mask-8)"></path>
                        <path d="M20.5853567,64.8159781 C20.3108522,64.8159781 20.0881836,65.0352247 20.0881836,65.3060055 C20.0881836,65.5763342 20.3108522,65.7955808 20.5853567,65.7955808 C20.8598612,65.7955808 21.0825299,65.5763342 21.0825299,65.3060055 C21.0825299,65.0352247 20.8598612,64.8159781 20.5853567,64.8159781" id="Fill-52" fill="#FFFFFF" mask="url(#mask-8)"></path>
                        <path d="M20.5853567,62.8563658 C20.3108522,62.8563658 20.0881836,63.0756123 20.0881836,63.3463932 C20.0881836,63.6167219 20.3108522,63.8359685 20.5853567,63.8359685 C20.8598612,63.8359685 21.0825299,63.6167219 21.0825299,63.3463932 C21.0825299,63.0756123 20.8598612,62.8563658 20.5853567,62.8563658" id="Fill-53" fill="#FFFFFF" mask="url(#mask-8)"></path>
                        <path d="M20.5853567,60.8967534 C20.3108522,60.8967534 20.0881836,61.116 20.0881836,61.3867808 C20.0881836,61.6571096 20.3108522,61.8763562 20.5853567,61.8763562 C20.8598612,61.8763562 21.0825299,61.6571096 21.0825299,61.3867808 C21.0825299,61.116 20.8598612,60.8967534 20.5853567,60.8967534" id="Fill-54" fill="#FFFFFF" mask="url(#mask-8)"></path>
                        <path d="M20.5853567,58.9371411 C20.3108522,58.9371411 20.0881836,59.1563877 20.0881836,59.4271685 C20.0881836,59.6974973 20.3108522,59.9167438 20.5853567,59.9167438 C20.8598612,59.9167438 21.0825299,59.6974973 21.0825299,59.4271685 C21.0825299,59.1563877 20.8598612,58.9371411 20.5853567,58.9371411" id="Fill-55" fill="#FFFFFF" mask="url(#mask-8)"></path>
                        <path d="M20.5853567,56.9775288 C20.3108522,56.9775288 20.0881836,57.1967753 20.0881836,57.4675562 C20.0881836,57.7378849 20.3108522,57.9571315 20.5853567,57.9571315 C20.8598612,57.9571315 21.0825299,57.7378849 21.0825299,57.4675562 C21.0825299,57.1967753 20.8598612,56.9775288 20.5853567,56.9775288" id="Fill-56" fill="#FFFFFF" mask="url(#mask-8)"></path>
                        <path d="M20.5853567,55.0179164 C20.3108522,55.0179164 20.0881836,55.237163 20.0881836,55.5079438 C20.0881836,55.7782726 20.3108522,55.9975192 20.5853567,55.9975192 C20.8598612,55.9975192 21.0825299,55.7782726 21.0825299,55.5079438 C21.0825299,55.237163 20.8598612,55.0179164 20.5853567,55.0179164" id="Fill-57" fill="#FFFFFF" mask="url(#mask-8)"></path>
                        <path d="M20.5853567,53.0583041 C20.3108522,53.0583041 20.0881836,53.2775507 20.0881836,53.5483315 C20.0881836,53.8186603 20.3108522,54.0379068 20.5853567,54.0379068 C20.8598612,54.0379068 21.0825299,53.8186603 21.0825299,53.5483315 C21.0825299,53.2775507 20.8598612,53.0583041 20.5853567,53.0583041" id="Fill-58" fill="#FFFFFF" mask="url(#mask-8)"></path>
                        <path d="M20.5853567,51.0986466 C20.3108522,51.0986466 20.0881836,51.3178932 20.0881836,51.588674 C20.0881836,51.8590027 20.3108522,52.0782493 20.5853567,52.0782493 C20.8598612,52.0782493 21.0825299,51.8590027 21.0825299,51.588674 C21.0825299,51.3178932 20.8598612,51.0986466 20.5853567,51.0986466" id="Fill-59" fill="#FFFFFF" mask="url(#mask-8)"></path>
                        <path d="M20.5853567,49.1390342 C20.3108522,49.1390342 20.0881836,49.3582808 20.0881836,49.6290616 C20.0881836,49.8993904 20.3108522,50.118637 20.5853567,50.118637 C20.8598612,50.118637 21.0825299,49.8993904 21.0825299,49.6290616 C21.0825299,49.3582808 20.8598612,49.1390342 20.5853567,49.1390342" id="Fill-60" fill="#FFFFFF" mask="url(#mask-8)"></path>
                        <path d="M20.5853567,47.1794219 C20.3108522,47.1794219 20.0881836,47.3986685 20.0881836,47.6694493 C20.0881836,47.9397781 20.3108522,48.1590247 20.5853567,48.1590247 C20.8598612,48.1590247 21.0825299,47.9397781 21.0825299,47.6694493 C21.0825299,47.3986685 20.8598612,47.1794219 20.5853567,47.1794219" id="Fill-61" fill="#FFFFFF" mask="url(#mask-8)"></path>
                        <path d="M20.5853567,45.2198096 C20.3108522,45.2198096 20.0881836,45.4390562 20.0881836,45.709837 C20.0881836,45.9801658 20.3108522,46.1994123 20.5853567,46.1994123 C20.8598612,46.1994123 21.0825299,45.9801658 21.0825299,45.709837 C21.0825299,45.4390562 20.8598612,45.2198096 20.5853567,45.2198096" id="Fill-62" fill="#FFFFFF" mask="url(#mask-8)"></path>
                        <path d="M20.5853567,43.2601973 C20.3108522,43.2601973 20.0881836,43.4794438 20.0881836,43.7502247 C20.0881836,44.0205534 20.3108522,44.2398 20.5853567,44.2398 C20.8598612,44.2398 21.0825299,44.0205534 21.0825299,43.7502247 C21.0825299,43.4794438 20.8598612,43.2601973 20.5853567,43.2601973" id="Fill-63" fill="#FFFFFF" mask="url(#mask-8)"></path>
                        <path d="M20.5853567,41.3005849 C20.3108522,41.3005849 20.0881836,41.5198315 20.0881836,41.7906123 C20.0881836,42.0609411 20.3108522,42.2801877 20.5853567,42.2801877 C20.8598612,42.2801877 21.0825299,42.0609411 21.0825299,41.7906123 C21.0825299,41.5198315 20.8598612,41.3005849 20.5853567,41.3005849" id="Fill-64" fill="#FFFFFF" mask="url(#mask-8)"></path>
                        <path d="M20.5853567,39.3409726 C20.3108522,39.3409726 20.0881836,39.5602192 20.0881836,39.831 C20.0881836,40.1013288 20.3108522,40.3205753 20.5853567,40.3205753 C20.8598612,40.3205753 21.0825299,40.1013288 21.0825299,39.831 C21.0825299,39.5602192 20.8598612,39.3409726 20.5853567,39.3409726" id="Fill-65" fill="#FFFFFF" mask="url(#mask-8)"></path>
                        <path d="M20.5853567,37.3813603 C20.3108522,37.3813603 20.0881836,37.6006068 20.0881836,37.8713877 C20.0881836,38.1417164 20.3108522,38.360963 20.5853567,38.360963 C20.8598612,38.360963 21.0825299,38.1417164 21.0825299,37.8713877 C21.0825299,37.6006068 20.8598612,37.3813603 20.5853567,37.3813603" id="Fill-66" fill="#FFFFFF" mask="url(#mask-8)"></path>
                        <path d="M20.5853567,35.4217027 C20.3108522,35.4217027 20.0881836,35.6409493 20.0881836,35.9117301 C20.0881836,36.1820589 20.3108522,36.4013055 20.5853567,36.4013055 C20.8598612,36.4013055 21.0825299,36.1820589 21.0825299,35.9117301 C21.0825299,35.6409493 20.8598612,35.4217027 20.5853567,35.4217027" id="Fill-67" fill="#FFFFFF" mask="url(#mask-8)"></path>
                        <path d="M20.5853567,33.4620904 C20.3108522,33.4620904 20.0881836,33.681337 20.0881836,33.9521178 C20.0881836,34.2224466 20.3108522,34.4416932 20.5853567,34.4416932 C20.8598612,34.4416932 21.0825299,34.2224466 21.0825299,33.9521178 C21.0825299,33.681337 20.8598612,33.4620904 20.5853567,33.4620904" id="Fill-68" fill="#FFFFFF" mask="url(#mask-8)"></path>
                        <path d="M49.1904361,76.3918356 L49.1904361,18.6074795" id="Fill-69" fill="#7E8F96" mask="url(#mask-8)"></path>
                        <path d="M49.1904361,74.9994164 C48.998869,74.9994164 48.8433615,75.1553753 48.8433615,75.3474986 C48.8433615,75.5396219 48.998869,75.6955808 49.1904361,75.6955808 C49.3820033,75.6955808 49.5375107,75.5396219 49.5375107,75.3474986 C49.5375107,75.1553753 49.3820033,74.9994164 49.1904361,74.9994164" id="Fill-70" fill="#FFFFFF" mask="url(#mask-8)"></path>
                        <path d="M49.1904361,73.6070425 C48.998869,73.6070425 48.8433615,73.7630014 48.8433615,73.9551247 C48.8433615,74.1472479 48.998869,74.3032068 49.1904361,74.3032068 C49.3820033,74.3032068 49.5375107,74.1472479 49.5375107,73.9551247 C49.5375107,73.7630014 49.3820033,73.6070425 49.1904361,73.6070425" id="Fill-71" fill="#FFFFFF" mask="url(#mask-8)"></path>
                        <path d="M49.1904361,72.2146233 C48.998869,72.2146233 48.8433615,72.3705822 48.8433615,72.5627055 C48.8433615,72.7548288 48.998869,72.9107877 49.1904361,72.9107877 C49.3820033,72.9107877 49.5375107,72.7548288 49.5375107,72.5627055 C49.5375107,72.3705822 49.3820033,72.2146233 49.1904361,72.2146233" id="Fill-72" fill="#FFFFFF" mask="url(#mask-8)"></path>
                        <path d="M49.1904361,70.8222493 C48.998869,70.8222493 48.8433615,70.9782082 48.8433615,71.1703315 C48.8433615,71.3624548 48.998869,71.5184137 49.1904361,71.5184137 C49.3820033,71.5184137 49.5375107,71.3624548 49.5375107,71.1703315 C49.5375107,70.9782082 49.3820033,70.8222493 49.1904361,70.8222493" id="Fill-73" fill="#FFFFFF" mask="url(#mask-8)"></path>
                        <path d="M49.1904361,69.4298301 C48.998869,69.4298301 48.8433615,69.585789 48.8433615,69.7779123 C48.8433615,69.9700356 48.998869,70.1259945 49.1904361,70.1259945 C49.3820033,70.1259945 49.5375107,69.9700356 49.5375107,69.7779123 C49.5375107,69.585789 49.3820033,69.4298301 49.1904361,69.4298301" id="Fill-74" fill="#FFFFFF" mask="url(#mask-8)"></path>
                        <path d="M49.1904361,68.0374562 C48.998869,68.0374562 48.8433615,68.1934151 48.8433615,68.3855384 C48.8433615,68.5776616 48.998869,68.7336205 49.1904361,68.7336205 C49.3820033,68.7336205 49.5375107,68.5776616 49.5375107,68.3855384 C49.5375107,68.1934151 49.3820033,68.0374562 49.1904361,68.0374562" id="Fill-75" fill="#FFFFFF" mask="url(#mask-8)"></path>
                        <path d="M49.1904361,66.6450822 C48.998869,66.6450822 48.8433615,66.8010411 48.8433615,66.9931644 C48.8433615,67.1852877 48.998869,67.3412466 49.1904361,67.3412466 C49.3820033,67.3412466 49.5375107,67.1852877 49.5375107,66.9931644 C49.5375107,66.8010411 49.3820033,66.6450822 49.1904361,66.6450822" id="Fill-76" fill="#FFFFFF" mask="url(#mask-8)"></path>
                        <path d="M49.1904361,65.252663 C48.998869,65.252663 48.8433615,65.4086219 48.8433615,65.6007452 C48.8433615,65.7928685 48.998869,65.9488274 49.1904361,65.9488274 C49.3820033,65.9488274 49.5375107,65.7928685 49.5375107,65.6007452 C49.5375107,65.4086219 49.3820033,65.252663 49.1904361,65.252663" id="Fill-77" fill="#FFFFFF" mask="url(#mask-8)"></path>
                        <path d="M49.1904361,63.860289 C48.998869,63.860289 48.8433615,64.0162479 48.8433615,64.2083712 C48.8433615,64.4004945 48.998869,64.5564534 49.1904361,64.5564534 C49.3820033,64.5564534 49.5375107,64.4004945 49.5375107,64.2083712 C49.5375107,64.0162479 49.3820033,63.860289 49.1904361,63.860289" id="Fill-78" fill="#FFFFFF" mask="url(#mask-8)"></path>
                        <path d="M49.1904361,62.4678699 C48.998869,62.4678699 48.8433615,62.6238288 48.8433615,62.8159521 C48.8433615,63.0080753 48.998869,63.1640342 49.1904361,63.1640342 C49.3820033,63.1640342 49.5375107,63.0080753 49.5375107,62.8159521 C49.5375107,62.6238288 49.3820033,62.4678699 49.1904361,62.4678699" id="Fill-79" fill="#FFFFFF" mask="url(#mask-8)"></path>
                        <path d="M49.1904361,61.0754959 C48.998869,61.0754959 48.8433615,61.2314548 48.8433615,61.4235781 C48.8433615,61.6157014 48.998869,61.7716603 49.1904361,61.7716603 C49.3820033,61.7716603 49.5375107,61.6157014 49.5375107,61.4235781 C49.5375107,61.2314548 49.3820033,61.0754959 49.1904361,61.0754959" id="Fill-80" fill="#FFFFFF" mask="url(#mask-8)"></path>
                        <path d="M49.1904361,59.6830767 C48.998869,59.6830767 48.8433615,59.8390356 48.8433615,60.0311589 C48.8433615,60.2232822 48.998869,60.3792411 49.1904361,60.3792411 C49.3820033,60.3792411 49.5375107,60.2232822 49.5375107,60.0311589 C49.5375107,59.8390356 49.3820033,59.6830767 49.1904361,59.6830767" id="Fill-81" fill="#FFFFFF" mask="url(#mask-8)"></path>
                        <path d="M49.1904361,58.2907027 C48.998869,58.2907027 48.8433615,58.4466616 48.8433615,58.6387849 C48.8433615,58.8309082 48.998869,58.9868671 49.1904361,58.9868671 C49.3820033,58.9868671 49.5375107,58.8309082 49.5375107,58.6387849 C49.5375107,58.4466616 49.3820033,58.2907027 49.1904361,58.2907027" id="Fill-82" fill="#FFFFFF" mask="url(#mask-8)"></path>
                        <path d="M49.1904361,56.8982836 C48.998869,56.8982836 48.8433615,57.0542425 48.8433615,57.2463658 C48.8433615,57.438489 48.998869,57.5944479 49.1904361,57.5944479 C49.3820033,57.5944479 49.5375107,57.438489 49.5375107,57.2463658 C49.5375107,57.0542425 49.3820033,56.8982836 49.1904361,56.8982836" id="Fill-83" fill="#FFFFFF" mask="url(#mask-8)"></path>
                        <path d="M49.1904361,55.5059096 C48.998869,55.5059096 48.8433615,55.6618685 48.8433615,55.8539918 C48.8433615,56.0461151 48.998869,56.202074 49.1904361,56.202074 C49.3820033,56.202074 49.5375107,56.0461151 49.5375107,55.8539918 C49.5375107,55.6618685 49.3820033,55.5059096 49.1904361,55.5059096" id="Fill-84" fill="#FFFFFF" mask="url(#mask-8)"></path>
                        <path d="M49.1904361,54.1134904 C48.998869,54.1134904 48.8433615,54.2694493 48.8433615,54.4615726 C48.8433615,54.6536959 48.998869,54.8096548 49.1904361,54.8096548 C49.3820033,54.8096548 49.5375107,54.6536959 49.5375107,54.4615726 C49.5375107,54.2694493 49.3820033,54.1134904 49.1904361,54.1134904" id="Fill-85" fill="#FFFFFF" mask="url(#mask-8)"></path>
                        <path d="M49.1904361,52.7211164 C48.998869,52.7211164 48.8433615,52.8770753 48.8433615,53.0691986 C48.8433615,53.2613219 48.998869,53.4172808 49.1904361,53.4172808 C49.3820033,53.4172808 49.5375107,53.2613219 49.5375107,53.0691986 C49.5375107,52.8770753 49.3820033,52.7211164 49.1904361,52.7211164" id="Fill-86" fill="#FFFFFF" mask="url(#mask-8)"></path>
                        <path d="M49.1904361,51.3287425 C48.998869,51.3287425 48.8433615,51.4847014 48.8433615,51.6768247 C48.8433615,51.8689479 48.998869,52.0249068 49.1904361,52.0249068 C49.3820033,52.0249068 49.5375107,51.8689479 49.5375107,51.6768247 C49.5375107,51.4847014 49.3820033,51.3287425 49.1904361,51.3287425" id="Fill-87" fill="#FFFFFF" mask="url(#mask-8)"></path>
                        <path d="M49.1904361,49.9363233 C48.998869,49.9363233 48.8433615,50.0922822 48.8433615,50.2844055 C48.8433615,50.4765288 48.998869,50.6324877 49.1904361,50.6324877 C49.3820033,50.6324877 49.5375107,50.4765288 49.5375107,50.2844055 C49.5375107,50.0922822 49.3820033,49.9363233 49.1904361,49.9363233" id="Fill-88" fill="#FFFFFF" mask="url(#mask-8)"></path>
                        <path d="M49.1904361,48.5439493 C48.998869,48.5439493 48.8433615,48.6999082 48.8433615,48.8920315 C48.8433615,49.0841548 48.998869,49.2401137 49.1904361,49.2401137 C49.3820033,49.2401137 49.5375107,49.0841548 49.5375107,48.8920315 C49.5375107,48.6999082 49.3820033,48.5439493 49.1904361,48.5439493" id="Fill-89" fill="#FFFFFF" mask="url(#mask-8)"></path>
                        <path d="M49.1904361,47.1515301 C48.998869,47.1515301 48.8433615,47.307489 48.8433615,47.4996123 C48.8433615,47.6917356 48.998869,47.8476945 49.1904361,47.8476945 C49.3820033,47.8476945 49.5375107,47.6917356 49.5375107,47.4996123 C49.5375107,47.307489 49.3820033,47.1515301 49.1904361,47.1515301" id="Fill-90" fill="#FFFFFF" mask="url(#mask-8)"></path>
                        <path d="M49.1904361,45.7591562 C48.998869,45.7591562 48.8433615,45.9151151 48.8433615,46.1072384 C48.8433615,46.2993616 48.998869,46.4553205 49.1904361,46.4553205 C49.3820033,46.4553205 49.5375107,46.2993616 49.5375107,46.1072384 C49.5375107,45.9151151 49.3820033,45.7591562 49.1904361,45.7591562" id="Fill-91" fill="#FFFFFF" mask="url(#mask-8)"></path>
                        <path d="M49.1904361,44.366737 C48.998869,44.366737 48.8433615,44.5226959 48.8433615,44.7148192 C48.8433615,44.9069425 48.998869,45.0629014 49.1904361,45.0629014 C49.3820033,45.0629014 49.5375107,44.9069425 49.5375107,44.7148192 C49.5375107,44.5226959 49.3820033,44.366737 49.1904361,44.366737" id="Fill-92" fill="#FFFFFF" mask="url(#mask-8)"></path>
                        <path d="M49.1904361,42.974363 C48.998869,42.974363 48.8433615,43.1303219 48.8433615,43.3224452 C48.8433615,43.5145685 48.998869,43.6705274 49.1904361,43.6705274 C49.3820033,43.6705274 49.5375107,43.5145685 49.5375107,43.3224452 C49.5375107,43.1303219 49.3820033,42.974363 49.1904361,42.974363" id="Fill-93" fill="#FFFFFF" mask="url(#mask-8)"></path>
                        <path d="M49.1904361,41.5819438 C48.998869,41.5819438 48.8433615,41.7379027 48.8433615,41.930026 C48.8433615,42.1221493 48.998869,42.2781082 49.1904361,42.2781082 C49.3820033,42.2781082 49.5375107,42.1221493 49.5375107,41.930026 C49.5375107,41.7379027 49.3820033,41.5819438 49.1904361,41.5819438" id="Fill-94" fill="#FFFFFF" mask="url(#mask-8)"></path>
                        <path d="M49.1904361,40.1895699 C48.998869,40.1895699 48.8433615,40.3455288 48.8433615,40.5376521 C48.8433615,40.7297753 48.998869,40.8857342 49.1904361,40.8857342 C49.3820033,40.8857342 49.5375107,40.7297753 49.5375107,40.5376521 C49.5375107,40.3455288 49.3820033,40.1895699 49.1904361,40.1895699" id="Fill-95" fill="#FFFFFF" mask="url(#mask-8)"></path>
                        <path d="M49.1904361,38.7971959 C48.998869,38.7971959 48.8433615,38.9531548 48.8433615,39.1452781 C48.8433615,39.3374014 48.998869,39.4933603 49.1904361,39.4933603 C49.3820033,39.4933603 49.5375107,39.3374014 49.5375107,39.1452781 C49.5375107,38.9531548 49.3820033,38.7971959 49.1904361,38.7971959" id="Fill-96" fill="#FFFFFF" mask="url(#mask-8)"></path>
                        <path d="M49.1904361,37.4047767 C48.998869,37.4047767 48.8433615,37.5607356 48.8433615,37.7528589 C48.8433615,37.9449822 48.998869,38.1009411 49.1904361,38.1009411 C49.3820033,38.1009411 49.5375107,37.9449822 49.5375107,37.7528589 C49.5375107,37.5607356 49.3820033,37.4047767 49.1904361,37.4047767" id="Fill-97" fill="#FFFFFF" mask="url(#mask-8)"></path>
                        <path d="M49.1904361,36.0124027 C48.998869,36.0124027 48.8433615,36.1683616 48.8433615,36.3604849 C48.8433615,36.5526082 48.998869,36.7085671 49.1904361,36.7085671 C49.3820033,36.7085671 49.5375107,36.5526082 49.5375107,36.3604849 C49.5375107,36.1683616 49.3820033,36.0124027 49.1904361,36.0124027" id="Fill-98" fill="#FFFFFF" mask="url(#mask-8)"></path>
                        <path d="M49.1904361,34.6199836 C48.998869,34.6199836 48.8433615,34.7759425 48.8433615,34.9680658 C48.8433615,35.160189 48.998869,35.3161479 49.1904361,35.3161479 C49.3820033,35.3161479 49.5375107,35.160189 49.5375107,34.9680658 C49.5375107,34.7759425 49.3820033,34.6199836 49.1904361,34.6199836" id="Fill-99" fill="#FFFFFF" mask="url(#mask-8)"></path>
                        <path d="M49.1904361,33.2276096 C48.998869,33.2276096 48.8433615,33.3835685 48.8433615,33.5756918 C48.8433615,33.7678151 48.998869,33.923774 49.1904361,33.923774 C49.3820033,33.923774 49.5375107,33.7678151 49.5375107,33.5756918 C49.5375107,33.3835685 49.3820033,33.2276096 49.1904361,33.2276096" id="Fill-100" fill="#FFFFFF" mask="url(#mask-8)"></path>
                        <path d="M49.1904361,31.8351904 C48.998869,31.8351904 48.8433615,31.9911493 48.8433615,32.1832726 C48.8433615,32.3753959 48.998869,32.5313548 49.1904361,32.5313548 C49.3820033,32.5313548 49.5375107,32.3753959 49.5375107,32.1832726 C49.5375107,31.9911493 49.3820033,31.8351904 49.1904361,31.8351904" id="Fill-101" fill="#FFFFFF" mask="url(#mask-8)"></path>
                        <path d="M49.1904361,30.4428164 C48.998869,30.4428164 48.8433615,30.5987753 48.8433615,30.7908986 C48.8433615,30.9830219 48.998869,31.1389808 49.1904361,31.1389808 C49.3820033,31.1389808 49.5375107,30.9830219 49.5375107,30.7908986 C49.5375107,30.5987753 49.3820033,30.4428164 49.1904361,30.4428164" id="Fill-102" fill="#FFFFFF" mask="url(#mask-8)"></path>
                        <path d="M49.1904361,29.0503973 C48.998869,29.0503973 48.8433615,29.2063562 48.8433615,29.3984795 C48.8433615,29.5906027 48.998869,29.7465616 49.1904361,29.7465616 C49.3820033,29.7465616 49.5375107,29.5906027 49.5375107,29.3984795 C49.5375107,29.2063562 49.3820033,29.0503973 49.1904361,29.0503973" id="Fill-103" fill="#FFFFFF" mask="url(#mask-8)"></path>
                        <path d="M49.1904361,27.6580233 C48.998869,27.6580233 48.8433615,27.8139822 48.8433615,28.0061055 C48.8433615,28.1982288 48.998869,28.3541877 49.1904361,28.3541877 C49.3820033,28.3541877 49.5375107,28.1982288 49.5375107,28.0061055 C49.5375107,27.8139822 49.3820033,27.6580233 49.1904361,27.6580233" id="Fill-104" fill="#FFFFFF" mask="url(#mask-8)"></path>
                        <path d="M49.1904361,26.2656041 C48.998869,26.2656041 48.8433615,26.421563 48.8433615,26.6136863 C48.8433615,26.8058096 48.998869,26.9617685 49.1904361,26.9617685 C49.3820033,26.9617685 49.5375107,26.8058096 49.5375107,26.6136863 C49.5375107,26.421563 49.3820033,26.2656041 49.1904361,26.2656041" id="Fill-105" fill="#FFFFFF" mask="url(#mask-8)"></path>
                        <path d="M49.1904361,24.8732301 C48.998869,24.8732301 48.8433615,25.029189 48.8433615,25.2213123 C48.8433615,25.4134356 48.998869,25.5693945 49.1904361,25.5693945 C49.3820033,25.5693945 49.5375107,25.4134356 49.5375107,25.2213123 C49.5375107,25.029189 49.3820033,24.8732301 49.1904361,24.8732301" id="Fill-106" fill="#FFFFFF" mask="url(#mask-8)"></path>
                        <path d="M49.1904361,23.480811 C48.998869,23.480811 48.8433615,23.6367699 48.8433615,23.8288932 C48.8433615,24.0210164 48.998869,24.1769753 49.1904361,24.1769753 C49.3820033,24.1769753 49.5375107,24.0210164 49.5375107,23.8288932 C49.5375107,23.6367699 49.3820033,23.480811 49.1904361,23.480811" id="Fill-107" fill="#FFFFFF" mask="url(#mask-8)"></path>
                        <path d="M49.1904361,22.088437 C48.998869,22.088437 48.8433615,22.2443959 48.8433615,22.4365192 C48.8433615,22.6286425 48.998869,22.7846014 49.1904361,22.7846014 C49.3820033,22.7846014 49.5375107,22.6286425 49.5375107,22.4365192 C49.5375107,22.2443959 49.3820033,22.088437 49.1904361,22.088437" id="Fill-108" fill="#FFFFFF" mask="url(#mask-8)"></path>
                        <path d="M49.1904361,20.696063 C48.998869,20.696063 48.8433615,20.8520219 48.8433615,21.0441452 C48.8433615,21.2362685 48.998869,21.3922274 49.1904361,21.3922274 C49.3820033,21.3922274 49.5375107,21.2362685 49.5375107,21.0441452 C49.5375107,20.8520219 49.3820033,20.696063 49.1904361,20.696063" id="Fill-109" fill="#FFFFFF" mask="url(#mask-8)"></path>
                        <path d="M49.1904361,19.3036438 C48.998869,19.3036438 48.8433615,19.4596027 48.8433615,19.651726 C48.8433615,19.8438493 48.998869,19.9998082 49.1904361,19.9998082 C49.3820033,19.9998082 49.5375107,19.8438493 49.5375107,19.651726 C49.5375107,19.4596027 49.3820033,19.3036438 49.1904361,19.3036438" id="Fill-110" fill="#FFFFFF" mask="url(#mask-8)"></path>
                        <polygon id="Fill-111" fill="#7E8F96" mask="url(#mask-8)" points="35.4065701 75.4691918 40.5554448 75.4691918 40.5554448 58.7616986 35.4065701 58.7616986"></polygon>
                        <polygon id="Stroke-112" stroke="#FFFFFF" stroke-width="1.341" mask="url(#mask-8)" points="35.4065701 75.4691918 40.5554448 75.4691918 40.5554448 58.7616986 35.4065701 58.7616986"></polygon>
                        <polygon id="Fill-113" fill="#FFFFFF" mask="url(#mask-8)" points="-13.1595373 76.7516712 88.5418925 76.7516712 88.5418925 71.4630822 -13.1595373 71.4630822"></polygon>
                    </g>
                </g>
            </g>
        </g>
    </g>
</svg>