<?xml version="1.0" encoding="utf-8"?>
<!-- Generator: Adobe Illustrator 16.0.0, SVG Export Plug-In . SVG Version: 6.00 Build 0)  -->
<!DOCTYPE svg PUBLIC "-//W3C//DTD SVG 1.1//EN" "http://www.w3.org/Graphics/SVG/1.1/DTD/svg11.dtd">
<svg version="1.1" id="Layer_1" xmlns="http://www.w3.org/2000/svg" xmlns:xlink="http://www.w3.org/1999/xlink" x="0px" y="0px"
	 width="44px" height="44px" viewBox="0 0 44 44" enable-background="new 0 0 44 44" xml:space="preserve">
<rect display="none" fill="#C23D4C" width="44" height="44"/>
<g display="none">
	<path display="inline" fill="none" stroke="#FFFFFF" stroke-linecap="round" stroke-linejoin="round" stroke-miterlimit="10" d="
		M26.986,12.895c-2.01,0-3.803-0.934-4.979-2.395h-0.017c-1.175,1.461-2.968,2.395-4.979,2.395c-1.76,0-3.354-0.715-5.013-1.875
		v14.812c0,0,1.45,5.271,10,7.668c8.55-2.396,10-7.668,10-7.668V11.021C30.341,12.18,28.747,12.895,26.986,12.895z"/>
	<polygon display="inline" fill="none" stroke="#FFFFFF" stroke-linejoin="round" stroke-miterlimit="10" points="22.339,15.521 
		26.023,15.521 23,20.521 26.784,20.521 18.847,28.986 21.395,22.521 18.372,22.521 	"/>
</g>
<rect fill="#C23D4C" width="44" height="44"/>
<g>
	<g>
		<path fill="none" stroke="#FFFFFF" stroke-linecap="round" stroke-linejoin="round" stroke-miterlimit="10" d="M24.5,11.5h-10
			c-2.209,0-4,1.791-4,4v4c0,2.21,1.791,4,4,4H16v4l4-4h4.5c2.209,0,4-1.79,4-4v-4C28.5,13.291,26.709,11.5,24.5,11.5z"/>
		<path fill="none" stroke="#FFFFFF" stroke-linecap="round" stroke-linejoin="round" stroke-miterlimit="10" d="M21.5,27
			c0,1.381,1.119,2.5,2.5,2.5h2.5l3,3v-3H31c1.381,0,2.5-1.119,2.5-2.5v-2c0-1.381-1.119-2.5-2.5-2.5"/>
	</g>
	<g>
		
			<line fill="none" stroke="#FFFFFF" stroke-width="0.9554" stroke-linecap="round" stroke-linejoin="round" stroke-miterlimit="10" x1="13.566" y1="14.5" x2="21.782" y2="14.5"/>
		
			<line fill="none" stroke="#FFFFFF" stroke-width="0.9554" stroke-linecap="round" stroke-linejoin="round" stroke-miterlimit="10" x1="13.566" y1="17.5" x2="25.434" y2="17.5"/>
		
			<line fill="none" stroke="#FFFFFF" stroke-width="0.9554" stroke-linecap="round" stroke-linejoin="round" stroke-miterlimit="10" x1="13.566" y1="20.5" x2="25.434" y2="20.5"/>
	</g>
</g>
<rect fill="#0CB5EC" width="44" height="44"/>
<g>
	<rect x="11" y="26.141" fill="none" stroke="#FFFFFF" stroke-linejoin="round" stroke-miterlimit="10" width="4" height="7"/>
	<path fill="none" stroke="#FFFFFF" stroke-linecap="round" stroke-linejoin="round" stroke-miterlimit="10" d="M15,32.141h17
		c0-1.5-3.5-3-7.5-3h-7"/>
	<path fill="none" stroke="#FFFFFF" stroke-linejoin="round" stroke-miterlimit="10" d="M15,27.141h3.5c2.353,0,3.5,1.5,4,2"/>
	<polyline fill="none" stroke="#FFFFFF" stroke-linejoin="round" stroke-miterlimit="10" points="20.123,24.589 21.174,21.364 
		16,17.142 22.282,17.142 24.5,10.859 26.718,17.142 33,17.142 27.826,21.374 30.043,28.107 24.5,24.085 22.389,25.641 	"/>
</g>
</svg>
