<?xml version="1.0" encoding="utf-8"?>
<!-- Generator: Adobe Illustrator 16.0.0, SVG Export Plug-In . SVG Version: 6.00 Build 0)  -->
<!DOCTYPE svg PUBLIC "-//W3C//DTD SVG 1.1//EN" "http://www.w3.org/Graphics/SVG/1.1/DTD/svg11.dtd">
<svg version="1.1" id="Layer_1" xmlns="http://www.w3.org/2000/svg" xmlns:xlink="http://www.w3.org/1999/xlink" x="0px" y="0px"
	 width="30px" height="30px" viewBox="0 0 30 30" enable-background="new 0 0 30 30" xml:space="preserve">
<rect y="0.002" fill="#0CB5EC" width="30" height="29.996"/>
<g id="Page-1_62_" transform="translate(19.000000, 19.737696)">
	<path id="Stroke-1_76_" fill="none" stroke="#FFFFFF" stroke-width="0.75" stroke-linejoin="round" d="M-5.708-2.613
		c-5.361,0-4.875-4.873-4.875-4.873C-4.736-7.486-5.708-2.613-5.708-2.613z"/>
	<path id="Stroke-3_56_" fill="none" stroke="#FFFFFF" stroke-width="0.75" stroke-linejoin="round" d="M-2.289-2.613
		c5.357,0,4.871-4.873,4.871-4.873C-3.266-7.486-2.289-2.613-2.289-2.613z"/>
	<path id="Stroke-5_37_" fill="none" stroke="#FFFFFF" stroke-width="0.75" stroke-linejoin="round" d="M4.653-6.181
		c0,5.234-6.179,10.715-8.651,10.715c-2.476,0-8.656-5.48-8.656-10.715c0-5.232,3.42-7.828,8.656-7.828
		C1.235-14.011,4.653-11.413,4.653-6.181z"/>
</g>
</svg>
