<?xml version="1.0" encoding="utf-8"?>
<!-- Generator: Adobe Illustrator 16.0.0, SVG Export Plug-In . SVG Version: 6.00 Build 0)  -->
<!DOCTYPE svg PUBLIC "-//W3C//DTD SVG 1.1//EN" "http://www.w3.org/Graphics/SVG/1.1/DTD/svg11.dtd">
<svg version="1.1" id="Layer_1" xmlns="http://www.w3.org/2000/svg" xmlns:xlink="http://www.w3.org/1999/xlink" x="0px" y="0px"
	 width="30px" height="30px" viewBox="0 0 30 30" enable-background="new 0 0 30 30" xml:space="preserve">
<rect fill="#0CB5EC" width="30" height="30"/>
<g id="thougth-leader_1_" transform="translate(21.000000, 19.000000)">
	<g id="Page-1_64_">
		<path id="Stroke-1_81_" fill="none" stroke="#FFFFFF" stroke-width="0.75" stroke-linecap="round" stroke-linejoin="round" d="
			M-3.995-5.695c0,1.137-0.9,2.059-2.01,2.059c-1.111,0-2.008-0.922-2.008-2.059c0-1.136,0.896-2.058,2.008-2.058
			C-4.896-7.751-3.995-6.831-3.995-5.695z"/>
		<path id="Stroke-3_58_" fill="none" stroke="#FFFFFF" stroke-width="0.75" stroke-linecap="round" stroke-linejoin="round" d="
			M-9.081-0.461l0.506-1.725c0.586-0.816,1.529-1.348,2.598-1.348c1.773,0,3.215,1.475,3.215,3.295l-6.318,0.04"/>
		<path id="Stroke-1_78_" fill="none" stroke="#FFFFFF" stroke-width="0.75" stroke-linecap="round" stroke-linejoin="round" d="
			M-5.997-12.788h-0.008C-7.88-10.91-13.513-9.39-13.513-9.39c0,5.982,0.377,11.237,7.512,13.884C1.136,1.85,1.513-3.407,1.513-9.39
			C1.509-9.39-4.124-10.91-5.997-12.788z"/>
	</g>
</g>
</svg>
