<?xml version="1.0" encoding="utf-8"?>
<!-- Generator: Adobe Illustrator 16.0.0, SVG Export Plug-In . SVG Version: 6.00 Build 0)  -->
<!DOCTYPE svg PUBLIC "-//W3C//DTD SVG 1.1//EN" "http://www.w3.org/Graphics/SVG/1.1/DTD/svg11.dtd">
<svg version="1.1" id="Layer_1" xmlns="http://www.w3.org/2000/svg" xmlns:xlink="http://www.w3.org/1999/xlink" x="0px" y="0px"
	 width="30px" height="30px" viewBox="0 0 30 30" enable-background="new 0 0 30 30" xml:space="preserve">
<rect fill="#0CB5EC" width="30" height="30"/>
<g id="Page-1_68_" transform="translate(20.000000, 19.737696)">
	<path id="Stroke-1_82_" fill="none" stroke="#FFFFFF" stroke-width="0.75" stroke-linecap="round" stroke-linejoin="round" d="
		M1.482,1.348c0,1.187-0.961,2.151-2.151,2.151c-1.187,0-2.147-0.965-2.147-2.151c0-1.185,0.964-2.148,2.147-2.148
		C0.521-0.8,1.482,0.16,1.482,1.348z"/>
	<path id="Stroke-3_62_" fill="none" stroke="#FFFFFF" stroke-width="0.75" stroke-linecap="round" stroke-linejoin="round" d="
		M-7.115,1.348c0,1.187-0.961,2.151-2.148,2.151c-1.189,0-2.15-0.965-2.15-2.151c0-1.185,0.961-2.148,2.15-2.148
		C-8.076-0.8-7.115,0.16-7.115,1.348z"/>
	<path id="Stroke-5_43_" fill="none" stroke="#FFFFFF" stroke-width="0.75" stroke-linecap="round" stroke-linejoin="round" d="
		M-1.025-9.038c0,2.174-1.761,3.939-3.938,3.939c-2.175,0-3.94-1.766-3.94-3.939c0-2.176,1.766-3.94,3.94-3.94
		C-2.786-12.979-1.025-11.214-1.025-9.038z"/>
	<path id="Stroke-7_30_" fill="none" stroke="#FFFFFF" stroke-width="0.75" stroke-linecap="round" stroke-linejoin="round" d="
		M-2.636-7.427c0,1.287-1.046,2.328-2.328,2.328c-1.286,0-2.329-1.041-2.329-2.328s1.043-2.328,2.329-2.328
		C-3.677-9.755-2.636-8.714-2.636-7.427z"/>
	<path id="Stroke-9_29_" fill="none" stroke="#FFFFFF" stroke-width="0.75" stroke-linecap="round" stroke-linejoin="round" d="
		M-2.006-11.702c0.207-0.538,0.728-0.921,1.337-0.921c0.793,0,1.434,0.643,1.434,1.434S0.122-9.755-0.669-9.755
		c-0.132,0-0.265-0.021-0.384-0.052"/>
	<path id="Stroke-11_22_" fill="none" stroke="#FFFFFF" stroke-width="0.75" stroke-linecap="round" stroke-linejoin="round" d="
		M-8.886-9.806c-0.12,0.031-0.248,0.051-0.378,0.051c-0.792,0-1.433-0.645-1.433-1.435s0.644-1.433,1.433-1.433
		c0.631,0,1.167,0.408,1.357,0.976"/>
	<path id="Stroke-13_16_" fill="none" stroke="#FFFFFF" stroke-width="0.75" stroke-linecap="round" stroke-linejoin="round" d="
		M-4.607-8.324c0,0.198-0.16,0.358-0.356,0.358c-0.2,0-0.36-0.16-0.36-0.358c0-0.199,0.16-0.359,0.36-0.359
		C-4.768-8.683-4.607-8.52-4.607-8.324z"/>
	<path id="Stroke-15_15_" fill="none" stroke="#FFFFFF" stroke-width="0.75" stroke-linecap="round" stroke-linejoin="round" d="
		M-7.171-1.875c0.417-0.79,1.097-1.434,2.207-1.434s1.79,0.644,2.208,1.438"/>
	<path id="Stroke-17_12_" fill="none" stroke="#FFFFFF" stroke-width="0.75" stroke-linecap="round" stroke-linejoin="round" d="
		M-2.721,2.014C-3.359,2.499-4.13,2.781-4.968,2.781c-0.811,0-1.568-0.271-2.194-0.73"/>
	<path id="Fill-19_3_" fill="#FFFFFF" d="M-6.754-11.189c-0.199,0-0.359,0.16-0.359,0.356c0,0.198,0.16,0.358,0.359,0.358
		c0.195,0,0.356-0.16,0.356-0.358C-6.397-11.029-6.559-11.189-6.754-11.189"/>
	<path id="Fill-21_3_" fill="#FFFFFF" d="M-3.174-11.189c-0.199,0-0.357,0.16-0.357,0.356c0,0.198,0.158,0.358,0.357,0.358
		c0.197,0,0.357-0.16,0.357-0.358C-2.816-11.029-2.977-11.189-3.174-11.189"/>
	<path id="Stroke-23_10_" fill="none" stroke="#FFFFFF" stroke-width="0.75" stroke-linecap="round" stroke-linejoin="round" d="
		M-6.573-5.442c-0.315,0.167-0.638,0.457-0.9,0.701l-3.187-1.721c-0.672-0.417-1.555-0.209-1.972,0.468
		c-0.416,0.672-0.21,1.554,0.464,1.97l3.298,1.96c-0.05,0.416-0.055,0.79,0.017,1.26"/>
	<path id="Stroke-25_6_" fill="none" stroke="#FFFFFF" stroke-width="0.75" stroke-linecap="round" stroke-linejoin="round" d="
		M-3.362-5.44c0.315,0.166,0.642,0.451,0.903,0.699l3.187-1.721C1.4-6.878,2.283-6.67,2.699-5.994
		c0.419,0.672,0.213,1.554-0.464,1.97l-3.298,1.96c0.048,0.416,0.053,0.79-0.015,1.26"/>
</g>
</svg>
