<?xml version="1.0" encoding="utf-8"?>
<!-- Generator: Adobe Illustrator 16.0.0, SVG Export Plug-In . SVG Version: 6.00 Build 0)  -->
<!DOCTYPE svg PUBLIC "-//W3C//DTD SVG 1.1//EN" "http://www.w3.org/Graphics/SVG/1.1/DTD/svg11.dtd">
<svg version="1.1" id="Layer_1" xmlns="http://www.w3.org/2000/svg" xmlns:xlink="http://www.w3.org/1999/xlink" x="0px" y="0px"
	 width="30px" height="30px" viewBox="0 0 30 30" enable-background="new 0 0 30 30" xml:space="preserve">
<rect fill="#0CB5EC" width="30" height="30"/>
<g id="Page-1_63_" transform="translate(21.000000, 19.737696)">
	<polygon id="Stroke-1_77_" fill="none" stroke="#FFFFFF" stroke-width="0.75" stroke-linejoin="round" points="-3.056,4.341 
		-7.362,4.341 -9.084,-0.826 -1.334,-0.826 	"/>
	<path id="Stroke-3_57_" fill="none" stroke="#FFFFFF" stroke-width="0.75" stroke-linecap="round" stroke-linejoin="round" d="
		M-3.471-7.723c-1.187,0.794-1.796,2.239,0,3.448c0.987,2.463,2.815,1.803,3.902,0.658c1.085-1.143,1.65-4.33,0.853-6.077
		C-0.449-8.385-1.994-8.706-3.471-7.723z"/>
	<path id="Stroke-5_38_" fill="none" stroke="#FFFFFF" stroke-width="0.75" stroke-linecap="round" stroke-linejoin="round" d="
		M-6.901-11.197c1.279,1.503,1.953,3.474-1.089,4.801c-1.39,3.107-3.509,1.958-4.916,0.301c-1.408-1.66-1.948-6.104-0.707-8.443
		C-11.328-12.605-8.493-13.073-6.901-11.197z"/>
	<path id="Stroke-7_31_" fill="none" stroke="#FFFFFF" stroke-width="0.75" stroke-linecap="round" stroke-linejoin="round" d="
		M-1.006-6.244C-3.96-4.766-5.438-0.826-5.438-0.826s-1.244-5.773-6.172-10.205"/>
</g>
</svg>
