<?xml version="1.0" encoding="utf-8"?>
<!-- Generator: Adobe Illustrator 16.0.0, SVG Export Plug-In . SVG Version: 6.00 Build 0)  -->
<!DOCTYPE svg PUBLIC "-//W3C//DTD SVG 1.1//EN" "http://www.w3.org/Graphics/SVG/1.1/DTD/svg11.dtd">
<svg version="1.1" id="Layer_1" xmlns="http://www.w3.org/2000/svg" xmlns:xlink="http://www.w3.org/1999/xlink" x="0px" y="0px"
	 width="30px" height="30px" viewBox="0 0 30 30" enable-background="new 0 0 30 30" xml:space="preserve">
<rect fill="#0CB5EC" width="30" height="30"/>
<g id="Group-6_6_" transform="translate(20.000000, 20.000000)">
	<g>
		<path id="Stroke-1_83_" fill="none" stroke="#FFFFFF" stroke-width="0.75" stroke-linecap="round" stroke-linejoin="round" d="
			M1.234-8.867c0,2.09-1.695,3.787-3.79,3.787c-2.096,0-3.788-1.697-3.788-3.787c0-2.092,1.692-3.789,3.788-3.789
			C-0.463-12.656,1.234-10.959,1.234-8.867z"/>
		<path id="Stroke-3_61_" fill="none" stroke="#FFFFFF" stroke-width="0.75" stroke-linecap="round" stroke-linejoin="round" d="
			M-8.356-2.406c1.104-1.506,2.881-2.484,4.892-2.484c3.347,0,6.062,2.713,6.062,6.061h-8.454"/>
		<path id="Stroke-9_30_" fill="none" stroke="#FFFFFF" stroke-width="0.75" stroke-linejoin="round" d="M-9.221,3.984
			c0,0,3.883-2.156,3.883-5.615c0-2.582-3.021-2.582-3.883,0.004c-0.862-2.586-3.883-2.586-3.883,0.209
			C-13.102,1.828-9.221,3.984-9.221,3.984z"/>
	</g>
</g>
</svg>
