<?xml version="1.0" encoding="utf-8"?>
<!-- Generator: Adobe Illustrator 16.0.0, SVG Export Plug-In . SVG Version: 6.00 Build 0)  -->
<!DOCTYPE svg PUBLIC "-//W3C//DTD SVG 1.1//EN" "http://www.w3.org/Graphics/SVG/1.1/DTD/svg11.dtd">
<svg version="1.1" id="Layer_1" xmlns="http://www.w3.org/2000/svg" xmlns:xlink="http://www.w3.org/1999/xlink" x="0px" y="0px"
	 width="286px" height="105px" viewBox="0 0 286 105" enable-background="new 0 0 286 105" xml:space="preserve">
<title>CK logo</title>
<desc>Created with Sketch.</desc>
<g id="Version-3---forms">
	<path id="Fill-1" fill="#0FB7EB" d="M50.332,52.657c-2.234-1.44-5.302-0.652-6.854,1.759c-1.556,2.41-1.007,5.529,1.221,6.967
		c2.227,1.434,5.297,0.65,6.854-1.764C53.105,57.213,52.559,54.094,50.332,52.657z"/>
	<path id="Fill-3" fill="#0FB7EB" d="M68.05,35.462c-3.696-2.006-8.716-0.816-11.214,2.653c-2.495,3.476-1.516,7.917,2.169,9.927
		c3.707,2.006,8.726,0.816,11.215-2.654C72.718,41.914,71.75,37.475,68.05,35.462"/>
	<path id="Fill-5" fill="#0FB7EB" d="M87.495,8.66c-6.322-2.437-13.987,0.576-17.134,6.729c-3.142,6.158-0.557,13.119,5.765,15.554
		c6.32,2.439,13.99-0.576,17.129-6.725C96.389,18.063,93.815,11.098,87.495,8.66"/>
	<path id="Stroke-7" fill="none" stroke="#221E1F" stroke-width="0.945" d="M51.021,54.344c-2.234-1.441-5.302-0.653-6.854,1.76
		c-1.556,2.408-1.007,5.528,1.221,6.965c2.226,1.436,5.297,0.651,6.854-1.763C53.794,58.899,53.249,55.779,51.021,54.344z"/>
	<path id="Stroke-9" fill="none" stroke="#221E1F" stroke-width="0.945" d="M68.739,37.148c-3.696-2.006-8.715-0.816-11.214,2.653
		c-2.495,3.476-1.516,7.917,2.169,9.927c3.707,2.006,8.726,0.816,11.215-2.654C73.408,43.6,72.439,39.161,68.739,37.148z"/>
	<path id="Stroke-11" fill="none" stroke="#221E1F" stroke-width="0.945" d="M88.185,10.346c-6.322-2.437-13.987,0.576-17.134,6.729
		c-3.142,6.158-0.557,13.119,5.765,15.554c6.32,2.439,13.99-0.576,17.13-6.725C97.078,19.749,94.504,12.784,88.185,10.346z"/>
	<path id="Fill-13" fill="#0FB7EB" d="M9.047,55.706c0.058-0.347,0.289-0.577,0.634-0.577h8.651c0.346,0,0.519,0.23,0.461,0.577
		l-2.653,14.808l13.035-14.865c0.346-0.346,0.577-0.52,1.039-0.52H40.48c0.461,0,0.576,0.404,0.288,0.75L26.465,71.205l7.786,22.473
		c0.116,0.346-0.058,0.633-0.461,0.633h-8.998c-0.519,0-0.75-0.172-0.865-0.518L19.083,78.35l-5.422,6.166l-1.615,9.219
		c-0.058,0.346-0.231,0.576-0.577,0.576H2.818c-0.346,0-0.577-0.23-0.519-0.576L9.047,55.706z"/>
	<path id="Fill-15" fill="#0FB7EB" d="M38.864,94.311c-0.288,0-0.519-0.23-0.461-0.576l4.729-26.907
		c0.057-0.347,0.345-0.577,0.634-0.577h8.248c0.345,0,0.519,0.23,0.461,0.577l-4.729,26.907c-0.057,0.346-0.288,0.576-0.634,0.576
		H38.864z"/>
	<path id="Fill-17" fill="#0FB7EB" d="M70.585,84.805c0.75-1.557,1.672-6.339,1.672-8.125c0-2.189-0.865-3.457-2.941-3.457
		c-1.729,0-2.94,0.807-3.806,2.535c-0.75,1.556-1.672,6.338-1.672,8.124c0,2.189,0.865,3.458,2.941,3.458
		C68.509,87.34,69.721,86.533,70.585,84.805L70.585,84.805z M69.893,94.311c-0.346,0-0.519-0.23-0.461-0.576l0.346-2.132h-0.057
		c-1.558,2.018-4.153,3.4-7.556,3.4c-5.479,0-7.901-3.458-7.901-9.162c0-3.803,1.269-10.429,3.057-14.059
		c2.192-4.437,5.364-6.224,9.92-6.224c3.518,0,5.652,1.557,6.459,3.458h0.058l2.365-13.311c0.058-0.347,0.288-0.576,0.577-0.576
		h8.248c0.346,0,0.577,0.229,0.519,0.576l-6.748,38.028c-0.058,0.346-0.288,0.576-0.634,0.576H69.893z"/>
	<path id="Fill-19" fill="#0FB7EB" d="M102.709,84.805c0.75-1.557,1.673-6.339,1.673-8.125c0-2.189-0.866-3.457-2.942-3.457
		c-1.73,0-2.941,0.807-3.807,2.535c-0.749,1.556-1.672,6.338-1.672,8.124c0,2.189,0.865,3.458,2.941,3.458
		C100.634,87.34,101.845,86.533,102.709,84.805L102.709,84.805z M83.331,104.683c-0.289,0-0.52-0.229-0.462-0.576l6.575-37.279
		c0.058-0.347,0.289-0.577,0.635-0.577h8.248c0.346,0,0.577,0.23,0.52,0.577l-0.404,2.189H98.5c1.557-2.017,4.152-3.458,7.555-3.458
		c5.422,0,7.901,3.458,7.901,9.162c0,3.803-1.269,10.371-3.057,14.059c-2.192,4.379-5.364,6.224-9.978,6.224
		c-3.518,0-5.595-1.499-6.402-3.4h-0.058l-2.249,12.504c-0.058,0.347-0.23,0.576-0.577,0.576H83.331z"/>
	<path id="Fill-21" fill="#0FB7EB" d="M116.205,94.311c-0.288,0-0.52-0.23-0.461-0.576l4.729-26.907
		c0.058-0.347,0.346-0.577,0.634-0.577h8.248c0.346,0,0.52,0.23,0.461,0.577l-0.461,2.534h0.058c1.73-2.477,4.499-3.803,7.671-3.803
		c1.557,0,2.711,0.403,3.46,1.037c0.288,0.173,0.404,0.461,0.231,0.807l-4.441,7.779c-0.23,0.287-0.519,0.346-0.865,0.115
		c-1.096-0.749-2.134-1.211-3.403-1.211c-2.48,0-3.864,1.902-4.441,5.244l-2.538,14.404c-0.058,0.346-0.288,0.576-0.634,0.576
		H116.205z"/>
	<path id="Fill-23" fill="#0FB7EB" d="M157.615,77.256c0.23,0,0.404-0.115,0.462-0.346c0.115-0.461,0.173-0.98,0.173-1.325
		c0-2.305-1.27-3.343-3.402-3.343c-1.961,0-3.461,0.979-4.326,2.651c-0.23,0.576-0.403,1.267-0.52,2.017
		c-0.057,0.23,0,0.346,0.23,0.346H157.615z M139.967,84.631c0-3.514,0.75-8.066,2.308-11.178c2.538-5.301,6.921-7.895,13.61-7.895
		c6.345,0,10.959,3.515,10.959,9.969c0,1.556-0.173,3.515-0.75,6.856c-0.057,0.346-0.346,0.576-0.691,0.576h-16.207
		c-0.23,0-0.347,0.116-0.404,0.347c-0.057,0.229-0.057,0.46-0.057,0.69c0,2.766,1.787,3.86,4.786,3.86
		c2.25,0,4.557-0.979,6.518-2.478c0.403-0.23,0.634-0.173,0.808,0.058l3.172,4.033c0.173,0.289,0.173,0.692-0.115,0.922
		c-3.23,2.881-7.037,4.609-12.516,4.609C144.466,95.002,139.967,91.546,139.967,84.631L139.967,84.631z"/>
	<path id="Fill-25" fill="#0FB7EB" d="M185.299,94.311c-0.289,0-0.52-0.23-0.461-0.576l2.826-16.075
		c0.461-2.766-0.289-4.321-2.539-4.321c-2.133,0-3.633,1.556-4.094,4.264l-2.826,16.133c-0.059,0.346-0.289,0.576-0.635,0.576
		h-8.248c-0.288,0-0.519-0.23-0.461-0.576l4.729-26.907c0.059-0.347,0.347-0.577,0.636-0.577h8.247c0.346,0,0.52,0.23,0.461,0.577
		l-0.346,2.131h0.058c1.558-1.901,4.152-3.399,7.497-3.399c6.461,0,8.307,4.494,7.21,10.43l-3.172,17.746
		c-0.058,0.346-0.288,0.576-0.634,0.576H185.299z"/>
	<path id="Fill-27" fill="#0FB7EB" d="M218.346,77.256c0.23,0,0.404-0.115,0.461-0.346c0.116-0.461,0.174-0.98,0.174-1.325
		c0-2.305-1.269-3.343-3.402-3.343c-1.961,0-3.461,0.979-4.326,2.651c-0.23,0.576-0.404,1.267-0.52,2.017
		c-0.057,0.23,0,0.346,0.23,0.346H218.346z M200.697,84.631c0-3.514,0.75-8.066,2.307-11.178c2.538-5.301,6.922-7.895,13.611-7.895
		c6.345,0,10.959,3.515,10.959,9.969c0,1.556-0.174,3.515-0.75,6.856c-0.058,0.346-0.346,0.576-0.691,0.576h-16.207
		c-0.23,0-0.347,0.116-0.404,0.347c-0.057,0.229-0.057,0.46-0.057,0.69c0,2.766,1.787,3.86,4.786,3.86
		c2.25,0,4.556-0.979,6.517-2.478c0.404-0.23,0.636-0.173,0.809,0.058l3.172,4.033c0.173,0.289,0.173,0.692-0.115,0.922
		c-3.229,2.881-7.037,4.609-12.516,4.609C205.195,95.002,200.697,91.546,200.697,84.631L200.697,84.631z"/>
	<path id="Fill-29" fill="#0FB7EB" d="M242.914,66.25c0.347,0,0.577,0.23,0.52,0.576l-2.826,16.134
		c-0.461,2.593,0.346,4.265,2.537,4.265c2.135,0,3.576-1.557,4.038-4.265l2.825-16.134c0.059-0.346,0.289-0.576,0.635-0.576h8.248
		c0.346,0,0.52,0.23,0.461,0.576l-4.729,26.909c-0.058,0.346-0.288,0.576-0.634,0.576h-8.248c-0.288,0-0.519-0.23-0.461-0.576
		l0.403-2.132h-0.058c-1.73,2.016-4.268,3.398-7.613,3.398c-6.229,0-8.132-4.264-6.979-10.486l3.114-17.689
		c0.058-0.346,0.289-0.576,0.636-0.576H242.914z"/>
	<path id="Fill-31" fill="#0FB7EB" d="M261.082,94.311c-0.289,0-0.52-0.23-0.462-0.576l4.729-26.907
		c0.058-0.347,0.346-0.577,0.635-0.577h8.247c0.345,0,0.52,0.23,0.461,0.577l-0.461,2.534h0.058c1.73-2.477,4.498-3.803,7.67-3.803
		c1.559,0,2.711,0.403,3.461,1.037c0.289,0.173,0.404,0.461,0.23,0.807l-4.44,7.779c-0.231,0.287-0.519,0.346-0.865,0.115
		c-1.095-0.749-2.134-1.211-3.403-1.211c-2.479,0-3.863,1.902-4.44,5.244l-2.538,14.404c-0.057,0.346-0.287,0.576-0.634,0.576
		H261.082z"/>
	<path id="Fill-33" fill="#7E9097" d="M92.933,26.01c3.057-6.28,8.132-9.219,15.226-9.219c6.633,0,10.785,3.399,12.055,9.046
		c0.115,0.346,0,0.576-0.405,0.749l-7.555,3.054c-0.461,0.172-0.75,0.058-0.807-0.346c-0.577-2.362-1.73-3.803-4.326-3.803
		c-2.422,0-4.153,1.441-5.306,3.745c-1.154,2.42-2.884,11.985-2.884,14.866c0,2.766,1.5,4.552,4.153,4.552
		c2.48,0,4.153-1.556,5.537-3.861c0.23-0.402,0.519-0.575,0.865-0.402l6.806,3.803c0.288,0.23,0.346,0.46,0.173,0.807
		c-3.577,5.819-8.133,8.354-14.765,8.354c-7.44,0-12.631-4.322-12.631-12.33C89.069,41.222,90.684,30.505,92.933,26.01"/>
	<path id="Fill-35" fill="#7E9097" d="M128.691,57.01c-7.037,0-8.824-2.938-7.671-9.68l5.306-29.271
		c0.058-0.346,0.288-0.576,0.577-0.576h8.248c0.346,0,0.577,0.23,0.519,0.576l-5.19,28.406c-0.288,1.902,0.173,2.708,1.846,2.708
		h1.096c0.289,0,0.519,0.23,0.461,0.576l-1.153,6.684c-0.058,0.346-0.346,0.576-0.692,0.576H128.691z"/>
	<path id="Fill-37" fill="#7E9097" d="M150.549,28.604c0.346,0,0.577,0.23,0.52,0.576l-2.826,16.133
		c-0.461,2.593,0.346,4.264,2.537,4.264c2.135,0,3.576-1.556,4.038-4.264l2.825-16.133c0.059-0.346,0.289-0.576,0.635-0.576h8.248
		c0.346,0,0.519,0.23,0.461,0.576l-4.729,26.908c-0.058,0.346-0.288,0.576-0.634,0.576h-8.248c-0.288,0-0.52-0.23-0.461-0.576
		l0.403-2.132h-0.058c-1.73,2.017-4.268,3.399-7.613,3.399c-6.229,0-8.132-4.264-6.979-10.486l3.114-17.689
		c0.058-0.346,0.289-0.576,0.635-0.576H150.549z"/>
	<path id="Fill-39" fill="#7E9097" d="M186.25,47.157c0.75-1.556,1.672-6.338,1.672-8.124c0-2.19-0.865-3.458-2.941-3.458
		c-1.73,0-2.941,0.807-3.807,2.535c-0.749,1.556-1.672,6.338-1.672,8.125c0,2.189,0.864,3.458,2.941,3.458
		C184.174,49.692,185.385,48.886,186.25,47.157 M178.059,53.955h-0.057l-0.404,2.133c-0.057,0.346-0.287,0.576-0.634,0.576h-8.247
		c-0.289,0-0.52-0.23-0.462-0.576l6.748-38.029c0.058-0.346,0.288-0.576,0.577-0.576h8.247c0.347,0,0.577,0.23,0.519,0.576
		l-2.364,13.252h0.058c1.557-2.017,4.152-3.399,7.556-3.399c5.422,0,7.901,3.458,7.901,9.162c0,3.803-1.269,10.371-3.057,14.059
		c-2.192,4.379-5.364,6.223-9.979,6.223C180.943,57.355,178.867,55.857,178.059,53.955"/>
	<path id="Stroke-41" fill="none" stroke="#221E1F" stroke-width="0.945" d="M8.114,54.433c0.058-0.347,0.289-0.576,0.634-0.576
		h8.651c0.346,0,0.52,0.229,0.461,0.576L15.208,69.24l13.034-14.865c0.346-0.346,0.577-0.519,1.039-0.519h10.266
		c0.461,0,0.576,0.403,0.288,0.749L25.532,69.933l7.786,22.472c0.116,0.346-0.058,0.633-0.461,0.633h-8.998
		c-0.52,0-0.75-0.172-0.865-0.518l-4.845-15.442l-5.422,6.165l-1.615,9.22c-0.057,0.345-0.23,0.575-0.577,0.575H1.885
		c-0.345,0-0.577-0.23-0.519-0.575L8.114,54.433z"/>
	<path id="Stroke-43" fill="none" stroke="#221E1F" stroke-width="0.945" d="M37.931,93.038c-0.288,0-0.52-0.23-0.461-0.576
		l4.729-26.909c0.058-0.346,0.346-0.576,0.634-0.576h8.248c0.346,0,0.52,0.23,0.461,0.576l-4.729,26.909
		c-0.058,0.346-0.288,0.576-0.634,0.576H37.931z"/>
	<path id="Stroke-45" fill="none" stroke="#221E1F" stroke-width="0.945" d="M69.652,83.53c0.75-1.556,1.672-6.338,1.672-8.124
		c0-2.189-0.865-3.457-2.941-3.457c-1.73,0-2.941,0.807-3.807,2.535c-0.75,1.556-1.672,6.338-1.672,8.124
		c0,2.19,0.865,3.458,2.94,3.458C67.576,86.066,68.788,85.26,69.652,83.53z M68.96,93.038c-0.346,0-0.519-0.231-0.461-0.576
		l0.346-2.132h-0.058c-1.557,2.017-4.153,3.399-7.556,3.399c-5.479,0-7.901-3.458-7.901-9.162c0-3.803,1.269-10.429,3.057-14.059
		c2.192-4.438,5.364-6.224,9.92-6.224c3.519,0,5.652,1.557,6.46,3.457h0.057l2.365-13.31c0.058-0.347,0.288-0.576,0.577-0.576h8.248
		c0.346,0,0.577,0.229,0.519,0.576l-6.748,38.029c-0.057,0.345-0.288,0.576-0.634,0.576H68.96z"/>
	<path id="Stroke-47" fill="none" stroke="#221E1F" stroke-width="0.945" d="M101.776,83.53c0.75-1.556,1.673-6.338,1.673-8.124
		c0-2.189-0.866-3.457-2.942-3.457c-1.729,0-2.941,0.807-3.806,2.535c-0.75,1.556-1.672,6.338-1.672,8.124
		c0,2.19,0.865,3.458,2.941,3.458C99.701,86.066,100.912,85.26,101.776,83.53z M82.398,103.409c-0.289,0-0.519-0.23-0.462-0.576
		l6.575-37.28c0.058-0.346,0.289-0.576,0.635-0.576h8.248c0.345,0,0.577,0.23,0.52,0.576l-0.405,2.189h0.058
		c1.557-2.016,4.153-3.457,7.555-3.457c5.422,0,7.901,3.457,7.901,9.162c0,3.803-1.269,10.371-3.056,14.059
		c-2.192,4.379-5.364,6.224-9.978,6.224c-3.518,0-5.595-1.499-6.402-3.399h-0.058l-2.249,12.503
		c-0.058,0.346-0.23,0.576-0.577,0.576H82.398z"/>
	<path id="Stroke-49" fill="none" stroke="#221E1F" stroke-width="0.945" d="M115.272,93.038c-0.288,0-0.519-0.23-0.461-0.576
		l4.729-26.909c0.058-0.346,0.346-0.576,0.634-0.576h8.248c0.345,0,0.519,0.23,0.461,0.576l-0.461,2.535h0.057
		c1.73-2.478,4.499-3.803,7.671-3.803c1.557,0,2.711,0.404,3.461,1.037c0.288,0.174,0.404,0.461,0.23,0.807l-4.441,7.779
		c-0.23,0.288-0.519,0.346-0.865,0.115c-1.095-0.75-2.134-1.21-3.403-1.21c-2.479,0-3.864,1.901-4.44,5.243l-2.538,14.405
		c-0.057,0.346-0.288,0.576-0.634,0.576H115.272z"/>
	<path id="Stroke-51" fill="none" stroke="#221E1F" stroke-width="0.945" d="M156.684,75.982c0.23,0,0.402-0.115,0.461-0.346
		c0.115-0.461,0.173-0.979,0.173-1.326c0-2.304-1.27-3.342-3.403-3.342c-1.961,0-3.461,0.98-4.325,2.651
		c-0.23,0.576-0.403,1.267-0.519,2.017c-0.059,0.23,0,0.346,0.23,0.346H156.684z M139.034,83.358c0-3.516,0.75-8.067,2.307-11.179
		c2.538-5.301,6.92-7.895,13.612-7.895c6.344,0,10.958,3.516,10.958,9.969c0,1.556-0.173,3.515-0.75,6.856
		c-0.058,0.347-0.347,0.577-0.692,0.577h-16.207c-0.23,0-0.346,0.114-0.403,0.346c-0.058,0.23-0.058,0.46-0.058,0.69
		c0,2.766,1.788,3.86,4.787,3.86c2.25,0,4.557-0.979,6.518-2.478c0.403-0.229,0.634-0.173,0.807,0.059l3.174,4.032
		c0.172,0.289,0.172,0.692-0.116,0.923c-3.23,2.881-7.036,4.608-12.517,4.608C143.533,93.729,139.034,90.272,139.034,83.358z"/>
	<path id="Stroke-53" fill="none" stroke="#221E1F" stroke-width="0.945" d="M184.365,93.038c-0.288,0-0.519-0.23-0.461-0.576
		l2.826-16.076c0.461-2.766-0.289-4.321-2.537-4.321c-2.135,0-3.635,1.556-4.096,4.264l-2.826,16.134
		c-0.058,0.346-0.289,0.576-0.634,0.576h-8.247c-0.289,0-0.52-0.23-0.463-0.576l4.729-26.909c0.059-0.346,0.347-0.576,0.636-0.576
		h8.247c0.346,0,0.519,0.23,0.462,0.576l-0.348,2.133h0.059c1.557-1.902,4.152-3.4,7.497-3.4c6.46,0,8.306,4.494,7.21,10.43
		l-3.172,17.747c-0.058,0.346-0.289,0.576-0.635,0.576H184.365z"/>
	<path id="Stroke-55" fill="none" stroke="#221E1F" stroke-width="0.945" d="M217.413,75.982c0.23,0,0.403-0.115,0.462-0.346
		c0.115-0.461,0.172-0.979,0.172-1.326c0-2.304-1.268-3.342-3.402-3.342c-1.961,0-3.461,0.98-4.325,2.651
		c-0.23,0.576-0.403,1.267-0.52,2.017c-0.058,0.23,0,0.346,0.23,0.346H217.413z M199.764,83.358c0-3.516,0.75-8.067,2.309-11.179
		c2.537-5.301,6.92-7.895,13.61-7.895c6.345,0,10.958,3.516,10.958,9.969c0,1.556-0.172,3.515-0.749,6.856
		c-0.058,0.347-0.347,0.577-0.692,0.577h-16.207c-0.23,0-0.346,0.114-0.403,0.346c-0.058,0.23-0.058,0.46-0.058,0.69
		c0,2.766,1.788,3.86,4.787,3.86c2.25,0,4.557-0.979,6.518-2.478c0.403-0.229,0.635-0.173,0.807,0.059l3.173,4.032
		c0.173,0.289,0.173,0.692-0.116,0.923c-3.229,2.881-7.036,4.608-12.516,4.608C204.264,93.729,199.764,90.272,199.764,83.358z"/>
	<path id="Stroke-57" fill="none" stroke="#221E1F" stroke-width="0.945" d="M241.981,64.977c0.347,0,0.577,0.23,0.52,0.576
		l-2.827,16.135c-0.461,2.592,0.347,4.263,2.539,4.263c2.133,0,3.575-1.556,4.037-4.263l2.826-16.135
		c0.057-0.346,0.288-0.576,0.634-0.576h8.247c0.347,0,0.52,0.23,0.463,0.576l-4.73,26.909c-0.058,0.345-0.288,0.576-0.635,0.576
		h-8.247c-0.288,0-0.519-0.231-0.462-0.576l0.404-2.132h-0.058c-1.73,2.016-4.269,3.398-7.613,3.398
		c-6.229,0-8.132-4.264-6.978-10.486l3.113-17.689c0.059-0.346,0.289-0.576,0.635-0.576H241.981z"/>
	<path id="Stroke-59" fill="none" stroke="#221E1F" stroke-width="0.945" d="M260.148,93.038c-0.288,0-0.52-0.23-0.461-0.576
		l4.729-26.909c0.059-0.346,0.346-0.576,0.635-0.576h8.248c0.346,0,0.52,0.23,0.461,0.576l-0.461,2.535h0.057
		c1.73-2.478,4.499-3.803,7.672-3.803c1.557,0,2.711,0.404,3.461,1.037c0.287,0.174,0.402,0.461,0.23,0.807l-4.441,7.779
		c-0.23,0.288-0.52,0.346-0.865,0.115c-1.096-0.75-2.135-1.21-3.403-1.21c-2.479,0-3.864,1.901-4.44,5.243l-2.538,14.405
		c-0.058,0.346-0.288,0.576-0.634,0.576H260.148z"/>
	<path id="Stroke-61" fill="none" stroke="#221E1F" stroke-width="0.945" d="M92,24.737c3.057-6.281,8.132-9.219,15.226-9.219
		c6.633,0,10.785,3.399,12.055,9.046c0.115,0.346,0,0.576-0.405,0.749l-7.555,3.054c-0.461,0.172-0.75,0.058-0.807-0.346
		c-0.577-2.362-1.73-3.803-4.326-3.803c-2.422,0-4.152,1.441-5.306,3.745c-1.154,2.42-2.884,11.985-2.884,14.866
		c0,2.766,1.5,4.552,4.153,4.552c2.48,0,4.153-1.556,5.537-3.861c0.23-0.402,0.519-0.576,0.865-0.402l6.806,3.802
		c0.288,0.23,0.346,0.461,0.173,0.807c-3.577,5.819-8.133,8.354-14.765,8.354c-7.44,0-12.631-4.321-12.631-12.33
		C88.136,39.949,89.751,29.232,92,24.737z"/>
	<path id="Stroke-63" fill="none" stroke="#221E1F" stroke-width="0.945" d="M127.758,55.736c-7.037,0-8.824-2.938-7.671-9.68
		l5.306-29.271c0.058-0.346,0.288-0.576,0.577-0.576h8.248c0.346,0,0.577,0.23,0.519,0.576l-5.19,28.406
		c-0.288,1.902,0.173,2.708,1.846,2.708h1.095c0.289,0,0.519,0.23,0.461,0.576l-1.153,6.684c-0.058,0.346-0.346,0.576-0.692,0.576
		H127.758z"/>
	<path id="Stroke-65" fill="none" stroke="#221E1F" stroke-width="0.945" d="M149.617,27.33c0.346,0,0.576,0.23,0.519,0.576
		l-2.827,16.134c-0.461,2.593,0.347,4.264,2.539,4.264c2.133,0,3.575-1.556,4.037-4.264l2.826-16.134
		c0.058-0.346,0.288-0.576,0.634-0.576h8.247c0.347,0,0.52,0.23,0.463,0.576l-4.73,26.908c-0.058,0.346-0.288,0.576-0.635,0.576
		h-8.247c-0.288,0-0.519-0.23-0.462-0.576l0.404-2.132h-0.058c-1.729,2.017-4.269,3.4-7.613,3.4c-6.229,0-8.132-4.265-6.978-10.487
		l3.114-17.689c0.058-0.346,0.289-0.576,0.634-0.576H149.617z"/>
	<path id="Stroke-67" fill="none" stroke="#221E1F" stroke-width="0.945" d="M185.316,45.884c0.75-1.556,1.674-6.338,1.674-8.124
		c0-2.19-0.866-3.458-2.943-3.458c-1.729,0-2.939,0.807-3.806,2.535c-0.749,1.556-1.673,6.338-1.673,8.125
		c0,2.189,0.865,3.458,2.942,3.458C183.24,48.419,184.452,47.612,185.316,45.884z M177.127,52.683h-0.058l-0.403,2.132
		c-0.059,0.346-0.289,0.576-0.635,0.576h-8.248c-0.287,0-0.52-0.23-0.461-0.576l6.748-38.029c0.058-0.346,0.288-0.576,0.576-0.576
		h8.248c0.346,0,0.577,0.23,0.519,0.576l-2.364,13.252h0.059c1.557-2.017,4.152-3.399,7.555-3.399c5.422,0,7.901,3.457,7.901,9.162
		c0,3.803-1.269,10.371-3.057,14.059c-2.192,4.379-5.364,6.223-9.978,6.223C180.011,56.082,177.934,54.584,177.127,52.683z"/>
	<g id="Clip-69">
	</g>
	<defs>
		<filter id="Adobe_OpacityMaskFilter" filterUnits="userSpaceOnUse" x="104.737" y="0.695" width="80.65" height="8.889">
			<feColorMatrix  type="matrix" values="1 0 0 0 0  0 1 0 0 0  0 0 1 0 0  0 0 0 1 0"/>
		</filter>
	</defs>
	<mask maskUnits="userSpaceOnUse" x="104.737" y="0.695" width="80.65" height="8.889" id="mask-2">
		<g filter="url(#Adobe_OpacityMaskFilter)">
			<polygon id="path-1" fill="#FFFFFF" points="1,105.683 285.732,105.683 285.732,-2 1,-2 			"/>
		</g>
	</mask>
	<g mask="url(#mask-2)" enable-background="new    ">
		<path fill="#020302" d="M104.737,9.438v-8.59h3.24c0.57,0,1.006,0.027,1.307,0.082c0.422,0.07,0.775,0.204,1.061,0.401
			s0.515,0.474,0.688,0.829s0.261,0.746,0.261,1.172c0,0.73-0.232,1.349-0.697,1.854s-1.305,0.759-2.52,0.759h-2.203v3.492H104.737z
			 M105.874,4.932h2.221c0.734,0,1.256-0.137,1.564-0.41s0.463-0.658,0.463-1.154c0-0.359-0.091-0.667-0.272-0.923
			s-0.421-0.425-0.718-0.507c-0.191-0.051-0.545-0.076-1.061-0.076h-2.197V4.932z"/>
		<path fill="#020302" d="M112.431,5.254c0-1.426,0.383-2.542,1.148-3.349s1.754-1.21,2.965-1.21c0.793,0,1.508,0.189,2.145,0.568
			s1.122,0.907,1.456,1.585s0.501,1.446,0.501,2.306c0,0.871-0.176,1.65-0.527,2.338s-0.85,1.208-1.494,1.562s-1.34,0.53-2.086,0.53
			c-0.809,0-1.531-0.195-2.168-0.586s-1.119-0.924-1.447-1.6S112.431,6.008,112.431,5.254z M113.603,5.271
			c0,1.035,0.278,1.851,0.835,2.446s1.255,0.894,2.095,0.894c0.855,0,1.56-0.301,2.112-0.902s0.829-1.455,0.829-2.561
			c0-0.699-0.118-1.31-0.354-1.831s-0.582-0.926-1.037-1.213s-0.966-0.431-1.532-0.431c-0.805,0-1.497,0.276-2.077,0.829
			S113.603,3.979,113.603,5.271z"/>
		<path fill="#020302" d="M123.646,9.438l-2.279-8.59h1.166l1.307,5.631c0.141,0.59,0.262,1.176,0.363,1.758
			c0.219-0.918,0.348-1.447,0.387-1.588l1.635-5.801h1.371l1.23,4.348c0.309,1.078,0.531,2.092,0.668,3.041
			c0.109-0.543,0.252-1.166,0.428-1.869l1.348-5.52h1.143l-2.355,8.59h-1.096l-1.811-6.545c-0.152-0.547-0.242-0.883-0.27-1.008
			c-0.09,0.395-0.174,0.73-0.252,1.008l-1.822,6.545H123.646z"/>
		<path fill="#020302" d="M133.532,9.438v-8.59h6.211v1.014h-5.074v2.631h4.752V5.5h-4.752v2.924h5.273v1.014H133.532z"/>
		<path fill="#020302" d="M141.566,9.438v-8.59h3.809c0.766,0,1.348,0.077,1.746,0.231s0.717,0.427,0.955,0.817
			s0.357,0.822,0.357,1.295c0,0.609-0.197,1.123-0.592,1.541s-1.004,0.684-1.828,0.797c0.301,0.145,0.529,0.287,0.686,0.428
			c0.332,0.305,0.646,0.686,0.943,1.143l1.494,2.338h-1.43L146.57,7.65c-0.332-0.516-0.605-0.91-0.82-1.184
			s-0.407-0.465-0.577-0.574s-0.343-0.186-0.519-0.229c-0.129-0.027-0.34-0.041-0.633-0.041h-1.318v3.814H141.566z M142.703,4.639
			h2.443c0.52,0,0.926-0.054,1.219-0.161s0.516-0.279,0.668-0.516s0.229-0.493,0.229-0.771c0-0.406-0.147-0.74-0.442-1.002
			s-0.761-0.393-1.397-0.393h-2.719V4.639z"/>
		<path fill="#020302" d="M150.274,9.438v-8.59h6.211v1.014h-5.074v2.631h4.752V5.5h-4.752v2.924h5.273v1.014H150.274z"/>
		<path fill="#020302" d="M158.291,9.438v-8.59h2.959c0.668,0,1.178,0.041,1.529,0.123c0.492,0.113,0.912,0.318,1.26,0.615
			c0.453,0.383,0.791,0.872,1.016,1.468s0.338,1.276,0.338,2.042c0,0.652-0.076,1.23-0.229,1.734s-0.348,0.921-0.586,1.251
			s-0.5,0.59-0.783,0.779s-0.625,0.333-1.025,0.431s-0.859,0.146-1.379,0.146H158.291z M159.428,8.424h1.834
			c0.566,0,1.01-0.053,1.332-0.158s0.58-0.254,0.771-0.445c0.27-0.27,0.479-0.632,0.629-1.087s0.227-1.007,0.227-1.655
			c0-0.898-0.148-1.589-0.443-2.071s-0.652-0.806-1.074-0.97c-0.305-0.117-0.795-0.176-1.471-0.176h-1.805V8.424z"/>
		<path fill="#020302" d="M170.316,9.438v-8.59h3.223c0.656,0,1.182,0.087,1.578,0.261s0.707,0.441,0.932,0.803
			s0.338,0.739,0.338,1.134c0,0.367-0.1,0.713-0.299,1.037s-0.5,0.586-0.902,0.785c0.52,0.152,0.918,0.412,1.197,0.779
			s0.42,0.801,0.42,1.301c0,0.402-0.086,0.776-0.256,1.122s-0.379,0.612-0.629,0.8s-0.564,0.329-0.941,0.425
			s-0.838,0.144-1.385,0.144H170.316z M171.453,4.457h1.857c0.504,0,0.865-0.033,1.084-0.1c0.289-0.086,0.506-0.229,0.652-0.428
			s0.221-0.449,0.221-0.75c0-0.285-0.068-0.536-0.205-0.753s-0.332-0.365-0.586-0.445s-0.689-0.12-1.307-0.12h-1.717V4.457z
			 M171.453,8.424h2.139c0.367,0,0.625-0.014,0.773-0.041c0.262-0.047,0.48-0.125,0.656-0.234s0.32-0.269,0.434-0.478
			s0.17-0.45,0.17-0.724c0-0.32-0.082-0.599-0.246-0.835s-0.393-0.402-0.684-0.498s-0.709-0.144-1.256-0.144h-1.986V8.424z"/>
		<path fill="#020302" d="M180.822,9.438V5.799l-3.311-4.951h1.383l1.693,2.59c0.313,0.484,0.604,0.969,0.873,1.453
			c0.258-0.449,0.57-0.955,0.938-1.518l1.664-2.525h1.324l-3.428,4.951v3.639H180.822z"/>
	</g>
</g>
</svg>
