<?xml version="1.0" encoding="utf-8"?>
<!-- Generator: Adobe Illustrator 16.0.0, SVG Export Plug-In . SVG Version: 6.00 Build 0)  -->
<!DOCTYPE svg PUBLIC "-//W3C//DTD SVG 1.1//EN" "http://www.w3.org/Graphics/SVG/1.1/DTD/svg11.dtd">
<svg version="1.1" id="Layer_1" xmlns="http://www.w3.org/2000/svg" xmlns:xlink="http://www.w3.org/1999/xlink" x="0px" y="0px"
	 width="33px" height="29.667px" viewBox="0 0 33 29.667" enable-background="new 0 0 33 29.667" xml:space="preserve">
<title>icon-set</title>
<path fill="#7E9198" stroke="#7E9198" stroke-width="0.3" stroke-miterlimit="10" d="M21.811,19.019h-2.716
	c-0.138,0-0.247-0.109-0.247-0.246s0.109-0.247,0.247-0.247h2.716c2.242,0,4.197-2.136,4.197-4.567c0-2.375-1.813-4.307-4.04-4.307
	C21.513,9.64,21.061,9.71,20.631,9.86l-0.196,0.071L20.33,9.749c-0.929-1.706-2.705-2.778-4.646-2.807
	c-2.708,0.043-4.977,2.067-5.326,4.753l-0.03,0.217h-0.22h-0.066c-1.625-0.002-3.047,1.543-3.047,3.301s1.434,3.314,3.069,3.314
	h4.091c0.136,0,0.247,0.109,0.247,0.246c0,0.138-0.111,0.248-0.247,0.248h-4.091c-1.899,0-3.563-1.78-3.563-3.807
	c0-1.976,1.573-3.705,3.405-3.803c0.475-2.834,2.909-4.923,5.782-4.963c2.05,0.023,3.938,1.117,4.979,2.882
	c0.425-0.122,0.865-0.179,1.307-0.17c2.501,0,4.525,2.153,4.525,4.8C26.501,16.656,24.313,19.019,21.811,19.019z"/>
<path fill="#7E9198" stroke="#7E9198" stroke-width="0.3" stroke-miterlimit="10" d="M16.624,23.218
	c-0.136,0-0.247-0.11-0.247-0.248v-9.875c0-0.137,0.111-0.248,0.247-0.248c0.137,0,0.247,0.111,0.247,0.248v9.875
	C16.871,23.108,16.761,23.218,16.624,23.218z"/>
<path fill="#7E9198" stroke="#7E9198" stroke-width="0.3" stroke-miterlimit="10" d="M19.094,15.564
	c-0.062,0-0.12-0.023-0.166-0.064l-2.305-2.072l-2.304,2.074c-0.102,0.092-0.258,0.084-0.35-0.019
	c-0.093-0.103-0.083-0.259,0.019-0.351l2.635-2.373l2.635,2.371c0.103,0.09,0.111,0.246,0.021,0.348
	C19.233,15.534,19.165,15.564,19.094,15.564z"/>
</svg>
