<?xml version="1.0" encoding="utf-8"?>
<!-- Generator: Adobe Illustrator 16.0.0, SVG Export Plug-In . SVG Version: 6.00 Build 0)  -->
<!DOCTYPE svg PUBLIC "-//W3C//DTD SVG 1.1//EN" "http://www.w3.org/Graphics/SVG/1.1/DTD/svg11.dtd">
<svg version="1.1" id="Layer_1" xmlns="http://www.w3.org/2000/svg" xmlns:xlink="http://www.w3.org/1999/xlink" x="0px" y="0px"
	 width="8px" height="5px" viewBox="0 0 8 5" enable-background="new 0 0 8 5" xml:space="preserve">
<g id="V2_5_" display="none">
	<g id="Support-Crew-Settings" transform="translate(-826.000000, -497.000000)" display="inline">
		<g id="dropdown-arrow-line" transform="translate(826.000000, 497.000000)">
			<path id="Fill-6" fill="#7E9198" d="M-0.644-0.525c-0.176-0.177-0.465-0.177-0.641,0c-0.176,0.178-0.176,0.466,0,0.644l4.94,5.41
				C3.75,5.623,3.876,5.663,3.998,5.657C4.125,5.663,4.25,5.623,4.345,5.528l4.94-5.41c0.176-0.177,0.176-0.466,0-0.644
				c-0.181-0.177-0.465-0.177-0.641,0L3.998,4.56L-0.644-0.525z"/>
		</g>
	</g>
</g>
<g id="V2_2_" opacity="0.2465">
	<g id="Admin_1_" transform="translate(-809.000000, -825.000000)">
		<g id="support-crew" transform="translate(-0.426248, -0.274233)">
			<g id="arrow-down-grey" transform="translate(809.000000, 825.000000)">
				<polygon id="Triangle-2" fill="#7E9098" points="4.552,4.809 0.77,0.739 8.332,0.739 				"/>
			</g>
		</g>
	</g>
</g>
</svg>
