<?xml version="1.0" encoding="utf-8"?>
<!-- Generator: Adobe Illustrator 16.0.0, SVG Export Plug-In . SVG Version: 6.00 Build 0)  -->
<!DOCTYPE svg PUBLIC "-//W3C//DTD SVG 1.1//EN" "http://www.w3.org/Graphics/SVG/1.1/DTD/svg11.dtd">
<svg version="1.1" id="Layer_1" xmlns="http://www.w3.org/2000/svg" xmlns:xlink="http://www.w3.org/1999/xlink" x="0px" y="0px"
	 width="241.731px" height="158px" viewBox="0 0 241.731 158" enable-background="new 0 0 241.731 158" xml:space="preserve">
<g id="XMLID_1_">
	<polygon id="XMLID_8_" fill="#FFFFFF" points="128.251,26.135 151.358,26.241 164.546,7.267 171.585,29.275 193.706,35.953 
		174.949,49.449 175.434,72.552 156.802,58.884 134.98,66.483 142.222,44.54 	"/>
	<g id="XMLID_7_">
		<polygon fill="#FCE421" points="131.08,25.065 154.188,25.172 167.375,6.197 174.414,28.206 196.535,34.885 177.778,48.38 
			178.263,71.482 159.632,57.814 137.81,65.414 145.051,43.471 		"/>
	</g>
	<polygon id="XMLID_6_" fill="none" stroke="#211F1F" stroke-width="2" points="128.5,26.01 151.606,26.116 164.794,7.142 
		171.833,29.15 193.954,35.829 175.198,49.324 175.683,72.427 157.051,58.759 135.229,66.358 142.471,44.415 	"/>
</g>
<g id="XMLID_3881_">
	<polyline id="XMLID_4057_" fill="none" stroke="#FFFFFF" stroke-width="2" stroke-miterlimit="10" points="98.595,121.947 
		98.595,46.1 103.203,46.1 103.203,28.19 118.402,28.19 118.402,36.883 123.933,42.459 123.933,46.183 	"/>
	<polyline id="XMLID_4056_" fill="none" stroke="#FFFFFF" stroke-width="2" stroke-miterlimit="10" points="117.963,75.705 
		117.963,46.246 128.13,46.246 	"/>
	<polyline id="XMLID_4055_" fill="none" stroke="#FFFFFF" stroke-width="2" stroke-miterlimit="10" points="142.978,46.246 
		162.393,46.246 162.393,153.979 	"/>
	<path id="XMLID_4054_" fill="none" stroke="#FFFFFF" stroke-width="2" stroke-miterlimit="10" d="M148.626,46.246"/>
	<path id="XMLID_4053_" fill="none" stroke="#FFFFFF" stroke-width="2" stroke-miterlimit="10" d="M125.284,46.246"/>
	
		<line id="XMLID_4052_" fill="none" stroke="#FFFFFF" stroke-width="2" stroke-miterlimit="10" x1="63.868" y1="75.963" x2="69.992" y2="75.963"/>
	<polyline id="XMLID_4051_" fill="none" stroke="#FFFFFF" stroke-width="2" stroke-miterlimit="10" points="35.172,104.002 
		35.172,73.714 45.872,73.714 	"/>
	<polyline id="XMLID_4050_" fill="none" stroke="#FFFFFF" stroke-width="2" stroke-miterlimit="10" points="162.393,94.579 
		177.611,94.579 177.611,153.979 241.731,153.979 	"/>
	<polyline id="XMLID_4049_" fill="none" stroke="#FFFFFF" stroke-width="2" stroke-miterlimit="10" points="13.407,153.979 
		13.407,104.002 37.74,104.002 37.74,128.121 	"/>
	<polyline id="XMLID_4048_" fill="none" stroke="#FFFFFF" stroke-width="2" stroke-miterlimit="10" points="69.565,153.979 
		69.565,2.396 92.218,2.396 92.218,153.979 	"/>
	<polyline id="XMLID_4047_" fill="none" stroke="#FFFFFF" stroke-width="2" stroke-miterlimit="10" points="64.113,153.979 
		64.113,32.356 59.374,29.973 59.374,27.01 57.639,27.01 57.639,25.028 55.987,25.028 55.987,23.313 55.078,23.313 55.078,17.049 
		54.803,17.049 54.803,23.313 53.785,23.313 53.785,25.028 52.226,25.028 52.226,27.01 50.628,27.01 50.628,29.908 45.905,32.261 
		45.905,153.979 	"/>
	<polyline id="XMLID_4046_" fill="none" stroke="#FFFFFF" stroke-width="2" stroke-miterlimit="10" points="124.729,153.979 
		124.729,68.231 102.995,92.242 102.995,121.947 	"/>
	<polyline id="XMLID_4045_" fill="none" stroke="#FFFFFF" stroke-width="2" stroke-miterlimit="10" points="25.643,153.979 
		25.643,128.121 43.297,128.121 43.297,153.979 	"/>
	<polyline id="XMLID_4044_" fill="none" stroke="#FFFFFF" stroke-width="2" stroke-miterlimit="10" points="128.13,153.979 
		128.13,30.988 142.978,30.988 142.978,153.979 	"/>
	<polyline id="XMLID_3883_" fill="none" stroke="#FFFFFF" stroke-width="2" stroke-miterlimit="10" points="95.503,153.979 
		95.503,121.947 110.532,121.947 110.532,153.979 	"/>
	<polyline id="XMLID_2_" fill="none" stroke="#FFFFFF" stroke-width="2" stroke-miterlimit="10" points="24.487,104.199 
		24.487,85.02 3.118,85.02 3.118,153.888 	"/>
</g>
<g id="XMLID_10_">
	<g id="XMLID_5_">
		<g>
			<g>
				<g>
					<ellipse fill="#FFFFFF" cx="53.754" cy="145.966" rx="1.014" ry="1.007"/>
				</g>
				<g>
					<ellipse fill="#FFFFFF" cx="53.754" cy="141.939" rx="1.014" ry="1.006"/>
				</g>
				<g>
					<ellipse fill="#FFFFFF" cx="53.754" cy="137.912" rx="1.014" ry="1.007"/>
				</g>
				<g>
					<ellipse fill="#FFFFFF" cx="53.754" cy="133.885" rx="1.014" ry="1.006"/>
				</g>
				<g>
					<ellipse fill="#FFFFFF" cx="53.754" cy="129.858" rx="1.014" ry="1.007"/>
				</g>
				<g>
					<ellipse fill="#FFFFFF" cx="53.754" cy="125.831" rx="1.014" ry="1.007"/>
				</g>
				<g>
					<ellipse fill="#FFFFFF" cx="53.754" cy="121.804" rx="1.014" ry="1.007"/>
				</g>
				<g>
					<ellipse fill="#FFFFFF" cx="53.754" cy="117.777" rx="1.014" ry="1.007"/>
				</g>
				<g>
					<ellipse fill="#FFFFFF" cx="53.754" cy="113.75" rx="1.014" ry="1.007"/>
				</g>
				<g>
					<ellipse fill="#FFFFFF" cx="53.754" cy="109.723" rx="1.014" ry="1.006"/>
				</g>
				<g>
					<ellipse fill="#FFFFFF" cx="53.754" cy="105.696" rx="1.014" ry="1.007"/>
				</g>
				<g>
					<ellipse fill="#FFFFFF" cx="53.754" cy="101.669" rx="1.014" ry="1.007"/>
				</g>
				<g>
					<ellipse fill="#FFFFFF" cx="53.754" cy="97.642" rx="1.014" ry="1.007"/>
				</g>
				<g>
					<ellipse fill="#FFFFFF" cx="53.754" cy="93.615" rx="1.014" ry="1.007"/>
				</g>
				<g>
					<ellipse fill="#FFFFFF" cx="53.754" cy="89.588" rx="1.014" ry="1.007"/>
				</g>
				<g>
					<ellipse fill="#FFFFFF" cx="53.754" cy="85.562" rx="1.014" ry="1.007"/>
				</g>
				<g>
					<ellipse fill="#FFFFFF" cx="53.754" cy="81.534" rx="1.014" ry="1.007"/>
				</g>
				<g>
					<ellipse fill="#FFFFFF" cx="53.754" cy="77.507" rx="1.014" ry="1.007"/>
				</g>
				<g>
					<ellipse fill="#FFFFFF" cx="53.754" cy="73.479" rx="1.014" ry="1.007"/>
				</g>
				<g>
					<ellipse fill="#FFFFFF" cx="53.754" cy="69.453" rx="1.014" ry="1.007"/>
				</g>
				<g>
					<ellipse fill="#FFFFFF" cx="53.754" cy="65.426" rx="1.014" ry="1.007"/>
				</g>
				<g>
					<ellipse fill="#FFFFFF" cx="53.754" cy="61.399" rx="1.014" ry="1.007"/>
				</g>
				<g>
					<ellipse fill="#FFFFFF" cx="53.754" cy="57.372" rx="1.014" ry="1.007"/>
				</g>
				<g>
					<ellipse fill="#FFFFFF" cx="53.754" cy="53.345" rx="1.014" ry="1.007"/>
				</g>
			</g>
		</g>
	</g>
</g>
<g id="XMLID_4_">
	<g id="XMLID_3_">
		<g>
			<g>
				<g>
					<ellipse fill="#FFFFFF" cx="137.252" cy="151.734" rx="0.707" ry="0.713"/>
				</g>
				<g>
					<ellipse fill="#FFFFFF" cx="137.252" cy="148.879" rx="0.707" ry="0.713"/>
				</g>
				<g>
					<ellipse fill="#FFFFFF" cx="137.252" cy="146.024" rx="0.707" ry="0.714"/>
				</g>
				<g>
					<ellipse fill="#FFFFFF" cx="137.252" cy="143.169" rx="0.707" ry="0.713"/>
				</g>
				<g>
					<ellipse fill="#FFFFFF" cx="137.252" cy="140.315" rx="0.707" ry="0.713"/>
				</g>
				<g>
					<ellipse fill="#FFFFFF" cx="137.252" cy="137.46" rx="0.707" ry="0.714"/>
				</g>
				<g>
					<ellipse fill="#FFFFFF" cx="137.252" cy="134.605" rx="0.707" ry="0.714"/>
				</g>
				<g>
					<ellipse fill="#FFFFFF" cx="137.252" cy="131.751" rx="0.707" ry="0.714"/>
				</g>
				<g>
					<ellipse fill="#FFFFFF" cx="137.252" cy="128.896" rx="0.707" ry="0.714"/>
				</g>
				<g>
					<ellipse fill="#FFFFFF" cx="137.252" cy="126.041" rx="0.707" ry="0.714"/>
				</g>
				<g>
					<ellipse fill="#FFFFFF" cx="137.252" cy="123.187" rx="0.707" ry="0.714"/>
				</g>
				<g>
					<ellipse fill="#FFFFFF" cx="137.252" cy="120.332" rx="0.707" ry="0.713"/>
				</g>
				<g>
					<ellipse fill="#FFFFFF" cx="137.252" cy="117.477" rx="0.707" ry="0.713"/>
				</g>
				<g>
					<ellipse fill="#FFFFFF" cx="137.252" cy="114.622" rx="0.707" ry="0.714"/>
				</g>
				<g>
					<ellipse fill="#FFFFFF" cx="137.252" cy="111.768" rx="0.707" ry="0.714"/>
				</g>
				<g>
					<ellipse fill="#FFFFFF" cx="137.252" cy="108.913" rx="0.707" ry="0.713"/>
				</g>
				<g>
					<ellipse fill="#FFFFFF" cx="137.252" cy="106.058" rx="0.707" ry="0.714"/>
				</g>
				<g>
					<ellipse fill="#FFFFFF" cx="137.252" cy="103.203" rx="0.707" ry="0.714"/>
				</g>
				<g>
					<ellipse fill="#FFFFFF" cx="137.252" cy="100.349" rx="0.707" ry="0.714"/>
				</g>
				<g>
					<ellipse fill="#FFFFFF" cx="137.252" cy="97.493" rx="0.707" ry="0.714"/>
				</g>
				<g>
					<ellipse fill="#FFFFFF" cx="137.252" cy="94.639" rx="0.707" ry="0.713"/>
				</g>
				<g>
					<ellipse fill="#FFFFFF" cx="137.252" cy="91.784" rx="0.707" ry="0.714"/>
				</g>
				<g>
					<ellipse fill="#FFFFFF" cx="137.252" cy="88.929" rx="0.707" ry="0.713"/>
				</g>
				<g>
					<ellipse fill="#FFFFFF" cx="137.252" cy="86.075" rx="0.707" ry="0.713"/>
				</g>
				<g>
					<ellipse fill="#FFFFFF" cx="137.252" cy="83.22" rx="0.707" ry="0.714"/>
				</g>
				<g>
					<ellipse fill="#FFFFFF" cx="137.252" cy="80.365" rx="0.707" ry="0.713"/>
				</g>
				<g>
					<ellipse fill="#FFFFFF" cx="137.252" cy="77.51" rx="0.707" ry="0.713"/>
				</g>
				<g>
					<ellipse fill="#FFFFFF" cx="137.252" cy="74.655" rx="0.707" ry="0.714"/>
				</g>
				<g>
					<ellipse fill="#FFFFFF" cx="137.252" cy="71.801" rx="0.707" ry="0.714"/>
				</g>
				<g>
					<ellipse fill="#FFFFFF" cx="137.252" cy="68.946" rx="0.707" ry="0.714"/>
				</g>
				<g>
					<ellipse fill="#FFFFFF" cx="137.252" cy="66.091" rx="0.707" ry="0.714"/>
				</g>
				<g>
					<ellipse fill="#FFFFFF" cx="137.252" cy="63.236" rx="0.707" ry="0.714"/>
				</g>
				<g>
					<ellipse fill="#FFFFFF" cx="137.252" cy="60.382" rx="0.707" ry="0.714"/>
				</g>
				<g>
					<ellipse fill="#FFFFFF" cx="137.252" cy="57.527" rx="0.707" ry="0.713"/>
				</g>
				<g>
					<ellipse fill="#FFFFFF" cx="137.252" cy="54.672" rx="0.707" ry="0.713"/>
				</g>
				<g>
					<ellipse fill="#FFFFFF" cx="137.252" cy="51.817" rx="0.707" ry="0.714"/>
				</g>
				<g>
					<ellipse fill="#FFFFFF" cx="137.252" cy="48.962" rx="0.707" ry="0.713"/>
				</g>
				<g>
					<ellipse fill="#FFFFFF" cx="137.252" cy="46.108" rx="0.707" ry="0.713"/>
				</g>
				<g>
					<ellipse fill="#FFFFFF" cx="137.252" cy="43.253" rx="0.707" ry="0.714"/>
				</g>
				<g>
					<ellipse fill="#FFFFFF" cx="137.252" cy="40.398" rx="0.707" ry="0.714"/>
				</g>
				<g>
					<ellipse fill="#FFFFFF" cx="137.252" cy="37.544" rx="0.707" ry="0.714"/>
				</g>
				<g>
					<ellipse fill="#FFFFFF" cx="137.252" cy="34.688" rx="0.707" ry="0.714"/>
				</g>
				<g>
					<ellipse fill="#FFFFFF" cx="137.252" cy="31.834" rx="0.707" ry="0.714"/>
				</g>
				<g>
					<ellipse fill="#FFFFFF" cx="137.252" cy="28.979" rx="0.707" ry="0.714"/>
				</g>
				<g>
					<ellipse fill="#FFFFFF" cx="137.252" cy="26.125" rx="0.707" ry="0.713"/>
				</g>
				<g>
					<ellipse fill="#FFFFFF" cx="137.252" cy="23.27" rx="0.707" ry="0.713"/>
				</g>
				<g>
					<ellipse fill="#FFFFFF" cx="137.252" cy="20.415" rx="0.707" ry="0.714"/>
				</g>
				<g>
					<ellipse fill="#FFFFFF" cx="137.252" cy="17.56" rx="0.707" ry="0.713"/>
				</g>
				<g>
					<ellipse fill="#FFFFFF" cx="137.252" cy="14.706" rx="0.707" ry="0.713"/>
				</g>
			</g>
		</g>
	</g>
</g>
</svg>
