<?xml version="1.0" encoding="utf-8"?>
<!-- Generator: Adobe Illustrator 16.0.0, SVG Export Plug-In . SVG Version: 6.00 Build 0)  -->
<!DOCTYPE svg PUBLIC "-//W3C//DTD SVG 1.1//EN" "http://www.w3.org/Graphics/SVG/1.1/DTD/svg11.dtd">
<svg version="1.1" id="Layer_1" xmlns="http://www.w3.org/2000/svg" xmlns:xlink="http://www.w3.org/1999/xlink" x="0px" y="0px"
	 width="50px" height="50px" viewBox="0 0 50 50" style="enable-background:new 0 0 50 50;" xml:space="preserve">
<style type="text/css">
<![CDATA[
	.st0{fill:#2DB4E9;}
	.st1{fill:#FFFFFF;}
]]>
</style>
<rect y="0.094" class="st0" width="50.497" height="49.906"/>
<g>
	<g>
		<path class="st1" d="M15.184,9.248c1.255,0,2.407,0.182,3.456,0.544c1.049,0.363,1.956,0.829,2.72,1.397
			c0.765,0.569,1.363,1.196,1.794,1.882c0.431,0.687,0.657,1.343,0.677,1.971c0,0.177-0.064,0.329-0.191,0.456
			c-0.128,0.128-0.27,0.191-0.426,0.191H19.36c-0.275,0-0.496-0.039-0.662-0.118c-0.167-0.078-0.338-0.195-0.515-0.353
			c-0.059-0.059-0.152-0.157-0.279-0.294c-0.128-0.137-0.309-0.279-0.544-0.426s-0.53-0.274-0.883-0.382
			c-0.353-0.107-0.784-0.162-1.294-0.162c-0.373,0-0.73,0.025-1.074,0.074c-0.343,0.049-0.647,0.128-0.912,0.235
			c-0.265,0.108-0.48,0.26-0.647,0.456c-0.167,0.196-0.25,0.441-0.25,0.735c0,0.294,0.093,0.54,0.28,0.736
			c0.186,0.196,0.5,0.378,0.941,0.544c0.441,0.167,1.024,0.329,1.75,0.485c0.725,0.157,1.627,0.343,2.706,0.559
			c1.078,0.216,2.019,0.491,2.823,0.824c0.804,0.334,1.475,0.75,2.015,1.25c0.539,0.5,0.941,1.088,1.206,1.765
			c0.264,0.676,0.397,1.476,0.397,2.397c0,1-0.226,1.893-0.677,2.677c-0.451,0.784-1.083,1.456-1.897,2.016
			c-0.814,0.559-1.775,0.984-2.883,1.279c-1.108,0.294-2.319,0.441-3.632,0.441c-1.333,0-2.549-0.178-3.647-0.53
			c-1.099-0.353-2.045-0.818-2.839-1.397c-0.794-0.578-1.417-1.23-1.868-1.956c-0.451-0.725-0.687-1.46-0.706-2.206
			c0-0.176,0.063-0.328,0.191-0.456c0.127-0.127,0.269-0.191,0.426-0.191h3.854c0.274,0,0.49,0.034,0.647,0.103
			c0.157,0.069,0.313,0.172,0.471,0.309c0.078,0.079,0.195,0.206,0.353,0.382c0.157,0.176,0.368,0.358,0.633,0.544
			c0.264,0.187,0.598,0.348,1,0.485c0.401,0.138,0.897,0.206,1.485,0.206c1.039,0,1.907-0.112,2.603-0.338
			c0.696-0.226,1.044-0.632,1.044-1.221c0-0.294-0.128-0.54-0.383-0.736c-0.255-0.196-0.637-0.377-1.147-0.544
			c-0.51-0.167-1.162-0.328-1.956-0.485c-0.794-0.157-1.73-0.353-2.809-0.588c-2.02-0.431-3.496-1.152-4.427-2.162
			s-1.397-2.358-1.397-4.044c0-0.843,0.191-1.647,0.574-2.412c0.382-0.765,0.937-1.441,1.662-2.029s1.603-1.054,2.632-1.397
			C12.757,9.42,13.908,9.248,15.184,9.248z"/>
		<path class="st1" d="M36.566,9.542c1.255,0,2.383,0.142,3.383,0.426c1,0.285,1.854,0.716,2.559,1.294
			c0.706,0.579,1.25,1.299,1.633,2.162c0.383,0.863,0.573,1.863,0.573,3c0,1.157-0.19,2.167-0.573,3.029
			c-0.383,0.863-0.927,1.579-1.633,2.147c-0.705,0.569-1.559,1-2.559,1.294s-2.128,0.441-3.383,0.441h-3.765v6
			c0,0.216-0.078,0.402-0.235,0.559c-0.157,0.157-0.343,0.235-0.559,0.235h-3.854c-0.216,0-0.402-0.078-0.559-0.235
			c-0.157-0.156-0.235-0.343-0.235-0.559V10.336c0-0.215,0.078-0.401,0.235-0.559c0.156-0.157,0.343-0.235,0.559-0.235H36.566z
			 M32.802,18.749h3.618c0.823,0,1.504-0.182,2.044-0.544c0.539-0.362,0.809-0.956,0.809-1.779s-0.27-1.417-0.809-1.78
			c-0.54-0.362-1.221-0.544-2.044-0.544h-3.618V18.749z"/>
	</g>
	<g>
		<path class="st1" d="M10.42,35.664c0.317,0,0.618,0.04,0.9,0.121c0.282,0.082,0.53,0.206,0.745,0.375
			c0.214,0.168,0.384,0.382,0.511,0.643c0.126,0.259,0.19,0.567,0.19,0.923c0,0.357-0.063,0.667-0.19,0.93s-0.297,0.481-0.511,0.656
			c-0.214,0.175-0.462,0.306-0.745,0.39c-0.282,0.085-0.583,0.126-0.9,0.126H8.63v2.384c0,0.072-0.026,0.134-0.078,0.185
			c-0.052,0.053-0.114,0.078-0.185,0.078H7.969c-0.071,0-0.133-0.025-0.185-0.078c-0.052-0.051-0.078-0.112-0.078-0.185v-6.285
			c0-0.07,0.026-0.132,0.078-0.184c0.051-0.053,0.113-0.078,0.185-0.078H10.42z M8.63,38.952h1.742c0.466,0,0.828-0.101,1.084-0.302
			s0.384-0.51,0.384-0.925s-0.128-0.716-0.384-0.904c-0.256-0.188-0.618-0.281-1.084-0.281H8.63V38.952z"/>
		<path class="st1" d="M17.688,40.937h-3.376l-0.505,1.295c-0.02,0.052-0.056,0.105-0.107,0.159
			c-0.052,0.056-0.143,0.083-0.272,0.083h-0.36c-0.058,0-0.109-0.02-0.151-0.063s-0.063-0.092-0.063-0.151
			c0-0.032,0.013-0.078,0.039-0.136l2.383-6.139c0.033-0.072,0.082-0.144,0.146-0.214c0.065-0.072,0.162-0.107,0.292-0.107h0.583
			c0.13,0,0.227,0.035,0.292,0.107c0.064,0.07,0.113,0.142,0.146,0.214l2.374,6.139c0.026,0.058,0.039,0.104,0.039,0.136
			c0,0.06-0.021,0.108-0.063,0.151c-0.042,0.043-0.092,0.063-0.151,0.063h-0.359c-0.13,0-0.221-0.027-0.273-0.083
			c-0.052-0.054-0.087-0.107-0.107-0.159L17.688,40.937z M14.653,40.062h2.695l-1.342-3.473L14.653,40.062z"/>
		<path class="st1" d="M22.767,35.664c0.318,0,0.618,0.039,0.9,0.116c0.283,0.078,0.53,0.198,0.745,0.36
			c0.214,0.161,0.384,0.37,0.511,0.623s0.19,0.558,0.19,0.914c0,0.524-0.131,0.943-0.394,1.256c-0.263,0.311-0.598,0.53-1.007,0.661
			l1.469,2.559c0.02,0.039,0.029,0.074,0.029,0.106c0,0.06-0.021,0.108-0.063,0.151c-0.042,0.043-0.093,0.063-0.151,0.063h-0.418
			c-0.13,0-0.226-0.031-0.287-0.097c-0.062-0.065-0.105-0.119-0.132-0.166l-1.411-2.48h-1.673v2.48c0,0.072-0.026,0.134-0.077,0.185
			c-0.052,0.053-0.114,0.078-0.185,0.078h-0.399c-0.071,0-0.133-0.025-0.185-0.078c-0.052-0.051-0.078-0.112-0.078-0.185v-6.285
			c0-0.07,0.026-0.132,0.078-0.184c0.052-0.053,0.114-0.078,0.185-0.078H22.767z M21.074,38.855h1.645
			c0.467,0,0.828-0.093,1.085-0.278c0.256-0.185,0.384-0.484,0.384-0.899s-0.128-0.709-0.384-0.88
			c-0.257-0.173-0.618-0.258-1.085-0.258h-1.645V38.855z"/>
		<path class="st1" d="M30.676,41.599c0.071,0,0.133,0.026,0.186,0.078c0.051,0.052,0.077,0.113,0.077,0.185v0.35
			c0,0.072-0.026,0.134-0.077,0.185c-0.053,0.053-0.114,0.078-0.186,0.078h-3.931c-0.071,0-0.133-0.025-0.185-0.078
			c-0.052-0.051-0.078-0.112-0.078-0.185v-6.285c0-0.07,0.026-0.132,0.078-0.184c0.052-0.053,0.113-0.078,0.185-0.078h3.853
			c0.072,0,0.133,0.025,0.186,0.078c0.052,0.052,0.078,0.113,0.078,0.184v0.351c0,0.072-0.026,0.134-0.078,0.186
			c-0.053,0.052-0.113,0.078-0.186,0.078h-3.19v2.053h2.977c0.071,0,0.133,0.026,0.186,0.077c0.052,0.052,0.078,0.113,0.078,0.186
			v0.35c0,0.071-0.026,0.133-0.078,0.185c-0.053,0.052-0.114,0.078-0.186,0.078h-2.977v2.131H30.676z"/>
		<path class="st1" d="M36.718,42.474c-0.092,0-0.167-0.03-0.229-0.092c-0.063-0.062-0.115-0.128-0.161-0.2l-3.162-4.757v4.786
			c0,0.072-0.025,0.134-0.077,0.185c-0.052,0.053-0.113,0.078-0.185,0.078h-0.399c-0.071,0-0.133-0.025-0.185-0.078
			c-0.052-0.051-0.078-0.112-0.078-0.185v-6.285c0-0.07,0.026-0.132,0.078-0.184c0.052-0.053,0.113-0.078,0.185-0.078h0.341
			c0.091,0,0.167,0.03,0.229,0.092s0.115,0.129,0.16,0.2l3.162,4.757v-4.787c0-0.07,0.026-0.132,0.078-0.184
			c0.052-0.053,0.113-0.078,0.185-0.078h0.398c0.072,0,0.134,0.025,0.186,0.078c0.052,0.052,0.077,0.113,0.077,0.184v6.285
			c0,0.072-0.025,0.134-0.077,0.185c-0.052,0.053-0.113,0.078-0.186,0.078H36.718z"/>
		<path class="st1" d="M43.207,35.664c0.071,0,0.133,0.025,0.186,0.078c0.051,0.052,0.077,0.113,0.077,0.184v0.351
			c0,0.072-0.026,0.134-0.077,0.186c-0.053,0.052-0.114,0.078-0.186,0.078h-1.819v5.671c0,0.072-0.025,0.134-0.078,0.185
			c-0.052,0.053-0.113,0.078-0.185,0.078h-0.398c-0.072,0-0.134-0.025-0.186-0.078c-0.052-0.051-0.077-0.112-0.077-0.185V36.54
			h-1.819c-0.071,0-0.133-0.026-0.186-0.078c-0.052-0.052-0.078-0.113-0.078-0.186v-0.351c0-0.07,0.026-0.132,0.078-0.184
			c0.053-0.053,0.114-0.078,0.186-0.078H43.207z"/>
	</g>
</g>
<rect x="-0.144" y="-0.406" class="st0" width="51.144" height="50.906"/>
<g>
	<g>
		<path class="st1" d="M14.979,9.168c1.28,0,2.455,0.185,3.525,0.555c1.07,0.371,1.995,0.845,2.775,1.425
			c0.781,0.58,1.39,1.22,1.831,1.92c0.44,0.701,0.67,1.37,0.69,2.01c0,0.18-0.065,0.335-0.195,0.465
			c-0.13,0.13-0.275,0.195-0.435,0.195h-3.931c-0.28,0-0.505-0.04-0.675-0.12c-0.17-0.08-0.345-0.2-0.525-0.36
			c-0.06-0.06-0.156-0.16-0.285-0.3c-0.13-0.14-0.315-0.285-0.555-0.435c-0.24-0.15-0.541-0.28-0.901-0.391
			c-0.36-0.109-0.799-0.165-1.319-0.165c-0.381,0-0.746,0.025-1.095,0.075c-0.351,0.05-0.661,0.13-0.93,0.24
			c-0.27,0.11-0.49,0.265-0.66,0.465c-0.17,0.2-0.255,0.45-0.255,0.75c0,0.3,0.095,0.55,0.285,0.75c0.19,0.2,0.51,0.385,0.96,0.555
			c0.45,0.17,1.044,0.335,1.785,0.495c0.739,0.161,1.66,0.35,2.76,0.57c1.1,0.221,2.06,0.5,2.88,0.84
			c0.82,0.34,1.505,0.765,2.056,1.275c0.55,0.51,0.96,1.11,1.23,1.8c0.27,0.69,0.405,1.505,0.405,2.445c0,1.02-0.23,1.93-0.69,2.73
			c-0.46,0.801-1.105,1.485-1.936,2.056c-0.83,0.57-1.81,1.005-2.94,1.306c-1.13,0.3-2.365,0.45-3.706,0.45
			c-1.36,0-2.6-0.181-3.72-0.541c-1.121-0.359-2.086-0.835-2.896-1.425c-0.81-0.59-1.445-1.255-1.905-1.995
			c-0.46-0.739-0.7-1.49-0.72-2.25c0-0.18,0.064-0.334,0.195-0.465c0.13-0.129,0.274-0.194,0.435-0.194h3.93
			c0.28,0,0.5,0.035,0.66,0.104c0.16,0.07,0.319,0.175,0.48,0.315c0.08,0.08,0.2,0.21,0.36,0.39c0.16,0.18,0.375,0.365,0.646,0.555
			c0.27,0.19,0.61,0.355,1.02,0.495c0.41,0.141,0.915,0.21,1.515,0.21c1.061,0,1.945-0.115,2.656-0.345
			c0.709-0.23,1.065-0.645,1.065-1.245c0-0.3-0.13-0.55-0.39-0.75c-0.26-0.2-0.65-0.385-1.17-0.555
			c-0.521-0.17-1.186-0.335-1.995-0.495c-0.81-0.16-1.766-0.36-2.866-0.6c-2.06-0.44-3.565-1.175-4.515-2.206
			c-0.95-1.03-1.425-2.405-1.425-4.125c0-0.86,0.195-1.68,0.585-2.46s0.956-1.47,1.695-2.07c0.739-0.6,1.635-1.075,2.685-1.425
			C12.502,9.344,13.678,9.168,14.979,9.168z"/>
		<path class="st1" d="M36.79,9.469c1.279,0,2.431,0.145,3.45,0.435s1.891,0.73,2.61,1.32c0.72,0.59,1.275,1.325,1.665,2.206
			c0.391,0.88,0.585,1.9,0.585,3.06c0,1.181-0.194,2.21-0.585,3.09c-0.39,0.88-0.945,1.61-1.665,2.19s-1.591,1.02-2.61,1.32
			c-1.02,0.3-2.171,0.45-3.45,0.45h-3.84v6.121c0,0.22-0.08,0.41-0.24,0.569c-0.16,0.161-0.351,0.24-0.57,0.24h-3.931
			c-0.221,0-0.41-0.079-0.57-0.24c-0.16-0.159-0.24-0.35-0.24-0.569V10.279c0-0.22,0.08-0.41,0.24-0.57
			c0.16-0.16,0.35-0.24,0.57-0.24H36.79z M32.95,18.86h3.689c0.84,0,1.535-0.185,2.086-0.555c0.55-0.37,0.825-0.975,0.825-1.815
			c0-0.84-0.275-1.445-0.825-1.815c-0.551-0.37-1.246-0.555-2.086-0.555H32.95V18.86z"/>
	</g>
	<g>
		<path class="st1" d="M8.754,42.338c0.059,0,0.109,0.021,0.152,0.064c0.043,0.043,0.064,0.094,0.064,0.151v0.29
			c0,0.059-0.021,0.109-0.064,0.153c-0.043,0.042-0.093,0.063-0.152,0.063H5.51c-0.059,0-0.11-0.021-0.153-0.063
			c-0.042-0.044-0.063-0.095-0.063-0.153v-5.187c0-0.06,0.021-0.11,0.063-0.152C5.4,37.461,5.451,37.44,5.51,37.44h3.18
			c0.059,0,0.11,0.021,0.152,0.064c0.043,0.042,0.064,0.093,0.064,0.152v0.289c0,0.06-0.021,0.109-0.064,0.152
			C8.8,38.142,8.749,38.163,8.69,38.163H6.056v1.693h2.457c0.059,0,0.11,0.022,0.152,0.064c0.043,0.043,0.064,0.094,0.064,0.153
			v0.288c0,0.06-0.021,0.109-0.064,0.153c-0.042,0.042-0.094,0.063-0.152,0.063H6.056v1.759H8.754z"/>
		<path class="st1" d="M14.406,39.615c0.005,0.241,0.008,0.453,0.008,0.635c0,0.183-0.003,0.394-0.008,0.635
			c-0.005,0.338-0.064,0.641-0.177,0.91c-0.112,0.271-0.267,0.5-0.466,0.688c-0.198,0.188-0.434,0.331-0.706,0.43
			c-0.273,0.099-0.576,0.148-0.907,0.148h-1.887c-0.059,0-0.109-0.021-0.152-0.063c-0.043-0.044-0.064-0.095-0.064-0.153v-5.187
			c0-0.06,0.021-0.11,0.064-0.152c0.043-0.044,0.093-0.064,0.152-0.064h1.839c0.332,0,0.638,0.05,0.919,0.148
			c0.281,0.1,0.523,0.243,0.727,0.43c0.203,0.188,0.362,0.416,0.478,0.687C14.34,38.976,14.401,39.279,14.406,39.615z
			 M13.644,39.656c-0.005-0.192-0.036-0.378-0.092-0.558c-0.057-0.18-0.146-0.34-0.269-0.479c-0.124-0.139-0.284-0.249-0.482-0.332
			c-0.199-0.084-0.441-0.125-0.731-0.125h-1.261v4.175h1.301c0.289,0,0.532-0.042,0.727-0.124c0.195-0.083,0.352-0.194,0.47-0.334
			c0.118-0.139,0.202-0.298,0.253-0.478c0.05-0.179,0.079-0.366,0.084-0.558c0-0.118,0.001-0.225,0.004-0.317
			c0.003-0.094,0.004-0.185,0.004-0.273c0-0.088-0.001-0.179-0.004-0.272C13.645,39.889,13.644,39.779,13.644,39.656z"/>
		<path class="st1" d="M19.624,37.44c0.059,0,0.11,0.021,0.153,0.064c0.043,0.042,0.064,0.093,0.064,0.152v3.212
			c0,0.331-0.042,0.636-0.125,0.91c-0.083,0.276-0.211,0.516-0.385,0.72c-0.174,0.203-0.397,0.36-0.67,0.474
			c-0.273,0.112-0.6,0.168-0.979,0.168c-0.385,0-0.715-0.056-0.987-0.168c-0.273-0.113-0.497-0.271-0.671-0.474
			c-0.174-0.204-0.301-0.443-0.381-0.72c-0.081-0.274-0.121-0.579-0.121-0.91v-3.212c0-0.06,0.021-0.11,0.064-0.152
			c0.042-0.044,0.094-0.064,0.152-0.064h0.33c0.059,0,0.109,0.021,0.152,0.064c0.043,0.042,0.064,0.093,0.064,0.152v3.252
			c0,0.524,0.123,0.914,0.369,1.167c0.246,0.255,0.589,0.383,1.028,0.383c0.438,0,0.783-0.128,1.031-0.383
			c0.249-0.253,0.374-0.643,0.374-1.167v-3.252c0-0.06,0.021-0.11,0.064-0.152c0.042-0.044,0.093-0.064,0.152-0.064H19.624z"/>
		<path class="st1" d="M21.728,39.576c-0.011,0.241-0.016,0.465-0.016,0.674s0.004,0.435,0.016,0.675
			c0.016,0.444,0.151,0.804,0.406,1.079c0.254,0.276,0.619,0.414,1.096,0.414c0.257,0,0.474-0.031,0.65-0.097
			c0.177-0.064,0.323-0.147,0.437-0.249c0.115-0.101,0.204-0.218,0.266-0.348c0.062-0.132,0.108-0.265,0.14-0.398
			c0.01-0.06,0.038-0.103,0.081-0.133c0.042-0.029,0.085-0.043,0.128-0.043h0.369c0.048,0,0.09,0.017,0.125,0.052
			s0.052,0.076,0.052,0.124c-0.005,0.176-0.051,0.369-0.136,0.578c-0.086,0.208-0.219,0.405-0.397,0.591
			c-0.18,0.185-0.41,0.338-0.691,0.461c-0.281,0.123-0.622,0.185-1.023,0.185c-0.348,0-0.659-0.055-0.931-0.164
			c-0.273-0.11-0.507-0.261-0.703-0.454c-0.195-0.192-0.347-0.422-0.454-0.687c-0.107-0.265-0.167-0.556-0.177-0.87
			c-0.016-0.477-0.016-0.953,0-1.43c0.01-0.312,0.069-0.6,0.177-0.867c0.107-0.268,0.258-0.498,0.454-0.69s0.43-0.345,0.703-0.454
			c0.272-0.108,0.583-0.164,0.931-0.164c0.401,0,0.743,0.062,1.023,0.185c0.281,0.123,0.511,0.277,0.691,0.462
			c0.179,0.185,0.312,0.381,0.397,0.59c0.085,0.208,0.131,0.401,0.136,0.577c0,0.049-0.018,0.091-0.052,0.125
			s-0.076,0.053-0.125,0.053h-0.369c-0.043,0-0.086-0.015-0.128-0.045c-0.043-0.028-0.07-0.073-0.081-0.133
			c-0.032-0.134-0.079-0.265-0.14-0.396s-0.15-0.247-0.266-0.35c-0.114-0.102-0.26-0.185-0.437-0.249
			c-0.177-0.063-0.394-0.096-0.65-0.096c-0.477,0-0.842,0.137-1.096,0.413C21.879,38.771,21.744,39.132,21.728,39.576z"/>
		<path class="st1" d="M29.909,41.792h-2.786l-0.417,1.067c-0.017,0.043-0.046,0.088-0.089,0.133
			c-0.043,0.046-0.117,0.068-0.225,0.068h-0.297c-0.049,0-0.09-0.018-0.125-0.053c-0.035-0.034-0.052-0.076-0.052-0.124
			c0-0.027,0.011-0.064,0.032-0.112l1.967-5.066c0.026-0.06,0.067-0.117,0.12-0.176c0.054-0.06,0.134-0.089,0.241-0.089h0.481
			c0.107,0,0.188,0.029,0.241,0.089c0.053,0.059,0.094,0.116,0.12,0.176l1.959,5.066c0.021,0.048,0.032,0.085,0.032,0.112
			c0,0.048-0.018,0.09-0.053,0.124c-0.034,0.035-0.075,0.053-0.124,0.053H30.64c-0.107,0-0.182-0.022-0.225-0.068
			c-0.043-0.045-0.072-0.09-0.089-0.133L29.909,41.792z M27.404,41.069h2.224l-1.107-2.866L27.404,41.069z"/>
		<path class="st1" d="M34.839,37.44c0.059,0,0.109,0.021,0.152,0.064c0.043,0.042,0.064,0.093,0.064,0.152v0.289
			c0,0.06-0.021,0.109-0.064,0.152s-0.094,0.064-0.152,0.064h-1.501v4.681c0,0.059-0.021,0.109-0.064,0.153
			c-0.043,0.042-0.094,0.063-0.153,0.063h-0.329c-0.059,0-0.109-0.021-0.152-0.063c-0.043-0.044-0.063-0.095-0.063-0.153v-4.681
			h-1.502c-0.059,0-0.109-0.021-0.152-0.064s-0.064-0.093-0.064-0.152v-0.289c0-0.06,0.021-0.11,0.064-0.152
			c0.043-0.044,0.094-0.064,0.152-0.064H34.839z"/>
		<path class="st1" d="M35.586,39.536c0.004-0.301,0.057-0.583,0.155-0.847c0.1-0.266,0.243-0.496,0.43-0.691
			c0.188-0.195,0.418-0.35,0.69-0.466c0.273-0.114,0.587-0.172,0.94-0.172c0.353,0,0.666,0.058,0.938,0.172
			c0.273,0.116,0.503,0.271,0.69,0.466s0.331,0.426,0.43,0.691c0.099,0.264,0.151,0.546,0.157,0.847c0.016,0.477,0.016,0.953,0,1.43
			c-0.012,0.299-0.066,0.581-0.165,0.847c-0.099,0.264-0.242,0.495-0.43,0.693c-0.188,0.199-0.416,0.354-0.687,0.467
			c-0.271,0.112-0.582,0.168-0.935,0.168c-0.354,0-0.666-0.056-0.936-0.168c-0.271-0.113-0.5-0.268-0.687-0.467
			c-0.188-0.198-0.331-0.43-0.43-0.693c-0.1-0.266-0.154-0.548-0.164-0.847C35.569,40.489,35.569,40.013,35.586,39.536z
			 M39.254,39.576c-0.011-0.251-0.052-0.471-0.124-0.659c-0.072-0.187-0.173-0.342-0.301-0.465c-0.129-0.123-0.28-0.215-0.454-0.276
			s-0.365-0.093-0.573-0.093c-0.209,0-0.401,0.031-0.574,0.093c-0.174,0.062-0.325,0.153-0.454,0.276
			c-0.128,0.123-0.23,0.278-0.305,0.465c-0.075,0.188-0.115,0.408-0.121,0.659c-0.011,0.241-0.016,0.465-0.016,0.674
			s0.005,0.435,0.016,0.675c0.006,0.252,0.046,0.472,0.121,0.658c0.074,0.187,0.177,0.343,0.305,0.466
			c0.129,0.123,0.28,0.216,0.454,0.277c0.173,0.062,0.365,0.092,0.574,0.092c0.208,0,0.399-0.03,0.573-0.092
			s0.325-0.154,0.454-0.277c0.128-0.123,0.229-0.279,0.301-0.466s0.113-0.406,0.124-0.658c0.011-0.24,0.017-0.466,0.017-0.675
			S39.265,39.817,39.254,39.576z"/>
		<path class="st1" d="M43.349,37.44c0.262,0,0.51,0.032,0.742,0.096c0.233,0.065,0.438,0.164,0.614,0.298
			c0.177,0.134,0.317,0.306,0.422,0.514c0.104,0.209,0.156,0.46,0.156,0.754c0,0.435-0.108,0.779-0.325,1.036
			s-0.493,0.439-0.831,0.547l1.213,2.11c0.016,0.033,0.023,0.062,0.023,0.089c0,0.048-0.017,0.09-0.052,0.124
			c-0.034,0.035-0.076,0.053-0.125,0.053h-0.345c-0.107,0-0.187-0.026-0.236-0.081c-0.051-0.053-0.087-0.099-0.109-0.136
			l-1.164-2.047h-1.381v2.047c0,0.059-0.021,0.109-0.063,0.153c-0.043,0.042-0.094,0.063-0.153,0.063h-0.329
			c-0.059,0-0.109-0.021-0.152-0.063c-0.043-0.044-0.063-0.095-0.063-0.153v-5.187c0-0.06,0.021-0.11,0.063-0.152
			c0.043-0.044,0.094-0.064,0.152-0.064H43.349z M41.951,40.074h1.357c0.385,0,0.684-0.077,0.895-0.229
			c0.212-0.151,0.317-0.4,0.317-0.743s-0.105-0.584-0.317-0.726c-0.211-0.143-0.51-0.213-0.895-0.213h-1.357V40.074z"/>
	</g>
</g>
<rect y="0.396" class="st0" width="50.337" height="50.104"/>
<g>
	<path class="st1" d="M24.716,29.813c0.059,0.077,0.089,0.187,0.089,0.324c0,0.177-0.064,0.328-0.192,0.458
		c-0.128,0.127-0.28,0.19-0.458,0.19H19.46c-0.275,0-0.502-0.058-0.679-0.177c-0.177-0.117-0.354-0.285-0.531-0.502l-5.582-7.028
		v6.91c0,0.217-0.079,0.403-0.236,0.562c-0.158,0.158-0.345,0.235-0.562,0.235H8.003c-0.217,0-0.404-0.077-0.562-0.235
		c-0.158-0.158-0.236-0.345-0.236-0.562V10.912c0-0.216,0.079-0.403,0.236-0.562c0.157-0.157,0.344-0.235,0.562-0.235h3.868
		c0.216,0,0.403,0.079,0.562,0.235c0.157,0.159,0.236,0.346,0.236,0.562v6.231l5.197-6.378c0.099-0.119,0.227-0.255,0.384-0.414
		c0.157-0.157,0.422-0.235,0.797-0.235h4.606c0.178,0,0.33,0.063,0.459,0.192c0.127,0.127,0.192,0.28,0.192,0.458
		c0,0.138-0.03,0.246-0.088,0.325l-7.294,8.918L24.716,29.813z"/>
	<path class="st1" d="M30.624,17.969c-0.021,0.256-0.036,0.61-0.047,1.063c-0.009,0.454-0.014,0.921-0.014,1.403
		c0,0.482,0.005,0.955,0.014,1.418c0.011,0.462,0.026,0.821,0.047,1.078c0.039,0.453,0.126,0.886,0.265,1.299
		c0.137,0.414,0.354,0.778,0.65,1.092c0.294,0.315,0.668,0.566,1.121,0.753c0.452,0.188,1.014,0.28,1.685,0.28
		c0.668,0,1.219-0.078,1.653-0.236c0.432-0.156,0.786-0.349,1.063-0.575c0.275-0.226,0.487-0.478,0.635-0.753
		c0.147-0.276,0.261-0.532,0.34-0.768c0.099-0.315,0.206-0.537,0.324-0.665c0.118-0.127,0.344-0.192,0.68-0.192h3.867
		c0.178,0,0.33,0.064,0.458,0.192c0.129,0.128,0.193,0.281,0.193,0.458c-0.021,1.004-0.267,1.949-0.738,2.835
		c-0.474,0.886-1.122,1.653-1.949,2.303c-0.827,0.65-1.798,1.167-2.908,1.551c-1.112,0.384-2.318,0.577-3.617,0.577
		c-1.419,0-2.683-0.214-3.795-0.636c-1.114-0.423-2.063-1-2.851-1.729c-0.787-0.728-1.393-1.58-1.816-2.554
		c-0.424-0.975-0.665-2.003-0.724-3.085c-0.039-0.807-0.059-1.674-0.059-2.599c0-0.925,0.02-1.812,0.059-2.658
		c0.04-1.082,0.276-2.111,0.709-3.085c0.432-0.975,1.038-1.826,1.816-2.555c0.777-0.728,1.728-1.304,2.85-1.727
		c1.122-0.423,2.392-0.635,3.811-0.635c1.299,0,2.505,0.192,3.617,0.575c1.11,0.384,2.081,0.901,2.908,1.551
		s1.476,1.417,1.949,2.303c0.472,0.885,0.718,1.831,0.738,2.834c0,0.178-0.064,0.331-0.193,0.458
		c-0.128,0.129-0.28,0.192-0.458,0.192h-3.867c-0.336,0-0.562-0.063-0.68-0.192c-0.118-0.127-0.226-0.349-0.324-0.664
		c-0.079-0.237-0.192-0.492-0.34-0.768c-0.147-0.275-0.359-0.526-0.635-0.753c-0.276-0.226-0.631-0.418-1.063-0.576
		c-0.435-0.157-0.985-0.236-1.653-0.236c-0.671,0-1.232,0.094-1.685,0.28c-0.453,0.188-0.827,0.438-1.121,0.753
		c-0.297,0.315-0.514,0.679-0.65,1.093C30.75,17.083,30.663,17.517,30.624,17.969z"/>
</g>
<g>
	<path class="st1" d="M8.757,42.466c0.058,0,0.108,0.021,0.15,0.063c0.042,0.042,0.063,0.092,0.063,0.148v0.286
		c0,0.058-0.021,0.107-0.063,0.15c-0.042,0.041-0.092,0.063-0.15,0.063H5.565c-0.059,0-0.108-0.021-0.15-0.063
		c-0.042-0.043-0.063-0.093-0.063-0.15v-5.105c0-0.059,0.021-0.108,0.063-0.15c0.042-0.042,0.092-0.063,0.15-0.063h3.129
		c0.058,0,0.107,0.021,0.15,0.063s0.063,0.092,0.063,0.15v0.285c0,0.058-0.021,0.107-0.063,0.148
		c-0.042,0.043-0.092,0.065-0.15,0.065H6.102v1.666H8.52c0.057,0,0.108,0.021,0.15,0.063c0.042,0.042,0.063,0.093,0.063,0.15v0.284
		c0,0.058-0.021,0.107-0.063,0.15c-0.042,0.041-0.093,0.063-0.15,0.063H6.102v1.731H8.757z"/>
	<path class="st1" d="M14.32,39.787c0.005,0.236,0.008,0.444,0.008,0.624c0,0.179-0.003,0.387-0.008,0.624
		c-0.005,0.333-0.063,0.631-0.174,0.896c-0.11,0.268-0.263,0.492-0.458,0.677c-0.194,0.185-0.427,0.327-0.695,0.424
		c-0.269,0.097-0.566,0.146-0.893,0.146h-1.858c-0.058,0-0.107-0.021-0.149-0.063c-0.043-0.043-0.063-0.093-0.063-0.15v-5.105
		c0-0.059,0.02-0.108,0.063-0.15c0.042-0.042,0.091-0.063,0.149-0.063h1.811c0.327,0,0.628,0.049,0.905,0.146
		c0.276,0.099,0.514,0.239,0.715,0.423c0.201,0.185,0.357,0.41,0.47,0.676C14.255,39.155,14.315,39.455,14.32,39.787z M13.57,39.827
		c-0.005-0.19-0.035-0.373-0.091-0.551c-0.056-0.176-0.143-0.333-0.264-0.469c-0.122-0.137-0.28-0.247-0.475-0.329
		c-0.195-0.082-0.435-0.121-0.719-0.121H10.78v4.108h1.28c0.285,0,0.523-0.042,0.716-0.122c0.192-0.082,0.346-0.19,0.462-0.33
		c0.116-0.136,0.198-0.293,0.249-0.47c0.049-0.175,0.077-0.358,0.083-0.548c0-0.116,0.001-0.221,0.003-0.313
		c0.003-0.093,0.004-0.182,0.004-0.27c0-0.087-0.001-0.175-0.004-0.268C13.571,40.055,13.57,39.948,13.57,39.827z"/>
	<path class="st1" d="M19.456,37.646c0.058,0,0.108,0.021,0.15,0.063s0.063,0.092,0.063,0.15v3.161c0,0.326-0.042,0.627-0.124,0.896
		c-0.081,0.271-0.207,0.507-0.378,0.708c-0.172,0.2-0.392,0.354-0.66,0.466c-0.269,0.111-0.59,0.166-0.964,0.166
		c-0.38,0-0.704-0.055-0.972-0.166s-0.489-0.266-0.66-0.466c-0.171-0.201-0.296-0.437-0.375-0.708
		c-0.079-0.27-0.119-0.57-0.119-0.896v-3.161c0-0.059,0.021-0.108,0.063-0.15c0.042-0.042,0.093-0.063,0.15-0.063h0.324
		c0.058,0,0.108,0.021,0.15,0.063c0.042,0.042,0.064,0.092,0.064,0.15v3.2c0,0.517,0.121,0.9,0.363,1.149
		c0.242,0.251,0.579,0.376,1.012,0.376c0.431,0,0.77-0.125,1.014-0.376c0.246-0.249,0.368-0.633,0.368-1.149v-3.2
		c0-0.059,0.021-0.108,0.063-0.15c0.043-0.042,0.092-0.063,0.15-0.063H19.456z"/>
	<path class="st1" d="M21.526,39.747c-0.01,0.238-0.015,0.458-0.015,0.664c0,0.205,0.005,0.427,0.015,0.664
		c0.016,0.438,0.149,0.791,0.399,1.063c0.25,0.271,0.61,0.406,1.079,0.406c0.252,0,0.466-0.031,0.64-0.095s0.318-0.146,0.431-0.244
		c0.113-0.101,0.2-0.216,0.261-0.343c0.061-0.131,0.106-0.261,0.138-0.393c0.01-0.059,0.038-0.101,0.08-0.132
		c0.042-0.027,0.084-0.042,0.126-0.042h0.364c0.047,0,0.088,0.018,0.122,0.051c0.034,0.036,0.051,0.075,0.051,0.123
		c-0.005,0.173-0.05,0.363-0.133,0.569c-0.085,0.205-0.216,0.398-0.392,0.581c-0.177,0.182-0.403,0.333-0.68,0.453
		c-0.276,0.121-0.612,0.183-1.007,0.183c-0.343,0-0.648-0.054-0.917-0.162s-0.499-0.256-0.691-0.446
		c-0.192-0.189-0.341-0.415-0.447-0.676c-0.105-0.262-0.163-0.547-0.173-0.856c-0.016-0.47-0.016-0.938,0-1.406
		c0.01-0.307,0.068-0.591,0.173-0.855c0.105-0.263,0.254-0.489,0.447-0.679s0.423-0.339,0.691-0.447
		c0.269-0.106,0.574-0.162,0.917-0.162c0.395,0,0.73,0.061,1.007,0.183c0.277,0.121,0.503,0.272,0.68,0.454
		c0.176,0.182,0.307,0.376,0.392,0.581c0.083,0.205,0.128,0.396,0.133,0.568c0,0.048-0.017,0.09-0.051,0.122
		c-0.034,0.035-0.075,0.053-0.122,0.053H24.68c-0.042,0-0.084-0.014-0.126-0.044c-0.042-0.028-0.07-0.072-0.08-0.131
		c-0.032-0.131-0.078-0.262-0.138-0.391s-0.148-0.243-0.261-0.343c-0.113-0.101-0.257-0.183-0.431-0.246s-0.387-0.095-0.64-0.095
		c-0.469,0-0.829,0.135-1.079,0.407C21.676,38.955,21.542,39.311,21.526,39.747z"/>
	<path class="st1" d="M29.579,41.928h-2.742l-0.411,1.051c-0.016,0.043-0.044,0.086-0.087,0.131
		c-0.042,0.045-0.116,0.067-0.222,0.067h-0.292c-0.047,0-0.088-0.017-0.123-0.052c-0.033-0.034-0.051-0.075-0.051-0.123
		c0-0.025,0.011-0.063,0.032-0.11l1.936-4.986c0.025-0.057,0.066-0.115,0.118-0.173c0.053-0.058,0.132-0.087,0.237-0.087h0.474
		c0.106,0,0.186,0.029,0.237,0.087c0.053,0.058,0.092,0.116,0.118,0.173l1.929,4.986c0.021,0.048,0.031,0.085,0.031,0.11
		c0,0.048-0.017,0.089-0.051,0.123c-0.035,0.035-0.075,0.052-0.121,0.052h-0.294c-0.105,0-0.179-0.022-0.222-0.067
		c-0.041-0.045-0.07-0.088-0.087-0.131L29.579,41.928z M27.113,41.217h2.189l-1.091-2.821L27.113,41.217z"/>
	<path class="st1" d="M34.432,37.646c0.056,0,0.106,0.021,0.149,0.063c0.042,0.042,0.063,0.092,0.063,0.15v0.285
		c0,0.058-0.021,0.107-0.063,0.148c-0.043,0.043-0.094,0.065-0.149,0.065h-1.478v4.606c0,0.058-0.021,0.107-0.063,0.15
		c-0.042,0.041-0.093,0.063-0.15,0.063h-0.325c-0.056,0-0.107-0.021-0.149-0.063c-0.042-0.043-0.063-0.093-0.063-0.15v-4.606h-1.479
		c-0.058,0-0.107-0.022-0.15-0.065c-0.042-0.041-0.063-0.091-0.063-0.148v-0.285c0-0.059,0.021-0.108,0.063-0.15
		c0.043-0.042,0.093-0.063,0.15-0.063H34.432z"/>
	<path class="st1" d="M35.166,39.709c0.004-0.297,0.057-0.574,0.153-0.835c0.098-0.261,0.238-0.488,0.423-0.68
		c0.185-0.193,0.411-0.344,0.679-0.458c0.27-0.113,0.578-0.171,0.926-0.171s0.656,0.058,0.924,0.171
		c0.27,0.114,0.495,0.265,0.681,0.458c0.184,0.191,0.324,0.419,0.422,0.68s0.149,0.538,0.154,0.835c0.017,0.469,0.017,0.937,0,1.406
		c-0.011,0.294-0.064,0.572-0.161,0.833c-0.099,0.26-0.238,0.488-0.423,0.684c-0.186,0.194-0.409,0.347-0.676,0.458
		c-0.268,0.111-0.573,0.166-0.921,0.166s-0.655-0.055-0.921-0.166s-0.491-0.264-0.676-0.458c-0.185-0.195-0.324-0.424-0.422-0.684
		c-0.098-0.261-0.152-0.539-0.162-0.833C35.149,40.646,35.149,40.178,35.166,39.709z M38.776,39.747
		c-0.011-0.246-0.051-0.463-0.122-0.647s-0.17-0.339-0.296-0.459c-0.126-0.121-0.276-0.212-0.446-0.271
		c-0.172-0.062-0.359-0.092-0.565-0.092c-0.204,0-0.395,0.03-0.564,0.092c-0.171,0.06-0.32,0.15-0.447,0.271
		c-0.126,0.12-0.227,0.274-0.301,0.459c-0.073,0.185-0.113,0.401-0.118,0.647c-0.01,0.238-0.016,0.458-0.016,0.664
		c0,0.205,0.006,0.427,0.016,0.664c0.005,0.247,0.045,0.464,0.118,0.646c0.074,0.185,0.175,0.339,0.301,0.459
		c0.127,0.121,0.276,0.213,0.447,0.273c0.17,0.06,0.36,0.09,0.564,0.09c0.206,0,0.394-0.03,0.565-0.09
		c0.17-0.061,0.32-0.152,0.446-0.273c0.126-0.12,0.225-0.274,0.296-0.459c0.071-0.183,0.111-0.399,0.122-0.646
		c0.011-0.237,0.017-0.459,0.017-0.664C38.793,40.205,38.787,39.985,38.776,39.747z"/>
	<path class="st1" d="M42.807,37.646c0.257,0,0.502,0.031,0.731,0.095c0.229,0.063,0.43,0.161,0.604,0.293
		c0.175,0.132,0.313,0.3,0.415,0.506c0.103,0.205,0.154,0.452,0.154,0.741c0,0.429-0.107,0.767-0.319,1.02
		c-0.215,0.253-0.486,0.433-0.819,0.538l1.193,2.077c0.018,0.033,0.024,0.062,0.024,0.087c0,0.048-0.017,0.089-0.052,0.123
		c-0.034,0.035-0.075,0.052-0.122,0.052h-0.34c-0.105,0-0.184-0.025-0.232-0.079c-0.05-0.052-0.087-0.098-0.107-0.134l-1.146-2.016
		h-1.359v2.016c0,0.058-0.021,0.107-0.063,0.15c-0.042,0.041-0.092,0.063-0.149,0.063h-0.324c-0.059,0-0.108-0.021-0.151-0.063
		c-0.041-0.043-0.062-0.093-0.062-0.15v-5.105c0-0.059,0.021-0.108,0.062-0.15c0.043-0.042,0.093-0.063,0.151-0.063H42.807z
		 M41.431,40.237h1.337c0.379,0,0.673-0.076,0.881-0.225c0.208-0.151,0.312-0.395,0.312-0.732c0-0.337-0.104-0.575-0.312-0.714
		c-0.208-0.141-0.502-0.209-0.881-0.209h-1.337V40.237z"/>
</g>
<rect x="-1.035" y="-1.104" class="st0" width="51.341" height="51.104"/>
<g>
	<path class="st1" d="M12.298,34.656c0.223,0,0.434,0.029,0.631,0.086s0.372,0.144,0.521,0.263c0.15,0.117,0.27,0.268,0.358,0.449
		c0.089,0.184,0.133,0.398,0.133,0.648s-0.044,0.467-0.133,0.65c-0.088,0.186-0.208,0.339-0.358,0.461
		c-0.15,0.124-0.324,0.214-0.521,0.274c-0.198,0.058-0.408,0.088-0.631,0.088h-1.254v1.671c0,0.049-0.019,0.093-0.055,0.13
		c-0.037,0.035-0.08,0.054-0.13,0.054h-0.279c-0.051,0-0.094-0.019-0.13-0.054c-0.036-0.037-0.054-0.081-0.054-0.13v-4.406
		c0-0.051,0.019-0.093,0.054-0.13c0.037-0.037,0.08-0.055,0.13-0.055H12.298z M11.044,36.962h1.22c0.328,0,0.581-0.07,0.76-0.212
		c0.18-0.141,0.27-0.356,0.27-0.647s-0.089-0.502-0.27-0.634c-0.18-0.132-0.433-0.198-0.76-0.198h-1.22V36.962z"/>
	<path class="st1" d="M17.393,38.354h-2.366l-0.355,0.906c-0.013,0.036-0.039,0.074-0.075,0.113c-0.036,0.038-0.1,0.058-0.19,0.058
		h-0.252c-0.042,0-0.076-0.014-0.106-0.044c-0.029-0.029-0.044-0.064-0.044-0.106c0-0.022,0.009-0.054,0.027-0.096l1.671-4.303
		c0.022-0.05,0.057-0.101,0.103-0.15s0.114-0.075,0.205-0.075h0.409c0.091,0,0.159,0.025,0.205,0.075
		c0.046,0.05,0.08,0.101,0.103,0.15l1.664,4.303c0.018,0.042,0.027,0.073,0.027,0.096c0,0.042-0.015,0.077-0.044,0.106
		c-0.03,0.03-0.065,0.044-0.106,0.044h-0.252c-0.091,0-0.154-0.02-0.19-0.058c-0.037-0.039-0.062-0.077-0.075-0.113L17.393,38.354z
		 M15.265,37.739h1.889l-0.941-2.436L15.265,37.739z"/>
	<path class="st1" d="M20.954,34.656c0.223,0,0.433,0.027,0.631,0.082c0.197,0.056,0.372,0.139,0.521,0.252s0.27,0.26,0.358,0.437
		c0.089,0.178,0.133,0.393,0.133,0.642c0,0.368-0.092,0.661-0.276,0.881c-0.184,0.218-0.419,0.372-0.706,0.464l1.03,1.793
		c0.014,0.025,0.021,0.052,0.021,0.074c0,0.042-0.015,0.077-0.045,0.106c-0.029,0.03-0.064,0.044-0.105,0.044h-0.293
		c-0.09,0-0.158-0.022-0.201-0.068c-0.043-0.046-0.075-0.084-0.093-0.115l-0.989-1.739h-1.172v1.739c0,0.049-0.019,0.093-0.055,0.13
		c-0.037,0.035-0.08,0.054-0.129,0.054h-0.28c-0.051,0-0.094-0.019-0.129-0.054c-0.037-0.037-0.055-0.081-0.055-0.13v-4.406
		c0-0.051,0.019-0.093,0.055-0.13c0.036-0.037,0.079-0.055,0.129-0.055H20.954z M19.767,36.894h1.152
		c0.327,0,0.581-0.065,0.76-0.195c0.18-0.129,0.27-0.338,0.27-0.63c0-0.291-0.09-0.496-0.27-0.617s-0.433-0.181-0.76-0.181h-1.152
		V36.894z"/>
	<path class="st1" d="M26.497,38.817c0.051,0,0.093,0.019,0.131,0.054c0.036,0.036,0.055,0.08,0.055,0.13v0.246
		c0,0.049-0.019,0.093-0.055,0.13c-0.038,0.035-0.08,0.054-0.131,0.054h-2.754c-0.051,0-0.094-0.019-0.13-0.054
		c-0.036-0.037-0.055-0.081-0.055-0.13v-4.406c0-0.051,0.019-0.093,0.055-0.13s0.079-0.055,0.13-0.055h2.7
		c0.051,0,0.094,0.018,0.129,0.055c0.037,0.037,0.057,0.079,0.057,0.13v0.246c0,0.05-0.02,0.092-0.057,0.129
		c-0.035,0.036-0.078,0.055-0.129,0.055h-2.236v1.439h2.087c0.05,0,0.093,0.019,0.13,0.054c0.036,0.037,0.054,0.08,0.054,0.13v0.245
		c0,0.051-0.018,0.094-0.054,0.129c-0.037,0.038-0.08,0.055-0.13,0.055h-2.087v1.495H26.497z"/>
	<path class="st1" d="M30.731,39.431c-0.063,0-0.115-0.021-0.158-0.065c-0.044-0.042-0.081-0.089-0.113-0.139l-2.216-3.336v3.356
		c0,0.049-0.018,0.093-0.055,0.13c-0.037,0.035-0.079,0.054-0.13,0.054H27.78c-0.051,0-0.094-0.019-0.129-0.054
		c-0.037-0.037-0.056-0.081-0.056-0.13v-4.406c0-0.051,0.019-0.093,0.056-0.13c0.035-0.037,0.078-0.055,0.129-0.055h0.238
		c0.063,0,0.116,0.022,0.16,0.065c0.043,0.044,0.081,0.09,0.113,0.14l2.216,3.334v-3.354c0-0.051,0.018-0.093,0.057-0.13
		c0.034-0.037,0.078-0.055,0.128-0.055h0.279c0.05,0,0.093,0.018,0.128,0.055c0.037,0.037,0.057,0.079,0.057,0.13v4.406
		c0,0.049-0.02,0.093-0.057,0.13c-0.035,0.035-0.078,0.054-0.128,0.054H30.731z"/>
	<path class="st1" d="M35.282,34.656c0.05,0,0.094,0.018,0.131,0.055c0.034,0.037,0.054,0.079,0.054,0.13v0.246
		c0,0.05-0.02,0.092-0.054,0.129c-0.037,0.036-0.081,0.055-0.131,0.055h-1.276v3.977c0,0.049-0.017,0.093-0.054,0.13
		c-0.037,0.035-0.079,0.054-0.129,0.054h-0.281c-0.05,0-0.093-0.019-0.128-0.054c-0.037-0.037-0.055-0.081-0.055-0.13v-3.977h-1.275
		c-0.051,0-0.094-0.019-0.131-0.055c-0.037-0.037-0.055-0.079-0.055-0.129v-0.246c0-0.051,0.018-0.093,0.055-0.13
		s0.08-0.055,0.131-0.055H35.282z"/>
	<path class="st1" d="M38.023,37.664v1.357c0,0.05-0.018,0.094-0.055,0.13s-0.081,0.055-0.129,0.055h-0.255
		c-0.048,0-0.091-0.019-0.128-0.055s-0.055-0.08-0.055-0.13v-1.357h-1.337c-0.05,0-0.094-0.019-0.13-0.055
		c-0.035-0.035-0.055-0.08-0.055-0.129v-0.213c0-0.049,0.02-0.092,0.055-0.129c0.036-0.036,0.08-0.055,0.13-0.055h1.337v-1.337
		c0-0.05,0.018-0.091,0.055-0.13c0.037-0.035,0.08-0.054,0.128-0.054h0.255c0.048,0,0.092,0.019,0.129,0.054
		c0.037,0.039,0.055,0.08,0.055,0.13v1.337h1.343c0.05,0,0.094,0.019,0.131,0.055c0.035,0.037,0.055,0.08,0.055,0.129v0.213
		c0,0.049-0.02,0.094-0.055,0.129c-0.037,0.036-0.081,0.055-0.131,0.055H38.023z"/>
	<path class="st1" d="M5.694,43.762l2.325,2.215c0.027,0.028,0.046,0.053,0.055,0.073c0.009,0.021,0.013,0.038,0.013,0.051
		c0,0.041-0.015,0.076-0.044,0.105c-0.03,0.029-0.064,0.045-0.106,0.045H7.515c-0.064,0-0.116-0.013-0.157-0.038
		s-0.071-0.047-0.089-0.065l-1.93-1.841v1.761c0,0.049-0.019,0.092-0.054,0.129c-0.037,0.036-0.08,0.055-0.129,0.055h-0.28
		c-0.051,0-0.094-0.019-0.13-0.055c-0.036-0.037-0.054-0.08-0.054-0.129V41.66c0-0.05,0.018-0.093,0.054-0.129
		c0.036-0.037,0.079-0.055,0.13-0.055h0.28c0.049,0,0.092,0.018,0.129,0.055c0.036,0.036,0.054,0.079,0.054,0.129v1.59l1.821-1.671
		c0.018-0.018,0.048-0.039,0.089-0.065c0.041-0.024,0.093-0.037,0.157-0.037h0.396c0.041,0,0.076,0.015,0.105,0.045
		c0.03,0.029,0.045,0.063,0.045,0.105c0,0.014-0.005,0.031-0.014,0.05c-0.009,0.021-0.027,0.046-0.055,0.073L5.694,43.762z"/>
	<path class="st1" d="M8.96,46.251c-0.05,0-0.093-0.019-0.129-0.055c-0.037-0.037-0.054-0.08-0.054-0.129V41.66
		c0-0.05,0.018-0.093,0.054-0.129c0.037-0.037,0.08-0.055,0.129-0.055h0.28c0.05,0,0.093,0.018,0.13,0.055
		c0.036,0.036,0.054,0.079,0.054,0.129v4.407c0,0.049-0.018,0.092-0.054,0.129c-0.037,0.036-0.08,0.055-0.13,0.055H8.96z"/>
	<path class="st1" d="M14.301,43.325c0.004,0.204,0.006,0.384,0.006,0.538c0,0.155-0.002,0.335-0.006,0.538
		c-0.005,0.287-0.055,0.546-0.15,0.775c-0.095,0.229-0.227,0.423-0.395,0.582c-0.168,0.16-0.368,0.281-0.601,0.366
		c-0.231,0.083-0.489,0.126-0.771,0.126h-1.603c-0.05,0-0.093-0.019-0.129-0.055c-0.037-0.037-0.054-0.08-0.054-0.129V41.66
		c0-0.05,0.018-0.093,0.054-0.129c0.037-0.037,0.08-0.055,0.129-0.055h1.562c0.282,0,0.542,0.042,0.781,0.127
		c0.238,0.083,0.444,0.205,0.617,0.364c0.173,0.158,0.308,0.354,0.407,0.582C14.245,42.78,14.296,43.038,14.301,43.325z
		 M13.653,43.358c-0.005-0.163-0.031-0.321-0.079-0.475c-0.047-0.151-0.124-0.286-0.228-0.405c-0.105-0.117-0.241-0.212-0.41-0.281
		c-0.168-0.072-0.375-0.106-0.62-0.106h-1.071v3.546h1.105c0.246,0,0.451-0.034,0.617-0.105c0.166-0.071,0.299-0.164,0.399-0.283
		c0.1-0.118,0.171-0.253,0.215-0.405c0.043-0.153,0.066-0.312,0.071-0.475c0-0.1,0.001-0.188,0.004-0.27
		c0.001-0.079,0.003-0.156,0.003-0.231s-0.001-0.151-0.003-0.232C13.654,43.556,13.653,43.463,13.653,43.358z"/>
	<path class="st1" d="M17.192,41.477c0.223,0,0.433,0.028,0.631,0.086c0.198,0.057,0.372,0.144,0.522,0.263
		c0.15,0.117,0.27,0.268,0.357,0.449c0.089,0.183,0.134,0.398,0.134,0.647c0,0.251-0.044,0.467-0.134,0.651
		c-0.088,0.184-0.207,0.338-0.357,0.46c-0.15,0.124-0.324,0.215-0.522,0.273c-0.198,0.059-0.408,0.089-0.631,0.089h-1.254v1.672
		c0,0.049-0.018,0.092-0.055,0.129c-0.037,0.036-0.08,0.055-0.129,0.055h-0.28c-0.051,0-0.094-0.019-0.129-0.055
		c-0.037-0.037-0.055-0.08-0.055-0.129V41.66c0-0.05,0.018-0.093,0.055-0.129c0.036-0.037,0.079-0.055,0.129-0.055H17.192z
		 M15.938,43.782h1.22c0.328,0,0.581-0.071,0.761-0.213c0.18-0.14,0.27-0.355,0.27-0.647c0-0.29-0.09-0.502-0.27-0.634
		c-0.18-0.131-0.433-0.197-0.761-0.197h-1.22V43.782z"/>
	<path class="st1" d="M21.489,41.477c0.223,0,0.433,0.027,0.631,0.081c0.197,0.055,0.372,0.14,0.521,0.253
		c0.15,0.113,0.27,0.259,0.359,0.437c0.088,0.178,0.132,0.392,0.132,0.642c0,0.367-0.092,0.66-0.276,0.879s-0.42,0.374-0.706,0.465
		l1.03,1.793c0.014,0.026,0.021,0.053,0.021,0.075c0,0.041-0.015,0.076-0.044,0.105c-0.03,0.029-0.065,0.045-0.106,0.045h-0.293
		c-0.091,0-0.158-0.022-0.201-0.069c-0.044-0.045-0.074-0.083-0.093-0.114l-0.988-1.74h-1.173v1.74c0,0.049-0.018,0.092-0.055,0.129
		c-0.037,0.036-0.08,0.055-0.129,0.055h-0.28c-0.05,0-0.093-0.019-0.129-0.055c-0.037-0.037-0.055-0.08-0.055-0.129V41.66
		c0-0.05,0.018-0.093,0.055-0.129c0.036-0.037,0.079-0.055,0.129-0.055H21.489z M20.302,43.714h1.152
		c0.328,0,0.582-0.065,0.761-0.195c0.18-0.13,0.269-0.339,0.269-0.63s-0.089-0.497-0.269-0.619
		c-0.179-0.119-0.433-0.179-0.761-0.179h-1.152V43.714z"/>
	<path class="st1" d="M27.033,45.637c0.05,0,0.093,0.019,0.13,0.055c0.036,0.036,0.054,0.079,0.054,0.13v0.246
		c0,0.049-0.018,0.092-0.054,0.129c-0.037,0.036-0.08,0.055-0.13,0.055h-2.755c-0.05,0-0.093-0.019-0.13-0.055
		c-0.036-0.037-0.054-0.08-0.054-0.129V41.66c0-0.05,0.018-0.093,0.054-0.129c0.037-0.037,0.08-0.055,0.13-0.055h2.7
		c0.05,0,0.094,0.018,0.13,0.055c0.036,0.036,0.055,0.079,0.055,0.129v0.246c0,0.05-0.019,0.093-0.055,0.13
		c-0.036,0.036-0.08,0.055-0.13,0.055h-2.237v1.438h2.087c0.049,0,0.093,0.019,0.129,0.055c0.037,0.037,0.055,0.079,0.055,0.13
		v0.244c0,0.052-0.018,0.094-0.055,0.13c-0.036,0.038-0.08,0.055-0.129,0.055h-2.087v1.494H27.033z"/>
	<path class="st1" d="M31.268,46.251c-0.063,0-0.115-0.021-0.159-0.065c-0.044-0.042-0.08-0.09-0.113-0.14l-2.216-3.335v3.356
		c0,0.049-0.019,0.092-0.055,0.129c-0.038,0.036-0.079,0.055-0.129,0.055h-0.28c-0.051,0-0.094-0.019-0.129-0.055
		c-0.036-0.037-0.055-0.08-0.055-0.129V41.66c0-0.05,0.019-0.093,0.055-0.129c0.035-0.037,0.078-0.055,0.129-0.055h0.238
		c0.063,0,0.117,0.021,0.16,0.065c0.044,0.043,0.081,0.089,0.112,0.139l2.217,3.335V41.66c0-0.05,0.018-0.093,0.055-0.129
		c0.037-0.037,0.08-0.055,0.131-0.055h0.278c0.05,0,0.094,0.018,0.129,0.055c0.036,0.036,0.056,0.079,0.056,0.129v4.407
		c0,0.049-0.02,0.092-0.056,0.129c-0.035,0.036-0.079,0.055-0.129,0.055H31.268z"/>
	<path class="st1" d="M35.803,45.637c0.052,0,0.093,0.019,0.13,0.055s0.055,0.079,0.055,0.13v0.246c0,0.049-0.018,0.092-0.055,0.129
		c-0.037,0.036-0.078,0.055-0.13,0.055h-2.755c-0.05,0-0.093-0.019-0.13-0.055c-0.035-0.037-0.055-0.08-0.055-0.129V41.66
		c0-0.05,0.02-0.093,0.055-0.129c0.037-0.037,0.08-0.055,0.13-0.055h2.7c0.05,0,0.094,0.018,0.131,0.055
		c0.034,0.036,0.054,0.079,0.054,0.129v0.246c0,0.05-0.02,0.093-0.054,0.13c-0.037,0.036-0.081,0.055-0.131,0.055h-2.236v1.438H35.6
		c0.051,0,0.092,0.019,0.129,0.055c0.037,0.037,0.055,0.079,0.055,0.13v0.244c0,0.052-0.018,0.094-0.055,0.13
		c-0.037,0.038-0.078,0.055-0.129,0.055h-2.088v1.494H35.803z"/>
	<path class="st1" d="M40.344,41.477c0.053,0,0.094,0.018,0.131,0.055c0.037,0.036,0.055,0.079,0.055,0.129v2.729
		c0,0.281-0.035,0.54-0.104,0.773c-0.072,0.235-0.181,0.438-0.329,0.612c-0.146,0.172-0.338,0.306-0.57,0.401
		c-0.23,0.096-0.508,0.143-0.832,0.143c-0.326,0-0.605-0.047-0.838-0.143c-0.23-0.096-0.423-0.229-0.57-0.401
		c-0.146-0.175-0.255-0.377-0.322-0.612c-0.069-0.233-0.103-0.492-0.103-0.773V41.66c0-0.05,0.018-0.093,0.055-0.129
		c0.035-0.037,0.078-0.055,0.128-0.055h0.281c0.05,0,0.094,0.018,0.128,0.055c0.037,0.036,0.055,0.079,0.055,0.129v2.762
		c0,0.446,0.106,0.777,0.313,0.993c0.212,0.216,0.501,0.323,0.873,0.323c0.375,0,0.666-0.107,0.878-0.323
		c0.211-0.216,0.317-0.547,0.317-0.993V41.66c0-0.05,0.018-0.093,0.055-0.129c0.035-0.037,0.078-0.055,0.128-0.055H40.344z"/>
	<path class="st1" d="M43.496,41.477c0.225,0,0.434,0.027,0.632,0.081c0.198,0.055,0.372,0.14,0.521,0.253
		c0.15,0.113,0.27,0.259,0.359,0.437c0.087,0.178,0.133,0.392,0.133,0.642c0,0.367-0.092,0.66-0.277,0.879
		c-0.183,0.219-0.42,0.374-0.705,0.465l1.03,1.793c0.013,0.026,0.02,0.053,0.02,0.075c0,0.041-0.016,0.076-0.044,0.105
		c-0.03,0.029-0.065,0.045-0.106,0.045h-0.292c-0.092,0-0.159-0.022-0.202-0.069c-0.044-0.045-0.074-0.083-0.092-0.114l-0.988-1.74
		H42.31v1.74c0,0.049-0.018,0.092-0.054,0.129c-0.037,0.036-0.081,0.055-0.129,0.055h-0.281c-0.05,0-0.093-0.019-0.128-0.055
		c-0.037-0.037-0.055-0.08-0.055-0.129V41.66c0-0.05,0.018-0.093,0.055-0.129c0.035-0.037,0.078-0.055,0.128-0.055H43.496z
		 M42.31,43.714h1.152c0.328,0,0.581-0.065,0.76-0.195c0.181-0.13,0.27-0.339,0.27-0.63s-0.089-0.497-0.27-0.619
		c-0.179-0.119-0.432-0.179-0.76-0.179H42.31V43.714z"/>
</g>
<g>
	<path class="st1" d="M13.086,8.617c1.084,0,2.059,0.124,2.923,0.369c0.864,0.246,1.601,0.619,2.212,1.118
		c0.609,0.5,1.08,1.123,1.411,1.868c0.331,0.746,0.495,1.61,0.495,2.593c0,1-0.165,1.873-0.495,2.619
		c-0.331,0.746-0.801,1.364-1.411,1.855c-0.611,0.492-1.348,0.864-2.212,1.119c-0.864,0.254-1.839,0.381-2.923,0.381H9.832v5.186
		c0,0.188-0.068,0.348-0.204,0.482c-0.135,0.137-0.296,0.204-0.483,0.204h-3.33c-0.187,0-0.348-0.067-0.482-0.204
		c-0.137-0.135-0.204-0.295-0.204-0.482V9.304c0-0.187,0.067-0.348,0.204-0.483c0.135-0.135,0.295-0.204,0.482-0.204H13.086z
		 M9.832,16.574h3.126c0.712,0,1.3-0.156,1.767-0.471c0.465-0.313,0.699-0.826,0.699-1.538s-0.234-1.224-0.699-1.538
		c-0.466-0.313-1.055-0.471-1.767-0.471H9.832V16.574z"/>
	<path class="st1" d="M26.913,31.012c0,0.187-0.067,0.348-0.203,0.483c-0.136,0.135-0.297,0.202-0.482,0.202h-3.203
		c-0.187,0-0.347-0.067-0.482-0.202c-0.136-0.136-0.204-0.297-0.204-0.483V4.322c0-0.187,0.068-0.348,0.204-0.483
		c0.135-0.135,0.296-0.203,0.482-0.203h3.203c0.186,0,0.347,0.068,0.482,0.203c0.136,0.136,0.203,0.297,0.203,0.483V31.012z"/>
	<path class="st1" d="M45.316,25.573c0.053,0.067,0.076,0.16,0.076,0.278c0,0.153-0.055,0.284-0.165,0.395
		c-0.111,0.11-0.242,0.165-0.395,0.165h-4.041c-0.237,0-0.431-0.051-0.583-0.152c-0.154-0.102-0.307-0.246-0.459-0.433l-4.806-6.049
		v5.948c0,0.188-0.067,0.348-0.202,0.482c-0.135,0.137-0.296,0.204-0.483,0.204h-3.331c-0.186,0-0.347-0.067-0.481-0.204
		c-0.137-0.135-0.202-0.295-0.202-0.482V9.304c0-0.187,0.065-0.348,0.202-0.483c0.135-0.135,0.296-0.204,0.481-0.204h3.331
		c0.188,0,0.349,0.068,0.483,0.204c0.135,0.136,0.202,0.296,0.202,0.483v5.363l4.475-5.491c0.085-0.102,0.195-0.22,0.331-0.356
		c0.137-0.135,0.363-0.204,0.686-0.204h3.967c0.152,0,0.283,0.055,0.394,0.166c0.109,0.11,0.166,0.242,0.166,0.394
		c0,0.119-0.026,0.212-0.076,0.28l-6.279,7.676L45.316,25.573z"/>
</g>
</svg>
