<?xml version="1.0" encoding="utf-8"?>
<!-- Generator: Adobe Illustrator 16.0.0, SVG Export Plug-In . SVG Version: 6.00 Build 0)  -->
<!DOCTYPE svg PUBLIC "-//W3C//DTD SVG 1.1//EN" "http://www.w3.org/Graphics/SVG/1.1/DTD/svg11.dtd">
<svg version="1.1" id="Layer_1" xmlns="http://www.w3.org/2000/svg" xmlns:xlink="http://www.w3.org/1999/xlink" x="0px" y="0px"
	 width="34.667px" height="40px" viewBox="0 0 34.667 40" enable-background="new 0 0 34.667 40" xml:space="preserve">
<polygon fill="#FFFFFF" stroke="#0CB5EC" stroke-miterlimit="10" points="31.132,28.602 17.131,36.445 3.34,28.24 3.549,12.195 
	17.548,4.352 31.339,12.557 "/>
<g id="V2_8_">
	<g id="Admin_4_" transform="translate(-1153.000000, -1067.000000)">
		<g id="gotowebniar" transform="translate(1153.000000, 1067.000000)">
			<g id="Page-1_12_" transform="translate(0.000000, 0.500000)">
				<path id="Stroke-1_15_" fill="none" stroke="#0CB5EC" stroke-linecap="round" stroke-linejoin="round" d="M24.901,26.101
					c0,2.299-1.9,4.1-4.1,4.1c-2.202,0-4.102-1.9-4.102-4.1c0-2.301,1.899-4.102,4.102-4.102C23,21.999,24.901,23.8,24.901,26.101z"
					/>
				<path id="Stroke-3_13_" fill="none" stroke="#0CB5EC" stroke-linecap="round" stroke-linejoin="round" d="M16.2,22.7H9.1
					c-0.4,0-0.8-0.301-0.8-0.801V13.6c0-0.4,0.3-0.8,0.8-0.8h9.801c0.4,0,0.799,0.3,0.799,0.8v6.401"/>
				<polygon id="Stroke-5_10_" fill="none" stroke="#0CB5EC" stroke-linejoin="round" points="25.7,21.899 21.1,19.601 21.1,15.9 
					25.7,13.6 				"/>
				<polygon id="Stroke-7_8_" fill="none" stroke="#0CB5EC" stroke-linecap="round" stroke-linejoin="round" points="19.6,24.2 
					19.6,27.899 23,26.101 				"/>
			</g>
		</g>
	</g>
</g>
</svg>
