<?xml version="1.0" encoding="utf-8"?>
<!-- Generator: Adobe Illustrator 16.0.0, SVG Export Plug-In . SVG Version: 6.00 Build 0)  -->
<!DOCTYPE svg PUBLIC "-//W3C//DTD SVG 1.1//EN" "http://www.w3.org/Graphics/SVG/1.1/DTD/svg11.dtd">
<svg version="1.1" xmlns="http://www.w3.org/2000/svg" xmlns:xlink="http://www.w3.org/1999/xlink" x="0px" y="0px" width="104px"
	 height="95px" viewBox="0 0 104 95" enable-background="new 0 0 104 95" xml:space="preserve">
<g id="Layer_4">
</g>
<g id="Blue">
	<circle fill="#EEF0F1" cx="52" cy="47.5" r="43.114"/>
	<circle fill="#BB2839" cx="55.5" cy="48.5" r="26.5"/>
	<circle fill="none" stroke="#0AB6EA" stroke-miterlimit="10" cx="52" cy="46.75" r="26.5"/>
	<path id="XMLID_4682_" fill="#FFE336" d="M49.02,31.786c0,0-2.315,1.918-1.633,9.301c0.683,7.381,1.127,13.507,1.316,13.896
		c0.188,0.391,1.778,2.792,4.304,1.346C55.532,54.884,56,46.853,56,46.853s0.989-9.749,0.679-12.306
		c-0.312-2.556-2.449-4.023-4.078-3.864C50.972,30.841,49.02,31.786,49.02,31.786z"/>
	<circle id="XMLID_4681_" fill="#BB2839" cx="52" cy="61.173" r="2.042"/>
	<g id="XMLID_908_">
		<g id="XMLID_4679_">
			<g>
				<path fill="#0AB6EA" d="M49.199,31.081c-2.764,1.475-2.477,6.985-2.404,9.595c0.134,4.829,0.864,9.678,1.767,14.417
					c0.121,0.631,1.084,0.363,0.965-0.267c-0.722-3.789-1.272-7.606-1.577-11.453c-0.13-1.644-0.22-3.296-0.149-4.945
					c0.066-1.571,0.161-5.553,1.904-6.482C50.271,31.642,49.768,30.778,49.199,31.081L49.199,31.081z"/>
			</g>
		</g>
		<g id="XMLID_4677_">
			<g>
				<path fill="#0AB6EA" d="M48.753,55.063c0.288,1.5,1.799,2.462,3.293,2.271c1.696-0.216,2.811-1.742,3.212-3.293
					c0.161-0.623-0.803-0.89-0.964-0.266c-0.268,1.033-0.873,2.085-1.938,2.45c-1.132,0.388-2.406-0.218-2.639-1.429
					C49.595,54.167,48.632,54.434,48.753,55.063L48.753,55.063z"/>
			</g>
		</g>
		<g id="XMLID_4675_">
			<g>
				<path fill="#0AB6EA" d="M49.558,32.026c1.569-1.473,5.278-1.341,6.061,0.89c0.211,0.604,1.178,0.344,0.964-0.266
					c-1.048-2.991-5.585-3.346-7.731-1.331C48.38,31.76,49.089,32.466,49.558,32.026L49.558,32.026z"/>
			</g>
		</g>
		<g id="XMLID_4673_">
			<g>
				<path fill="#0AB6EA" d="M55.294,54.061c0.748-3.693,1.369-7.414,1.686-11.172c0.285-3.392,0.772-7.286-0.567-10.512
					c-0.243-0.586-1.212-0.329-0.964,0.266c1.294,3.117,0.809,6.954,0.531,10.246c-0.31,3.669-0.919,7.3-1.65,10.906
					C54.202,54.423,55.166,54.691,55.294,54.061L55.294,54.061z"/>
			</g>
		</g>
		<g id="XMLID_4472_">
			<path fill="#FFE336" d="M50.442,59.789c-0.545,0.123-0.794,0.747-0.916,1.292c-0.096,0.43-0.166,0.884-0.036,1.305
				c0.182,0.592,0.747,1.015,1.354,1.145c1.021,0.218,2.155-0.385,2.546-1.353c0.359-0.89,0.046-2.025-0.765-2.538
				c-0.81-0.514-2.374-0.261-2.861,0.565"/>
			<g>
				<path fill="#0AB6EA" d="M50.31,59.307c-1.417,0.51-1.855,2.871-0.876,3.964c1.071,1.194,3.002,0.963,3.993-0.206
					c0.962-1.135,0.754-3.057-0.549-3.856c-1.115-0.685-2.813-0.322-3.546,0.744c-0.365,0.532,0.501,1.032,0.863,0.505
					c0.378-0.551,1.317-0.72,1.92-0.504c0.841,0.302,1.135,1.398,0.755,2.16c-0.359,0.724-1.322,1.152-2.094,0.881
					c-0.609-0.215-0.886-0.69-0.839-1.323c0.033-0.442,0.155-1.226,0.638-1.4C51.176,60.055,50.917,59.088,50.31,59.307
					L50.31,59.307z"/>
			</g>
		</g>
	</g>
</g>
</svg>
