<?xml version="1.0" encoding="utf-8"?>
<!-- Generator: Adobe Illustrator 16.0.0, SVG Export Plug-In . SVG Version: 6.00 Build 0)  -->
<!DOCTYPE svg PUBLIC "-//W3C//DTD SVG 1.1//EN" "http://www.w3.org/Graphics/SVG/1.1/DTD/svg11.dtd">
<svg version="1.1" xmlns="http://www.w3.org/2000/svg" xmlns:xlink="http://www.w3.org/1999/xlink" x="0px" y="0px" width="104px"
	 height="95px" viewBox="0 0 104 95" enable-background="new 0 0 104 95" xml:space="preserve">
<g id="Layer_4">
</g>
<g id="Blue">
	<circle fill="#EEF0F1" cx="53" cy="47.5" r="43.114"/>
	<g>
		<g id="XMLID_4670_">
			<path fill="#D4DADC" d="M44.116,24.887c-3.995,0.131-7.939,1.521-11.134,3.924c-3.195,2.402-5.247,5.013-6.482,8.814l0.04-0.139
				c-2.555,6.398-1.759,14.029,2.156,19.698l-0.007-0.026c3.099,4.268,7.661,7.169,12.853,8.1l0.017,0.008
				c0.039,1.324,0.02,2.271-0.312,3.554c-0.332,1.282-1.063,2.611-2.105,3.427l0.003,0.003c4.239,0.595,8.078-2.486,9.81-5.931
				l0.007-0.014c3.948,0.626,8.152-0.623,11.118-3.302c0,0,4.421-3.504,6.421-7.504s2-12,2-14s-0.966-3.333-0.966-3.333
				c0.069,0.108,0.14,0.216,0.21,0.324c-0.481-1.315-0.965-2.636-1.634-3.866c-0.668-1.23-1.533-2.377-2.663-3.205"/>
		</g>
		<g id="XMLID_446_">
			<path fill="#EEF0F1" d="M68.075,38.533c4.661-0.947,9.314,1.111,11.428,2.7c2.114,1.59,3.472,3.317,4.289,5.833l-0.026-0.092
				c1.69,4.233,1.164,9.283-1.427,13.034l0.005-0.018c-2.051,2.824-5.069,4.744-8.505,5.359l-0.011,0.005
				c-0.025,0.876-0.014,1.503,0.206,2.352c0.22,0.849,0.703,1.728,1.394,2.268l-0.002,0.002c-2.805,0.394-5.346-1.645-6.49-3.924
				l-0.006-0.009c-2.611,0.415-5.394-0.412-7.355-2.185c0,0-2.335-2.708-4.249-4.965c-1.703-2.008-2.141-7.312-2.141-8.635
				c0-1.324,1.384-3.059,1.384-3.059c-0.046,0.072-0.536,0.22-0.582,0.292c0.318-0.87,1.154-1.596,1.597-2.41
				c0.442-0.814,4.156-4.581,5.759-5.091"/>
		</g>
		<g id="XMLID_536_">
			<path fill="#D4DADC" d="M43.916,24.836c9.667-0.744,14.434,1.775,19.55,6.564"/>
		</g>
	</g>
	<circle id="XMLID_531_" fill="#0AB6EA" cx="62.772" cy="52.67" r="1.253"/>
	<circle id="XMLID_530_" fill="#0AB6EA" cx="70.067" cy="52.302" r="1.326"/>
	<circle id="XMLID_529_" fill="#0AB6EA" cx="76.552" cy="52.375" r="1.326"/>
	<path id="XMLID_528_" d="M36.612,37.785c-0.19,0.225-0.368,5.527,0.147,6.042c0.516,0.516,2.284,0.369,2.505-2.063
		c0.222-2.432,0.295-4.348-0.589-4.568C37.791,36.975,37.423,36.827,36.612,37.785z"/>
	<path id="XMLID_527_" d="M54.15,36.017c0,0-2.284-0.589-2.432,3.095c-0.147,3.684,0.884,5.526,1.621,4.937
		c0.736-0.589,1.916-2.948,1.916-4.864C55.256,37.27,54.15,36.017,54.15,36.017z"/>
	<path id="XMLID_525_" fill="#FFE336" d="M35.434,51.639l19.527-1.4l0.221,3.906c0,0-3.905,2.8-6.927,3.242
		c-3.021,0.442-7.812,0.147-10.611-2.284C34.844,52.67,35.434,51.639,35.434,51.639z"/>
	<g id="XMLID_524_">
		<g>
			<path fill="#0AB6EA" d="M66.552,65.16c-6.784-1.328-11.879-7.709-10.794-14.707c1.267-8.159,8.69-11.897,16.351-11.612
				c0.644,0.023,0.644-0.977,0-1c-8.141-0.302-16.027,3.835-17.35,12.477c-1.142,7.455,4.268,14.386,11.527,15.807
				C66.914,66.248,67.184,65.284,66.552,65.16L66.552,65.16z"/>
		</g>
	</g>
	<g id="XMLID_523_">
		<g>
			<path fill="#0AB6EA" d="M77.317,64.942c6.68-2.097,8.874-9.701,7.681-15.994c-1.42-7.478-8.396-11.867-15.868-11.047
				c-0.633,0.069-0.64,1.07,0,1c6.7-0.735,13.266,2.924,14.774,9.679c1.313,5.879-0.457,13.39-6.854,15.398
				C76.439,64.17,76.701,65.136,77.317,64.942L77.317,64.942z"/>
		</g>
	</g>
	<g id="XMLID_522_">
		<g>
			<path fill="#0AB6EA" d="M66.068,66.11c1.232,0.25,2.472,0.361,3.73,0.32c0.642-0.021,0.645-1.021,0-1
				c-1.17,0.038-2.318-0.052-3.465-0.285C65.705,65.019,65.437,65.982,66.068,66.11L66.068,66.11z"/>
		</g>
	</g>
	<g id="XMLID_521_">
		<g>
			<path fill="#0AB6EA" d="M69.468,66.187c1.187,4.204,5.366,6.459,9.537,5.141c0.611-0.193,0.351-1.159-0.266-0.964
				c-3.664,1.159-7.264-0.742-8.308-4.442C70.258,65.303,69.293,65.565,69.468,66.187L69.468,66.187z"/>
		</g>
	</g>
	<g id="XMLID_519_">
		<g>
			<path fill="#0AB6EA" d="M76.378,64.571c-0.336,1.297-0.443,2.994,0.112,4.24c0.183,0.408,0.441,0.768,0.789,1.049
				c0.179,0.145,0.361,0.26,0.576,0.349c0.113,0.051,0.231,0.088,0.354,0.111c0.268,0.103,0.495,0.031,0.683-0.216
				c-0.624-0.157-0.891,0.807-0.266,0.964c0.896,0.226,1.461-0.728,0.768-1.382c-0.641-0.605-1.438-0.236-1.947-1.208
				c-0.518-0.988-0.377-2.59-0.105-3.641C77.504,64.214,76.54,63.948,76.378,64.571L76.378,64.571z"/>
		</g>
	</g>
	<g id="XMLID_518_">
		<g>
			<path fill="#0AB6EA" d="M61.269,51.272c-0.9,0.721-0.536,2.091,0.272,2.719c0.928,0.719,2.283,0.625,2.992-0.349
				c0.677-0.929,0.433-2.214-0.586-2.778c-1.183-0.654-2.165,0.224-2.855,1.119c-0.394,0.509,0.475,1.008,0.863,0.505
				c0.307-0.398,0.748-0.974,1.323-0.824c0.622,0.162,0.811,0.867,0.463,1.367c-0.79,1.137-2.694-0.308-1.766-1.052
				C62.478,51.578,61.767,50.874,61.269,51.272L61.269,51.272z"/>
		</g>
	</g>
	<g id="XMLID_517_">
		<g>
			<path fill="#0AB6EA" d="M69.498,50.821c-1.214-0.111-1.684,1.285-1.324,2.249c0.375,1.001,1.571,1.514,2.513,0.941
				c0.863-0.524,1.268-1.736,0.745-2.631c-0.513-0.876-1.74-1.066-2.431-0.292c-0.427,0.479,0.278,1.189,0.707,0.708
				c0.264-0.296,0.654-0.251,0.86,0.089c0.225,0.374,0.055,0.853-0.235,1.137c-1.083,1.061-1.724-1.283-0.835-1.201
				C70.139,51.88,70.135,50.879,69.498,50.821L69.498,50.821z"/>
		</g>
	</g>
	<g id="XMLID_516_">
		<g>
			<path fill="#0AB6EA" d="M77.349,50.976c-0.913-0.547-2.104-0.087-2.629,0.792c-0.573,0.96-0.2,2.254,0.878,2.641
				c1.025,0.367,2.094-0.201,2.582-1.129c0.582-1.107,0.047-2.043-1.072-2.419c-0.611-0.206-0.873,0.76-0.266,0.964
				c0.609,0.205,0.728,0.64,0.346,1.169c-0.271,0.375-0.713,0.625-1.18,0.498c-1.238-0.338-0.164-2.252,0.836-1.652
				C77.397,52.171,77.9,51.307,77.349,50.976L77.349,50.976z"/>
		</g>
	</g>
	<g>
		<g id="XMLID_515_">
			<g>
				<path fill="#0AB6EA" d="M48.961,66.807c4.216,0.549,8.247-0.693,11.472-3.449c0.49-0.418-0.22-1.123-0.707-0.707
					c-3.039,2.597-6.81,3.671-10.765,3.156C48.325,65.724,48.331,66.725,48.961,66.807L48.961,66.807z"/>
			</g>
		</g>
		<g id="XMLID_513_">
			<g>
				<path fill="#0AB6EA" d="M41.11,65.366c0.044,2.36-0.366,4.822-2.253,6.431c-0.49,0.418,0.22,1.123,0.707,0.707
					c2.075-1.769,2.594-4.531,2.546-7.138C42.099,64.723,41.099,64.721,41.11,65.366L41.11,65.366z"/>
			</g>
		</g>
		<g id="XMLID_512_">
			<g>
				<path fill="#0AB6EA" d="M39.156,72.708c4.389,0.455,8.05-2.297,10.041-6.047c0.302-0.568-0.561-1.074-0.863-0.504
					c-1.838,3.461-5.113,5.973-9.178,5.552C38.517,71.641,38.521,72.642,39.156,72.708L39.156,72.708z"/>
			</g>
		</g>
		<g id="XMLID_511_">
			<g>
				<path fill="#0AB6EA" d="M26.059,37.354c-2.521,6.703-1.676,14.134,2.272,20.106c0.354,0.534,1.22,0.034,0.864-0.505
					c-3.818-5.773-4.607-12.86-2.173-19.335C27.249,37.016,26.283,36.755,26.059,37.354L26.059,37.354z"/>
			</g>
		</g>
		<g id="XMLID_510_">
			<g>
				<path fill="#0AB6EA" d="M28.165,57.289c3.285,4.364,7.76,7.352,13.141,8.424c0.629,0.125,0.897-0.838,0.267-0.964
					c-5.109-1.018-9.416-3.809-12.544-7.964C28.646,56.277,27.777,56.774,28.165,57.289L28.165,57.289z"/>
			</g>
		</g>
		<g id="XMLID_509_">
			<g>
				<path fill="#0AB6EA" d="M26.604,38.551c2.659-7.637,9.436-12.717,17.513-13.165c0.64-0.035,0.644-1.035,0-1
					c-8.541,0.473-15.664,5.822-18.477,13.899C25.428,38.895,26.393,39.156,26.604,38.551L26.604,38.551z"/>
			</g>
		</g>
		<g id="XMLID_507_">
			<g>
				<path fill="#0AB6EA" d="M43.916,25.336c7.59-0.514,13.59,1.237,19.196,6.417c0.472,0.437,1.181-0.269,0.707-0.707
					c-2.388-2.207-4.962-4.187-8.015-5.38c-3.783-1.479-7.885-1.602-11.889-1.331C43.277,24.38,43.272,25.38,43.916,25.336
					L43.916,25.336z"/>
			</g>
		</g>
		<g id="XMLID_506_">
			<g>
				<path fill="#0AB6EA" d="M63.094,31.773c2.223,1.742,3.223,4.273,4.168,6.851c0.305-0.128,0.609-0.257,0.914-0.385
					c-0.07-0.108-0.141-0.216-0.21-0.324c-0.35-0.538-1.216-0.038-0.864,0.505c0.07,0.108,0.141,0.216,0.211,0.324
					c0.292,0.45,1.119,0.173,0.914-0.385c-0.998-2.719-2.078-5.453-4.426-7.292C63.3,30.674,62.587,31.376,63.094,31.773
					L63.094,31.773z"/>
			</g>
		</g>
	</g>
	<g id="XMLID_505_">
		<g>
			<path fill="#0AB6EA" d="M34.9,52.391c4.268,7.246,14.279,7.333,20.337,2.297c0.495-0.412-0.216-1.116-0.707-0.707
				c-5.567,4.627-14.845,4.563-18.767-2.095C35.437,51.332,34.572,51.834,34.9,52.391L34.9,52.391z"/>
		</g>
	</g>
	<g id="XMLID_504_">
		<g>
			<path fill="#0AB6EA" d="M35.203,52.059c6.646-0.284,13.285-0.662,19.92-1.135c0.639-0.045,0.644-1.046,0-1
				c-6.635,0.474-13.274,0.852-19.92,1.135C34.563,51.086,34.559,52.086,35.203,52.059L35.203,52.059z"/>
		</g>
	</g>
	<g id="XMLID_503_">
		<g>
			<path d="M36.099,37.627c-0.405,1.91-0.737,5.036,0.507,6.742c1.169,1.603,2.604-0.215,2.993-1.419
				c0.528-1.638,1.033-4.852-0.44-6.182c-1.446-1.306-2.823,0.112-3.096,1.601c-0.115,0.629,0.848,0.899,0.964,0.266
				c0.169-0.92,0.116-1.063,1.102-0.619c0.985,0.444,0.882,0.688,0.898,1.645c0.014,0.758,0.054,3.072-0.63,3.631
				c-0.389,0.016-0.777,0.031-1.167,0.047c-0.046-0.169-0.093-0.338-0.139-0.506c-0.233-0.428-0.229-1.199-0.271-1.681
				c-0.095-1.1,0.014-2.18,0.242-3.258C37.196,37.266,36.232,36.998,36.099,37.627L36.099,37.627z"/>
		</g>
	</g>
	<g id="XMLID_497_">
		<g>
			<path d="M52.004,36.215c-0.72,0.565-0.635,1.841-0.72,2.686c-0.136,1.329-0.287,2.849,0.133,4.149
				c0.431,1.333,1.731,2.544,2.868,1.155c1.395-1.704,1.941-5.312,1.16-7.365c-0.285-0.749-0.829-1.611-1.73-1.596
				c-0.858,0.015-1.574,1.003-2.114,1.573c-0.442,0.467,0.264,1.175,0.707,0.707c0.45-0.475,1.167-1.517,2.021-0.732
				c0.384,0.352,0.396,1.426,0.411,1.854c0.042,1.254-0.217,2.55-0.664,3.72c-0.382,0.995-1.016,1.611-1.758,0.163
				c-0.25-0.489-0.148-1.179-0.147-1.726c0.003-0.869-0.146-3.341,0.54-3.88C53.218,36.526,52.506,35.822,52.004,36.215
				L52.004,36.215z"/>
		</g>
	</g>
</g>
</svg>
