<?xml version="1.0" encoding="utf-8"?>
<!-- Generator: Adobe Illustrator 16.0.0, SVG Export Plug-In . SVG Version: 6.00 Build 0)  -->
<!DOCTYPE svg PUBLIC "-//W3C//DTD SVG 1.1//EN" "http://www.w3.org/Graphics/SVG/1.1/DTD/svg11.dtd">
<svg version="1.1" xmlns="http://www.w3.org/2000/svg" xmlns:xlink="http://www.w3.org/1999/xlink" x="0px" y="0px" width="104px"
	 height="95px" viewBox="0 0 104 95" enable-background="new 0 0 104 95" xml:space="preserve">
<g id="Layer_4">
</g>
<g id="Blue">
	<circle fill="#EEF0F1" cx="53.5" cy="46" r="43.114"/>
	<g>
		<g id="XMLID_4463_">
			<g id="XMLID_4471_">
				<g>
					<path fill="#0AB6EA" d="M26.768,32.562c-0.84,10.417-0.652,20.86,0.564,31.241c0.105,0.897,1.527,0.907,1.421,0
						c-1.217-10.381-1.404-20.824-0.564-31.241C28.262,31.649,26.841,31.654,26.768,32.562L26.768,32.562z"/>
				</g>
			</g>
			<g id="XMLID_4470_">
				<g>
					<path fill="#0AB6EA" d="M77.457,32.224c1.035,10.817,1.118,21.683,0.251,32.515c-0.073,0.912,1.349,0.907,1.421,0
						c0.867-10.832,0.784-21.697-0.252-32.515C78.791,31.321,77.369,31.313,77.457,32.224L77.457,32.224z"/>
				</g>
			</g>
			<g id="XMLID_4469_">
				<g>
					<path fill="#0AB6EA" d="M27.229,64.146c1.587,7.304,9.47,6.071,15.13,6.258c8.734,0.289,17.472,0.468,26.206,0.082
						c0.91-0.04,0.916-1.461,0-1.421c-7.085,0.313-14.174,0.261-21.261,0.069c-3.374-0.092-6.754-0.299-10.128-0.313
						c-1.427-0.005-2.962,0.188-4.353-0.229c-2.141-0.642-3.766-2.709-4.225-4.825C28.405,62.875,27.035,63.254,27.229,64.146
						L27.229,64.146z"/>
				</g>
			</g>
			<g id="XMLID_4468_">
				<g>
					<path fill="#0AB6EA" d="M68.835,70.492c2.415-0.019,4.935,0.365,7.141-0.865c1.942-1.084,3.128-3.008,3.155-5.227
						c0.012-0.914-1.409-0.915-1.421,0c-0.062,4.952-5.369,4.644-8.875,4.671C67.921,69.078,67.919,70.499,68.835,70.492
						L68.835,70.492z"/>
				</g>
			</g>
			<g id="XMLID_4467_">
				<g>
					<path fill="#0AB6EA" d="M28.09,32.529c0.505-2.783,2.768-5.14,5.723-5c0.914,0.044,0.912-1.377,0-1.42
						c-3.545-0.168-6.479,2.663-7.093,6.042C26.558,33.045,27.926,33.429,28.09,32.529L28.09,32.529z"/>
				</g>
			</g>
			<g id="XMLID_4466_">
				<g>
					<path fill="#0AB6EA" d="M33.988,27.668c13.034-1.686,26.21-1.676,39.236,0.079c0.895,0.12,1.281-1.249,0.378-1.37
						c-13.163-1.773-26.44-1.834-39.614-0.13C33.094,26.362,33.083,27.785,33.988,27.668L33.988,27.668z"/>
				</g>
			</g>
			<g id="XMLID_4465_">
				<g>
					<path fill="#0AB6EA" d="M73.093,27.942c1.243,0.031,2.189,0.286,2.925,1.35c0.604,0.872,0.915,1.916,1.173,2.933
						c0.224,0.886,1.595,0.511,1.37-0.378c-0.344-1.358-0.818-2.757-1.744-3.839c-0.983-1.15-2.265-1.45-3.724-1.486
						C72.178,26.499,72.179,27.92,73.093,27.942L73.093,27.942z"/>
				</g>
			</g>
			<g id="XMLID_4464_">
				<g>
					<path fill="#0AB6EA" d="M27.616,35.994c16.786-0.492,33.573-0.932,50.364-1.176c0.914-0.013,0.916-1.434,0-1.421
						c-16.791,0.244-33.578,0.685-50.364,1.176C26.703,34.6,26.699,36.021,27.616,35.994L27.616,35.994z"/>
				</g>
			</g>
		</g>
		<g id="XMLID_4462_">
			<g>
				<path fill="#0AB6EA" d="M32.506,30.135c-0.588,0.501-0.698,1.419-0.314,2.078c0.426,0.732,1.36,0.931,2.088,0.541
					c0.707-0.379,1.067-1.234,0.736-1.982c-0.335-0.758-1.247-1.197-2.04-0.911c-0.854,0.309-0.485,1.682,0.378,1.37
					c0.258-0.093,0.559,0.191,0.209,0.296c-0.229,0.069-0.209-0.253-0.052-0.388C34.208,30.546,33.199,29.545,32.506,30.135
					L32.506,30.135z"/>
			</g>
		</g>
		<g id="XMLID_4461_">
			<g>
				<path fill="#0AB6EA" d="M38.477,29.585c-0.756,0.186-1.33,0.896-1.313,1.687c0.018,0.813,0.688,1.441,1.474,1.526
					c0.809,0.087,1.523-0.45,1.697-1.241c0.188-0.858-0.388-1.667-1.215-1.879c-0.887-0.228-1.265,1.143-0.378,1.37
					c0.245,0.063,0.283,0.387,0.007,0.335c-0.321-0.06-0.104-0.376,0.105-0.428C39.742,30.738,39.367,29.367,38.477,29.585
					L38.477,29.585z"/>
			</g>
		</g>
		<g id="XMLID_4414_">
			<g>
				<path fill="#0AB6EA" d="M44.089,29.536c-0.75,0.193-1.276,0.905-1.258,1.681c0.02,0.848,0.735,1.478,1.562,1.502
					c0.782,0.023,1.492-0.494,1.621-1.28c0.138-0.841-0.356-1.593-1.138-1.881c-0.858-0.317-1.229,1.056-0.377,1.37
					c0.216,0.08,0.141,0.366-0.07,0.374c-0.306,0.01-0.175-0.341,0.038-0.396C45.352,30.679,44.977,29.309,44.089,29.536
					L44.089,29.536z"/>
			</g>
		</g>
		<path fill="#FFE336" stroke="#0AB6EA" stroke-width="1.4208" stroke-miterlimit="10" d="M48.312,46.436
			c0.073,0.848,0.06,1.772,0.581,2.443c0.684,0.878,1.969,0.939,3.08,0.887c1.535-0.073,3.066-0.218,4.588-0.433
			c0.305-0.043,0.623-0.094,0.873-0.275c0.327-0.238,0.472-0.651,0.563-1.046c0.36-1.549,0.772-5.307,0.095-6.745
			c-2.049-0.451-7.469-0.226-9.447,0.438C46.456,42.438,48.134,44.37,48.312,46.436z"/>
		<path fill="#BB2839" stroke="#0AB6EA" stroke-width="1.4" stroke-miterlimit="10" d="M35.387,62.761
			c2.489,0.574,5.055,0.82,7.607,0.73c0.345-0.013,0.746-0.063,0.919-0.361c0.121-0.209,0.083-0.47,0.042-0.708
			c-0.313-1.804-0.624-3.607-0.936-5.411c-0.062-0.357-0.152-0.758-0.461-0.947c-0.193-0.118-0.434-0.126-0.66-0.129
			c-1.526-0.021-6.734-0.782-7.631,0.57C33.918,57.034,35.199,62.718,35.387,62.761z"/>
		<path fill="#D4DADC" stroke="#0AB6EA" stroke-width="1.4208" stroke-miterlimit="10" d="M63.803,62.761
			c2.489,0.574,5.055,0.82,7.607,0.73c0.345-0.013,0.746-0.063,0.919-0.361c0.121-0.209,0.083-0.47,0.042-0.708
			c-0.312-1.804-0.623-3.607-0.936-5.411c-0.063-0.357-0.152-0.758-0.461-0.947c-0.193-0.118-0.434-0.126-0.66-0.129
			c-1.526-0.021-6.734-0.782-7.631,0.57C62.334,57.034,63.615,62.718,63.803,62.761z"/>
		<path stroke="#0AB6EA" stroke-width="1.4208" stroke-miterlimit="10" d="M57.024,56.451c-2.489-0.574-5.055-0.821-7.608-0.73
			c-0.344,0.012-0.746,0.063-0.918,0.361c-0.121,0.209-0.084,0.47-0.043,0.708c0.313,1.804,0.624,3.607,0.936,5.411
			c0.063,0.357,0.152,0.758,0.462,0.947c0.193,0.118,0.433,0.125,0.66,0.129c1.525,0.021,6.734,0.782,7.63-0.57
			C58.492,62.178,57.211,56.494,57.024,56.451z"/>
		<path fill="none" stroke="#0AB6EA" stroke-width="1.4208" stroke-miterlimit="10" d="M52.779,50.046
			c0.315,1.895,0.631,3.788,0.945,5.683"/>
		<path fill="none" stroke="#0AB6EA" stroke-width="1.4208" stroke-miterlimit="10" d="M48.32,45.929
			c-2.587,2.209-5.127,4.472-7.619,6.787c-1.145,1.063-2.322,2.204-2.799,3.692"/>
		<path fill="none" stroke="#0AB6EA" stroke-width="1.4208" stroke-miterlimit="10" d="M58.334,46.473
			c2.717,3.038,5.552,5.971,8.497,8.789"/>
	</g>
</g>
</svg>
