<?xml version="1.0" encoding="utf-8"?>
<!-- Generator: Adobe Illustrator 16.0.0, SVG Export Plug-In . SVG Version: 6.00 Build 0)  -->
<!DOCTYPE svg PUBLIC "-//W3C//DTD SVG 1.1//EN" "http://www.w3.org/Graphics/SVG/1.1/DTD/svg11.dtd">
<svg version="1.1" xmlns="http://www.w3.org/2000/svg" xmlns:xlink="http://www.w3.org/1999/xlink" x="0px" y="0px" width="104px"
	 height="95px" viewBox="0 0 104 95" enable-background="new 0 0 104 95" xml:space="preserve">
<g id="Layer_4">
</g>
<g id="Blue">
	<circle fill="#EEF0F1" cx="56.333" cy="47.5" r="43.114"/>
	<g id="XMLID_794_">
		<path id="XMLID_854_" fill="#FFE336" d="M63.749,13.843l-3.771,7.333l2.165,0.978l-1.048,5.517c0,0,0.28,0.559,1.746-1.257
			c1.467-1.815,4.05-6.075,4.05-6.075l-2.933-0.978c0,0,0.366-3.625,0.21-5.028C64.059,13.35,63.749,13.843,63.749,13.843z"/>
		<path id="XMLID_853_" fill="#FFE336" d="M44.643,32.332l3.926,1.264c0,0-0.133-2.195-1.53-2.262S44.643,32.332,44.643,32.332z"/>
		<g id="XMLID_796_">
			<polygon id="XMLID_852_" points="58.724,47.801 57.609,47.648 56.725,49.287 56.839,51.914 57.51,52.279 58.578,51.428 
				58.952,49.115 			"/>
			<polygon id="XMLID_851_" points="69.131,48.101 68.826,48.197 68.365,49.804 68.355,51.527 68.887,52.386 69.644,52.264 
				70,51.571 70,50 69.795,48.513 			"/>
			<polygon id="XMLID_850_" fill="#0AB6EA" stroke="#0AB6EA" stroke-miterlimit="10" points="33.576,45.633 32.873,44.704 
				31.994,44.832 31.938,46.945 32.918,49.446 34.231,49.295 33.879,47.345 			"/>
			<polygon id="XMLID_848_" fill="#0AB6EA" points="46.111,43.792 45.351,42.718 44.502,42.947 44.273,45.06 44.867,47.724 
				46.502,47.738 46.289,45.636 			"/>
			<path id="XMLID_3817_" fill="#FFE336" d="M54.825,58.833c0,0-4.5,5.833-2.834,18.833c0,0-11.166,0-17.833-3.833L33.825,64.5
				c0,0-8-3.333-10-6.333s-2-3-2-3s-0.667-1.833,1.666-1.333c2.334,0.5,7.167,2,7.167,2s3.833,5.5,10.333,5s8-1.667,9.667-3.167
				s1.667-1.5,1.667-1.5L54.825,58.833z"/>
			<path id="XMLID_3816_" d="M51.825,41c0,0,5.666,4.167,13,3.833c7.333-0.333,9.5-2.833,10.666-4.5c1.167-1.667,3-6.333,3-6.333
				l-1.333,0.333c0,0-4.833,2.167-6,2c-1.167-0.167-5.167-1.667-8-1.667S54.325,36.833,52.991,39C51.658,41.167,51.825,41,51.825,41
				z"/>
			<path id="XMLID_3815_" fill="#D4DADC" d="M37.991,54.417c0,0,1.667,3.333,4.75,2.333c3.084-1,3-3.917,3-3.917L37.991,54.417z"/>
			<path id="XMLID_3814_" fill="#FFE336" d="M60.575,55.667c0,0,1.083,3.583,3.583,2.333s2.5-2.416,2.5-2.416L60.575,55.667z"/>
			<g id="XMLID_799_">
				<g id="XMLID_3807_">
					<g>
						<path fill="#0AB6EA" d="M49.764,48.839c0.491,8.855,8.11,15.324,16.95,14.248c0.63-0.077,0.638-1.078,0-1
							c-8.271,1.007-15.487-4.898-15.95-13.248C50.728,48.199,49.728,48.195,49.764,48.839L49.764,48.839z"/>
					</g>
				</g>
				<g id="XMLID_3800_">
					<g>
						<path fill="#0AB6EA" d="M66.646,63.092c6.596-1.181,11.982-5.797,12.79-12.647c0.075-0.638-0.926-0.632-1,0
							c-0.757,6.421-5.956,10.591-12.056,11.683C65.748,62.241,66.017,63.205,66.646,63.092L66.646,63.092z"/>
					</g>
				</g>
				<g id="XMLID_3793_">
					<g>
						<path fill="#0AB6EA" d="M53.686,37.753c-3.561,3.381-4.429,8.618-3.594,13.3c0.113,0.633,1.077,0.365,0.965-0.266
							c-0.773-4.331,0.047-9.204,3.336-12.327C54.861,38.017,54.152,37.31,53.686,37.753L53.686,37.753z"/>
					</g>
				</g>
				<g id="XMLID_3786_">
					<g>
						<path fill="#0AB6EA" d="M75.769,40.242c2.082,3.307,3.157,7.184,2.523,11.087c-0.103,0.629,0.861,0.9,0.964,0.266
							c0.677-4.167-0.391-8.311-2.624-11.858C76.29,39.194,75.425,39.695,75.769,40.242L75.769,40.242z"/>
					</g>
				</g>
				<g id="XMLID_3779_">
					<g>
						<path fill="#0AB6EA" d="M51.899,41.769c5.073,3.442,11.327,4.423,17.274,3.084c0.627-0.142,0.361-1.106-0.267-0.964
							c-5.697,1.282-11.65,0.309-16.503-2.984C51.87,40.543,51.369,41.409,51.899,41.769L51.899,41.769z"/>
					</g>
				</g>
				<g id="XMLID_3772_">
					<g>
						<path fill="#0AB6EA" d="M68.962,44.861c5.877-0.949,8.811-5.46,10.118-10.818c0.152-0.625-0.813-0.892-0.965-0.266
							c-1.226,5.025-3.905,9.229-9.42,10.12C68.063,43.999,68.331,44.963,68.962,44.861L68.962,44.861z"/>
					</g>
				</g>
				<g id="XMLID_3765_">
					<g>
						<path fill="#0AB6EA" d="M54.186,38.573c3.004-2.202,6.557-3.439,10.308-3.281c2.373,0.1,4.085,1.231,6.352,1.627
							c0.63,0.11,0.899-0.854,0.267-0.964c-2.631-0.459-4.614-1.7-7.396-1.675c-3.649,0.033-7.106,1.282-10.034,3.43
							C53.168,38.086,53.666,38.954,54.186,38.573L54.186,38.573z"/>
					</g>
				</g>
				<g id="XMLID_3758_">
					<path fill="#0AB6EA" d="M57.172,47.924c-0.326,1.006-0.457,2.074-0.384,3.129c0.035,0.51,0.219,1.13,0.722,1.226
						c0.486,0.093,0.888-0.39,1.068-0.851c0.209-0.536,0.286-1.113,0.334-1.686c0.045-0.531,0.063-1.085-0.149-1.574
						c-0.095-0.216-0.238-0.418-0.444-0.533c-0.205-0.115-0.522-0.131-0.709,0.012c-0.197,0.15-0.388,0.681-0.578,0.997"/>
					<g>
						<path fill="#0AB6EA" d="M56.69,47.791c-0.372,1.224-0.796,3.076-0.146,4.28c0.617,1.142,1.912,0.728,2.41-0.275
							c0.541-1.088,0.84-3.157,0.05-4.188c-0.303-0.396-0.798-0.653-1.308-0.533c-0.63,0.148-0.824,0.816-1.098,1.319
							c-0.307,0.566,0.557,1.071,0.863,0.504c0.059-0.107,0.248-0.613,0.344-0.672c0.659-0.397,0.631,1.017,0.628,1.196
							c-0.01,0.573-0.043,1.941-0.687,2.113c-0.252,0.228-0.387,0.173-0.407-0.166c-0.018-0.105-0.035-0.211-0.053-0.316
							c-0.041-0.303-0.024-0.647-0.011-0.951c0.031-0.703,0.174-1.375,0.377-2.045C57.842,47.439,56.877,47.176,56.69,47.791
							L56.69,47.791z"/>
					</g>
				</g>
				<g id="XMLID_3751_">
					<path fill="#0AB6EA" d="M68.764,48.067c-0.472,1.069-0.614,2.28-0.403,3.43c0.05,0.269,0.123,0.545,0.302,0.752
						c0.178,0.208,0.487,0.324,0.734,0.206"/>
					<g>
						<path fill="#0AB6EA" d="M68.281,47.934c-0.476,1.158-1.227,5.6,1.248,5.003c0.625-0.151,0.36-1.115-0.266-0.964
							c-0.564,0.136-0.504-1.646-0.484-1.931c0.044-0.643,0.223-1.25,0.467-1.843C69.49,47.605,68.523,47.346,68.281,47.934
							L68.281,47.934z"/>
					</g>
				</g>
				<g id="XMLID_3744_">
					<path fill="#0AB6EA" d="M68.849,48.076c0.087-0.209,0.393-0.243,0.583-0.12c0.189,0.123,0.286,0.345,0.363,0.558
						c0.314,0.875,0.315,1.744,0.259,2.672c-0.031,0.519-0.433,1.297-0.759,1.221"/>
					<g>
						<path fill="#0AB6EA" d="M69.203,48.429c0.02-0.024,0.272,0.787,0.275,0.8c0.074,0.345,0.097,0.693,0.104,1.045
							c0.002,0.171,0.036,1.607-0.287,1.632c-0.638,0.047-0.643,1.048,0,1c1.449-0.108,1.354-2.384,1.237-3.371
							c-0.075-0.632-0.204-1.513-0.748-1.933c-0.401-0.311-0.965-0.278-1.288,0.12C68.093,48.217,68.797,48.929,69.203,48.429
							L69.203,48.429z"/>
					</g>
				</g>
				<g id="XMLID_3737_">
					<g>
						<path fill="#0AB6EA" d="M60.919,56.086c1.873,0.147,3.733,0.109,5.599-0.111c0.632-0.075,0.639-1.076,0-1
							c-1.865,0.221-3.726,0.259-5.599,0.112C60.277,55.037,60.28,56.037,60.919,56.086L60.919,56.086z"/>
					</g>
				</g>
				<g id="XMLID_3730_">
					<g>
						<path fill="#0AB6EA" d="M60.267,55.617c-0.038,1.704,1.83,3.205,3.479,3.065c1.683-0.143,3.274-1.468,3.513-3.156
							c0.088-0.63-0.875-0.902-0.965-0.266c-0.152,1.086-0.916,1.908-1.948,2.264c-1.251,0.43-3.112-0.401-3.078-1.907
							C61.281,54.973,60.281,54.973,60.267,55.617L60.267,55.617z"/>
					</g>
				</g>
				<g id="XMLID_3723_">
					<g>
						<path fill="#0AB6EA" d="M75.822,58.586c4.222-2.324,7.2-6.716,10.195-10.369c0.405-0.494-0.299-1.205-0.707-0.707
							c-2.929,3.571-5.87,7.943-9.993,10.213C74.754,58.034,75.258,58.897,75.822,58.586L75.822,58.586z"/>
					</g>
				</g>
				<g id="XMLID_847_">
					<g>
						<path fill="#0AB6EA" d="M54.229,58.341c-2.709,4.595-3.196,9.839-3.178,15.072c0.002,0.644,1.002,0.645,1,0
							c-0.019-5.059,0.422-10.123,3.041-14.567C55.42,58.291,54.556,57.787,54.229,58.341L54.229,58.341z"/>
					</g>
				</g>
				<g id="XMLID_846_">
					<g>
						<path fill="#0AB6EA" d="M85.853,47.936c1.426,0.294,0.051,5.098-0.158,5.77c-0.519,1.667-1.277,3.253-2.101,4.788
							c-1.481,2.768-3.179,5.423-4.937,8.021c-0.362,0.534,0.504,1.035,0.863,0.505c2.589-3.826,5.271-7.839,6.853-12.208
							c0.579-1.599,2.512-7.27-0.255-7.84C85.49,46.842,85.222,47.806,85.853,47.936L85.853,47.936z"/>
					</g>
				</g>
				<g id="XMLID_845_">
					<g>
						<path fill="#0AB6EA" d="M27.781,50.406c2.647,11.736,16.573,14.35,24.871,6.42c0.466-0.446-0.242-1.152-0.707-0.707
							c-7.773,7.428-20.721,5.011-23.2-5.979C28.604,49.512,27.64,49.778,27.781,50.406L27.781,50.406z"/>
					</g>
				</g>
				<g id="XMLID_844_">
					<g>
						<path fill="#0AB6EA" d="M31.194,45.369c-0.078,1.392,0.529,5.661,2.832,4.535c0.578-0.282,0.071-1.145-0.505-0.863
							c-1.054,0.515-1.355-3.173-1.327-3.672C32.23,44.726,31.229,44.728,31.194,45.369L31.194,45.369z"/>
					</g>
				</g>
				<g id="XMLID_842_">
					<g>
						<path fill="#0AB6EA" d="M32.424,45.237c0.212-0.672,0.857,1.03,0.792,0.848c0.115,0.319,0.212,0.648,0.29,0.979
							c0.176,0.736,0.233,1.478,0.226,2.232c-0.006,0.644,0.994,0.644,1,0c0.014-1.443-0.15-3.431-1.106-4.598
							c-0.625-0.763-1.844-0.747-2.166,0.274C31.266,45.586,32.23,45.849,32.424,45.237L32.424,45.237z"/>
					</g>
				</g>
				<g id="XMLID_841_">
					<path fill="#0AB6EA" d="M44.356,43.449c-0.036,1.098,0.071,2.201,0.32,3.271c0.132,0.57,0.38,1.212,0.938,1.387"/>
					<g>
						<path fill="#0AB6EA" d="M43.856,43.449c-0.03,1.482-0.11,4.344,1.507,5.091c0.58,0.268,1.089-0.594,0.504-0.864
							c-1.175-0.543-1.032-3.147-1.011-4.227C44.869,42.805,43.869,42.805,43.856,43.449L43.856,43.449z"/>
					</g>
				</g>
				<g id="XMLID_840_">
					<path fill="#0AB6EA" d="M44.518,43.057c0.143-0.348,0.666-0.378,0.963-0.146c0.297,0.231,0.421,0.615,0.527,0.975
						c0.334,1.123,0.658,2.292,0.485,3.451c-0.048,0.314-0.253,0.704-0.563,0.629"/>
					<g>
						<path fill="#0AB6EA" d="M44.949,43.309c0.25-0.338,0.881,1.812,0.901,1.903c0.046,0.197,0.415,2.218,0.08,2.253
							c-0.634,0.066-0.64,1.067,0,1c1.802-0.19,1.012-3.11,0.707-4.205c-0.191-0.686-0.38-1.569-1.105-1.889
							c-0.572-0.253-1.097-0.04-1.446,0.433C43.703,43.322,44.57,43.821,44.949,43.309L44.949,43.309z"/>
					</g>
				</g>
				<g id="XMLID_839_">
					<g>
						<path fill="#0AB6EA" d="M37.9,54.765c2.563-0.527,5.127-1.054,7.689-1.582c0.555-0.114,0.426-0.996-0.133-0.982
							c-0.115,0.003-0.23,0.005-0.346,0.008c-0.643,0.015-0.645,1.015,0,1c0.115-0.003,0.23-0.005,0.346-0.008
							c-0.045-0.328-0.089-0.655-0.133-0.982c-2.563,0.527-5.126,1.054-7.689,1.581C37.006,53.93,37.271,54.894,37.9,54.765
							L37.9,54.765z"/>
					</g>
				</g>
				<g id="XMLID_838_">
					<g>
						<path fill="#0AB6EA" d="M37.293,54.68c1.01,1.992,3.105,3.286,5.373,2.814c2.264-0.47,3.708-2.521,3.501-4.792
							c-0.058-0.636-1.059-0.642-1,0c0.166,1.824-0.888,3.477-2.767,3.829c-1.868,0.35-3.435-0.758-4.244-2.355
							C37.865,53.601,37.002,54.106,37.293,54.68L37.293,54.68z"/>
					</g>
				</g>
				<g id="XMLID_836_">
					<g>
						<path fill="#0AB6EA" d="M26.751,43.791c7.62,0.564,16.886-1.087,22.077-7.18c0.416-0.487-0.288-1.198-0.706-0.707
							c-5.021,5.892-14.003,7.433-21.371,6.887C26.108,42.743,26.111,43.744,26.751,43.791L26.751,43.791z"/>
					</g>
				</g>
				<g id="XMLID_835_">
					<g>
						<path fill="#0AB6EA" d="M27.781,43.523c-0.568,2.5-0.41,4.952,0.112,7.443c0.132,0.629,1.096,0.363,0.964-0.266
							c-0.488-2.326-0.643-4.577-0.112-6.912C28.888,43.162,27.924,42.895,27.781,43.523L27.781,43.523z"/>
					</g>
				</g>
				<g id="XMLID_834_">
					<g>
						<path fill="#0AB6EA" d="M47.617,37.508c0.662,0.526,1.282,1.096,1.844,1.729c0.157,0.179,1.674,1.95,1.563,2.105
							c-0.377,0.523,0.49,1.023,0.863,0.505c0.526-0.732-0.567-1.864-0.979-2.411c-0.747-0.991-1.611-1.864-2.583-2.635
							C47.826,36.404,47.113,37.107,47.617,37.508L47.617,37.508z"/>
					</g>
				</g>
				<g id="XMLID_833_">
					<g>
						<path fill="#0AB6EA" d="M45.029,33.416c3.342,0.185,6.279,1.993,7.974,4.874c0.326,0.555,1.19,0.052,0.863-0.504
							c-1.879-3.196-5.14-5.165-8.837-5.37C44.386,32.38,44.388,33.381,45.029,33.416L45.029,33.416z"/>
					</g>
				</g>
				<g id="XMLID_832_">
					<g>
						<path fill="#0AB6EA" d="M21.389,56.061c3.222,4.188,7.386,7.264,12.346,9.094C34.339,65.377,34.6,64.412,34,64.19
							c-4.685-1.729-8.703-4.675-11.748-8.634C21.865,55.053,20.996,55.55,21.389,56.061L21.389,56.061z"/>
					</g>
				</g>
				<g id="XMLID_830_">
					<g>
						<path fill="#0AB6EA" d="M23.616,54.296c1.149,0.369,2.299,0.731,3.452,1.083c0.533,0.162,1.066,0.322,1.6,0.481
							c0.247,0.073,1.639,0.295,1.724,0.452c0.1-0.244,0.199-0.489,0.299-0.734c-0.024,0.011-0.049,0.021-0.073,0.031
							c0.205,0.116,0.41,0.232,0.615,0.349c-0.007-0.018-0.014-0.035-0.021-0.052c-0.23-0.594-1.197-0.336-0.964,0.266
							c0.007,0.018,0.014,0.035,0.02,0.052c0.088,0.228,0.346,0.462,0.615,0.35c0.024-0.01,0.049-0.021,0.073-0.03
							c0.302-0.126,0.467-0.422,0.299-0.734c-0.372-0.694-1.926-0.795-2.588-0.992c-1.601-0.478-3.194-0.974-4.784-1.484
							C23.268,53.134,23.006,54.1,23.616,54.296L23.616,54.296z"/>
					</g>
				</g>
				<g id="XMLID_829_">
					<g>
						<path fill="#0AB6EA" d="M23.963,53.344c-1.127-0.337-2.483,0.035-2.848,1.271c-0.396,1.348,0.855,1.89,1.452,2.854
							c0.339,0.546,1.204,0.045,0.864-0.505c-0.34-0.547-0.927-0.89-1.254-1.431c-0.619-1.024,0.768-1.45,1.52-1.225
							C24.315,54.493,24.579,53.528,23.963,53.344L23.963,53.344z"/>
					</g>
				</g>
				<g id="XMLID_828_">
					<g>
						<path fill="#0AB6EA" d="M33.366,64.806c-0.106,2.906,0.017,5.793,0.37,8.679c0.078,0.631,1.079,0.639,1,0
							c-0.354-2.886-0.477-5.772-0.37-8.679C34.391,64.163,33.391,64.164,33.366,64.806L33.366,64.806z"/>
					</g>
				</g>
				<g id="XMLID_827_">
					<g>
						<path fill="#0AB6EA" d="M44.763,32.605c0.616-0.514,1.478-1.044,2.315-0.774c0.733,0.236,1.17,0.968,1.238,1.703
							c0.058,0.636,1.059,0.642,1,0c-0.103-1.113-0.688-2.159-1.767-2.59c-1.268-0.506-2.527,0.148-3.494,0.954
							C43.561,32.31,44.271,33.014,44.763,32.605L44.763,32.605z"/>
					</g>
				</g>
				<g id="XMLID_826_">
					<g>
						<path fill="#0AB6EA" d="M46.087,31.216c-0.808-3.276,3.123-7.119,6.29-5.257c1.566,0.921,2.343,2.81,3.244,4.295
							c0.813,1.338,1.726,2.676,3.381,1.83c0.573-0.293,0.067-1.156-0.505-0.863c-1.232,0.63-3.73-4.47-4.626-5.327
							c-1.135-1.086-2.575-1.741-4.163-1.404c-3.033,0.643-5.319,4.016-4.585,6.992C45.276,32.106,46.241,31.842,46.087,31.216
							L46.087,31.216z"/>
					</g>
				</g>
				<g id="XMLID_824_">
					<g>
						<path fill="#0AB6EA" d="M33.927,74.165c7.365,4.119,15.821,3.886,24.022,3.817c7.636-0.063,15.441-0.935,22.004-5.15
							c0.539-0.347,0.039-1.212-0.505-0.863c-6.42,4.124-14.03,4.951-21.499,5.014c-8.004,0.067-16.325,0.342-23.518-3.681
							C33.869,72.987,33.364,73.85,33.927,74.165L33.927,74.165z"/>
					</g>
				</g>
				<g id="XMLID_823_">
					<g>
						<path fill="#0AB6EA" d="M78.897,67.308c0.644,0,0.645-1,0-1C78.254,66.308,78.253,67.308,78.897,67.308L78.897,67.308z"/>
					</g>
				</g>
				<g id="XMLID_822_">
					<g>
						<path fill="#0AB6EA" d="M78.515,67.213c0.251,0.756,0.464,1.52,0.618,2.302c0.126,0.64,0.489,1.924,0.282,2.581
							c0.205-0.116,0.41-0.232,0.615-0.349c-0.019-0.004-0.038-0.007-0.057-0.011c0.122,0.161,0.245,0.321,0.367,0.482
							c-0.001-0.016-0.003-0.031-0.004-0.047c-0.052-0.637-1.053-0.643-1,0c0.001,0.016,0.003,0.031,0.004,0.047
							c0.017,0.204,0.143,0.441,0.367,0.482c0.019,0.003,0.038,0.007,0.057,0.01c0.273,0.05,0.527-0.072,0.614-0.35
							c0.219-0.691-0.047-1.686-0.155-2.39c-0.158-1.03-0.416-2.036-0.744-3.024C79.277,66.339,78.312,66.6,78.515,67.213
							L78.515,67.213z"/>
					</g>
				</g>
				<g id="XMLID_821_">
					<g>
						<path fill="#0AB6EA" d="M52.365,76.933c-0.263-1.366-0.331-2.731-0.227-4.117c0.049-0.642-0.951-0.639-1,0
							c-0.111,1.476-0.017,2.93,0.262,4.383C51.522,77.83,52.486,77.563,52.365,76.933L52.365,76.933z"/>
					</g>
				</g>
				<g id="XMLID_820_">
					<g>
						<path fill="#0AB6EA" d="M50.98,35.76c3.783,1.475,8.242,0.063,8.45-4.467c0.029-0.644-0.971-0.642-1,0
							c-0.179,3.897-4.075,4.715-7.184,3.502C50.646,34.562,50.387,35.528,50.98,35.76L50.98,35.76z"/>
					</g>
				</g>
				<g id="XMLID_819_">
					<g>
						<path fill="#0AB6EA" d="M60.332,21.123c1.445-2.259,2.691-4.619,3.742-7.086c0.25-0.585-0.611-1.096-0.863-0.505
							c-1.051,2.467-2.297,4.827-3.742,7.086C59.121,21.162,59.986,21.664,60.332,21.123L60.332,21.123z"/>
					</g>
				</g>
				<g id="XMLID_818_">
					<g>
						<path fill="#0AB6EA" d="M59.942,21.783c0.707,0.227,1.414,0.454,2.121,0.681c0.614,0.197,0.878-0.768,0.267-0.964
							c-0.707-0.227-1.415-0.454-2.122-0.681C59.594,20.621,59.331,21.586,59.942,21.783L59.942,21.783z"/>
					</g>
				</g>
				<g id="XMLID_817_">
					<g>
						<path fill="#0AB6EA" d="M63.631,13.796c0.264,1.759,0.253,3.517-0.031,5.273c-0.102,0.63,0.861,0.9,0.965,0.266
							c0.314-1.946,0.324-3.855,0.031-5.805C64.5,12.896,63.537,13.166,63.631,13.796L63.631,13.796z"/>
					</g>
				</g>
				<g id="XMLID_816_">
					<g>
						<path fill="#0AB6EA" d="M63.995,19.907c0.892,0.244,1.783,0.488,2.675,0.731c0.621,0.17,0.887-0.794,0.266-0.964
							c-0.892-0.244-1.783-0.488-2.675-0.731C63.64,18.773,63.374,19.737,63.995,19.907L63.995,19.907z"/>
					</g>
				</g>
				<g id="XMLID_815_">
					<g>
						<path fill="#0AB6EA" d="M61.731,22.289c-0.459,1.866-0.918,3.732-1.377,5.599c-0.153,0.625,0.811,0.891,0.964,0.266
							c0.46-1.866,0.918-3.732,1.377-5.598C62.85,21.93,61.885,21.663,61.731,22.289L61.731,22.289z"/>
					</g>
				</g>
				<g id="XMLID_814_">
					<g>
						<path fill="#0AB6EA" d="M61.307,28.619c2.446-2.181,4.314-5.333,5.96-8.131c0.327-0.556-0.537-1.06-0.863-0.505
							c-1.61,2.738-3.417,5.8-5.804,7.929C60.118,28.341,60.827,29.046,61.307,28.619L61.307,28.619z"/>
					</g>
				</g>
				<g id="XMLID_812_">
					<g>
						<path fill="#0AB6EA" d="M68.033,27.455c0.799,0.468,1.598,0.937,2.396,1.405c0.557,0.326,1.061-0.538,0.505-0.864
							c-0.799-0.468-1.599-0.936-2.397-1.404C67.98,26.266,67.478,27.13,68.033,27.455L68.033,27.455z"/>
					</g>
				</g>
				<g id="XMLID_811_">
					<g>
						<path fill="#0AB6EA" d="M70.773,23.463c0.987,0.167,1.979,0.281,2.979,0.334c0.644,0.034,0.642-0.966,0-1
							c-0.911-0.048-1.814-0.146-2.714-0.298C70.409,22.392,70.139,23.355,70.773,23.463L70.773,23.463z"/>
					</g>
				</g>
				<g id="XMLID_810_">
					<g>
						<path fill="#0AB6EA" d="M69.453,16.847c0.995-0.669,2.004-1.316,3.027-1.94c0.549-0.334,0.047-1.2-0.504-0.863
							c-1.023,0.624-2.033,1.271-3.027,1.94C68.418,16.341,68.918,17.208,69.453,16.847L69.453,16.847z"/>
					</g>
				</g>
				<g id="XMLID_809_">
					<g>
						<path fill="#0AB6EA" d="M54.746,13.489c0.504,0.494,1.008,0.987,1.513,1.481c0.366,0.358,0.767,0.961,1.311,1.008
							c0.169,0.015,0.352-0.105,0.432-0.248c0.08-0.145,0.117-0.306,0.055-0.464c-0.082-0.206-0.245-0.37-0.482-0.367
							c-0.011,0-0.022,0-0.033,0c-0.643,0.007-0.645,1.007,0,1c0.011,0,0.022,0,0.033,0c-0.16-0.123-0.321-0.245-0.481-0.367
							c0.005,0.014,0.011,0.027,0.016,0.042c0.018-0.128,0.034-0.257,0.051-0.386c-0.007,0.013-0.014,0.025-0.021,0.038
							c0.145-0.083,0.289-0.165,0.433-0.248c0.183,0.016-0.269-0.387-0.328-0.446c-0.207-0.202-0.413-0.404-0.619-0.606
							c-0.39-0.382-0.78-0.763-1.169-1.145C54.992,12.332,54.285,13.038,54.746,13.489L54.746,13.489z"/>
					</g>
				</g>
				<g id="XMLID_808_">
					<g>
						<path fill="#0AB6EA" d="M60.621,7.12c0.051,1.09,0.129,2.178,0.237,3.265c0.063,0.634,1.063,0.641,1,0
							C61.75,9.298,61.672,8.21,61.621,7.12C61.592,6.479,60.592,6.476,60.621,7.12L60.621,7.12z"/>
					</g>
				</g>
				<g id="XMLID_806_">
					<g>
						<path fill="#0AB6EA" d="M68.394,7.066c-0.571,1.103-1.237,2.149-2.011,3.122c-0.397,0.499,0.306,1.211,0.707,0.708
							c0.828-1.041,1.555-2.143,2.168-3.325C69.553,7,68.69,6.494,68.394,7.066L68.394,7.066z"/>
					</g>
				</g>
				<g id="XMLID_805_">
					<g>
						<path fill="#0AB6EA" d="M53.906,21.462c0.846,0.271,1.706,0.44,2.59,0.526c0.64,0.063,0.635-0.938,0-1
							c-0.793-0.078-1.565-0.247-2.324-0.491C53.559,20.301,53.295,21.266,53.906,21.462L53.906,21.462z"/>
					</g>
				</g>
				<g id="XMLID_804_">
					<g>
						<path fill="#0AB6EA" d="M26.748,42.842c-1.078-0.094-2.219-0.281-3.301-0.166c-1.04,0.111-1.898,0.625-2.757,1.188
							c-0.536,0.352-0.035,1.218,0.505,0.863c0.918-0.604,1.758-1.076,2.896-1.076c0.883,0,1.777,0.113,2.656,0.189
							C27.39,43.898,27.386,42.897,26.748,42.842L26.748,42.842z"/>
					</g>
				</g>
				<g id="XMLID_803_">
					<g>
						<path fill="#0AB6EA" d="M33.451,31.787c-2.923,1.203-4.796,3.632-7.23,5.558c-2.497,1.975-4.855,3.857-6.057,6.89
							c-0.236,0.599,0.729,0.858,0.965,0.266c1.126-2.845,3.479-4.614,5.799-6.449c2.25-1.779,4.092-4.191,6.789-5.301
							C34.304,32.51,34.047,31.542,33.451,31.787L33.451,31.787z"/>
					</g>
				</g>
				<g id="XMLID_802_">
					<g>
						<path fill="#0AB6EA" d="M33.723,32.755c4.569-1.393,9.325-0.87,13.359,1.736c0.542,0.35,1.044-0.516,0.504-0.864
							c-4.236-2.736-9.328-3.3-14.129-1.836C32.844,31.978,33.105,32.943,33.723,32.755L33.723,32.755z"/>
					</g>
				</g>
				<g id="XMLID_800_">
					<g>
						<path fill="#0AB6EA" d="M71.195,36.942c2.553-0.571,4.968-1.49,7.26-2.75c0.563-0.31,0.06-1.174-0.505-0.864
							c-2.219,1.22-4.551,2.097-7.021,2.65C70.301,36.119,70.566,37.083,71.195,36.942L71.195,36.942z"/>
					</g>
				</g>
			</g>
		</g>
	</g>
</g>
</svg>
