<?xml version="1.0" encoding="utf-8"?>
<!-- Generator: Adobe Illustrator 16.0.0, SVG Export Plug-In . SVG Version: 6.00 Build 0)  -->
<!DOCTYPE svg PUBLIC "-//W3C//DTD SVG 1.1//EN" "http://www.w3.org/Graphics/SVG/1.1/DTD/svg11.dtd">
<svg version="1.1" xmlns="http://www.w3.org/2000/svg" xmlns:xlink="http://www.w3.org/1999/xlink" x="0px" y="0px" width="104px"
	 height="95px" viewBox="0 0 104 95" enable-background="new 0 0 104 95" xml:space="preserve">
<g id="Layer_4">
</g>
<g id="Blue">
	<circle fill="#EEF0F1" cx="52" cy="47.5" r="43.114"/>
	<g>
		<line fill="#FFFFFF" x1="57.726" y1="35.022" x2="75.48" y2="17.267"/>
		
			<radialGradient id="SVGID_1_" cx="-2206.6748" cy="574.7969" r="0.5827" gradientTransform="matrix(16.5449 0 0 -16.5449 36575.8125 9536.0918)" gradientUnits="userSpaceOnUse">
			<stop  offset="0" style="stop-color:#140F10"/>
			<stop  offset="0.5744" style="stop-color:#140F10"/>
			<stop  offset="0.7977" style="stop-color:#140F10"/>
			<stop  offset="1" style="stop-color:#140F10"/>
		</radialGradient>
		<path fill="url(#SVGID_1_)" d="M57.313,34.61l17.756-17.755c0.227-0.228,0.596-0.228,0.823,0s0.228,0.597,0,0.824L58.138,35.435
			c-0.228,0.228-0.597,0.228-0.824,0S57.086,34.838,57.313,34.61"/>
		<line fill="#FFFFFF" x1="48.533" y1="35.012" x2="32.276" y2="18.213"/>
		
			<radialGradient id="SVGID_2_" cx="-87.4541" cy="77.4897" r="7.0853" gradientTransform="matrix(0.7528 0 0 0.7517 109.6875 -28.0487)" gradientUnits="userSpaceOnUse">
			<stop  offset="0" style="stop-color:#140F10"/>
			<stop  offset="0.5744" style="stop-color:#140F10"/>
			<stop  offset="0.7977" style="stop-color:#140F10"/>
			<stop  offset="1" style="stop-color:#140F10"/>
		</radialGradient>
		
			<radialGradient id="SVGID_3_" cx="-87.4541" cy="77.4897" r="7.2044" gradientTransform="matrix(0.7528 0 0 0.7517 109.6875 -28.0487)" gradientUnits="userSpaceOnUse">
			<stop  offset="0" style="stop-color:#140F10"/>
			<stop  offset="0.5744" style="stop-color:#140F10"/>
			<stop  offset="0.7977" style="stop-color:#140F10"/>
			<stop  offset="1" style="stop-color:#140F10"/>
		</radialGradient>
		<path fill="url(#SVGID_2_)" stroke="url(#SVGID_3_)" stroke-width="0.239" stroke-miterlimit="10" d="M48.515,35.492L38.69,25.403
			c-0.138-0.137-0.138-0.358,0-0.495c0.137-0.137,0.36-0.137,0.498,0l9.824,10.088c0.139,0.137,0.139,0.358,0,0.495
			C48.876,35.629,48.652,35.629,48.515,35.492"/>
		<radialGradient id="SVGID_4_" cx="53.2246" cy="41.46" r="8.5969" gradientUnits="userSpaceOnUse">
			<stop  offset="0" style="stop-color:#140F10"/>
			<stop  offset="0.5744" style="stop-color:#140F10"/>
			<stop  offset="0.7977" style="stop-color:#140F10"/>
			<stop  offset="1" style="stop-color:#140F10"/>
		</radialGradient>
		<path fill="#474747" stroke="url(#SVGID_4_)" stroke-width="0.8834" stroke-miterlimit="10" d="M61.38,41.46
			c0-4.504-3.651-8.155-8.155-8.155s-8.155,3.651-8.155,8.155s3.651,8.155,8.155,8.155S61.38,45.964,61.38,41.46"/>
		<g>
			<path fill="#EEF0F1" d="M78.884,64.749c0,7.277-5.954,13.232-13.231,13.232H43.06c-7.277,0-13.231-5.955-13.231-13.232V50.897
				c0-7.278,5.954-13.232,13.231-13.232h22.593c7.277,0,13.231,5.955,13.231,13.232V64.749z"/>
		</g>
		<g>
			<path fill="#3EDC2B" d="M78.884,65.083c0,7.278-5.954,13.232-13.231,13.232H43.06c-7.277,0-13.231-5.955-13.231-13.232V51.231
				c0-7.277,5.954-13.232,13.231-13.232h22.593c7.277,0,13.231,5.955,13.231,13.232V65.083z"/>
		</g>
		<g>
			<radialGradient id="SVGID_5_" cx="49.6445" cy="57.3721" r="22.9152" gradientUnits="userSpaceOnUse">
				<stop  offset="0" style="stop-color:#140F10"/>
				<stop  offset="0.5744" style="stop-color:#140F10"/>
				<stop  offset="0.7977" style="stop-color:#140F10"/>
				<stop  offset="1" style="stop-color:#140F10"/>
			</radialGradient>
			<path fill="none" stroke="url(#SVGID_5_)" stroke-width="0.9356" stroke-miterlimit="10" d="M74.173,64.298
				c0,7.277-5.955,13.232-13.232,13.232H38.348c-7.277,0-13.231-5.955-13.231-13.232V50.446c0-7.278,5.954-13.232,13.231-13.232
				H60.94c7.277,0,13.232,5.954,13.232,13.232V64.298z"/>
		</g>
		<g>
			<path fill="#03B7EB" d="M41.561,68.376c-1.218-1.096-3.161-0.917-4.342,0.399c-1.183,1.315-1.155,3.269,0.059,4.361
				c1.214,1.092,3.159,0.916,4.344-0.401C42.801,71.423,42.774,69.469,41.561,68.376"/>
			<path fill="#03B7EB" d="M68.486,45.229c-3.606-2.103-8.565-1.021-11.083,2.418c-2.517,3.441-1.627,7.933,1.98,10.035
				c3.605,2.105,8.566,1.021,11.08-2.415C72.974,51.827,72.092,47.334,68.486,45.229"/>
			<path fill="#221F1F" d="M37.698,72.717c-0.572-0.092-1.102-0.342-1.535-0.731c-1.304-1.174-1.337-3.269-0.075-4.672
				c0.632-0.705,1.517-1.137,2.427-1.186c0.836-0.044,1.625,0.229,2.226,0.77c1.303,1.173,1.337,3.268,0.077,4.67
				c-0.609,0.678-1.428,1.095-2.305,1.176C38.235,72.769,37.962,72.759,37.698,72.717 M39.067,66.85
				c-0.174-0.028-0.354-0.038-0.537-0.028c-0.724,0.039-1.429,0.384-1.935,0.948c-1.003,1.114-0.985,2.769,0.038,3.69
				c0.494,0.444,1.146,0.654,1.838,0.59c0.697-0.064,1.35-0.397,1.838-0.94c1-1.113,0.982-2.769-0.04-3.689
				C39.933,67.118,39.517,66.923,39.067,66.85"/>
			<path fill="#221F1F" d="M61.095,57.548c-0.974-0.157-1.92-0.483-2.789-0.991c-1.775-1.035-2.975-2.665-3.377-4.591
				c-0.413-1.979,0.06-4.026,1.33-5.764c2.576-3.52,7.68-4.631,11.371-2.478c1.771,1.034,2.969,2.663,3.371,4.586
				c0.414,1.981-0.057,4.03-1.327,5.771C67.704,56.775,64.259,58.058,61.095,57.548 M64.684,43.498
				c-2.863-0.461-5.985,0.701-7.771,3.139c-1.139,1.559-1.563,3.39-1.194,5.158c0.358,1.717,1.431,3.173,3.019,4.098
				c3.34,1.95,7.951,0.943,10.281-2.244c1.139-1.561,1.563-3.396,1.192-5.165c-0.358-1.715-1.429-3.169-3.012-4.093
				C66.415,43.933,65.563,43.639,64.684,43.498"/>
			<path fill="#03B7EB" d="M54.026,59.644c-2.051-1.584-5.222-1.352-7.082,0.516c-1.859,1.871-1.698,4.671,0.346,6.257
				c2.058,1.584,5.229,1.353,7.083-0.517C56.233,64.03,56.08,61.231,54.026,59.644"/>
			<path fill="#221F1F" d="M48.59,66.296c-0.866-0.14-1.697-0.478-2.401-1.02c-1.029-0.799-1.641-1.917-1.719-3.148
				c-0.082-1.258,0.398-2.479,1.352-3.438c1.933-1.941,5.24-2.183,7.373-0.535l0,0c1.031,0.798,1.644,1.915,1.723,3.145
				c0.082,1.259-0.399,2.48-1.355,3.441C52.269,66.043,50.354,66.581,48.59,66.296 M50.653,57.836
				c-1.52-0.245-3.17,0.218-4.288,1.341c-0.807,0.812-1.214,1.841-1.146,2.898c0.066,1.032,0.581,1.971,1.449,2.644
				c1.841,1.417,4.688,1.208,6.349-0.466c0.81-0.813,1.218-1.843,1.149-2.9c-0.067-1.031-0.583-1.968-1.453-2.641
				C52.111,58.246,51.397,57.956,50.653,57.836"/>
		</g>
	</g>
</g>
</svg>
