<?xml version="1.0" encoding="utf-8"?>
<!-- Generator: Adobe Illustrator 16.0.0, SVG Export Plug-In . SVG Version: 6.00 Build 0)  -->
<!DOCTYPE svg PUBLIC "-//W3C//DTD SVG 1.1//EN" "http://www.w3.org/Graphics/SVG/1.1/DTD/svg11.dtd">
<svg version="1.1" xmlns="http://www.w3.org/2000/svg" xmlns:xlink="http://www.w3.org/1999/xlink" x="0px" y="0px" width="104px"
	 height="95px" viewBox="0 0 104 95" enable-background="new 0 0 104 95" xml:space="preserve">
<g id="Layer_4">
</g>
<g id="Blue">
	<circle fill="#EEF0F1" cx="49.5" cy="47" r="43.114"/>
	<g id="XMLID_4339_">
		<path id="XMLID_4413_" fill="#D4DADC" d="M34.665,54.858c0,0-3.445,3.61-3.773,6.563c-0.328,2.954-0.164,11.404,8.286,12.471
			s7.548,1.066,7.548,1.066s1.23,3.281,3.035,4.595c1.806,1.313,5.333,3.199,7.22,1.805c0,0,1.395-0.246-1.559-2.461
			c0,0-1.641-3.036-1.477-4.923c0,0,6.728-2.133,7.384-5.661c0.656-3.527,2.215-10.501-1.724-13.455
			c-3.938-2.953-7.793-3.938-14.931-3.773S34.665,54.858,34.665,54.858z"/>
		<circle id="XMLID_4412_" cx="46.253" cy="62.804" r="2.993"/>
		<ellipse id="XMLID_4411_" fill="#BB2839" cx="54.992" cy="63.701" rx="2.035" ry="1.915"/>
		<ellipse id="XMLID_4410_" fill="#BB2839" cx="37.786" cy="64.521" rx="2.035" ry="1.915"/>
		<path id="XMLID_4409_" fill="#FFE336" d="M68.96,41.485l2.765,2.257l-2.2,2.652c0,0-3.272,4.006-2.991,5.135
			c0.283,1.128,0.791,1.128,1.524,1.016c0.733-0.113,5.699-3.217,7.054-4.176c1.354-0.959,4.345-3.894,4.345-3.894
			s0.79-2.257-0.396-3.611c-1.185-1.354-2.596-2.2-2.596-2.2l2.031-2.313l2.766-3.499c0,0,0.733-2.145-1.298-2.2
			c-2.032-0.057-9.198,6.207-9.198,6.207S68.34,39.623,68.96,41.485z"/>
		<path id="XMLID_4408_" fill="#FFE336" d="M24.891,34.714c0,0-0.508,3.725,0.451,5.304l-2.482,1.919c0,0-1.862,2.37,0,2.652
			s4.176,0.056,4.176,0.056s0.733,4.571,1.016,5.079c0.281,0.508,1.185,1.467,2.596-1.637c1.41-3.104,1.072-2.708,1.298-2.765
			s1.523-0.226,3.159-0.282c1.637-0.057,2.314-0.508,1.58-1.523c-0.733-1.016-3.329-2.427-3.329-2.427s1.017-2.765,1.017-2.934
			c0-0.17,0.789-2.37-0.34-2.54c-1.128-0.169-5.135,1.976-5.135,1.976l-2.99-2.596L24.891,34.714z"/>
		<path id="XMLID_4407_" fill="#BB2839" d="M44.922,41.823c0,0,0.621,4.401,3.387,4.119c2.765-0.281,5.473-2.934,5.473-2.934
			s-3.272,0.959-5.643,0.508S44.922,41.823,44.922,41.823z"/>
		<g id="XMLID_4343_">
			<g id="XMLID_4393_">
				<g id="XMLID_4406_">
					<g>
						<path fill="#0AB6EA" d="M60.65,56.591c2.276,4.458,1.769,9.754-1.348,13.679c-0.364,0.459,0.282,1.115,0.65,0.651
							c3.384-4.264,3.97-9.941,1.492-14.795C61.176,55.599,60.381,56.063,60.65,56.591L60.65,56.591z"/>
					</g>
				</g>
				<g id="XMLID_4405_">
					<g>
						<path fill="#0AB6EA" d="M59.235,70.329c-1.118,1.539-3.116,2.714-5.003,2.958c-0.579,0.074-0.586,0.995,0,0.92
							c2.243-0.29,4.465-1.579,5.797-3.414C60.378,70.313,59.58,69.854,59.235,70.329L59.235,70.329z"/>
					</g>
				</g>
				<g id="XMLID_4404_">
					<g>
						<path fill="#0AB6EA" d="M61.979,57.187c-2.789-5.353-8.997-6.45-14.512-6.651c-5.199-0.19-11.116,0.546-14.35,5.126
							c-3.172,4.492-4.4,10.567-0.438,14.917c3.389,3.72,9.428,4.711,14.241,4.697c0.592-0.002,0.593-0.922,0-0.92
							c-3.75,0.011-8.567-0.651-11.744-2.806c-5.575-3.781-4.775-10.82-1.056-15.676c3.027-3.953,8.336-4.565,12.983-4.43
							c5.285,0.153,11.382,1.029,14.079,6.206C61.457,58.176,62.252,57.711,61.979,57.187L61.979,57.187z"/>
					</g>
				</g>
				<g id="XMLID_4403_">
					<g>
						<path fill="#0AB6EA" d="M53.729,73.593c-0.572,2.353,0.332,4.678,2.238,6.129c0.471,0.358,0.93-0.44,0.464-0.795
							c-1.564-1.191-2.28-3.176-1.815-5.09C54.756,73.262,53.869,73.017,53.729,73.593L53.729,73.593z"/>
					</g>
				</g>
				<g id="XMLID_4402_">
					<g>
						<path fill="#0AB6EA" d="M46.521,74.848c0.255,3.933,5.098,7.559,8.897,7.245c0.586-0.049,0.591-0.969,0-0.92
							c-3.231,0.267-7.754-2.867-7.978-6.325C47.403,74.26,46.482,74.256,46.521,74.848L46.521,74.848z"/>
					</g>
				</g>
				<g id="XMLID_4401_">
					<g>
						<path fill="#0AB6EA" d="M55.943,79.719c0.243,0.222,0.563,0.426,0.753,0.698c0.22,0.314,0.04,0.456-0.269,0.58
							c-0.571,0.231-1.268,0.207-1.87,0.157c-0.591-0.049-0.587,0.872,0,0.92c0.886,0.073,2.108,0.078,2.801-0.579
							c0.944-0.896-0.086-1.81-0.765-2.427C56.156,78.671,55.504,79.319,55.943,79.719L55.943,79.719z"/>
					</g>
				</g>
				<g id="XMLID_4397_">
					<g id="XMLID_4400_">
						<path d="M55.854,62.097c0.619,0.296,1.065,0.93,1.129,1.612c0.063,0.684-0.263,1.392-0.827,1.781
							c-0.563,0.391-1.345,0.445-1.954,0.131c-0.28-0.146-0.521-0.358-0.724-0.599c-0.536-0.633-0.825-1.541-0.517-2.311
							c0.229-0.569,0.773-0.995,1.379-1.095s1.25,0.123,1.678,0.564"/>
						<g>
							<path fill="#0AB6EA" d="M55.621,62.494c1.835,1.018,0.34,3.795-1.391,2.608c-0.695-0.477-1.222-1.565-0.772-2.365
								c0.484-0.86,1.572-0.834,2.233-0.23c0.437,0.398,1.089-0.251,0.65-0.65c-1.023-0.935-2.628-0.987-3.516,0.179
								c-0.896,1.178-0.33,2.87,0.752,3.72c1.068,0.839,2.688,0.643,3.453-0.516c0.826-1.249,0.324-2.835-0.945-3.54
								C55.568,61.412,55.104,62.206,55.621,62.494L55.621,62.494z"/>
						</g>
					</g>
					<g id="XMLID_4399_">
						<g>
							<path fill="#0AB6EA" d="M46.811,60.228c1.045,0.407,1.877,1.321,2.063,2.452c0.298,1.804-1.384,2.887-3.008,2.751
								c-3.599-0.3-2.262-6.141,0.979-5.192c0.569,0.166,0.813-0.722,0.244-0.888c-4.301-1.258-6.214,6.22-1.602,6.969
								c1.864,0.303,3.964-0.715,4.285-2.683c0.312-1.913-1.002-3.628-2.718-4.296C46.504,59.125,46.265,60.015,46.811,60.228
								L46.811,60.228z"/>
						</g>
					</g>
					<g id="XMLID_4398_">
						<path d="M38.131,62.527c0.295-0.029,0.489,0.105,0.727,0.282c0.519,0.389,0.921,0.963,0.998,1.606
							c0.094,0.79-0.353,1.616-1.065,1.97s-1.642,0.209-2.213-0.345c-0.747-0.724-0.777-2-0.21-2.872
							c0.195-0.3,1.161-0.78,1.813-0.637"/>
						<g>
							<path fill="#0AB6EA" d="M38.131,62.987c0.818,0.028,1.395,1.255,1.243,1.95c-0.202,0.929-1.219,1.443-2.079,1.032
								c-0.758-0.362-1-1.239-0.78-2.014c0.208-0.734,0.929-1.061,1.665-0.964c0.586,0.077,0.58-0.844,0-0.92
								c-3.099-0.407-3.621,4.408-0.671,4.922c1.354,0.235,2.635-0.717,2.798-2.086c0.146-1.229-0.863-2.796-2.176-2.841
								C37.539,62.046,37.539,62.967,38.131,62.987L38.131,62.987z"/>
						</g>
					</g>
				</g>
			</g>
			<g id="XMLID_4384_">
				<g id="XMLID_4392_">
					<g>
						<path fill="#0AB6EA" d="M76.326,31.869c-2.804,2.191-5.423,3.764-7.274,6.945c-1.583,2.72,0.13,3.34,2.36,5.095
							c0.461,0.362,1.116-0.284,0.65-0.65c-1.077-0.848-2.309-1.372-2.387-2.767c-0.083-1.458,1.092-2.728,2.022-3.779
							c1.528-1.728,3.487-2.793,5.278-4.193C77.442,32.155,76.787,31.509,76.326,31.869L76.326,31.869z"/>
					</g>
				</g>
				<g id="XMLID_4391_">
					<g>
						<path fill="#0AB6EA" d="M71.505,43.496c-1.918,2.036-3.663,4.213-5.237,6.526c-0.334,0.49,0.463,0.951,0.795,0.464
							c1.529-2.248,3.229-4.36,5.093-6.34C72.561,43.716,71.911,43.064,71.505,43.496L71.505,43.496z"/>
					</g>
				</g>
				<g id="XMLID_4390_">
					<g>
						<path fill="#0AB6EA" d="M66.298,50.166c-0.768,1.148-0.115,2.732,1.271,2.939c0.579,0.086,0.829-0.801,0.245-0.888
							c-0.809-0.12-1.188-0.887-0.722-1.587C67.422,50.137,66.625,49.676,66.298,50.166L66.298,50.166z"/>
					</g>
				</g>
				<g id="XMLID_4389_">
					<g>
						<path fill="#0AB6EA" d="M68.049,52.991c3.92-1.391,7.082-3.967,10.287-6.536c0.462-0.37-0.192-1.018-0.65-0.65
							c-3.081,2.47-6.113,4.962-9.881,6.299C67.25,52.301,67.488,53.189,68.049,52.991L68.049,52.991z"/>
					</g>
				</g>
				<g id="XMLID_4387_">
					<g>
						<path fill="#0AB6EA" d="M76.067,39.012c0.868,0.755,2.017,1.364,2.713,2.275c1.129,1.478,0.465,3.479-0.975,4.448
							c-0.488,0.328-0.028,1.126,0.465,0.794c1.331-0.896,2.163-2.366,1.972-4.006C80,40.447,78.142,39.6,76.718,38.361
							C76.273,37.974,75.62,38.622,76.067,39.012L76.067,39.012z"/>
					</g>
				</g>
				<g id="XMLID_4386_">
					<g>
						<path fill="#0AB6EA" d="M76.825,38.928c1.245-1.458,2.469-2.934,3.665-4.433c0.674-0.843,1.887-1.897,1.404-3.077
							c-0.221-0.541-1.111-0.305-0.887,0.244c0.386,0.945-1.744,2.903-2.317,3.606c-0.827,1.013-1.667,2.015-2.516,3.009
							C75.792,38.726,76.439,39.379,76.825,38.928L76.825,38.928z"/>
					</g>
				</g>
				<g id="XMLID_4385_">
					<g>
						<path fill="#0AB6EA" d="M76.668,32.732c0.585-0.411,1.186-0.795,1.816-1.133c0.523-0.28,2.309-1.081,2.514-0.005
							c0.11,0.581,0.997,0.335,0.887-0.244c-0.157-0.825-1.273-1.329-2.049-1.277c-1.242,0.083-2.656,1.178-3.632,1.865
							C75.724,32.276,76.184,33.074,76.668,32.732L76.668,32.732z"/>
					</g>
				</g>
			</g>
			<g id="XMLID_4368_">
				<g id="XMLID_4383_">
					<g>
						<path fill="#0AB6EA" d="M64.864,27.196c-0.52,5.517-3.444,10.192-9.024,11.599c-0.574,0.145-0.331,1.032,0.244,0.887
							c6.013-1.516,9.141-6.548,9.7-12.485C65.84,26.606,64.92,26.61,64.864,27.196L64.864,27.196z"/>
					</g>
				</g>
				<g id="XMLID_4381_">
					<g>
						<path fill="#0AB6EA" d="M65.787,27.487c0.094-5.219-3.67-10.65-8.739-12.138c-5.65-1.658-11.815,1.151-15.026,5.866
							c-0.334,0.491,0.463,0.951,0.795,0.465c2.974-4.366,8.758-6.989,13.987-5.444c4.675,1.383,8.149,6.445,8.063,11.251
							C64.857,28.08,65.777,28.08,65.787,27.487L65.787,27.487z"/>
					</g>
				</g>
				<g id="XMLID_4380_">
					<g>
						<path fill="#0AB6EA" d="M45.278,35.572c-5.089-3.115-5.307-9.254-2.394-13.904c0.315-0.503-0.48-0.965-0.794-0.464
							c-3.19,5.092-2.802,11.78,2.723,15.162C45.32,36.676,45.783,35.881,45.278,35.572L45.278,35.572z"/>
					</g>
				</g>
				<g id="XMLID_4379_">
					<g>
						<path fill="#0AB6EA" d="M55.591,38.831c-0.818,1.828-1.651,3.764-3.161,5.139c-2.059,1.876-5.901,2.388-6.855-0.953
							c-0.162-0.568-1.05-0.326-0.887,0.245c0.67,2.345,3.017,3.582,5.377,3.034c3.374-0.782,5.029-4.116,6.32-7
							C56.625,38.76,55.832,38.291,55.591,38.831L55.591,38.831z"/>
					</g>
				</g>
				<g id="XMLID_4378_">
					<g>
						<path fill="#0AB6EA" d="M45.556,43.025c-0.331-2.301-0.304-4.59,0.075-6.884c0.096-0.579-0.791-0.828-0.887-0.245
							c-0.408,2.468-0.432,4.897-0.075,7.374C44.752,43.854,45.639,43.605,45.556,43.025L45.556,43.025z"/>
					</g>
				</g>
				<g id="XMLID_4377_">
					<g>
						<path fill="#0AB6EA" d="M56.487,32.72c-2.582,0.817-8.407,0.715-9.448-2.457c-0.184-0.56-1.072-0.32-0.887,0.245
							c1.239,3.775,7.427,4.098,10.579,3.099C57.294,33.429,57.054,32.54,56.487,32.72L56.487,32.72z"/>
					</g>
				</g>
				<g id="XMLID_4375_">
					<g>
						<path fill="#0AB6EA" d="M50.469,31.455c-0.301-1.104-0.915-2.625-2.12-2.998c-1.192-0.369-1.88,0.597-2.168,1.611
							c-0.162,0.571,0.726,0.814,0.887,0.245c0.07-0.247,0.141-0.516,0.291-0.729c0.366-0.515,0.967-0.197,1.29,0.18
							c0.469,0.546,0.746,1.249,0.933,1.935C49.736,32.271,50.624,32.028,50.469,31.455L50.469,31.455z"/>
					</g>
				</g>
				<g id="XMLID_4374_">
					<g>
						<path fill="#0AB6EA" d="M57.085,33.357c1.613-1.023,1.039-3.391-0.45-4.257c-0.687-0.399-1.58-0.406-2.215,0.096
							c-0.73,0.577-0.969,1.584-1.26,2.421c-0.195,0.561,0.693,0.801,0.887,0.244c0.278-0.8,0.59-2.34,1.739-2.104
							c1.099,0.227,1.976,2.082,0.835,2.806C56.122,32.88,56.584,33.676,57.085,33.357L57.085,33.357z"/>
					</g>
				</g>
				<g id="XMLID_4373_">
					<g>
						<path fill="#0AB6EA" d="M53.259,31.26c-0.645,3.424-1.437,6.832-2.578,10.127c-0.194,0.561,0.694,0.802,0.888,0.244
							c1.142-3.295,1.934-6.702,2.578-10.126C54.256,30.926,53.369,30.678,53.259,31.26L53.259,31.26z"/>
					</g>
				</g>
				<g id="XMLID_4372_">
					<g>
						<path fill="#0AB6EA" d="M48.965,41.729c0.868-3.37,1.443-6.883,1.505-10.367c0.01-0.593-0.91-0.593-0.921,0
							c-0.059,3.408-0.621,6.825-1.471,10.123C47.931,42.059,48.817,42.304,48.965,41.729L48.965,41.729z"/>
					</g>
				</g>
				<g id="XMLID_4371_">
					<g>
						<path fill="#0AB6EA" d="M53.298,42.537c-2.145,0.372-6.212,0.98-7.581-1.184c-0.314-0.499-1.111-0.038-0.794,0.465
							c1.702,2.692,5.934,2.072,8.619,1.605C54.125,43.323,53.878,42.437,53.298,42.537L53.298,42.537z"/>
					</g>
				</g>
				<g id="XMLID_4369_">
					<g>
						<path fill="#0AB6EA" d="M53.987,42.794c1.352-1.752-1.008-2.915-2.455-3.105c-2.2-0.29-4.559-0.134-6.353,1.269
							c-0.467,0.363,0.188,1.011,0.65,0.65c1.088-0.85,2.391-1.071,3.738-1.092c0.435-0.007,0.875-0.001,1.309,0.03
							c0.512,0.038,3.428,0.343,2.316,1.783C52.832,42.798,53.631,43.256,53.987,42.794L53.987,42.794z"/>
					</g>
				</g>
			</g>
			<g id="XMLID_4354_">
				<g id="XMLID_4367_">
					<g>
						<path fill="#0AB6EA" d="M33.181,35.173c-1.433,0.647-2.893,1.23-4.325,1.878c-0.539,0.243-0.072,1.036,0.464,0.794
							c1.433-0.646,2.893-1.23,4.325-1.877C34.184,35.725,33.717,34.932,33.181,35.173L33.181,35.173z"/>
					</g>
				</g>
				<g id="XMLID_4366_">
					<g>
						<path fill="#0AB6EA" d="M33.564,36.012c0.988-0.059,0.057,2.568-0.038,2.909c-0.186,0.669-0.331,1.344-0.563,2
							c-0.197,0.56,0.691,0.8,0.887,0.245c0.461-1.305,0.985-2.861,1.135-4.236c0.102-0.932-0.377-1.899-1.42-1.838
							C32.977,35.127,32.973,36.047,33.564,36.012L33.564,36.012z"/>
					</g>
				</g>
				<g id="XMLID_4365_">
					<g>
						<path fill="#0AB6EA" d="M24.956,35.42c0.041-0.684,1.901,0.985,2.149,1.196c0.543,0.462,1.065,0.945,1.701,1.278
							c0.523,0.275,0.988-0.519,0.464-0.794c-0.77-0.404-1.405-1.042-2.063-1.602c-0.469-0.398-0.968-0.979-1.568-1.181
							c-0.78-0.261-1.555,0.301-1.603,1.102C24,36.012,24.921,36.01,24.956,35.42L24.956,35.42z"/>
					</g>
				</g>
				<g id="XMLID_4363_">
					<g>
						<path fill="#0AB6EA" d="M24.057,35.396c-0.159,1.639,0.242,3.576,1.064,5.01c0.294,0.514,1.09,0.051,0.794-0.464
							c-0.742-1.297-1.081-3.072-0.938-4.546C25.035,34.808,24.114,34.812,24.057,35.396L24.057,35.396z"/>
					</g>
				</g>
				<g id="XMLID_4362_">
					<g>
						<path fill="#0AB6EA" d="M25.225,39.822c-1.15,0.866-2.371,1.632-3.494,2.536c-0.46,0.372,0.194,1.02,0.651,0.651
							c1.06-0.855,2.22-1.574,3.308-2.393C26.156,40.265,25.698,39.466,25.225,39.822L25.225,39.822z"/>
					</g>
				</g>
				<g id="XMLID_4361_">
					<g>
						<path fill="#0AB6EA" d="M21.728,42.384c-0.642,0.774-0.81,1.933,0.229,2.464c1.515,0.775,3.65,0.311,5.249,0.19
							c0.587-0.045,0.592-0.965,0-0.921c-0.881,0.067-1.767,0.163-2.649,0.196c-0.382,0.014-0.753-0.005-1.132-0.054
							c-0.422-0.055-1.925-0.166-1.046-1.226C22.753,42.582,22.105,41.928,21.728,42.384L21.728,42.384z"/>
					</g>
				</g>
				<g id="XMLID_4360_">
					<g>
						<path fill="#0AB6EA" d="M26.747,44.603c0.162,1.559,0.401,3.109,0.645,4.657c0.091,0.583,0.978,0.336,0.887-0.244
							c-0.23-1.468-0.458-2.936-0.611-4.413C27.605,44.02,26.686,44.013,26.747,44.603L26.747,44.603z"/>
					</g>
				</g>
				<g id="XMLID_4359_">
					<g>
						<path fill="#0AB6EA" d="M33.148,41.467c0.959,0.677,1.919,1.354,2.879,2.032c0.484,0.342,0.944-0.455,0.464-0.795
							c-0.96-0.677-1.919-1.354-2.879-2.032C33.128,40.33,32.668,41.127,33.148,41.467L33.148,41.467z"/>
					</g>
				</g>
				<g id="XMLID_4357_">
					<g>
						<path fill="#0AB6EA" d="M36.098,43.551c0.967,0.641-0.499,1.021-0.944,1.036c-0.434,0.015-0.867-0.01-1.302,0.011
							c-0.646,0.03-1.512,0.008-2.093,0.35c-0.51,0.3-0.048,1.095,0.465,0.794c0.531-0.313,1.506-0.229,2.1-0.239
							c0.718-0.013,1.472,0.06,2.149-0.233c1.09-0.47,1.031-1.888,0.089-2.513C36.066,42.429,35.605,43.225,36.098,43.551
							L36.098,43.551z"/>
					</g>
				</g>
				<g id="XMLID_4356_">
					<g>
						<path fill="#0AB6EA" d="M31.565,45.187c-0.631,1.371-1.322,2.705-2.053,4.024c-0.287,0.519,0.507,0.983,0.794,0.465
							c0.73-1.32,1.422-2.654,2.054-4.024C32.605,45.117,31.813,44.648,31.565,45.187L31.565,45.187z"/>
					</g>
				</g>
				<g id="XMLID_4355_">
					<g>
						<path fill="#0AB6EA" d="M27.4,49.376c0.129,0.559,0.556,1.098,1.14,1.222c0.686,0.146,1.24-0.257,1.645-0.757
							c0.369-0.456-0.278-1.111-0.65-0.65c-0.169,0.209-0.348,0.469-0.639,0.503c-0.343,0.041-0.54-0.272-0.607-0.563
							C28.155,48.555,27.268,48.799,27.4,49.376L27.4,49.376z"/>
					</g>
				</g>
			</g>
			<g id="XMLID_4344_">
				<g id="XMLID_4353_">
					<g>
						<path fill="#0AB6EA" d="M68.444,61.164c0.323,3.218,0.837,6.397,1.549,9.552c0.13,0.577,1.018,0.333,0.887-0.244
							c-0.693-3.074-1.2-6.171-1.516-9.308C69.306,60.581,68.386,60.575,68.444,61.164L68.444,61.164z"/>
					</g>
				</g>
				<g id="XMLID_4351_">
					<g>
						<path fill="#0AB6EA" d="M69.439,61.162c0.253-3.027,3.868,0.662,4.808,1.521c1.247,1.14,2.409,2.36,3.516,3.636
							c0.389,0.448,1.037-0.204,0.65-0.65c-2.005-2.311-4.364-4.947-7.032-6.515c-1.762-1.036-2.715,0.243-2.861,2.008
							C68.47,61.752,69.39,61.749,69.439,61.162L69.439,61.162z"/>
					</g>
				</g>
				<g id="XMLID_4350_">
					<g>
						<path fill="#0AB6EA" d="M73.518,69.542c1.159,1.753,2.475,3.396,3.635,5.148c0.324,0.492,1.122,0.032,0.794-0.464
							c-1.159-1.753-2.475-3.396-3.634-5.148C73.986,68.586,73.189,69.047,73.518,69.542L73.518,69.542z"/>
					</g>
				</g>
				<g id="XMLID_4349_">
					<g>
						<path fill="#0AB6EA" d="M77.999,75.001c0.862-0.409,1.472-1.108,1.832-1.984c0.225-0.547-0.665-0.785-0.888-0.244
							c-0.269,0.655-0.776,1.134-1.408,1.435C77,74.461,77.467,75.255,77.999,75.001L77.999,75.001z"/>
					</g>
				</g>
				<g id="XMLID_4348_">
					<g>
						<path fill="#0AB6EA" d="M75.354,68.338c1.289,1.504,2.47,3.085,3.549,4.745c0.32,0.495,1.117,0.034,0.794-0.464
							c-1.121-1.727-2.353-3.369-3.692-4.932C75.618,67.237,74.971,67.891,75.354,68.338L75.354,68.338z"/>
					</g>
				</g>
				<g id="XMLID_4347_">
					<g>
						<path fill="#0AB6EA" d="M76.171,68.185c0.448-0.229,0.895-0.456,1.343-0.685c0.305-0.155,0.642-0.294,0.875-0.553
							c0.438-0.486,0.266-1.2-0.338-1.427c-0.555-0.209-0.795,0.681-0.244,0.888c-0.249-0.094-0.805,0.321-1.01,0.426
							c-0.363,0.186-0.727,0.37-1.09,0.556C75.179,67.659,75.645,68.453,76.171,68.185L76.171,68.185z"/>
					</g>
				</g>
				<g id="XMLID_4345_">
					<g>
						<path fill="#0AB6EA" d="M70.065,70.838c0.244,0.74,1.021,1.026,1.731,0.764c0.924-0.341,1.662-1.388,2.338-2.059
							c0.42-0.418-0.23-1.068-0.651-0.65c-0.387,0.384-0.772,0.769-1.159,1.152c-0.223,0.221-1.154,1.205-1.372,0.548
							C70.768,70.033,69.879,70.273,70.065,70.838L70.065,70.838z"/>
					</g>
				</g>
			</g>
		</g>
	</g>
</g>
</svg>
