<?xml version="1.0" encoding="utf-8"?>
<!-- Generator: Adobe Illustrator 16.0.0, SVG Export Plug-In . SVG Version: 6.00 Build 0)  -->
<!DOCTYPE svg PUBLIC "-//W3C//DTD SVG 1.1//EN" "http://www.w3.org/Graphics/SVG/1.1/DTD/svg11.dtd">
<svg version="1.1" xmlns="http://www.w3.org/2000/svg" xmlns:xlink="http://www.w3.org/1999/xlink" x="0px" y="0px" width="104px"
	 height="95px" viewBox="0 0 104 95" enable-background="new 0 0 104 95" xml:space="preserve">
<g id="Layer_4">
</g>
<g id="Blue">
	<ellipse fill="#EEF0F1" cx="52" cy="47.5" rx="43.047" ry="43.857"/>
	<rect x="15.289" y="-25.124" fill="none" width="114.656" height="30.149"/>
	<text transform="matrix(1 0 0 1 15.2881 -16.6035)" font-family="'MyriadPro-Regular'" font-size="12">ASK AN ADULT</text>
	<g>
		<path id="XMLID_4561_" fill="#FFE336" d="M54.249,62.218c0,0-3.444-1.229-5.329-1.148c-1.887,0.082-4.51,3.034-5.904,4.428
			c-1.394,1.395-2.705,5.084-5.166,6.232c-2.459,1.147-6.231,4.837-6.231,4.837l-0.327-0.409c0,0,1.886-6.97,2.213-7.708
			c0.328-0.738,1.313-5.002,1.477-6.067c0.164-1.066,4.1-10.659,7.379-11.233c3.28-0.574,5.904-1.312,6.561-1.312
			c0.655,0,1.803-2.46,3.443-2.788c1.64-0.328,6.97-1.313,9.676,0.737c2.705,2.051,3.279,5.74,3.279,5.74s0.656,4.838,2.542,5.083
			c1.886,0.246,2.214-0.327,2.214-0.327s-0.41,2.46-1.147,3.443c-0.738,0.984-3.034,2.296-3.69,2.296c0,0-0.82,0.82-0.082,2.46
			s0.984,5.166,0.82,6.724s-1.559,3.936-1.559,3.936s-0.819-3.854-1.967-5.575c-1.148-1.723-3.116-4.1-4.838-5.002
			C55.889,65.661,54.249,62.218,54.249,62.218z"/>
		<path id="XMLID_4560_" d="M42.77,80.667c0,0,3.444,2.787,6.888,2.623c3.444-0.164,7.052-1.886,8.855-3.115
			c0,0,0.902-1.148,2.378,0.983c1.477,2.132,3.525,4.674,3.034,6.231c0,0-3.362,2.542-7.544,2.624s-7.543,1.641-13.201-0.41
			l-4.92-1.065c0,0,0.41-5.002,2.215-6.313C42.277,80.912,42.77,80.667,42.77,80.667z"/>
		<path id="XMLID_4559_" fill="#D4DADC" d="M46.132,77.305c0,0,4.591-1.312,8.363-0.738c0,0-0.983,2.624-3.198,2.87
			c-2.213,0.246-3.771,0-5.165-1.229C46.132,78.207,45.886,77.387,46.132,77.305z"/>
		<ellipse id="XMLID_4558_" fill="#0AB6EA" cx="44.164" cy="70.745" rx="0.656" ry="2.46"/>
		<ellipse id="XMLID_4557_" fill="#0AB6EA" cx="55.893" cy="70.745" rx="0.656" ry="2.46"/>
		<path id="XMLID_4556_" fill="#0AB6EA" d="M54.093,51.352l1.214,1.733l4.246,0.52c0,0,0.086-1.387-0.953-1.993
			C57.56,51.005,55.739,49.705,54.093,51.352z"/>
		<path id="XMLID_4553_" fill="#D4DADC" d="M84.007,34.555l2.19-2.282l-1.734-2.739l-2.465,0.548l-3.104-1.644l0.548-2.556
			l-3.286-0.821l-1.005,2.921L71.5,28.895l-2.465-2.282l-1.644,1.369l-0.365,1.278l1.369,2.282l-1.095,2.556l-3.014,1.188
			c0,0,0.274,2.738,0.549,3.194c0.273,0.457,2.556,0.092,2.556,0.092l1.461,2.465l-0.365,3.104c0,0,1.917,1.917,2.647,1.37
			c0.73-0.548,1.734-1.553,2.008-1.553c0.274,0,2.922-0.091,3.104,0.183c0.183,0.274-0.183,2.1,1.369,2.1s2.556-0.456,2.556-0.729
			c0-0.274,0.184-2.922,0.184-2.922s1.46-1.826,1.734-1.826c0.273,0,2.556,0.64,2.556,0.64l1.187-3.104l-2.282-2.008L84.007,34.555z
			 M75.517,37.75c-1.159,0-2.1-0.94-2.1-2.1c0-1.16,0.94-2.101,2.1-2.101c1.16,0,2.1,0.94,2.1,2.101
			C77.616,36.81,76.677,37.75,75.517,37.75z"/>
		<path id="XMLID_4552_" fill="#FFE336" d="M21.73,29.513l0.43,5.014l-4.012,2.436l-0.43,1.146c0,0,1.433,1.289,3.295,1.575
			c1.862,0.287,1.862,0.287,1.862,0.287s0.859,0.43,1.289,1.719s1.289,4.011,1.289,4.011s1.72,2.292,2.723-0.286
			c1.003-2.579,1.289-5.443,1.289-5.443l4.44,0.859c0,0,2.578-0.287,2.578-1.576s-2.005-2.436-2.005-2.436l-2.149-1.861l1.742-3.745
			c0,0,0.537-2.303-0.076-2.687c-0.615-0.384-1.152-0.23-2.381,0.537c-1.228,0.768-3.146,1.919-3.146,1.919l-4.069-2.38
			c0,0-1.535-0.844-1.996-0.768C21.943,27.911,21.747,29.119,21.73,29.513z"/>
		<path id="XMLID_4551_" fill="#BB2839" d="M51.575,13.939c0,0-2.457,1.151-3.531,7.754c-1.075,6.602-2.073,12.052-1.996,12.436
			s0.921,2.841,3.454,2.149c2.533-0.69,4.76-7.6,4.76-7.6s3.071-8.291,3.378-10.594c0.308-2.303-1.229-4.068-2.687-4.299
			C53.494,13.556,51.575,13.939,51.575,13.939z"/>
		<circle id="XMLID_4550_" fill="#BB2839" cx="46.892" cy="40.117" r="1.842"/>
		<g id="XMLID_4529_">
			<g id="XMLID_4533_">
				<g id="XMLID_4549_">
					<g>
						<path fill="#0AB6EA" d="M37.721,71.734c1.384,4.931,2.957,9.077,8.147,11.094c4.638,1.803,10.72,0.463,13.927-3.388
							c0.369-0.443-0.266-1.085-0.639-0.638c-3.09,3.711-8.963,4.916-13.36,3.004c-4.65-2.022-5.946-5.827-7.205-10.313
							C38.434,70.937,37.563,71.174,37.721,71.734L37.721,71.734z"/>
					</g>
				</g>
				<g id="XMLID_4548_">
					<g>
						<path fill="#0AB6EA" d="M59.932,79.393c1.623-1.925,2.795-4.103,3.492-6.523c0.16-0.559-0.71-0.798-0.87-0.239
							c-0.654,2.271-1.736,4.316-3.261,6.125C58.921,79.195,59.557,79.837,59.932,79.393L59.932,79.393z"/>
					</g>
				</g>
				<g id="XMLID_4547_">
					<g>
						<path fill="#0AB6EA" d="M32.268,77.018c1.211-2.021,3.281-2.937,5.166-4.196c1.605-1.073,3.031-2.377,4.219-3.902
							c1.221-1.567,1.924-3.477,3.159-5.016c2.4-2.992,5.94-2.742,9.121-1.282c0.523,0.24,0.982-0.537,0.455-0.779
							c-2.12-0.973-4.202-1.791-6.509-1.025c-2.327,0.771-3.681,2.145-4.857,4.226c-1.645,2.91-3.49,5.35-6.34,7.189
							c-1.96,1.265-3.959,2.269-5.193,4.33C31.189,77.062,31.97,77.516,32.268,77.018L32.268,77.018z"/>
					</g>
				</g>
				<g id="XMLID_4546_">
					<g>
						<path fill="#0AB6EA" d="M54.269,62.696c2.403-0.957,3.81-3.449,3.266-6.001c-0.12-0.567-0.99-0.327-0.87,0.24
							c0.434,2.03-0.711,4.124-2.636,4.891C53.495,62.038,53.728,62.911,54.269,62.696L54.269,62.696z"/>
					</g>
				</g>
				<g id="XMLID_4545_">
					<g>
						<path fill="#0AB6EA" d="M31.971,76.711c0.123-3.688,2.048-6.93,2.847-10.477c0.726-3.218,0.987-6.581,2.725-9.469
							c1.757-2.921,4.367-5.342,7.755-6.093c3.75-0.832,8.037-0.351,10.111,3.279c0.287,0.504,1.067,0.05,0.778-0.456
							c-3.541-6.196-12.76-4.705-17.071-0.24c-2.818,2.919-3.924,6.313-4.676,10.232c-0.435,2.265-0.951,4.424-1.746,6.592
							c-0.805,2.194-1.547,4.279-1.625,6.631C31.049,77.291,31.951,77.291,31.971,76.711L31.971,76.711z"/>
					</g>
				</g>
				<g id="XMLID_4544_">
					<g>
						<path fill="#0AB6EA" d="M54.004,62.454c1.325,2.872,3.756,4.634,5.998,6.757c2.323,2.199,3.865,5.285,3.718,8.556
							c-0.026,0.58,0.876,0.579,0.901,0c0.112-2.464-0.761-5.334-2.232-7.32c-2.313-3.122-5.917-4.788-7.605-8.447
							C54.541,61.473,53.763,61.93,54.004,62.454L54.004,62.454z"/>
					</g>
				</g>
				<g id="XMLID_4543_">
					<g>
						<path fill="#0AB6EA" d="M55.418,53.602c2.496-0.239,5.255,1.391,7.059,3.037c1.365,1.247,2.29,2.95,2.303,4.832
							c0.007,1.099-0.399,2.154-0.425,3.248c-0.05,2.124,1.163,3.992,1.189,6.146c0.025,2.018-0.306,4.87-1.692,6.468
							c-0.379,0.437,0.256,1.077,0.638,0.638c1.391-1.602,1.791-4.05,1.928-6.102c0.087-1.317-0.009-2.596-0.374-3.865
							c-0.284-0.985-0.759-1.858-0.803-2.922c-0.04-0.971,0.311-1.875,0.394-2.827c0.44-5.029-5.27-10.029-10.216-9.555
							C54.846,52.754,54.84,53.656,55.418,53.602L55.418,53.602z"/>
					</g>
				</g>
				<g id="XMLID_4542_">
					<g>
						<path fill="#0AB6EA" d="M43.602,68.701c-0.567,1.64-0.613,3.313-0.153,4.985c0.067,0.242,0.317,0.37,0.556,0.315
							c0.777-0.18,0.91-1.004,1.046-1.688c0.22-1.101,0.31-2.249,0.206-3.367c-0.139-1.486-1.637-1.312-1.883,0.054
							c-0.102,0.567,0.768,0.812,0.871,0.24c0.107-0.604,0.137,0.205,0.142,0.28c0.028,0.375,0.005,0.777-0.021,1.151
							c-0.021,0.313-0.095,2.342-0.602,2.459c0.185,0.105,0.37,0.21,0.555,0.315c-0.421-1.528-0.365-3.01,0.152-4.507
							C44.662,68.391,43.791,68.154,43.602,68.701L43.602,68.701z"/>
					</g>
				</g>
				<g id="XMLID_4541_">
					<g>
						<path fill="#0AB6EA" d="M55.386,68.696c-0.091,0.916-0.138,1.832-0.115,2.752c0.015,0.599-0.07,1.38,0.19,1.938
							c0.317,0.68,0.977,0.636,1.305,0.021c0.586-1.097,1.272-6.424-1.229-5.616c-0.551,0.178-0.314,1.049,0.24,0.87
							c0.707-0.229,0.654,1.847,0.639,2.207c-0.032,0.729-0.158,1.706-0.572,2.341c0.129-0.074,0.26-0.148,0.39-0.224
							c-0.145,0.007,0.021-3.955,0.055-4.289C56.346,68.119,55.443,68.123,55.386,68.696L55.386,68.696z"/>
					</g>
				</g>
				<g id="XMLID_4540_">
					<g>
						<path fill="#0AB6EA" d="M45.322,77.669c1.087,1.413,2.527,2.523,4.379,2.602c2.321,0.099,3.898-1.433,5.263-3.101
							c0.364-0.445-0.27-1.088-0.638-0.638c-0.98,1.197-2.033,2.409-3.617,2.755c-1.873,0.409-3.516-0.653-4.607-2.074
							C45.752,76.76,44.968,77.208,45.322,77.669L45.322,77.669z"/>
					</g>
				</g>
				<g id="XMLID_4539_">
					<g>
						<path fill="#0AB6EA" d="M45.898,77.862c2.794-0.9,5.764-0.822,8.667-0.923c0.579-0.021,0.581-0.923,0-0.902
							c-2.986,0.104-6.032,0.029-8.906,0.955C45.108,77.17,45.344,78.041,45.898,77.862L45.898,77.862z"/>
					</g>
				</g>
				<g id="XMLID_4538_">
					<g>
						<path fill="#0AB6EA" d="M47.307,50.281c0.58,0,0.581-0.902,0-0.902S46.725,50.281,47.307,50.281L47.307,50.281z"/>
					</g>
				</g>
				<g id="XMLID_4537_">
					<g>
						<path fill="#0AB6EA" d="M53.719,51.497c2.322-1.694,5.457-0.272,5.547,2.655c0.018,0.579,0.92,0.581,0.902,0
							c-0.109-3.547-3.996-5.557-6.904-3.435C52.8,51.057,53.25,51.84,53.719,51.497L53.719,51.497z"/>
					</g>
				</g>
				<g id="XMLID_4536_">
					<g>
						<path fill="#0AB6EA" d="M49.636,49.924c3.338-4.28,11.693-4.077,14.48,0.561c0.299,0.497,1.079,0.044,0.779-0.456
							c-3.086-5.133-12.188-5.499-15.897-0.743C48.645,49.738,49.278,50.381,49.636,49.924L49.636,49.924z"/>
					</g>
				</g>
				<g id="XMLID_4535_">
					<g>
						<path fill="#0AB6EA" d="M64.129,50.471c1.018,2.363,0.579,5.4,2.148,7.528c0.926,1.254,2.984,1.708,4.095,0.444
							c0.382-0.436-0.254-1.076-0.638-0.639c-0.909,1.035-2.402,0.285-2.958-0.702c-0.469-0.833-0.671-1.887-0.834-2.82
							c-0.26-1.484-0.433-2.868-1.034-4.267C64.679,49.483,63.901,49.942,64.129,50.471L64.129,50.471z"/>
					</g>
				</g>
				<g id="XMLID_4534_">
					<g>
						<path fill="#0AB6EA" d="M65.447,64.427c3.045-0.49,4.837-3.305,5.057-6.217c0.044-0.579-0.858-0.576-0.902,0
							c-0.191,2.542-1.759,4.923-4.394,5.347C64.636,63.649,64.879,64.519,65.447,64.427L65.447,64.427z"/>
					</g>
				</g>
			</g>
			<g id="XMLID_4532_">
				<g>
					<path fill="#0AB6EA" d="M42.517,80.257c-3.313,1.675-4.486,4.337-4.805,7.913c-0.052,0.578,0.852,0.574,0.902,0
						c0.292-3.283,1.328-5.603,4.358-7.134C43.49,80.774,43.034,79.995,42.517,80.257L42.517,80.257z"/>
				</g>
			</g>
			<g id="XMLID_4531_">
				<g>
					<path fill="#0AB6EA" d="M58.754,80.063c2.816,1.369,4.657,4.464,4.722,7.598c0.012,0.58,0.914,0.582,0.902,0
						c-0.071-3.444-2.06-6.865-5.169-8.377C58.689,79.03,58.231,79.809,58.754,80.063L58.754,80.063z"/>
				</g>
			</g>
			<g id="XMLID_4530_">
				<g>
					<path fill="#0AB6EA" d="M38.106,88.903c8.591,2.538,17.758,3.269,25.987-0.846c0.52-0.26,0.063-1.038-0.456-0.779
						c-8.003,4.002-16.949,3.22-25.291,0.755C37.789,87.869,37.55,88.739,38.106,88.903L38.106,88.903z"/>
				</g>
			</g>
		</g>
		<g id="XMLID_4523_">
			<g id="XMLID_4528_">
				<g>
					<path fill="#0AB6EA" d="M51.842,13.35c-2.749,0.848-3.715,5.402-4.273,7.83c-0.976,4.249-1.435,8.648-1.722,12.991
						c-0.038,0.58,0.864,0.578,0.903,0c0.237-3.605,0.633-7.203,1.283-10.76c0.444-2.43,1.27-8.334,4.048-9.191
						C52.635,14.05,52.398,13.179,51.842,13.35L51.842,13.35z"/>
				</g>
			</g>
			<g id="XMLID_4527_">
				<g>
					<path fill="#0AB6EA" d="M46.02,34.189c-0.078,1.367,0.989,2.548,2.336,2.732c1.54,0.212,2.867-0.875,3.576-2.143
						c0.283-0.508-0.495-0.963-0.779-0.456c-0.472,0.845-1.207,1.602-2.222,1.699c-1.093,0.104-2.073-0.704-2.009-1.833
						C46.955,33.609,46.053,33.611,46.02,34.189L46.02,34.189z"/>
				</g>
			</g>
			<g id="XMLID_4526_">
				<g>
					<path fill="#0AB6EA" d="M51.938,14.258c1.688-0.922,4.914,0.01,5.092,2.142c0.049,0.574,0.951,0.579,0.902,0
						c-0.238-2.848-4.114-4.196-6.45-2.921C50.973,13.757,51.427,14.536,51.938,14.258L51.938,14.258z"/>
				</g>
			</g>
			<g id="XMLID_4525_">
				<g>
					<path fill="#0AB6EA" d="M51.959,34.804c1.445-2.968,2.79-5.983,3.901-9.093c1.068-2.991,2.397-6.365,1.984-9.589
						c-0.073-0.567-0.976-0.575-0.902,0c0.399,3.121-0.913,6.437-1.952,9.349c-1.083,3.037-2.399,5.98-3.811,8.877
						C50.927,34.868,51.704,35.326,51.959,34.804L51.959,34.804z"/>
				</g>
			</g>
			<g id="XMLID_4524_">
				<g>
					<path fill="#0AB6EA" d="M46.427,38.255c-1.356,0.125-2.28,2.08-1.67,3.263c0.645,1.25,2.328,1.521,3.456,0.777
						c1.102-0.727,1.436-2.347,0.591-3.402c-0.782-0.979-2.448-1.104-3.384-0.296c-0.439,0.38,0.2,1.016,0.639,0.638
						c0.471-0.406,1.357-0.333,1.84,0.022c0.659,0.485,0.601,1.554,0.057,2.094c-0.532,0.53-1.468,0.632-2.061,0.15
						c-0.394-0.319-0.501-0.719-0.36-1.204c0.106-0.367,0.442-1.099,0.893-1.14C47,39.104,47.006,38.201,46.427,38.255
						L46.427,38.255z"/>
				</g>
			</g>
		</g>
		<g id="XMLID_4497_">
			<g id="XMLID_4522_">
				<g>
					<path fill="#0AB6EA" d="M75.138,34.065c0.979-0.14,2.013,0.757,2.013,1.752c0,0.92-0.927,1.453-1.757,1.453
						C73.425,37.271,73.377,34.501,75.138,34.065c0.563-0.14,0.325-1.01-0.239-0.87c-1.271,0.314-2.093,1.606-1.949,2.896
						c0.155,1.395,1.432,2.209,2.773,2.059c1.312-0.147,2.463-1.187,2.311-2.578c-0.166-1.531-1.654-2.588-3.135-2.377
						C74.326,33.277,74.569,34.146,75.138,34.065L75.138,34.065z"/>
				</g>
			</g>
			<g id="XMLID_4521_">
				<g>
					<path fill="#0AB6EA" d="M70.727,28.655c-3.701,2.835-5.182,7.789-2.606,11.918c2.562,4.106,7.99,5.075,11.923,2.396
						c0.478-0.324,0.026-1.106-0.455-0.778c-3.53,2.403-8.352,1.619-10.689-2.073c-2.318-3.664-1.022-8.151,2.283-10.684
						C71.637,29.086,71.188,28.302,70.727,28.655L70.727,28.655z"/>
				</g>
			</g>
			<g id="XMLID_4520_">
				<g>
					<path fill="#0AB6EA" d="M80.55,29.825c2.389,1.361,3.165,5.033,2.589,7.573c-0.557,2.449-2.324,4.271-4.531,5.361
						c-0.521,0.257-0.064,1.036,0.455,0.779c2.73-1.349,4.768-3.753,5.093-6.843c0.289-2.751-0.618-6.207-3.15-7.65
						C80.5,28.758,80.045,29.537,80.55,29.825L80.55,29.825z"/>
				</g>
			</g>
			<g id="XMLID_4519_">
				<g>
					<path fill="#0AB6EA" d="M81.222,29.143c-3.136-2.283-7.524-2.487-10.734-0.224c-0.471,0.332-0.021,1.115,0.455,0.779
						c2.975-2.098,6.921-1.89,9.824,0.223C81.236,30.264,81.688,29.48,81.222,29.143L81.222,29.143z"/>
				</g>
			</g>
			<g id="XMLID_4518_">
				<g>
					<path fill="#0AB6EA" d="M75.467,25.111c-0.293,0.765-0.586,1.53-0.879,2.295c-0.208,0.543,0.664,0.777,0.87,0.24
						c0.293-0.766,0.586-1.53,0.879-2.296C76.545,24.808,75.673,24.573,75.467,25.111L75.467,25.111z"/>
				</g>
			</g>
			<g id="XMLID_4517_">
				<g>
					<path fill="#0AB6EA" d="M78.881,25.831c0.013,0.749-0.027,1.492-0.119,2.235c-0.072,0.575,0.831,0.569,0.902,0
						c0.092-0.743,0.132-1.486,0.119-2.235C79.773,25.251,78.871,25.249,78.881,25.831L78.881,25.831z"/>
				</g>
			</g>
			<g id="XMLID_4516_">
				<g>
					<path fill="#0AB6EA" d="M69.162,27.188c0.623,0.536,1.246,1.072,1.869,1.608c0.438,0.377,1.079-0.259,0.638-0.638
						c-0.623-0.536-1.246-1.072-1.869-1.608C69.361,26.173,68.721,26.808,69.162,27.188L69.162,27.188z"/>
				</g>
			</g>
			<g id="XMLID_4515_">
				<g>
					<path fill="#0AB6EA" d="M66.511,29.746c0.521,0.724,1.128,1.379,1.631,2.117c0.325,0.477,1.107,0.025,0.778-0.456
						c-0.503-0.737-1.109-1.393-1.631-2.116C66.953,28.824,66.17,29.274,66.511,29.746L66.511,29.746z"/>
				</g>
			</g>
			<g id="XMLID_4514_">
				<g>
					<path fill="#0AB6EA" d="M64.595,35.603c0.824-0.21,1.64-0.445,2.448-0.708c0.549-0.18,0.314-1.051-0.24-0.87
						c-0.809,0.263-1.624,0.499-2.447,0.708C63.793,34.875,64.031,35.745,64.595,35.603L64.595,35.603z"/>
				</g>
			</g>
			<g id="XMLID_4513_">
				<g>
					<path fill="#0AB6EA" d="M64.995,39.062c0.763-0.006,1.524-0.025,2.286-0.057c0.578-0.024,0.581-0.927,0-0.902
						c-0.762,0.032-1.523,0.051-2.286,0.058C64.415,38.164,64.414,39.066,64.995,39.062L64.995,39.062z"/>
				</g>
			</g>
			<g id="XMLID_4512_">
				<g>
					<path fill="#0AB6EA" d="M68.673,41.271c-0.185,0.848-0.369,1.696-0.554,2.544c-0.123,0.566,0.746,0.808,0.87,0.24
						c0.185-0.849,0.369-1.696,0.554-2.545C69.666,40.944,68.797,40.702,68.673,41.271L68.673,41.271z"/>
				</g>
			</g>
			<g id="XMLID_4511_">
				<g>
					<path fill="#0AB6EA" d="M72.928,43.438c-0.628,0.612-1.256,1.224-1.884,1.836c-0.417,0.406,0.222,1.044,0.638,0.638
						c0.628-0.611,1.256-1.224,1.885-1.836C73.982,43.67,73.345,43.032,72.928,43.438L72.928,43.438z"/>
				</g>
			</g>
			<g id="XMLID_4510_">
				<g>
					<path fill="#0AB6EA" d="M75.766,44.345c0.533,0.653,1.006,1.347,1.428,2.076c0.291,0.503,1.07,0.049,0.779-0.455
						c-0.461-0.797-0.987-1.546-1.569-2.259C76.035,43.257,75.4,43.899,75.766,44.345L75.766,44.345z"/>
				</g>
			</g>
			<g id="XMLID_4509_">
				<g>
					<path fill="#0AB6EA" d="M79.981,42.49c0.052,0.982,0.052,1.965-0.001,2.947c-0.031,0.58,0.871,0.579,0.902,0
						c0.053-0.982,0.053-1.965,0.001-2.947C80.854,41.912,79.951,41.908,79.981,42.49L79.981,42.49z"/>
				</g>
			</g>
			<g id="XMLID_4508_">
				<g>
					<path fill="#0AB6EA" d="M82.226,41.283c0.771,0.247,1.561,0.348,2.358,0.467c0.568,0.086,0.813-0.783,0.24-0.869
						c-0.798-0.12-1.588-0.221-2.358-0.468C81.911,40.235,81.674,41.106,82.226,41.283L82.226,41.283z"/>
				</g>
			</g>
			<g id="XMLID_4507_">
				<g>
					<path fill="#0AB6EA" d="M83.457,36.777c0.687,0.546,1.344,1.124,1.975,1.733c0.418,0.404,1.057-0.233,0.639-0.638
						c-0.631-0.61-1.289-1.188-1.976-1.733C83.645,35.781,83.002,36.416,83.457,36.777L83.457,36.777z"/>
				</g>
			</g>
			<g id="XMLID_4506_">
				<g>
					<path fill="#0AB6EA" d="M85.961,32.213c-0.416,0.331-0.832,0.661-1.248,0.992c-0.207,0.165-0.416,0.33-0.623,0.496
						c-0.071,0.056-0.525,0.376-0.411,0.389c0.146,0.19,0.29,0.381,0.436,0.57c0.002-0.014,0.005-0.027,0.007-0.041
						c-0.186,0.105-0.37,0.21-0.555,0.315c0.01,0.002,0.02,0.003,0.03,0.005c0.567,0.102,0.812-0.768,0.239-0.87
						c-0.01-0.002-0.02-0.003-0.029-0.005c-0.222-0.04-0.512,0.058-0.556,0.314c-0.003,0.014-0.005,0.028-0.007,0.042
						c-0.053,0.311,0.123,0.538,0.435,0.571c0.448,0.047,0.969-0.59,1.282-0.84c0.546-0.434,1.092-0.867,1.638-1.302
						C87.053,32.489,86.41,31.855,85.961,32.213L85.961,32.213z"/>
				</g>
			</g>
			<g id="XMLID_4505_">
				<g>
					<path fill="#0AB6EA" d="M81.634,30.363c0.95,0.015,1.896-0.034,2.841-0.146c0.569-0.068,0.576-0.971,0-0.902
						c-0.945,0.112-1.891,0.161-2.841,0.147C81.053,29.453,81.053,30.355,81.634,30.363L81.634,30.363z"/>
				</g>
			</g>
			<g id="XMLID_4504_">
				<g>
					<path fill="#0AB6EA" d="M85.414,38.421c-0.09,0.906-0.419,1.73-0.938,2.476c-0.333,0.478,0.449,0.929,0.779,0.455
						c0.613-0.88,0.955-1.866,1.061-2.931C86.374,37.843,85.472,37.848,85.414,38.421L85.414,38.421z"/>
				</g>
			</g>
			<g id="XMLID_4503_">
				<g>
					<path fill="#0AB6EA" d="M77.755,46.706c1.021-0.045,1.987-0.317,2.874-0.827c0.502-0.29,0.049-1.07-0.456-0.779
						c-0.75,0.431-1.554,0.666-2.418,0.704C77.177,45.828,77.174,46.73,77.755,46.706L77.755,46.706z"/>
				</g>
			</g>
			<g id="XMLID_4502_">
				<g>
					<path fill="#0AB6EA" d="M84.291,30.082c0.871,0.487,1.194,1.425,1.492,2.322c0.182,0.548,1.053,0.313,0.869-0.24
						c-0.372-1.124-0.82-2.253-1.906-2.861C84.24,29.019,83.784,29.798,84.291,30.082L84.291,30.082z"/>
				</g>
			</g>
			<g id="XMLID_4501_">
				<g>
					<path fill="#0AB6EA" d="M68.238,44.411c0.915,0.755,1.922,1.329,3.037,1.731c0.547,0.197,0.783-0.675,0.24-0.87
						c-0.962-0.347-1.85-0.849-2.64-1.499C68.432,43.407,67.789,44.042,68.238,44.411L68.238,44.411z"/>
				</g>
			</g>
			<g id="XMLID_4500_">
				<g>
					<path fill="#0AB6EA" d="M64.795,35.186c-0.006-0.038-0.012-0.076-0.018-0.115c-0.074-0.512-0.885-0.374-0.886,0.12
						c-0.003,0.784,0.063,1.564,0.21,2.335c0.09,0.476,0.125,1.194,0.738,1.217c0.581,0.022,0.58-0.88,0-0.902
						c-0.023-0.001-0.046-0.001-0.069-0.002c0.13,0.074,0.26,0.148,0.39,0.223c-0.232-0.364-0.247-1.047-0.297-1.467
						c-0.054-0.466-0.07-0.934-0.069-1.403c-0.296,0.04-0.591,0.08-0.886,0.12c0.005,0.038,0.011,0.077,0.017,0.115
						C64.008,35.998,64.877,35.755,64.795,35.186L64.795,35.186z"/>
				</g>
			</g>
			<g id="XMLID_4499_">
				<g>
					<path fill="#0AB6EA" d="M67.204,29.507c0.442-0.956,0.939-2.038,2.029-2.368c0.555-0.168,0.318-1.039-0.239-0.87
						c-1.342,0.406-2.015,1.586-2.569,2.783C66.183,29.575,66.96,30.034,67.204,29.507L67.204,29.507z"/>
				</g>
			</g>
			<g id="XMLID_4498_">
				<g>
					<path fill="#0AB6EA" d="M76.078,25.471c1.022-0.026,1.982,0.255,2.95,0.554c0.556,0.171,0.794-0.699,0.239-0.87
						c-1.043-0.322-2.087-0.614-3.189-0.586C75.498,24.584,75.496,25.485,76.078,25.471L76.078,25.471z"/>
				</g>
			</g>
		</g>
		<g id="XMLID_4485_">
			<g id="XMLID_4496_">
				<g>
					<path fill="#0AB6EA" d="M23.045,28.313c1.654,1.003,3.352,1.933,5.005,2.937c0.498,0.302,0.952-0.479,0.456-0.779
						c-1.654-1.004-3.352-1.934-5.006-2.937C23.003,27.23,22.549,28.011,23.045,28.313L23.045,28.313z"/>
				</g>
			</g>
			<g id="XMLID_4495_">
				<g>
					<path fill="#0AB6EA" d="M23.21,27.442c-1.214-0.222-1.935,0.747-1.949,1.899c-0.021,1.733,0.396,3.699,0.771,5.388
						c0.127,0.566,0.996,0.327,0.87-0.239c-0.185-0.835-0.265-1.684-0.391-2.528c-0.071-0.483-0.884-3.895,0.459-3.649
						C23.537,28.416,23.781,27.547,23.21,27.442L23.21,27.442z"/>
				</g>
			</g>
			<g id="XMLID_4494_">
				<g>
					<path fill="#0AB6EA" d="M34.64,29.063c0.026-0.923-0.816-1.599-1.721-1.39c-0.688,0.159-1.356,0.759-1.933,1.14
						c-0.889,0.587-1.775,1.299-2.775,1.679c-0.538,0.204-0.305,1.077,0.239,0.87c0.823-0.313,1.521-0.799,2.252-1.281
						c0.37-0.244,0.739-0.488,1.109-0.732c0.134-0.089,1.96-1.469,1.926-0.285C33.721,29.645,34.623,29.645,34.64,29.063
						L34.64,29.063z"/>
				</g>
			</g>
			<g id="XMLID_4493_">
				<g>
					<path fill="#0AB6EA" d="M33.715,29.032c-0.041,1.854-0.756,3.967-1.871,5.46c-0.348,0.466,0.436,0.916,0.779,0.456
						c1.2-1.607,1.949-3.922,1.994-5.916C34.63,28.451,33.728,28.452,33.715,29.032L33.715,29.032z"/>
				</g>
			</g>
			<g id="XMLID_4492_">
				<g>
					<path fill="#0AB6EA" d="M31.982,35.104c1.241,1.196,2.587,2.278,3.788,3.517c0.405,0.417,1.042-0.221,0.638-0.639
						c-1.201-1.238-2.547-2.319-3.788-3.516C32.201,34.063,31.563,34.7,31.982,35.104L31.982,35.104z"/>
				</g>
			</g>
			<g id="XMLID_4491_">
				<g>
					<path fill="#0AB6EA" d="M35.701,38.561c0.992,1.602-0.898,1.57-1.484,1.578c-0.544,0.007-1.038-0.036-1.58-0.128
						c-1.004-0.169-2.001-0.397-2.999-0.597c-0.567-0.113-0.81,0.757-0.24,0.87c1.905,0.379,4.146,1.127,6.111,0.657
						c1.426-0.34,1.7-1.659,0.971-2.837C36.175,37.612,35.394,38.064,35.701,38.561L35.701,38.561z"/>
				</g>
			</g>
			<g id="XMLID_4490_">
				<g>
					<path fill="#0AB6EA" d="M29.077,39.759c-0.419,1.832-0.929,3.641-1.441,5.448c-0.159,0.559,0.712,0.798,0.87,0.239
						c0.513-1.807,1.022-3.616,1.441-5.447C30.076,39.434,29.207,39.192,29.077,39.759L29.077,39.759z"/>
				</g>
			</g>
			<g id="XMLID_4489_">
				<g>
					<path fill="#0AB6EA" d="M22.268,34.256c-1.273,0.685-2.547,1.37-3.819,2.055c-0.512,0.275-0.057,1.055,0.455,0.779
						c1.273-0.686,2.546-1.37,3.819-2.055C23.234,34.76,22.779,33.98,22.268,34.256L22.268,34.256z"/>
				</g>
			</g>
			<g id="XMLID_4488_">
				<g>
					<path fill="#0AB6EA" d="M18.354,36.363c-1.294,0.648-1.275,2.338-0.02,2.95c0.741,0.36,1.566,0.379,2.365,0.491
						c0.771,0.108,1.985,0.167,2.629,0.659c0.461,0.353,0.911-0.431,0.455-0.779c-0.679-0.519-1.817-0.594-2.63-0.72
						c-0.527-0.082-1.069-0.107-1.592-0.209c-0.269-0.052-0.581-0.105-0.813-0.255c-0.559-0.361-0.576-1.039,0.06-1.358
						C19.329,36.883,18.873,36.104,18.354,36.363L18.354,36.363z"/>
				</g>
			</g>
			<g id="XMLID_4487_">
				<g>
					<path fill="#0AB6EA" d="M23.146,40.29c0.567,1.769,1.214,3.5,1.91,5.222c0.215,0.531,1.088,0.299,0.87-0.24
						c-0.696-1.721-1.343-3.453-1.91-5.222C23.838,39.499,22.967,39.734,23.146,40.29L23.146,40.29z"/>
				</g>
			</g>
			<g id="XMLID_4486_">
				<g>
					<path fill="#0AB6EA" d="M27.606,45.347c-0.128,0.369-0.489,0.719-0.905,0.624c-0.387-0.087-0.574-0.397-0.771-0.711
						c-0.308-0.491-1.088-0.039-0.778,0.455c0.396,0.636,0.936,1.213,1.757,1.182c0.748-0.028,1.336-0.642,1.567-1.31
						C28.668,45.037,27.796,44.801,27.606,45.347L27.606,45.347z"/>
				</g>
			</g>
		</g>
	</g>
</g>
</svg>
