<?xml version="1.0" encoding="utf-8"?>
<!-- Generator: Adobe Illustrator 16.0.0, SVG Export Plug-In . SVG Version: 6.00 Build 0)  -->
<!DOCTYPE svg PUBLIC "-//W3C//DTD SVG 1.1//EN" "http://www.w3.org/Graphics/SVG/1.1/DTD/svg11.dtd">
<svg version="1.1" xmlns="http://www.w3.org/2000/svg" xmlns:xlink="http://www.w3.org/1999/xlink" x="0px" y="0px" width="104px"
	 height="95px" viewBox="0 0 104 95" enable-background="new 0 0 104 95" xml:space="preserve">
<g id="Layer_4">
</g>
<g id="Blue">
	<circle fill="#EEF0F1" cx="50.666" cy="45.5" r="43.114"/>
	<g>
		
			<ellipse transform="matrix(0.9999 -0.0102 0.0102 0.9999 -0.6431 0.3417)" fill="#FFE336" cx="33.229" cy="63.315" rx="1.846" ry="2.307"/>
		<g>
			<path fill="#FFE336" d="M30.856,51.265c-1.512-0.774-1.604-1.204-3.301-1.275c-0.484-0.02-0.451-0.107-0.922,0.01
				c-1.296,0.321-2.728,2.385-2.731,3.72c-0.005,1.334-0.036,1.86,0.95,2.759c1.18,1.074,1.884,2.154,3.479,2.172
				c1.594,0.019,3.192-0.59,4.349-1.688c0.441-0.418,0.827-0.921,0.982-1.508c0.09-0.338,0.1-0.694,0.06-1.041
				c-0.215-1.851-2.031-3.367-3.891-3.247"/>
		</g>
		<path id="XMLID_4739_" fill="#FFE336" d="M51.467,19.703c0,0-1.001-2.566-1.976-2.556c-0.975,0.01-1.594,0.852-1.798,1.271
			s-1.755,5.449-1.755,5.449l-5.291,0.193c0,0-1.595,0.573-1.166,1.753c0.431,1.179,4.283,3.369,4.427,3.854
			c0,0,0.281,0.275,0.148,0.904c-0.133,0.628-0.635,6.064-0.635,6.064s0.24,3.062,2.796,1.016s4.129-4.777,4.129-4.777
			s3.443,3.029,3.793,3.165s2.381,1.368,3.413,0.104c1.031-1.264-1.165-5.002-1.165-5.002l-0.506-1.875l2.557-1.906
			c0,0,2.551-2.533,2.543-3.299c-0.008-0.766-1.475-1.169-1.822-1.165c-0.349,0.003-5.357,0.402-5.357,0.402L51.467,19.703z"/>
		
			<ellipse id="XMLID_4738_" transform="matrix(0.9942 -0.1076 0.1076 0.9942 -6.5707 6.0397)" fill="#0AB6EA" stroke="#0AB6EA" stroke-width="0.9229" stroke-miterlimit="10" cx="52.682" cy="63.907" rx="1.307" ry="3.217"/>
		
			<ellipse id="XMLID_4737_" transform="matrix(0.9981 -0.0611 0.0611 0.9981 -3.6741 4.2538)" fill="#0AB6EA" stroke="#0AB6EA" stroke-width="0.9229" stroke-miterlimit="10" cx="67.682" cy="62.171" rx="0.879" ry="3.217"/>
		<g id="XMLID_4735_">
			<g>
				<path fill="#0AB6EA" d="M72.102,51.992c3.232,5.469,3.835,12.616,0.94,18.301c-3.802,7.468-12.037,9.768-19.862,8.753
					c-0.517-0.067-0.512,0.746,0,0.813c8.108,1.051,16.642-1.461,20.563-9.156c3.031-5.946,2.446-13.392-0.939-19.121
					C72.538,51.132,71.835,51.541,72.102,51.992L72.102,51.992z"/>
			</g>
		</g>
		<g id="XMLID_4733_">
			<g>
				<path fill="#0AB6EA" d="M53.197,79.042c-4.045-0.753-7.568-2.622-10.389-5.642c-2.827-3.026-3.726-6.959-4.269-10.938
					c-0.07-0.516-0.854-0.296-0.784,0.216c0.563,4.122,1.553,8.18,4.478,11.296c2.906,3.097,6.584,5.075,10.748,5.851
					C53.492,79.921,53.711,79.138,53.197,79.042L53.197,79.042z"/>
			</g>
		</g>
		<g id="XMLID_4731_">
			<g>
				<path fill="#0AB6EA" d="M68.027,59.507c0.081,0.5,0.887,5.592-0.089,5.635c-0.178,0.008-0.339-2.17-0.354-2.429
					c-0.021-0.39-0.033-0.781-0.04-1.171c-0.003-0.156-0.006-0.312-0.009-0.468c-0.119-0.515,0.101-0.886,0.658-1.111
					c0.274,0.444,0.978,0.037,0.702-0.411c-0.544-0.884-1.592-1.236-2.024-0.02c-0.319,0.9-0.157,2.021-0.112,2.948
					c0.044,0.916,0.074,2.013,0.395,2.879c0.353,0.951,1.247,1.016,1.667,0.065c0.807-1.829,0.293-4.253-0.01-6.133
					C68.729,58.775,67.944,58.994,68.027,59.507L68.027,59.507z"/>
			</g>
		</g>
		<g id="XMLID_4729_">
			<g>
				<path fill="#0AB6EA" d="M52.714,60.817c0.275,1.032,0.496,2.073,0.613,3.135c0.06,0.547,0.096,1.099,0.11,1.649
					c0.013,0.471,0.286,1.141-0.338,1.042c-0.763-0.12-0.968-1.716-1.099-2.391c-0.107-0.557-0.172-1.121-0.191-1.688
					c-0.001-0.172-0.002-0.345-0.004-0.517c-0.139-0.651,0.208-0.917,1.04-0.798c0.277,0.442,0.98,0.035,0.702-0.41
					c-0.58-0.927-1.735-1.471-2.347-0.229c-0.751,1.523-0.035,4.623,0.687,6.048c0.378,0.748,1.597,1.937,2.23,0.708
					c0.4-0.777,0.14-2.053,0.073-2.866c-0.106-1.322-0.353-2.619-0.693-3.9C53.364,60.096,52.579,60.31,52.714,60.817L52.714,60.817
					z"/>
			</g>
		</g>
		<g>
			<path d="M39.057,68.292c0,0,5.572,2.754,16.736,4.127c13.08,1.609,19.446-9.528,19.446-9.528S74.213,75.063,64.663,78.77
				c-9.549,3.706-18.834-1.737-21.631-4.478S39.057,68.292,39.057,68.292z"/>
			<g>
				<path fill="#0AB6EA" d="M38.852,68.644c2.112,1.029,4.444,1.688,6.707,2.278c5.119,1.336,10.925,2.702,16.218,1.759
					c5.535-0.986,10.968-4.676,13.814-9.584c-0.253-0.068-0.505-0.137-0.758-0.205c-0.529,5.902-3.757,12.311-9.201,15.009
					c-9.016,4.469-22.544-0.049-26.184-9.717c-0.182-0.485-0.969-0.275-0.783,0.216c3.681,9.78,16.676,14.461,26.106,10.761
					c6.466-2.537,10.273-9.575,10.874-16.27c0.037-0.415-0.565-0.535-0.757-0.205c-2.743,4.731-7.997,8.274-13.328,9.21
					c-5.246,0.921-11.006-0.487-16.08-1.837c-2.093-0.557-4.262-1.165-6.219-2.119C38.794,67.713,38.381,68.414,38.852,68.644z"/>
			</g>
		</g>
		<g>
			<path d="M74.232,56.438c0,0-4.471-2.724-15.718-2.609c-11.074,0.112-20.209,9.435-20.209,9.435s-3.291-18.574,10.85-22.262
				c14.729-3.842,18.285,2.93,21.082,5.671S74.232,56.438,74.232,56.438z"/>
			<g>
				<path fill="#0AB6EA" d="M74.438,56.087c-1.466-0.871-3.266-1.306-4.906-1.671c-4.497-1-9.53-1.437-14.091-0.734
					c-6.443,0.994-12.851,4.672-17.422,9.294c0.226,0.06,0.452,0.12,0.679,0.18c-0.997-5.752-0.249-12.908,3.604-17.488
					c3.735-4.441,10.577-5.742,16.114-5.368c4.111,0.278,7.32,2.072,10.058,5.06c2.972,3.243,4.603,6.833,5.367,11.187
					c0.09,0.514,0.873,0.296,0.783-0.216c-1.318-7.513-6.339-15.312-14.41-16.641c-5.313-0.875-12.22,0.144-16.541,3.532
					c-3.512,2.753-5.224,7.053-5.826,11.365c-0.401,2.876-0.432,5.914,0.066,8.786c0.054,0.309,0.48,0.381,0.68,0.179
					c4.307-4.355,10.311-7.856,16.341-8.962c4.61-0.846,9.823-0.403,14.382,0.611c1.574,0.351,3.308,0.755,4.712,1.59
					C74.478,57.057,74.888,56.354,74.438,56.087z"/>
			</g>
		</g>
		<g id="XMLID_4720_">
			<g id="XMLID_4727_">
				<g>
					<path fill="#0AB6EA" d="M69.581,15.712c9.412,5.217,11.428,18.635,3.328,25.995c-0.388,0.353,0.188,0.926,0.574,0.575
						c8.479-7.704,6.359-21.81-3.492-27.271C69.534,14.756,69.124,15.458,69.581,15.712L69.581,15.712z"/>
				</g>
			</g>
			<g id="XMLID_4725_">
				<g>
					<path fill="#0AB6EA" d="M29.043,16.798c-5.647,4.234-8.235,11.5-6.646,18.376c0.782,3.384,2.514,6.579,5.07,8.95
						c2.595,2.406,6.316,5.048,9.875,5.578c0.511,0.076,0.731-0.707,0.216-0.784c-3.143-0.467-6.482-2.799-8.893-4.822
						c-2.591-2.174-4.398-5.138-5.296-8.39c-1.844-6.681,0.514-14.029,6.084-18.206C29.866,17.189,29.462,16.484,29.043,16.798
						L29.043,16.798z"/>
				</g>
			</g>
			<g id="XMLID_4723_">
				<g>
					<path fill="#0AB6EA" d="M40.84,12.654c9.696-2.095,19.874-1.76,28.748,3.032c0.46,0.249,0.871-0.453,0.41-0.702
						c-9.067-4.897-19.462-5.256-29.374-3.114C40.112,11.981,40.329,12.765,40.84,12.654L40.84,12.654z"/>
				</g>
			</g>
			<g id="XMLID_4721_">
				<g>
					<path fill="#0AB6EA" d="M40.651,11.882c-4.144,1.035-8.143,2.439-11.635,4.95c-0.422,0.303-0.016,1.008,0.41,0.702
						c3.442-2.475,7.36-3.849,11.44-4.868C41.374,12.54,41.159,11.755,40.651,11.882L40.651,11.882z"/>
				</g>
			</g>
		</g>
		<g id="XMLID_4718_">
			<g>
				<path fill="#0AB6EA" d="M28.07,50.585c1.595,0.426,3.49,1.08,4.63,2.36c2.638,2.961-1.583,5.589-4.266,5.375
					c-2.012-0.161-3.76-1.543-4.105-3.58c-0.413-2.429,1.735-5.172,4.336-3.962c0.471,0.219,0.885-0.481,0.41-0.702
					c-2.433-1.132-5.016,0.481-5.543,3.031c-0.555,2.68,1.316,5.227,3.892,5.887c2.569,0.659,6.345-0.719,6.894-3.609
					c0.615-3.233-3.602-4.936-6.031-5.585C27.78,49.666,27.565,50.45,28.07,50.585L28.07,50.585z"/>
			</g>
		</g>
		<g id="XMLID_4716_">
			<g>
				<path fill="#0AB6EA" d="M32.88,61.914c0.805-0.16,1.689,0.275,1.91,1.103c0.25,0.933-0.393,1.914-1.366,1.999
					c-0.86,0.076-1.663-0.566-1.856-1.395c-0.227-0.969,0.46-1.5,1.304-1.709c0.507-0.125,0.292-0.909-0.216-0.784
					c-1.256,0.31-2.193,1.273-1.894,2.658c0.286,1.322,1.658,2.267,2.988,2c1.31-0.263,2.132-1.578,1.847-2.878
					c-0.293-1.334-1.652-2.032-2.933-1.777C32.151,61.232,32.368,62.016,32.88,61.914L32.88,61.914z"/>
			</g>
		</g>
		<g id="XMLID_4693_">
			<g id="XMLID_4714_">
				<g>
					<path fill="#0AB6EA" d="M49.951,17.72c1.153,1.891,2.392,3.729,3.545,5.62c0.272,0.446,0.976,0.038,0.702-0.41
						c-1.154-1.891-2.392-3.729-3.545-5.62C50.381,16.864,49.678,17.271,49.951,17.72L49.951,17.72z"/>
				</g>
			</g>
			<g id="XMLID_4712_">
				<g>
					<path fill="#0AB6EA" d="M50.427,17.085c-1.096-0.945-2.302-0.12-2.868,0.967c-0.407,0.782-0.633,1.678-0.908,2.511
						c-0.355,1.076-0.792,2.123-1.078,3.22C45.44,24.29,46.224,24.506,46.356,24c0.27-1.033,0.68-2.015,1.015-3.027
						c0.194-0.589,1.159-4.453,2.481-3.313C50.247,18,50.824,17.427,50.427,17.085L50.427,17.085z"/>
				</g>
			</g>
			<g id="XMLID_4710_">
				<g>
					<path fill="#0AB6EA" d="M61.153,24.624c0.52-0.936-0.03-2.028-1.084-2.211c-0.902-0.157-1.975,0.134-2.869,0.23
						c-1.108,0.118-2.222,0.311-3.336,0.183c-0.519-0.06-0.514,0.753,0,0.813c1.035,0.119,2.054-0.046,3.084-0.156
						c0.29-0.031,4.276-0.662,3.504,0.731C60.198,24.671,60.899,25.082,61.153,24.624L61.153,24.624z"/>
				</g>
			</g>
			<g id="XMLID_4708_">
				<g>
					<path fill="#0AB6EA" d="M60.445,24.169c-1.022,1.905-2.894,3.634-4.812,4.622c-0.465,0.24-0.055,0.941,0.41,0.702
						c2.041-1.052,4.016-2.885,5.104-4.913C61.395,24.119,60.693,23.708,60.445,24.169L60.445,24.169z"/>
				</g>
			</g>
			<g id="XMLID_4706_">
				<g>
					<path fill="#0AB6EA" d="M55.481,29.352c0.636,1.869,1.43,3.679,2.003,5.569c0.151,0.499,0.937,0.286,0.784-0.216
						c-0.574-1.89-1.367-3.7-2.004-5.569C56.098,28.643,55.313,28.854,55.481,29.352L55.481,29.352z"/>
				</g>
			</g>
			<g id="XMLID_4704_">
				<g>
					<path fill="#0AB6EA" d="M57.454,34.845c0.241,2.553-2.688,0.917-3.547,0.346c-1.131-0.754-2.179-1.7-3.241-2.548
						c-0.405-0.323-0.983,0.248-0.575,0.574c1.765,1.41,3.705,3.419,6.004,3.909c1.484,0.316,2.301-0.916,2.172-2.281
						C58.219,34.329,57.405,34.324,57.454,34.845L57.454,34.845z"/>
				</g>
			</g>
			<g id="XMLID_4702_">
				<g>
					<path fill="#0AB6EA" d="M50.069,32.67c-1.387,1.644-2.859,3.214-4.332,4.782c-0.357,0.381,0.217,0.957,0.575,0.575
						c1.473-1.567,2.944-3.138,4.332-4.782C50.979,32.847,50.408,32.27,50.069,32.67L50.069,32.67z"/>
				</g>
			</g>
			<g id="XMLID_4700_">
				<g>
					<path fill="#0AB6EA" d="M45.975,23.536c-1.655,0.027-3.311,0.054-4.966,0.081c-0.522,0.009-0.523,0.822,0,0.813
						c1.655-0.027,3.311-0.054,4.966-0.081C46.497,24.34,46.498,23.528,45.975,23.536L45.975,23.536z"/>
				</g>
			</g>
			<g id="XMLID_4698_">
				<g>
					<path fill="#0AB6EA" d="M40.886,23.622c-1.648-0.021-2.426,1.653-1.449,2.891c0.594,0.752,1.457,1.207,2.221,1.757
						c0.67,0.483,1.829,1.162,2.189,1.958c0.215,0.476,0.916,0.063,0.702-0.41c-0.36-0.794-1.335-1.389-2.004-1.896
						c-0.43-0.325-0.88-0.617-1.319-0.927c-0.346-0.244-0.696-0.485-0.985-0.797c-0.634-0.685-0.419-1.777,0.646-1.763
						C41.409,24.441,41.409,23.628,40.886,23.622L40.886,23.622z"/>
				</g>
			</g>
			<g id="XMLID_4696_">
				<g>
					<path fill="#0AB6EA" d="M43.779,30.024c-0.358,2.133-0.618,4.271-0.819,6.424c-0.048,0.521,0.765,0.518,0.813,0
						c0.194-2.081,0.443-4.146,0.79-6.208C44.649,29.729,43.866,29.509,43.779,30.024L43.779,30.024z"/>
				</g>
			</g>
			<g id="XMLID_4694_">
				<g>
					<path fill="#0AB6EA" d="M45.635,37.579c-0.306,0.295-0.818,0.496-1.229,0.302c-0.509-0.241-0.591-0.811-0.632-1.309
						c-0.043-0.518-0.855-0.522-0.813,0c0.067,0.824,0.292,1.706,1.137,2.065c0.719,0.306,1.569,0.04,2.11-0.483
						C46.586,37.79,46.011,37.215,45.635,37.579L45.635,37.579z"/>
				</g>
			</g>
		</g>
		<g id="XMLID_4691_">
			<g>
				<path fill="#0AB6EA" d="M56.955,17.37c-0.566,0.942-1.082,1.909-1.549,2.903c-0.221,0.47,0.411,0.853,0.702,0.41
					c0.053-0.081,0.106-0.162,0.16-0.243c0.288-0.438-0.415-0.846-0.702-0.41c-0.054,0.081-0.106,0.162-0.16,0.243
					c0.233,0.137,0.468,0.273,0.702,0.41c0.467-0.995,0.982-1.961,1.549-2.903C57.927,17.331,57.225,16.921,56.955,17.37
					L56.955,17.37z"/>
			</g>
		</g>
		<g id="XMLID_4689_">
			<g>
				<path fill="#0AB6EA" d="M44.566,21.15c-0.897-0.878-1.854-1.685-2.866-2.429c-0.422-0.31-0.828,0.395-0.41,0.702
					c0.955,0.702,1.854,1.472,2.701,2.302C44.365,22.091,44.94,21.517,44.566,21.15L44.566,21.15z"/>
			</g>
		</g>
		<g id="XMLID_4687_">
			<g>
				<path fill="#0AB6EA" d="M41.829,30.616c-1.047,0.321-2.068,0.704-3.072,1.139c-0.479,0.208-0.065,0.908,0.41,0.702
					c0.939-0.408,1.9-0.757,2.879-1.058C42.544,31.246,42.331,30.461,41.829,30.616L41.829,30.616z"/>
			</g>
		</g>
		<g id="XMLID_4685_">
			<g>
				<path fill="#0AB6EA" d="M62.499,31.193c-1.127-0.255-2.226-0.6-3.291-1.049c-0.476-0.201-0.891,0.499-0.41,0.702
					c1.133,0.478,2.286,0.859,3.485,1.131C62.792,32.092,63.01,31.309,62.499,31.193L62.499,31.193z"/>
			</g>
		</g>
		<g id="XMLID_347_">
			<g>
				<path fill="#0AB6EA" d="M50.075,36.408c0.084,0.766,0.13,1.533,0.14,2.304c0.006,0.523,0.819,0.524,0.813,0
					c-0.01-0.771-0.056-1.538-0.14-2.304C50.833,35.894,50.019,35.888,50.075,36.408L50.075,36.408z"/>
			</g>
		</g>
		<g>
			<path d="M75.306,54.552c0.611-1.252,1.391-2.421,2.313-3.466c0.417,0.592,0.834,1.184,1.25,1.776
				c0.082,0.116,0.167,0.25,0.139,0.388c-0.029,0.144-0.167,0.233-0.294,0.307c-1.292,0.756-2.584,1.512-3.876,2.269"/>
			<g>
				<path fill="#0AB6EA" d="M75.657,54.757c0.612-1.223,1.354-2.348,2.248-3.384c-0.213-0.027-0.426-0.055-0.639-0.082
					c0.313,0.444,0.625,0.888,0.938,1.332c0.494,0.703,0.178,0.657-0.504,1.056c-1.023,0.599-2.046,1.197-3.069,1.796
					c-0.451,0.264-0.043,0.967,0.41,0.702c0.754-0.441,1.508-0.882,2.262-1.323c0.539-0.316,1.459-0.659,1.881-1.136
					c0.24-0.272,0.275-0.537,0.145-0.875c-0.264-0.686-0.938-1.361-1.36-1.961c-0.14-0.198-0.454-0.296-0.638-0.083
					c-0.939,1.088-1.731,2.263-2.376,3.548C74.722,54.813,75.423,55.225,75.657,54.757L75.657,54.757z"/>
			</g>
		</g>
		<g>
			<path d="M74.202,54.381c0.541,0.501,0.873,1.495,1.139,2.17c0.314,0.797,0.551,1.625,0.703,2.467
				c0.227-0.435,0.771-0.566,1.24-0.708c0.561-0.17,1.1-0.417,1.595-0.731c0,0-1.888-2.092-2.819-3.006
				c-0.933-0.914-1.855-0.904-1.855-0.904L74.202,54.381z"/>
			<g>
				<path fill="#0AB6EA" d="M73.915,54.668c1.021,1.106,1.456,3.018,1.737,4.458c0.074,0.382,0.554,0.347,0.742,0.097
					c0.331-0.438,1.013-0.508,1.495-0.696c0.418-0.164,0.809-0.367,1.194-0.597c0.233-0.139,0.258-0.444,0.082-0.638
					c-0.741-0.821-1.489-1.638-2.257-2.434c-0.731-0.759-1.581-1.567-2.705-1.595c-0.22-0.005-0.405,0.191-0.406,0.407
					c0,0.237-0.001,0.474-0.002,0.711c-0.001,0.523,0.812,0.524,0.813,0c0.001-0.237,0.002-0.475,0.002-0.711
					c-0.135,0.135-0.271,0.271-0.406,0.406c1.123,0.027,1.979,1.189,2.682,1.937c0.575,0.612,1.143,1.23,1.705,1.854
					c0.028-0.212,0.056-0.425,0.083-0.638c-0.956,0.572-2.287,0.665-2.98,1.585c0.247,0.032,0.495,0.064,0.743,0.097
					c-0.312-1.593-0.814-3.59-1.947-4.817C74.134,53.708,73.561,54.284,73.915,54.668z"/>
			</g>
		</g>
	</g>
</g>
</svg>
