<?xml version="1.0" encoding="utf-8"?>
<!-- Generator: Adobe Illustrator 16.0.0, SVG Export Plug-In . SVG Version: 6.00 Build 0)  -->
<!DOCTYPE svg PUBLIC "-//W3C//DTD SVG 1.1//EN" "http://www.w3.org/Graphics/SVG/1.1/DTD/svg11.dtd">
<svg version="1.1" xmlns="http://www.w3.org/2000/svg" xmlns:xlink="http://www.w3.org/1999/xlink" x="0px" y="0px" width="104px"
	 height="95px" viewBox="0 0 104 95" enable-background="new 0 0 104 95" xml:space="preserve">
<g id="Layer_4">
</g>
<g id="Blue">
	<circle fill="#FFE336" cx="52" cy="47.5" r="43.114"/>
	<g>
		
			<ellipse transform="matrix(0.9999 -0.0102 0.0102 0.9999 -0.6634 0.3554)" fill="#FFE336" cx="34.563" cy="65.315" rx="1.846" ry="2.307"/>
		<g>
			<path fill="#FFFFFF" d="M32.189,53.265c-1.511-0.774-1.604-1.204-3.3-1.275c-0.484-0.021-0.452-0.107-0.923,0.009
				c-1.296,0.321-2.727,2.385-2.731,3.72c-0.004,1.334-0.035,1.86,0.951,2.759c1.179,1.074,1.883,2.154,3.478,2.172
				c1.595,0.019,3.193-0.59,4.35-1.688c0.441-0.418,0.827-0.921,0.982-1.508c0.089-0.338,0.099-0.694,0.059-1.041
				c-0.214-1.851-2.031-3.367-3.891-3.247"/>
		</g>
		<path id="XMLID_778_" fill="#FFFFFF" d="M52.8,21.703c0,0-1-2.566-1.975-2.556c-0.975,0.01-1.594,0.852-1.798,1.271
			c-0.205,0.42-1.755,5.449-1.755,5.449l-5.291,0.193c0,0-1.596,0.573-1.166,1.753c0.43,1.179,4.282,3.369,4.426,3.854
			c0,0,0.282,0.276,0.149,0.904c-0.134,0.628-0.635,6.064-0.635,6.064s0.239,3.062,2.796,1.016c2.555-2.045,4.129-4.777,4.129-4.777
			s3.443,3.029,3.793,3.165c0.349,0.136,2.381,1.369,3.413,0.104c1.031-1.264-1.165-5.002-1.165-5.002l-0.507-1.875l2.558-1.906
			c0,0,2.55-2.533,2.542-3.299c-0.007-0.766-1.474-1.168-1.822-1.165c-0.348,0.003-5.357,0.402-5.357,0.402L52.8,21.703z"/>
		
			<ellipse id="XMLID_775_" transform="matrix(0.9942 -0.1076 0.1076 0.9942 -6.7781 6.1949)" fill="#0AB6EA" stroke="#0AB6EA" stroke-width="0.9229" stroke-miterlimit="10" cx="54.016" cy="65.907" rx="1.307" ry="3.217"/>
		
			<ellipse id="XMLID_774_" transform="matrix(0.9981 -0.0611 0.0611 0.9981 -3.7918 4.3366)" fill="#0AB6EA" stroke="#0AB6EA" stroke-width="0.9229" stroke-miterlimit="10" cx="69.015" cy="64.171" rx="0.879" ry="3.217"/>
		<g id="XMLID_773_">
			<g>
				<path fill="#0AB6EA" d="M73.436,53.993c3.231,5.469,3.834,12.615,0.94,18.301c-3.803,7.468-12.038,9.767-19.862,8.753
					c-0.518-0.067-0.513,0.747,0,0.813c8.108,1.051,16.642-1.461,20.563-9.156c3.031-5.946,2.445-13.392-0.94-19.121
					C73.871,53.132,73.169,53.541,73.436,53.993L73.436,53.993z"/>
			</g>
		</g>
		<g id="XMLID_772_">
			<g>
				<path fill="#0AB6EA" d="M54.53,81.042c-4.045-0.753-7.568-2.622-10.389-5.641c-2.826-3.027-3.725-6.96-4.269-10.938
					c-0.07-0.516-0.854-0.296-0.783,0.216c0.563,4.122,1.553,8.18,4.478,11.296c2.906,3.097,6.584,5.076,10.747,5.851
					C54.825,81.921,55.045,81.139,54.53,81.042L54.53,81.042z"/>
			</g>
		</g>
		<g id="XMLID_764_">
			<g>
				<path fill="#0AB6EA" d="M69.361,61.507c0.08,0.5,0.886,5.592-0.089,5.635c-0.179,0.008-0.34-2.17-0.354-2.43
					c-0.022-0.39-0.033-0.781-0.041-1.171c-0.003-0.156-0.006-0.312-0.008-0.468c-0.119-0.515,0.101-0.886,0.658-1.111
					c0.274,0.444,0.977,0.037,0.702-0.41c-0.545-0.884-1.592-1.236-2.024-0.021c-0.32,0.9-0.158,2.021-0.113,2.948
					c0.045,0.916,0.074,2.013,0.396,2.879c0.353,0.951,1.247,1.016,1.667,0.065c0.807-1.829,0.292-4.253-0.011-6.132
					C70.062,60.776,69.278,60.994,69.361,61.507L69.361,61.507z"/>
			</g>
		</g>
		<g id="XMLID_763_">
			<g>
				<path fill="#0AB6EA" d="M54.048,62.817c0.274,1.032,0.496,2.073,0.612,3.136c0.061,0.547,0.097,1.099,0.111,1.649
					c0.013,0.471,0.286,1.141-0.339,1.042c-0.763-0.12-0.968-1.716-1.098-2.391c-0.107-0.557-0.173-1.122-0.191-1.689
					c-0.001-0.172-0.002-0.345-0.004-0.517c-0.139-0.651,0.208-0.917,1.04-0.798c0.276,0.442,0.98,0.035,0.702-0.41
					c-0.58-0.927-1.735-1.471-2.348-0.229c-0.751,1.523-0.035,4.623,0.687,6.049c0.378,0.747,1.597,1.937,2.23,0.708
					c0.4-0.777,0.14-2.053,0.074-2.866c-0.107-1.322-0.353-2.619-0.693-3.9C54.697,62.096,53.913,62.31,54.048,62.817L54.048,62.817
					z"/>
			</g>
		</g>
		<g>
			<path d="M40.391,70.292c0,0,5.572,2.754,16.735,4.127c13.081,1.609,19.447-9.528,19.447-9.528S75.547,77.064,65.997,80.77
				c-9.55,3.706-18.835-1.737-21.632-4.478C41.569,73.551,40.391,70.292,40.391,70.292z"/>
			<g>
				<path fill="#0AB6EA" d="M40.186,70.644c2.111,1.029,4.443,1.688,6.706,2.279c5.119,1.336,10.926,2.702,16.219,1.759
					c5.535-0.986,10.968-4.676,13.813-9.584c-0.252-0.068-0.505-0.137-0.757-0.205c-0.53,5.902-3.758,12.311-9.201,15.009
					c-9.017,4.469-22.545-0.048-26.184-9.717c-0.183-0.485-0.969-0.275-0.784,0.216c3.682,9.78,16.677,14.46,26.107,10.761
					c6.466-2.537,10.272-9.575,10.874-16.27c0.037-0.415-0.566-0.535-0.757-0.205c-2.743,4.731-7.998,8.274-13.329,9.21
					c-5.246,0.921-11.005-0.487-16.079-1.837c-2.093-0.557-4.263-1.166-6.219-2.119C40.127,69.714,39.715,70.414,40.186,70.644z"/>
			</g>
		</g>
		<g>
			<path d="M75.565,58.438c0,0-4.47-2.724-15.717-2.609c-11.074,0.112-20.21,9.435-20.21,9.435s-3.29-18.574,10.85-22.262
				c14.729-3.841,18.286,2.931,21.083,5.671C74.368,51.414,75.565,58.438,75.565,58.438z"/>
			<g>
				<path fill="#0AB6EA" d="M75.771,58.087c-1.466-0.871-3.267-1.306-4.907-1.671c-4.496-1-9.529-1.438-14.091-0.734
					c-6.442,0.993-12.851,4.671-17.422,9.294c0.227,0.06,0.453,0.119,0.679,0.179c-0.997-5.752-0.249-12.907,3.604-17.488
					c3.735-4.441,10.577-5.742,16.114-5.368c4.111,0.278,7.32,2.072,10.059,5.06c2.971,3.243,4.603,6.833,5.366,11.187
					c0.091,0.515,0.874,0.296,0.784-0.216c-1.318-7.513-6.34-15.312-14.411-16.641c-5.312-0.875-12.219,0.144-16.54,3.532
					c-3.512,2.753-5.224,7.053-5.826,11.365c-0.402,2.876-0.432,5.914,0.066,8.786c0.053,0.309,0.479,0.381,0.68,0.18
					c4.307-4.355,10.31-7.856,16.34-8.963c4.61-0.846,9.824-0.403,14.382,0.611c1.574,0.35,3.308,0.754,4.712,1.589
					C75.812,59.057,76.221,58.354,75.771,58.087z"/>
			</g>
		</g>
		<g id="XMLID_756_">
			<g id="XMLID_761_">
				<g>
					<path fill="#0AB6EA" d="M70.915,17.712c9.411,5.217,11.428,18.634,3.328,25.994c-0.389,0.353,0.188,0.926,0.574,0.575
						c8.479-7.704,6.359-21.81-3.492-27.271C70.867,16.757,70.457,17.458,70.915,17.712L70.915,17.712z"/>
				</g>
			</g>
			<g id="XMLID_760_">
				<g>
					<path fill="#0AB6EA" d="M30.376,18.798c-5.646,4.234-8.234,11.501-6.646,18.376c0.782,3.384,2.514,6.579,5.07,8.95
						c2.596,2.406,6.316,5.048,9.875,5.578c0.512,0.076,0.732-0.707,0.217-0.784c-3.144-0.467-6.482-2.799-8.893-4.823
						c-2.591-2.174-4.398-5.138-5.296-8.39c-1.844-6.682,0.513-14.03,6.083-18.206C31.2,19.19,30.795,18.484,30.376,18.798
						L30.376,18.798z"/>
				</g>
			</g>
			<g id="XMLID_758_">
				<g>
					<path fill="#0AB6EA" d="M42.173,14.655c9.697-2.096,19.875-1.761,28.749,3.031c0.46,0.249,0.871-0.453,0.41-0.702
						c-9.068-4.896-19.462-5.256-29.375-3.113C41.446,13.981,41.662,14.765,42.173,14.655L42.173,14.655z"/>
				</g>
			</g>
			<g id="XMLID_757_">
				<g>
					<path fill="#0AB6EA" d="M41.985,13.882c-4.144,1.036-8.143,2.44-11.636,4.95c-0.421,0.303-0.015,1.008,0.41,0.702
						c3.443-2.474,7.36-3.849,11.44-4.868C42.708,14.54,42.493,13.755,41.985,13.882L41.985,13.882z"/>
				</g>
			</g>
		</g>
		<g id="XMLID_755_">
			<g>
				<path fill="#0AB6EA" d="M29.404,52.585c1.595,0.426,3.489,1.08,4.63,2.36c2.637,2.961-1.584,5.589-4.266,5.375
					c-2.012-0.161-3.76-1.543-4.106-3.579c-0.413-2.429,1.735-5.172,4.337-3.962c0.471,0.22,0.885-0.481,0.41-0.702
					c-2.434-1.132-5.016,0.481-5.543,3.031c-0.555,2.68,1.316,5.227,3.892,5.887c2.568,0.659,6.344-0.719,6.894-3.609
					c0.615-3.233-3.602-4.936-6.031-5.585C29.114,51.667,28.898,52.45,29.404,52.585L29.404,52.585z"/>
			</g>
		</g>
		<g id="XMLID_754_">
			<path fill="#FFFFFF" d="M34.105,63.522c0.854-0.22,1.83,0.205,2.25,0.98c0.419,0.774,0.243,1.825-0.407,2.419
				c-0.649,0.595-1.711,0.677-2.445,0.19c-0.304-0.201-0.547-0.482-0.748-0.784c-0.27-0.403-0.354-0.878-0.272-1.356
				c0.138-0.806,0.678-1.249,1.614-1.452"/>
			<g>
				<path fill="#0AB6EA" d="M34.214,63.914c0.805-0.16,1.689,0.275,1.91,1.103c0.249,0.933-0.394,1.914-1.367,1.999
					c-0.86,0.076-1.663-0.566-1.855-1.395c-0.227-0.969,0.46-1.5,1.303-1.709c0.508-0.125,0.293-0.909-0.216-0.784
					c-1.256,0.311-2.192,1.273-1.894,2.658c0.287,1.322,1.658,2.268,2.988,2c1.311-0.263,2.133-1.577,1.847-2.878
					c-0.293-1.334-1.651-2.032-2.933-1.777C33.485,63.232,33.702,64.016,34.214,63.914L34.214,63.914z"/>
			</g>
		</g>
		<g id="XMLID_740_">
			<g id="XMLID_752_">
				<g>
					<path fill="#0AB6EA" d="M51.284,19.72c1.154,1.891,2.393,3.729,3.546,5.62c0.272,0.446,0.976,0.038,0.701-0.411
						c-1.153-1.891-2.392-3.729-3.545-5.619C51.714,18.864,51.012,19.272,51.284,19.72L51.284,19.72z"/>
				</g>
			</g>
			<g id="XMLID_751_">
				<g>
					<path fill="#0AB6EA" d="M51.761,19.085c-1.096-0.945-2.303-0.121-2.869,0.967c-0.407,0.782-0.633,1.678-0.908,2.511
						c-0.355,1.076-0.791,2.123-1.078,3.22c-0.132,0.507,0.652,0.723,0.784,0.216c0.27-1.033,0.68-2.015,1.015-3.027
						c0.195-0.588,1.16-4.453,2.482-3.313C51.58,20,52.157,19.428,51.761,19.085L51.761,19.085z"/>
				</g>
			</g>
			<g id="XMLID_750_">
				<g>
					<path fill="#0AB6EA" d="M62.487,26.624c0.519-0.936-0.031-2.028-1.084-2.211c-0.902-0.157-1.975,0.135-2.869,0.23
						c-1.109,0.118-2.223,0.311-3.336,0.183c-0.519-0.06-0.514,0.754,0,0.813c1.034,0.119,2.054-0.046,3.083-0.156
						c0.29-0.031,4.277-0.663,3.504,0.731C61.531,26.671,62.233,27.082,62.487,26.624L62.487,26.624z"/>
				</g>
			</g>
			<g id="XMLID_749_">
				<g>
					<path fill="#0AB6EA" d="M61.779,26.17c-1.022,1.905-2.894,3.633-4.813,4.622c-0.465,0.24-0.054,0.941,0.411,0.702
						c2.041-1.052,4.015-2.885,5.104-4.913C62.729,26.119,62.026,25.708,61.779,26.17L61.779,26.17z"/>
				</g>
			</g>
			<g id="XMLID_748_">
				<g>
					<path fill="#0AB6EA" d="M56.815,31.352c0.635,1.869,1.43,3.679,2.003,5.569c0.151,0.499,0.937,0.286,0.784-0.216
						c-0.574-1.89-1.368-3.7-2.004-5.569C57.432,30.643,56.646,30.854,56.815,31.352L56.815,31.352z"/>
				</g>
			</g>
			<g id="XMLID_747_">
				<g>
					<path fill="#0AB6EA" d="M58.788,36.845c0.24,2.553-2.689,0.917-3.547,0.346c-1.132-0.754-2.18-1.7-3.242-2.548
						c-0.404-0.323-0.983,0.248-0.574,0.575c1.765,1.409,3.705,3.419,6.004,3.909c1.484,0.316,2.301-0.915,2.172-2.281
						C59.552,36.329,58.739,36.324,58.788,36.845L58.788,36.845z"/>
				</g>
			</g>
			<g id="XMLID_746_">
				<g>
					<path fill="#0AB6EA" d="M51.403,34.67c-1.388,1.644-2.859,3.214-4.332,4.782c-0.357,0.381,0.216,0.957,0.575,0.575
						c1.472-1.567,2.944-3.138,4.331-4.782C52.313,34.847,51.741,34.27,51.403,34.67L51.403,34.67z"/>
				</g>
			</g>
			<g id="XMLID_745_">
				<g>
					<path fill="#0AB6EA" d="M47.308,25.536c-1.654,0.027-3.311,0.054-4.965,0.081c-0.522,0.008-0.524,0.821,0,0.813
						c1.654-0.027,3.311-0.054,4.965-0.081C47.83,26.34,47.832,25.528,47.308,25.536L47.308,25.536z"/>
				</g>
			</g>
			<g id="XMLID_744_">
				<g>
					<path fill="#0AB6EA" d="M42.22,25.622c-1.648-0.021-2.426,1.653-1.449,2.891c0.594,0.752,1.456,1.207,2.22,1.757
						c0.671,0.483,1.829,1.162,2.19,1.958c0.215,0.476,0.916,0.063,0.701-0.41c-0.359-0.794-1.334-1.389-2.004-1.896
						c-0.43-0.325-0.879-0.616-1.318-0.927c-0.346-0.244-0.697-0.485-0.986-0.797c-0.633-0.685-0.418-1.777,0.646-1.763
						C42.742,26.441,42.743,25.628,42.22,25.622L42.22,25.622z"/>
				</g>
			</g>
			<g id="XMLID_743_">
				<g>
					<path fill="#0AB6EA" d="M45.113,32.024c-0.358,2.133-0.618,4.271-0.819,6.424c-0.049,0.521,0.765,0.517,0.813,0
						c0.194-2.081,0.443-4.146,0.79-6.208C45.983,31.729,45.2,31.509,45.113,32.024L45.113,32.024z"/>
				</g>
			</g>
			<g id="XMLID_742_">
				<g>
					<path fill="#0AB6EA" d="M46.968,39.579c-0.305,0.295-0.818,0.496-1.228,0.302c-0.51-0.241-0.592-0.811-0.632-1.309
						c-0.043-0.518-0.855-0.522-0.813,0c0.066,0.824,0.292,1.706,1.136,2.065c0.719,0.306,1.57,0.04,2.111-0.483
						C47.919,39.79,47.345,39.215,46.968,39.579L46.968,39.579z"/>
				</g>
			</g>
		</g>
		<g id="XMLID_739_">
			<g>
				<path fill="#0AB6EA" d="M58.288,19.37c-0.565,0.941-1.082,1.908-1.549,2.903c-0.22,0.471,0.411,0.853,0.702,0.411
					c0.054-0.082,0.106-0.163,0.161-0.244c0.288-0.438-0.416-0.846-0.703-0.41c-0.053,0.081-0.105,0.162-0.16,0.243
					c0.234,0.137,0.469,0.274,0.702,0.411c0.467-0.995,0.983-1.962,1.549-2.903C59.261,19.331,58.558,18.922,58.288,19.37
					L58.288,19.37z"/>
			</g>
		</g>
		<g id="XMLID_738_">
			<g>
				<path fill="#0AB6EA" d="M45.899,23.15c-0.896-0.878-1.854-1.685-2.865-2.429c-0.422-0.31-0.828,0.395-0.411,0.702
					c0.956,0.703,1.854,1.472,2.702,2.302C45.698,24.091,46.274,23.517,45.899,23.15L45.899,23.15z"/>
			</g>
		</g>
		<g id="XMLID_737_">
			<g>
				<path fill="#0AB6EA" d="M43.163,32.616c-1.047,0.321-2.068,0.704-3.073,1.139c-0.479,0.208-0.065,0.908,0.411,0.702
					c0.938-0.408,1.899-0.757,2.878-1.058C43.878,33.246,43.665,32.461,43.163,32.616L43.163,32.616z"/>
			</g>
		</g>
		<g id="XMLID_736_">
			<g>
				<path fill="#0AB6EA" d="M63.833,33.193c-1.127-0.255-2.227-0.599-3.291-1.049c-0.477-0.201-0.891,0.499-0.41,0.702
					c1.132,0.478,2.285,0.859,3.484,1.131C64.126,34.092,64.343,33.309,63.833,33.193L63.833,33.193z"/>
			</g>
		</g>
		<g id="XMLID_734_">
			<g>
				<path fill="#0AB6EA" d="M51.409,38.408c0.083,0.766,0.129,1.533,0.139,2.304c0.007,0.522,0.819,0.524,0.813,0
					c-0.01-0.771-0.056-1.538-0.139-2.304C52.166,37.894,51.353,37.888,51.409,38.408L51.409,38.408z"/>
			</g>
		</g>
		<g>
			<path d="M76.64,56.552c0.611-1.252,1.391-2.421,2.313-3.466c0.416,0.592,0.833,1.184,1.25,1.776
				c0.081,0.116,0.167,0.25,0.139,0.388c-0.029,0.144-0.168,0.233-0.294,0.307c-1.292,0.756-2.584,1.513-3.876,2.269"/>
			<g>
				<path fill="#0AB6EA" d="M76.99,56.757c0.613-1.223,1.354-2.348,2.249-3.384c-0.213-0.027-0.426-0.055-0.639-0.082
					c0.313,0.444,0.625,0.888,0.938,1.332c0.494,0.703,0.178,0.657-0.504,1.056c-1.022,0.599-2.046,1.197-3.068,1.795
					c-0.451,0.264-0.043,0.967,0.41,0.702c0.754-0.441,1.508-0.882,2.261-1.323c0.54-0.316,1.459-0.658,1.881-1.136
					c0.24-0.272,0.276-0.537,0.146-0.875c-0.265-0.686-0.938-1.361-1.36-1.961c-0.14-0.198-0.454-0.296-0.639-0.082
					c-0.938,1.087-1.731,2.262-2.375,3.548C76.056,56.813,76.756,57.226,76.99,56.757L76.99,56.757z"/>
			</g>
		</g>
		<g>
			<path d="M75.536,56.381c0.541,0.501,0.873,1.495,1.139,2.17c0.314,0.797,0.551,1.625,0.703,2.467
				c0.227-0.434,0.771-0.566,1.239-0.708c0.562-0.17,1.101-0.417,1.595-0.731c0,0-1.887-2.092-2.818-3.005
				c-0.933-0.914-1.855-0.904-1.855-0.904L75.536,56.381z"/>
			<g>
				<path fill="#0AB6EA" d="M75.249,56.668c1.021,1.106,1.455,3.017,1.736,4.458c0.075,0.382,0.555,0.347,0.743,0.097
					c0.33-0.438,1.013-0.508,1.494-0.696c0.418-0.164,0.81-0.366,1.194-0.597c0.234-0.14,0.258-0.444,0.082-0.639
					c-0.74-0.821-1.488-1.638-2.256-2.434c-0.731-0.759-1.582-1.567-2.705-1.594c-0.221-0.005-0.406,0.19-0.406,0.406
					c-0.001,0.237-0.002,0.474-0.002,0.711c-0.002,0.523,0.811,0.524,0.813,0c0.001-0.237,0.001-0.474,0.002-0.711
					c-0.136,0.135-0.271,0.271-0.406,0.406c1.123,0.027,1.979,1.189,2.682,1.937c0.575,0.612,1.143,1.23,1.705,1.854
					c0.027-0.212,0.055-0.425,0.082-0.638c-0.955,0.572-2.286,0.665-2.98,1.585c0.248,0.032,0.496,0.065,0.743,0.097
					c-0.312-1.593-0.813-3.59-1.946-4.816C75.468,55.708,74.894,56.285,75.249,56.668z"/>
			</g>
		</g>
	</g>
</g>
</svg>
